<?xml version="1.0" encoding="UTF-8"?>
<svg width="185px" height="104px" viewBox="0 0 185 104" version="1.1" xmlns="http://www.w3.org/2000/svg" xmlns:xlink="http://www.w3.org/1999/xlink">
    <title>svg/achievements</title>
    <g id="svg/achievements" stroke="none" stroke-width="1" fill="none" fill-rule="evenodd">
        <rect id="Rectangle" fill="#00A676" x="96" y="21" width="67" height="67" rx="1"></rect>
        <g id="doctor-1" transform="translate(108.000000, 30.000000)">
            <g id="hair-cap" transform="translate(4.000000, 0.000000)">
                <path d="M18,0 C27.945,0 36,7.16 36,16 L32.625,16 L31.5,16 L27,16 L22.5,16 L18,16 L13.5,16 L9,16 L4.5,16 L3.375,16 L0,16 C0,7.16 8.055,0 18,0 Z" id="Path" fill="#965353" fill-rule="nonzero"></path>
                <rect id="Rectangle" fill="#844747" x="0" y="16" width="36" height="41"></rect>
                <path d="M17.7153306,0 C17.1359351,0 16.5645392,0.029 16,0.076 C25.2954688,0.833 32.5681961,7.667 32.5681961,16 L32.5716245,16 L36,16 C36,7.16 27.8176104,0 17.7153306,0 Z" id="Path" fill="#844747" fill-rule="nonzero"></path>
            </g>
            <g id="face-white" transform="translate(7.000000, 16.000000)" fill-rule="nonzero">
                <path d="M30,0 L30,6.99 C30,13.14 26.3,18.43 21,20.74 C19.16,21.54 17.13,21.99 15,21.99 C12.87,21.99 10.84,21.54 9,20.74 C3.7,18.43 0,13.14 0,6.99 L0,0 L30,0 Z" id="Path" fill="#EAC6BB"></path>
                <path d="M25.996,0 L25.996,6.99 C25.996,13.14 22.296,18.43 16.996,20.74 C15.744,21.285 14.398,21.651 12.998,21.84 C13.655,21.928 14.32,21.99 15,21.99 C17.13,21.99 19.16,21.54 21,20.74 C26.3,18.43 30,13.14 30,6.99 L30,0 L25.996,0 Z" id="Path" fill="#D3B1A9"></path>
                <path d="M21,20.74 L21,33.99 L9,33.99 L9,20.74 C10.84,21.54 12.87,21.99 15,21.99 C17.13,21.99 19.16,21.54 21,20.74 Z" id="Path" fill="#EAC6BB"></path>
            </g>
            <g id="body-coat" transform="translate(0.000000, 37.600000)">
                <path d="M44,12.4 L44,19.4 C44,19.95 43.56,20.4 43,20.4 L1,20.4 C0.45,20.4 0,19.95 0,19.4 L0,12.4 C0,7.98 3.58,4.4 8,4.4 L15,4.4 L29,4.4 L36,4.4 C40.42,4.4 44,7.98 44,12.4 Z" id="Path" fill="#FCBA04" fill-rule="nonzero"></path>
                <path d="M22,1.84615385 C24.88,1.84615385 27.6,1.18461538 30,0 L30,4.92307692 L26.8,8 L22,6.46153846 L17.2,8 L14,4.92307692 L14,0 C16.4,1.18461538 19.12,1.84615385 22,1.84615385 Z" id="Path" fill="#FFD971" fill-rule="nonzero"></path>
                <path d="M36,4.4 L31.996,4.4 C36.416,4.4 39.996,7.98 39.996,12.4 L39.996,19.4 C39.996,19.95 39.556,20.4 38.996,20.4 L43,20.4 C43.56,20.4 44,19.95 44,19.4 L44,12.4 C44,7.98 40.42,4.4 36,4.4 Z" id="Path" fill="#DAA000" fill-rule="nonzero"></path>
                <circle id="Oval" fill="#FFD971" cx="22" cy="9.4" r="1"></circle>
            </g>
        </g>
        <rect id="Rectangle" fill="#E8E9EB" x="82" y="25" width="20" height="20" rx="1"></rect>
        <rect id="Rectangle" fill="#E8E9EB" x="60" y="25" width="20" height="20" rx="1"></rect>
        <rect id="Rectangle" fill="#E8E9EB" x="16" y="25" width="20" height="20" rx="1"></rect>
        <path d="M68.0674651,40.257538 L76.61634,31.7424484 C76.7499719,31.6093729 76.7499719,31.3935619 76.61634,31.2604586 L75.8098707,30.4571514 C75.6762389,30.3240758 75.4595988,30.3240758 75.3259669,30.4571514 L67.8255132,37.9279388 L65.0695892,35.1829153 C64.9359574,35.049812 64.7193173,35.049812 64.5856576,35.1829153 L63.7791883,35.9861947 C63.6455564,36.1192981 63.6455564,36.3350813 63.7791883,36.4682123 L67.5835613,40.257538 C67.7171653,40.3906136 67.9338054,40.3906136 68.0674651,40.257538 Z" id="check-copy-2" fill="#00A676" fill-rule="nonzero"></path>
        <path d="M24.0674651,40.257538 L32.61634,31.7424484 C32.7499719,31.6093729 32.7499719,31.3935619 32.61634,31.2604586 L31.8098707,30.4571514 C31.6762389,30.3240758 31.4595988,30.3240758 31.3259669,30.4571514 L23.8255132,37.9279388 L21.0695892,35.1829153 C20.9359574,35.049812 20.7193173,35.049812 20.5856576,35.1829153 L19.7791883,35.9861947 C19.6455564,36.1192981 19.6455564,36.3350813 19.7791883,36.4682123 L23.5835613,40.257538 C23.7171653,40.3906136 23.9338054,40.3906136 24.0674651,40.257538 Z" id="check-copy-2" fill="#00A676" fill-rule="nonzero"></path>
        <rect id="Rectangle" fill="#E8E9EB" x="38" y="25" width="20" height="20" rx="1"></rect>
        <rect id="Rectangle" fill="#E8E9EB" x="82" y="47" width="20" height="20" rx="1"></rect>
        <rect id="Rectangle" fill="#E8E9EB" x="60" y="47" width="20" height="20" rx="1"></rect>
        <rect id="Rectangle" fill="#E8E9EB" x="38" y="47" width="20" height="20" rx="1"></rect>
        <path d="M46.0674651,61.257538 L54.61634,52.7424484 C54.7499719,52.6093729 54.7499719,52.3935619 54.61634,52.2604586 L53.8098707,51.4571514 C53.6762389,51.3240758 53.4595988,51.3240758 53.3259669,51.4571514 L45.8255132,58.9279388 L43.0695892,56.1829153 C42.9359574,56.049812 42.7193173,56.049812 42.5856576,56.1829153 L41.7791883,56.9861947 C41.6455564,57.1192981 41.6455564,57.3350813 41.7791883,57.4682123 L45.5835613,61.257538 C45.7171653,61.3906136 45.9338054,61.3906136 46.0674651,61.257538 Z" id="check-copy" fill="#00A676" fill-rule="nonzero"></path>
        <path d="M68.0674651,62.257538 L76.61634,53.7424484 C76.7499719,53.6093729 76.7499719,53.3935619 76.61634,53.2604586 L75.8098707,52.4571514 C75.6762389,52.3240758 75.4595988,52.3240758 75.3259669,52.4571514 L67.8255132,59.9279388 L65.0695892,57.1829153 C64.9359574,57.049812 64.7193173,57.049812 64.5856576,57.1829153 L63.7791883,57.9861947 C63.6455564,58.1192981 63.6455564,58.3350813 63.7791883,58.4682123 L67.5835613,62.257538 C67.7171653,62.3906136 67.9338054,62.3906136 68.0674651,62.257538 Z" id="check" fill="#00A676" fill-rule="nonzero"></path>
    </g>
</svg>