<svg height="104" viewBox="0 0 185 104" width="185" xmlns="http://www.w3.org/2000/svg"><g fill="none" fill-rule="evenodd"><path d="m0 0h185v104h-185z" fill="#fafbfb"/><rect fill="#00a676" height="67" rx="1" width="67" x="22" y="21"/><g fill="#e8e9eb"><rect height="20" rx="1" width="20" x="83" y="23"/><rect height="20" rx="1" width="20" x="105" y="23"/><rect height="20" rx="1" width="20" x="127" y="23"/><rect height="20" rx="1" width="20" x="149" y="23"/><rect height="20" rx="1" width="20" x="83" y="45"/><rect height="20" rx="1" width="20" x="105" y="45"/><rect height="20" rx="1" width="20" x="127" y="45"/></g><path d="m115.618148 60.7408451 5.290914-5.3516819c1.539445-1.5562109 1.449191-4.1329544-.267958-5.5686579-1.498403-1.2508489-3.726876-1.0258687-5.102235.3642947l-.538667.5437347-.538667-.5437347c-1.372635-1.3901634-3.603832-1.6151436-5.102235-.3642947-1.717149 1.4357035-1.807403 4.012447-.270709 5.5686579l5.290914 5.3516819c.341791.3455399.896853.3455399 1.238643 0z" fill="#f06543" fill-rule="nonzero"/><path d="m159.618148 38.7408451 5.290914-5.3516819c1.539445-1.5562109 1.449191-4.1329544-.267958-5.5686579-1.498403-1.2508489-3.726876-1.0258687-5.102235.3642947l-.538667.5437347-.538667-.5437347c-1.372635-1.3901634-3.603832-1.6151436-5.102235-.3642947-1.717149 1.4357035-1.807403 4.012447-.270709 5.5686579l5.290914 5.3516819c.341791.3455399.896853.3455399 1.238643 0z" fill="#f06543" fill-rule="nonzero"/><g transform="translate(31 30)"><path d="m25 0c9.945 0 18 7.16 18 16h-3.375-1.125-4.5-4.5-4.5-4.5-4.5-4.5-1.125-3.375c0-8.84 8.055-16 18-16z" fill="#965353" fill-rule="nonzero"/><g fill="#844747"><path d="m7 16h36v41h-36z" fill-rule="evenodd"/><path d="m24.7153306 0c-.5793955 0-1.1507914.029-1.7153306.076 9.2954688.757 16.5681961 7.591 16.5681961 15.924h.0034284 3.4283755c0-8.84-8.1823896-16-18.2846694-16z" fill-rule="nonzero"/></g></g><g fill-rule="nonzero" transform="translate(31 46)"><path d="m40 0v6.99c0 6.15-3.7 11.44-9 13.75-1.84.8-3.87 1.25-6 1.25s-4.16-.45-6-1.25c-5.3-2.31-9-7.6-9-13.75v-6.99z" fill="#eac6bb"/><path d="m35.996 0v6.99c0 6.15-3.7 11.44-9 13.75-1.252.545-2.598.911-3.998 1.1.657.088 1.322.15 2.002.15 2.13 0 4.16-.45 6-1.25 5.3-2.31 9-7.6 9-13.75v-6.99z" fill="#d3b1a9"/><path d="m31 20.74v13.25h-12v-13.25c1.84.8 3.87 1.25 6 1.25s4.16-.45 6-1.25z" fill="#eac6bb"/></g><g fill-rule="nonzero" transform="translate(31 65)"><path d="m47 15v7c0 .55-.44 1-1 1h-42c-.55 0-1-.45-1-1v-7c0-4.42 3.58-8 8-8h7 1.0341628l5.9658372 15 5.9628547-15h1.0371453 7c4.42 0 8 3.58 8 8z" fill="#e6e9ed"/><path d="m39 7h-4.004c4.42 0 8 3.58 8 8v7c0 .55-.44 1-1 1h4.004c.56 0 1-.45 1-1v-7c0-4.42-3.58-8-8-8z" fill="#ccd1d9"/><path d="m31 7-5 16h-2l-5-16v-1c0 2.21 2.69 4 6 4s6-1.79 6-4z" fill="#27baff"/><g fill="#f5f7fa"><path d="m19 7 5 16h-2l-6-8 2-2-3-4z"/><path d="m26 23 5-16 4 2-3 4 2 2-6 8z"/></g></g></g></svg>