<svg height="104" viewBox="0 0 185 104" width="185" xmlns="http://www.w3.org/2000/svg"><g fill="none" fill-rule="evenodd"><g fill="#00a676" transform="translate(78 45)"><rect height="24" rx="1" width="26" y="7.5"/><path d="m36 8.65563492v22.24436508c0 .6075132-.4924868 1.1-1.1 1.1h-22.2443651c-.6075132 0-1.1-.4924868-1.1-1.1 0-.2917381.1158925-.5715274.3221826-.7778175l22.244365-22.24436504c.4295768-.42957672 1.1260582-.42957672 1.555635 0 .20629.20629002.3221825.48607932.3221825.77781746z" transform="matrix(.70710678 -.70710678 .70710678 .70710678 -6.698485 21.828427)"/></g><g transform="translate(118 30)"><path d="m25 0c9.945 0 18 7.16 18 16h-3.375-1.125-4.5-4.5-4.5-4.5-4.5-4.5-1.125-3.375c0-8.84 8.055-16 18-16z" fill="#965353" fill-rule="nonzero"/><g fill="#844747"><path d="m7 16h36v41h-36z" fill-rule="evenodd"/><path d="m24.7153306 0c-.5793955 0-1.1507914.029-1.7153306.076 9.2954688.757 16.5681961 7.591 16.5681961 15.924h.0034284 3.4283755c0-8.84-8.1823896-16-18.2846694-16z" fill-rule="nonzero"/></g></g><g fill-rule="nonzero"><g transform="translate(118 46)"><path d="m40 0v6.99c0 6.15-3.7 11.44-9 13.75-1.84.8-3.87 1.25-6 1.25s-4.16-.45-6-1.25c-5.3-2.31-9-7.6-9-13.75v-6.99z" fill="#eac6bb"/><path d="m35.996 0v6.99c0 6.15-3.7 11.44-9 13.75-1.252.545-2.598.911-3.998 1.1.657.088 1.322.15 2.002.15 2.13 0 4.16-.45 6-1.25 5.3-2.31 9-7.6 9-13.75v-6.99z" fill="#d3b1a9"/><path d="m31 20.74v13.25h-12v-13.25c1.84.8 3.87 1.25 6 1.25s4.16-.45 6-1.25z" fill="#eac6bb"/></g><g transform="translate(118 65)"><path d="m47 15v7c0 .55-.44 1-1 1h-42c-.55 0-1-.45-1-1v-7c0-4.42 3.58-8 8-8h7 1.0341628l5.9658372 15 5.9628547-15h1.0371453 7c4.42 0 8 3.58 8 8z" fill="#e6e9ed"/><path d="m39 7h-4.004c4.42 0 8 3.58 8 8v7c0 .55-.44 1-1 1h4.004c.56 0 1-.45 1-1v-7c0-4.42-3.58-8-8-8z" fill="#ccd1d9"/><path d="m31 7-5 16h-2l-5-16v-1c0 2.21 2.69 4 6 4s6-1.79 6-4z" fill="#00a676"/><g fill="#f5f7fa"><path d="m19 7 5 16h-2l-6-8 2-2-3-4z"/><path d="m26 23 5-16 4 2-3 4 2 2-6 8z"/></g></g><g transform="translate(148 75)"><path d="m5.98375538 19.5723435 2.23650971-5.4836638c-.46577343.2595323-.98269801.411643-1.51720448.411643-.83788863 0-1.62508768-.3261253-2.21762701-.918245-.37341601-.3733741-.17875629-.2681345-1.07937746-.5091617-.40862177-.1095617-.76785477-.3201248-1.09267928-.5723558l-1.94949258 4.7798424c-.18865921.4627522.16369209.9654938.66299281.946611l2.2640365-.0863988 1.5571519 1.6448516c.34374918.3626738.94703067.2496293 1.13568989-.2131229z" fill="#fcba04"/><path d="m10.2760606 19.7854664 1.5576135-1.6448516 2.2640365.0863988c.4993007.0188828.851652-.4842784.6629928-.946611l-1.9494926-4.7798424c-.3248245.2526506-.6840575.4627941-1.0926792.5723558-.9053629.242328-.7068427.1366269-1.0793775.5091617-.5925393.5921197-1.38015801.918245-2.21804663.918245-.53450648 0-1.05143106-.1525303-1.51720448-.411643l2.23650971 5.4836638c.18861725.4627522.79236032.5757967 1.1356479.2131229z" fill="#fcba04"/><path d="m10.6130678 14.6097022c.6565727-.6681541.7317678-.6105828 1.6667555-.8653734.5968194-.1628529 1.0634741-.63769 1.2233057-1.2452516.3214256-1.2202844.238048-1.0729154 1.1150448-1.9658156.4369878-.4447087.6075616-1.09309891.4477299-1.70070244-.320964-1.21944519-.3213836-1.04929102 0-2.27003701.1598317-.60756157-.0107421-1.25595175-.4477299-1.70070243-.8769968-.89285828-.7936192-.74590886-1.1150448-1.96581562-.1598316-.60756157-.6264863-1.08235674-1.2233057-1.24520959-1.1979608-.32700651-1.053613-.24148883-1.9314491-1.1348087-.43698775-.44470871-1.07421615-.61876531-1.67103556-.45591245-1.19754124.3265869-1.03040831.32700651-2.23008959 0-.59681941-.16285286-1.23404781.01074216-1.6710356.45591245-.87699681.89290025-.73260705.80780219-1.93102948 1.1348087-.59681941.16285285-1.06347403.63764802-1.22330565 1.24520959-.32096405 1.21990676-.23804799 1.07295734-1.1150448 1.96581562-.43698778.44475068-.60798118 1.09314086-.44772995 1.70070243.32096405 1.21860595.32142563 1.04845178 0 2.26961739-.15983162.60756157.01074217 1.25595176.44772995 1.70112206.87699681.8929002.79361918.7455312 1.1150448 1.9658156.15983162.6075616.62648624 1.0823987 1.22330565 1.2452516.96163329.2620919 1.03338758.2208437 1.6663359.8653734.56849535.5787759 1.45405232.6823371 2.1372706.250091.23087256-.1466138.64024963-.2655748.91371318-.2655748.27350552 0 .68284063.118961.91371319.2655748.68279866.4322461 1.56835566.3286849 2.13685096-.250091zm-3.05077396-2.9227073c-2.23864975 0-4.05365549-1.84723218-4.05365549-4.12587131s1.81500574-4.1258294 4.05365549-4.1258294c2.23864976 0 4.05365546 1.84719027 4.05365546 4.1258294s-1.8150057 4.12587131-4.05365546 4.12587131z" fill="#00a676"/></g><g transform="translate(38 30)"><path d="m27.5 16h-25-2.5v-.008884-12.43753466c0-1.95446974 1.5-3.55358134 3.33333333-3.55358134h23.33333337c1.8333333 0 3.3333333 1.5991116 3.3333333 3.55358134v12.43753466.008884z" fill="#e6e9ed"/><path d="m26 0h-4.004c2.2 0 4 1.5991116 4 3.55358134v12.43753466.008884h1.004 3v-.008884-12.43753466c0-1.95446974-1.8-3.55358134-4-3.55358134z" fill="#ccd1d9"/><g fill="#ed5565"><path d="m15 13c-.553 0-1-.447-1-1v-8c0-.553.447-1 1-1s1 .447 1 1v8c0 .553-.447 1-1 1z"/><path d="m19 9h-8c-.553 0-1-.447-1-1s.447-1 1-1h8c.553 0 1 .447 1 1s-.447 1-1 1z"/></g></g><g transform="translate(28 46)"><path d="m40 0v6.99c0 6.15-3.7 11.44-9 13.75-1.84.8-3.87 1.25-6 1.25s-4.16-.45-6-1.25c-5.3-2.31-9-7.6-9-13.75v-6.99z" fill="#ab7969"/><path d="m35.996 0v6.99c0 6.15-3.7 11.44-9 13.75-1.252.545-2.598.911-3.998 1.1.657.088 1.322.15 2.002.15 2.13 0 4.16-.45 6-1.25 5.3-2.31 9-7.6 9-13.75v-6.99z" fill="#996559"/><path d="m31 20.74v13.25h-12v-13.25c1.84.8 3.87 1.25 6 1.25s4.16-.45 6-1.25z" fill="#ab7969"/></g><g transform="translate(28 65)"><path d="m47 15v7c0 .55-.44 1-1 1h-42c-.55 0-1-.45-1-1v-7c0-4.42 3.58-8 8-8h7 1.0341628l5.9658372 15 5.9628547-15h1.0371453 7c4.42 0 8 3.58 8 8z" fill="#e6e9ed"/><path d="m39 7h-4.004c4.42 0 8 3.58 8 8v7c0 .55-.44 1-1 1h4.004c.56 0 1-.45 1-1v-7c0-4.42-3.58-8-8-8z" fill="#ccd1d9"/><path d="m31 7-5 16h-2l-5-16v-1c0 2.21 2.69 4 6 4s6-1.79 6-4z" fill="#27baff"/><g fill="#f5f7fa"><path d="m19 7 5 16h-2l-6-8 2-2-3-4z"/><path d="m26 23 5-16 4 2-3 4 2 2-6 8z"/></g></g></g></g></svg>