<svg height="104" viewBox="0 0 185 104" width="185" xmlns="http://www.w3.org/2000/svg"><g fill="none" fill-rule="evenodd"><path d="m0 0h185v104h-185z" fill="#fafbfb"/><rect fill="#fcba04" height="47" rx="1" width="185" y="31"/><g transform="translate(3 69)"><circle cx="16.5" cy="16.5" fill="#e8e9eb" fill-rule="evenodd" r="14.52"/><g fill-rule="nonzero"><path d="m17.3274432 23.1c.253907 0 .5740336-.1724507.7142756-.3865665l.4582214-.6954866c.073263-.1216646.1382519-.3358598.1450598-.4780926v-2.3579292h-4.29l.0015972 2.3579292c.0003142.1440306.0647009.3581993.1437245.4780926l.4584832.6954866c.140242.2141158.4603947.3865665.7143018.3865665z" fill="#798ca3"/><path d="m18.6482206 19.6356269c0-.0067679.0018853-.0135359.0029588-.0211234.2640927-.8993184.9569235-1.965139 1.3998796-2.4754322.6447045-.7405623 1.167941-2.1417932 1.167941-3.1277731v-.0066093c0-2.6359861-2.1205964-4.77302054-4.7337416-4.76466448-2.7351369.0084052-4.7042584 2.24698538-4.7042584 4.76466448v.0066093c0 .9859799.5232365 2.3872108 1.167941 3.1277731.4429561.5102932 1.1357869 1.5761138 1.3998796 2.4754322 0 .0075875.0018852.0143555.0029588.0211234z" fill="#fcba04"/><path d="m13.926 14.437838c-.2368088 0-.429-.19405-.429-.4331491.0017805-1.6718963 1.3471187-3.0302459 3.003-3.0320436.2368088 0 .429.19405.429.4331491s-.1921912.4331491-.429.4331491c-1.1827088.0013483-2.1436646.971598-2.145 2.1657454 0 .2390991-.1921912.4331491-.429.4331491z" fill="#ffe293"/></g></g><circle cx="110" cy="84" fill="#e8e9eb" r="7.92"/><g transform="translate(105.68 80.76)"><path d="m0 0h8.5536v6.912h-8.5536z" fill="#fff"/><g fill="#ccd1d9" fill-rule="nonzero"><path d="m4.1456448 1.5559776h-3.1088448c-.1433376 0-.2592-.1158624-.2592-.2592s.1158624-.2592.2592-.2592h3.1088448c.1433376 0 .2592.1158624.2592.2592s-.1158624.2592-.2592.2592z"/><path d="m7.5168 1.5559776h-.7776c-.1433376 0-.2592-.1158624-.2592-.2592s.1158624-.2592.2592-.2592h.7776c.1433376 0 .2592.1158624.2592.2592s-.1158624.2592-.2592.2592z"/><path d="m2.8483488 2.5927776h-1.8115488c-.1433376 0-.2592-.1158624-.2592-.2592s.1158624-.2592.2592-.2592h1.8115488c.1433376 0 .2592.1158624.2592.2592s-.1158624.2592-.2592.2592z"/><path d="m7.5168 2.5927776h-.7776c-.1433376 0-.2592-.1158624-.2592-.2592s.1158624-.2592.2592-.2592h.7776c.1433376 0 .2592.1158624.2592.2592s-.1158624.2592-.2592.2592z"/><path d="m3.6267264 3.6295776h-2.5899264c-.1433376 0-.2592-.1158624-.2592-.2592s.1158624-.2592.2592-.2592h2.5899264c.1433376 0 .2592.1158624.2592.2592s-.1158624.2592-.2592.2592z"/><path d="m7.5168 3.6295776h-.7776c-.1433376 0-.2592-.1158624-.2592-.2592s.1158624-.2592.2592-.2592h.7776c.1433376 0 .2592.1158624.2592.2592s-.1158624.2592-.2592.2592z"/><path d="m5.1834816 4.6663776h-4.1466816c-.1433376 0-.2592-.1158624-.2592-.2592s.1158624-.2592.2592-.2592h4.1466816c.1433376 0 .2592.1158624.2592.2592s-.1158624.2592-.2592.2592z"/><path d="m7.5168 4.6663776h-.7776c-.1433376 0-.2592-.1158624-.2592-.2592s.1158624-.2592.2592-.2592h.7776c.1433376 0 .2592.1158624.2592.2592s-.1158624.2592-.2592.2592z"/><path d="m3.6267264 5.7031776h-2.4605856c-.1433376 0-.2592-.1158624-.2592-.2592s.1158624-.2592.2592-.2592h2.4605856c.1433376 0 .2592.1158624.2592.2592s-.1158624.2592-.2592.2592z"/></g></g><circle cx="109.5" cy="38.5" fill="#e8e9eb" r="13.64"/><g fill-rule="nonzero" transform="translate(103.3 32.3)"><path d="m8.80896 1.92014c.217-.12462.4712-.19282.744-.19282.8184 0 1.4818.65782 1.4818 1.46878 0 .2046-.04278.403-.11718.5766.5146.28582.8618.8246.8618 1.45204 0 .465-.1922.8866-.5022 1.18296.30318.24242.5022.6076.5022 1.023 0 .4092-.186.7688-.4898 1.01122.0744.2046.1178.4154.1178.64418 0 1.01122-.83762 1.83582-1.86 1.84202-.0992.8308-.80662 1.46878-1.674 1.46878-.9238 0-1.674-.73718-1.674-1.6554v-3.3046-5.5304c0-.71176.5828-1.2896 1.302-1.2896s1.30262.57784 1.30262 1.2896v.01302h.00496z" fill="#ec87c0"/><path d="m4.89676.61752c.71858 0 1.302.57784 1.302 1.2896v5.5304 3.3046c0 .9176-.744 1.6554-1.674 1.6554-.8618 0-1.5686-.63798-1.66718-1.46878-1.0292-.0062-1.86682-.8308-1.86682-1.84202 0-.22878.0434-.43958.124-.64418-.3038-.24242-.496-.60202-.496-1.01122 0-.4154.2046-.7812.5084-1.023-.31-.29698-.5084-.71796-.5084-1.18296 0-.62744.3472-1.16002.8618-1.45204-.0744-.17918-.1116-.372-.1116-.5766 0-.81158.6634-1.46878 1.4818-1.46878.2728 0 .52142.06758.7378.19282h.0062c0-.00744 0-.00744 0-.01302 0-.713.5828-1.29022 1.302-1.29022z" fill="#ec87c0"/><g fill="#d770ad"><path d="m3.73178 3.10124c-.22692 0-.4464-.12586-.5549-.34286-.13144-.26164-.20088-.55552-.20088-.85002 0-1.05214.8618-1.90836 1.92138-1.90836 1.0602 0 1.92262.85622 1.92262 1.90836 0 .34286-.27714.62-.62.62s-.62-.27714-.62-.62c0-.36828-.30628-.66836-.68262-.66836-.3751 0-.68138.30008-.68138.66836 0 .10416.02294.20336.06882.2945.15376.30628.03038.67952-.2759.83204-.08866.04464-.18352.06634-.27714.06634z"/><path d="m4.52724 13.02c-1.26604 0-2.29648-1.02052-2.29648-2.27664 0-.52204.1829-1.03044.51398-1.43406.21824-.26412.6076-.30256.87296-.08494.26412.217.30194.6076.08494.87296-.1519.18414-.23188.40672-.23188.64542 0 .57164.4743 1.03664 1.05648 1.03664.58094 0 1.05276-.465 1.05276-1.03664 0-.34286.27714-.62.62-.62s.62.27714.62.62c0 1.25612-1.02858 2.27726-2.29276 2.27726z"/><path d="m2.86626 11.5475c-1.37516 0-2.49302-1.10298-2.49302-2.46078 0-.29884.05394-.5921.15934-.86924.12214-.31992.47926-.48174.80042-.35836.31992.12214.47988.47926.35836.80042-.05208.13578-.07812.27962-.07812.42718 0 .67332.56234 1.22078 1.25302 1.22078.34286 0 .62.27714.62.62s-.27714.62-.62.62z"/><path d="m1.11228 9.05882c-.1333 0-.26784-.0434-.3813-.13206-.46438-.36332-.73098-.90954-.73098-1.49792 0-.5921.27218-1.14328.74834-1.51032.27094-.20956.6603-.15872.86924.11284s.15872.66092-.11284.86924c-.16802.13082-.26536.32302-.26536.52824s.09238.39494.25482.5208c.2697.2108.31744.60078.10664.87048-.12152.15624-.3038.2387-.48856.2387z"/><path d="m1.12654 7.0308c-.155 0-.31-.05828-.42966-.17298-.4495-.43338-.69688-1.0137-.69688-1.63618 0-.82832.45384-1.59216 1.18606-1.99206.30008-.16492.67642-.05456.84072.24676.16492.30008.05456.67704-.24614.8401-.33356.1829-.54064.52948-.54064.90458 0 .2821.11284.54498.31682.74214.24676.23746.2542.62992.01674.87668-.12152.12648-.28458.19096-.44702.19096z"/><path d="m1.48242 4.39332c-.2418 0-.4712-.14198-.57102-.37882-.10974-.25916-.16554-.53382-.16554-.81716 0-1.15382.94364-2.0925 2.1049-2.0925.36766 0 .72974.09548 1.04656.2759.29698.16926.40114.54746.23188.84506-.16988.2976-.54932.40052-.84568.2325-.13144-.07502-.27714-.11408-.43214-.11408-.47678 0-.8649.38254-.8649.8525 0 .11656.02232.22878.06696.33418.1333.3162-.01364.67952-.32922.81282-.07936.03348-.1612.0496-.2418.0496z"/><path d="m8.66884 3.10124c-.09238 0-.18662-.02046-.27466-.06448-.3069-.15252-.43214-.52452-.27962-.8308.04588-.093.06882-.19282.06882-.2976 0-.36828-.30566-.66836-.68138-.66836s-.68262.30008-.68262.66836c0 .34286-.27714.62-.62.62s-.62-.27714-.62-.62c0-1.05214.86242-1.90836 1.92262-1.90836 1.05958 0 1.92138.85622 1.92138 1.90836 0 .2976-.06634.58342-.1984.84878-.1085.21824-.32736.3441-.55614.3441z"/><path d="m7.87276 13.02c-1.26418 0-2.29276-1.02052-2.29276-2.27664 0-.34286.27714-.62.62-.62s.62.27714.62.62c0 .57164.47244 1.03664 1.05276 1.03664.58218 0 1.05648-.465 1.05648-1.03664 0-.18662-.05084-.36952-.14632-.52824-.17732-.29326-.0837-.67332.20956-.85126.29388-.17794.67456-.08246.85126.20956.21328.35216.3255.75702.3255 1.16994 0 1.2555-1.03044 2.27664-2.29648 2.27664z"/><path d="m9.53374 11.5475c-.34286 0-.62-.27714-.62-.62s.27714-.62.62-.62c.69068 0 1.25302-.54746 1.25302-1.22078 0-.14756-.02604-.29202-.07812-.42966-.1209-.32116.0403-.67828.36146-.79918.32054-.1209.67766.04092.79856.36208.10478.27714.1581.56916.1581.86676 0 1.35718-1.11786 2.46078-2.49302 2.46078z"/><path d="m11.28772 9.05882c-.18476 0-.36704-.08246-.48918-.2387-.2108-.27032-.16306-.65968.10664-.87048.16244-.12586.25482-.3162.25482-.5208s-.09672-.39742-.26536-.52824c-.27156-.20832-.32178-.5983-.11284-.86924s.5983-.32302.86924-.11284c.47616.36704.74834.9176.74834 1.51032 0 .58838-.2666 1.1346-.73098 1.49792-.11284.08866-.24738.13206-.38068.13206z"/><path d="m11.27346 7.0308c-.16244 0-.32488-.06448-.44702-.19034-.23746-.24676-.23002-.63922.01674-.87668.20398-.19716.31682-.46004.31682-.74214 0-.3751-.20708-.72168-.54064-.90458-.3007-.16368-.41106-.54002-.24614-.8401.16492-.30132.54064-.41168.84072-.24676.73222.3999 1.18606 1.16374 1.18606 1.99206 0 .62248-.24738 1.20218-.69688 1.63618-.11966.11408-.27466.17236-.42966.17236z"/><path d="m10.48172 4.96248c-.18228 0-.36208-.07874-.48422-.2325-.21452-.2666-.1705-.65782.0961-.87048.20336-.16368.32054-.40424.32054-.66216 0-.46996-.38812-.8525-.8649-.8525-.155 0-.3007.03906-.43214.11408-.29822.16802-.67642.0651-.84568-.2325s-.0651-.6758.23188-.84506c.31682-.18042.6789-.2759 1.04656-.2759 1.16064 0 2.1049.93868 2.1049 2.0925 0 .6355-.28644 1.23008-.78554 1.62998-.1147.09052-.25172.13454-.3875.13454z"/><path d="m6.2 11.36336c-.34286 0-.62-.27714-.62-.62v-8.835c0-.34286.27714-.62.62-.62s.62.27714.62.62v8.835c0 .34286-.27714.62-.62.62z"/><path d="m6.2 8.05504c-.34286 0-.62-.27714-.62-.62 0-1.02052.83452-1.85008 1.86-1.85008.34286 0 .62.27714.62.62s-.27714.62-.62.62c-.34224 0-.62.27342-.62.61008 0 .34286-.27714.62-.62.62z"/><path d="m6.2 8.05504c-.34286 0-.62-.27714-.62-.62 0-.33666-.27776-.61008-.62-.61008-.34286 0-.62-.27714-.62-.62s.27714-.62.62-.62c1.02548 0 1.86.82956 1.86 1.85008 0 .34286-.27714.62-.62.62z"/></g></g><g transform="translate(150 10)"><ellipse cx="13.5" cy="13" fill="#e8e9eb" fill-rule="evenodd" rx="11.88" ry="11.44"/><path d="m20.3999682 16.2589496v-5.7401044c0-.56753863-.6752003-.90269408-1.1694438-.57646301l-2.5430474 1.68917471v3.5169066l2.5430474 1.6869491c.4919096.3262093 1.1694438-.0066987 1.1694438-.576463z" fill="#2d2d2a" fill-rule="nonzero"/><path d="m15.9158766 17.68c.6125474 0 1.1091022-.4781638 1.1091022-1.0680243v-6.4439309c0-.58986051-.4965548-1.06802434-1.1091022-1.06802434h-6.69177436c-.61254745 0-1.1091022.47816383-1.1091022 1.06802434v6.4439309c0 .5898605.49655475 1.0680243 1.1091022 1.0680243z" fill="#4a4a4a" fill-rule="nonzero"/><rect fill="#2d2d2a" fill-rule="evenodd" height="2.6" rx=".5" width="7.56" x="6.48" y="10.92"/></g><circle cx="74.5" cy="73.5" fill="#e8e9eb" r="11"/><g fill-rule="nonzero" transform="translate(70.5 69.5)"><path d="m2.99187769 9.78617177 1.11825485-2.74183192c-.23288671.12976616-.491349.2058215-.75860224.2058215-.41894431 0-.81254384-.16306266-1.1088135-.45912251-.18670801-.18668703-.08937814-.13406722-.53968873-.25458085-.20431088-.05478083-.38392738-.16006241-.54633964-.28617791l-.97474629 2.38992122c-.09432961.23137609.08184604.48274688.3314964.47330552l1.13201826-.04319943.77857594.82242579c.17187459.18133692.47351534.12481472.56784495-.10656141z" fill="#fcba04"/><path d="m5.13803031 9.89273318.77880674-.82242579 1.13201825.04319943c.24965036.00944136.42582601-.24213923.3314964-.47330552l-.97474628-2.38992122c-.16241226.12632531-.34202876.23139708-.54633964.28617791-.45268142.12116403-.35342133.06831344-.53968874.25458085-.29626966.29605985-.69007899.45912251-1.10902331.45912251-.26725323 0-.52571552-.07626515-.75860224-.2058215l1.11825486 2.74183192c.09430863.23137613.39618016.28789833.56782396.10656141z" fill="#fcba04"/><path d="m5.30653391 7.30485111c.32828634-.33407704.36588391-.30529141.83337776-.43268673.2984097-.08142643.53173701-.31884499.61165282-.62262578.16071282-.6101422.119024-.53645769.5575224-.98290781.21849389-.22235436.30378079-.54654945.22386498-.85035121-.16048203-.60972259-.16069184-.52464551 0-1.13501851.07991581-.30378078-.00537109-.62797587-.22386498-.85035121-.4384984-.44642914-.39680958-.37295443-.5575224-.98290781-.07991581-.30378079-.31324312-.54117837-.61165282-.62260479-.59898043-.16350326-.52680653-.12074442-.96572455-.56740435-.2184939-.22235436-.5371081-.30938266-.8355178-.22795623-.59877062.16329345-.51520415.16350326-1.1150448 0-.2984097-.08142643-.6170239.00537108-.83551779.22795623-.43849841.44645012-.36630353.40390109-.96551475.56740435-.2984097.08142642-.53173701.318824-.61165282.62260479-.16048202.60995338-.11902399.53647867-.5575224.98290781-.21849389.22237534-.30399059.54657043-.22386497.85035121.16048202.60930298.16071281.5242259 0 1.1348087-.07991581.30378079.00537108.62797587.22386497.85056102.43849841.44645012.39680959.37276561.5575224.98290781.07991581.30378079.31324312.54119935.61165282.62262578.48081665.13104598.51669379.11042187.83316795.43268673.28424768.28938796.72702616.34116854 1.0686353.12504547.11543628-.07330686.32012482-.13278738.4568566-.13278738.13675275 0 .34142031.05948052.45685659.13278738.34139933.21612307.78417782.16434249 1.06842549-.12504547zm-1.52538699-1.46135364c-1.11932487 0-2.02682775-.92361611-2.02682775-2.06293568 0-1.13931956.90750288-2.06291469 2.02682775-2.06291469 1.11932488 0 2.02682775.92359513 2.02682775 2.06291469 0 1.13931957-.90750287 2.06293568-2.02682775 2.06293568z" fill="#00a676"/></g><g transform="translate(17 8)"><circle cx="18.5" cy="18.5" fill="#e8e9eb" fill-rule="evenodd" r="16.28"/><g fill-rule="nonzero"><path d="m18.3148127 23.4029693c3.3717338 0 6.1049855-.9109908 6.1049855-2.0349952l-.4508687-3.6079741-4.6114985 1.4168517c-.9071714.2785325-1.6801379.124641-2.0855471 0l-4.6111879-1.4165412-.4508687 3.6076636c0 1.1240044 2.7332516 2.0349952 6.1049854 2.0349952z" fill="#2d2d2a"/><path d="m11.0667261 24.7900485c.3256067 0 .56725-.3014485.4966698-.619075l-.811781-3.6528125c.2601189-.1844463.4407148-.4728222.4407148-.8156004 0-.3678989-.2057166-.6756819-.4979428-.8543837.0241581-.477573.2683786-.8998432.6578894-1.1675697l6.2184789 1.9106647c.2880964.0884037.840721.1987299 1.4877735 0l8.8697233-2.724992c.7488084-.2302162.7488084-1.2197053 0-1.4499216l-8.8693818-2.7249919c-.4833175-.1484885-1.0047974-.1484885-1.4877734 0l-8.86972338 2.7249919c-.74849789.2298747-.74849789 1.2197054 0 1.4496111l1.54627458.4750579c-.33926932.4193824-.54787372.9309879-.568523 1.4912512-.30619945.1755345-.52179045.4922294-.52179045.8702821 0 .3427782.18059589.6311541.44071482.8156004l-.81178098 3.6528125c-.0705802.3176265.17106305.619075.49635921.619075z" fill="#4a4a4a"/></g></g><circle cx="150" cy="75" fill="#e8e9eb" fill-rule="evenodd" r="14.96"/><g fill-rule="nonzero" transform="translate(141.84 69.968)"><path d="m13.056 0v2.25777c0 1.98645-1.20768 3.69512-2.9376 4.44125-.600576.2584-1.263168.40375-1.9584.40375s-1.357824-.14535-1.9584-.40375c-1.72992-.74613-2.9376-2.4548-2.9376-4.44125v-2.25777z" fill="#eac6bb"/><path d="m11.7490944 0v2.25777c0 1.98645-1.20768 3.69512-2.9376 4.44125-.4086528.176035-.8479872.294253-1.3049472.3553.2144448.028424.4315008.04845.6534528.04845.695232 0 1.357824-.14535 1.9584-.40375 1.72992-.74613 2.9376-2.4548 2.9376-4.44125v-2.25777z" fill="#d3b1a9"/><path d="m10.1184 6.69902v4.27975h-3.9168v-4.27975c.600576.2584 1.263168.40375 1.9584.40375s1.357824-.14535 1.9584-.40375z" fill="#eac6bb"/></g><g fill-rule="nonzero" transform="translate(145.104 64.8)"><path d="m1.33527273 5.14492857-1.33527273 1.31507143v-2.51478571c0-2.178635 1.78971055-3.94521429 4.00581818-3.94521429h3.56072727v1.75342857c1.22845091 0 2.22545455.98192 2.22545455 2.19178572v2.51478571l-1.33527273-1.31507143s-1.65573818.87671429-3.56072727.87671429c-1.90944 0-3.56072727-.87671429-3.56072727-.87671429z" fill="#965353"/><path d="m7.548 3.0685c.4950264 0 .8976.39320636.8976.87671429v.87671428l1.3464 1.31507143v-2.19178571c0-1.20986572-1.005312-2.19178572-2.244-2.19178572v-1.75342857h-1.3464v1.75342857c0 .72635779.6027384 1.31507143 1.3464 1.31507143z" fill="#844747"/></g><g transform="translate(141.84 76.105)"><g fill-rule="nonzero"><path d="m15.3408 4.845v2.261c0 .17765-.143616.323-.3264.323h-13.7088c-.17952 0-.3264-.14535-.3264-.323v-2.261c0-1.42766 1.168512-2.584 2.6112-2.584h2.2848 4.5696 2.2848c1.442688 0 2.6112 1.15634 2.6112 2.584z" fill="#4a4a4a"/><path d="m8.16 1.43610769c.940032 0 1.82784-.21367692 2.6112-.59630769v1.59015385l-1.04448.99384615-1.56672-.49692308-1.56672.49692308-1.04448-.99384615v-1.59015385c.78336.38263077 1.671168.59630769 2.6112.59630769z" fill="#6d7278"/><path d="m12.7296 2.261h-1.3069056c1.442688 0 2.6112 1.15634 2.6112 2.584v2.261c0 .17765-.143616.323-.3264.323h1.3069056c.182784 0 .3264-.14535.3264-.323v-2.261c0-1.42766-1.168512-2.584-2.6112-2.584z" fill="#2d2d2a"/></g><ellipse cx="8.16" cy="3.876" fill="#6d7278" fill-rule="evenodd" rx="1" ry="1"/><ellipse cx="8.16" cy="5.168" fill="#6d7278" fill-rule="evenodd" rx="1" ry="1"/><ellipse cx="8.16" cy="6.46" fill="#6d7278" fill-rule="evenodd" rx="1" ry="1"/></g></g></svg>