<svg height="104" viewBox="0 0 185 104" width="185" xmlns="http://www.w3.org/2000/svg"><g fill="none" fill-rule="evenodd"><rect fill="#54288b" height="67" rx="1" width="67" x="62" y="21"/><g fill-rule="nonzero"><g transform="translate(93 46)"><path d="m40 0v6.99c0 6.15-3.7 11.44-9 13.75-1.84.8-3.87 1.25-6 1.25s-4.16-.45-6-1.25c-5.3-2.31-9-7.6-9-13.75v-6.99z" fill="#eac6bb"/><path d="m35.996 0v6.99c0 6.15-3.7 11.44-9 13.75-1.252.545-2.598.911-3.998 1.1.657.088 1.322.15 2.002.15 2.13 0 4.16-.45 6-1.25 5.3-2.31 9-7.6 9-13.75v-6.99z" fill="#d3b1a9"/><path d="m31 20.74v13.25h-12v-13.25c1.84.8 3.87 1.25 6 1.25s4.16-.45 6-1.25z" fill="#eac6bb"/></g><g transform="translate(103 30)"><path d="m0 9.33333333c0-2.95111111 1.78666667-5.33333333 4-5.33333333v10.6666667c0 2.9511111-1.78666667 5.3333333-4 5.3333333z" fill="#e9573f"/><path d="m30 14.9124191v12.0875809c0-3.3815686-1.7188889-6.3626322-4.3333333-8.1521225v-.0142023c-1.6322223-1.121982-3.6255556-1.775288-5.7777778-1.775288v-.0298248h-11.55555557c-2.39777777 0-4.33333333.0968913-4.33333333-2.2606912v-10.52138233c2.75888889-2.76944926 6.5866667-4.24648887 10.8333333-4.24648887 8.3777778 0 15.1666667 6.67508285 15.1666667 14.9124191z" fill="#f06543"/><path d="m15.1879512 0c-.7462451 0-1.4727408.06391037-2.1879512.1590658 7.2085304 1.00552312 12.763754 7.21761086 12.763754 14.7533533v3.9184157c.0014107.0014202.0028214.0014202.0042321.0028404v.0142023c2.553315 1.7894903 4.2320139 4.7705539 4.2320139 8.1521225v-12.0875809c0-8.23733625-6.6301552-14.9124191-14.8120488-14.9124191z" fill="#e9573f"/></g><g transform="translate(93 65)"><path d="m47 15v7c0 .55-.44 1-1 1h-42c-.55 0-1-.45-1-1v-7c0-4.42 3.58-8 8-8h7 1.0341628l5.9658372 15 5.9628547-15h1.0371453 7c4.42 0 8 3.58 8 8z" fill="#e6e9ed"/><path d="m39 7h-4.004c4.42 0 8 3.58 8 8v7c0 .55-.44 1-1 1h4.004c.56 0 1-.45 1-1v-7c0-4.42-3.58-8-8-8z" fill="#ccd1d9"/><path d="m31 7-5 16h-2l-5-16v-1c0 2.21 2.69 4 6 4s6-1.79 6-4z" fill="#27baff"/><g fill="#f5f7fa"><path d="m19 7 5 16h-2l-6-8 2-2-3-4z"/><path d="m26 23 5-16 4 2-3 4 2 2-6 8z"/></g></g></g><circle cx="62.5" cy="69.5" fill="#e8e9eb" r="11"/><path d="m56.5 62.5h11.88v13.5h-11.88z" fill="#eacb7e"/><g fill-rule="nonzero" transform="translate(61 68)"><path d="m2.99187769 9.78617177 1.11825485-2.74183192c-.23288671.12976616-.491349.2058215-.75860224.2058215-.41894431 0-.81254384-.16306266-1.1088135-.45912251-.18670801-.18668703-.08937814-.13406722-.53968873-.25458085-.20431088-.05478083-.38392738-.16006241-.54633964-.28617791l-.97474629 2.38992122c-.09432961.23137609.08184604.48274688.3314964.47330552l1.13201826-.04319943.77857594.82242579c.17187459.18133692.47351534.12481472.56784495-.10656141z" fill="#fcba04"/><path d="m5.13803031 9.89273318.77880674-.82242579 1.13201825.04319943c.24965036.00944136.42582601-.24213923.3314964-.47330552l-.97474628-2.38992122c-.16241226.12632531-.34202876.23139708-.54633964.28617791-.45268142.12116403-.35342133.06831344-.53968874.25458085-.29626966.29605985-.69007899.45912251-1.10902331.45912251-.26725323 0-.52571552-.07626515-.75860224-.2058215l1.11825486 2.74183192c.09430863.23137613.39618016.28789833.56782396.10656141z" fill="#fcba04"/><path d="m5.30653391 7.30485111c.32828634-.33407704.36588391-.30529141.83337776-.43268673.2984097-.08142643.53173701-.31884499.61165282-.62262578.16071282-.6101422.119024-.53645769.5575224-.98290781.21849389-.22235436.30378079-.54654945.22386498-.85035121-.16048203-.60972259-.16069184-.52464551 0-1.13501851.07991581-.30378078-.00537109-.62797587-.22386498-.85035121-.4384984-.44642914-.39680958-.37295443-.5575224-.98290781-.07991581-.30378079-.31324312-.54117837-.61165282-.62260479-.59898043-.16350326-.52680653-.12074442-.96572455-.56740435-.2184939-.22235436-.5371081-.30938266-.8355178-.22795623-.59877062.16329345-.51520415.16350326-1.1150448 0-.2984097-.08142643-.6170239.00537108-.83551779.22795623-.43849841.44645012-.36630353.40390109-.96551475.56740435-.2984097.08142642-.53173701.318824-.61165282.62260479-.16048202.60995338-.11902399.53647867-.5575224.98290781-.21849389.22237534-.30399059.54657043-.22386497.85035121.16048202.60930298.16071281.5242259 0 1.1348087-.07991581.30378079.00537108.62797587.22386497.85056102.43849841.44645012.39680959.37276561.5575224.98290781.07991581.30378079.31324312.54119935.61165282.62262578.48081665.13104598.51669379.11042187.83316795.43268673.28424768.28938796.72702616.34116854 1.0686353.12504547.11543628-.07330686.32012482-.13278738.4568566-.13278738.13675275 0 .34142031.05948052.45685659.13278738.34139933.21612307.78417782.16434249 1.06842549-.12504547zm-1.52538699-1.46135364c-1.11932487 0-2.02682775-.92361611-2.02682775-2.06293568 0-1.13931956.90750288-2.06291469 2.02682775-2.06291469 1.11932488 0 2.02682775.92359513 2.02682775 2.06291469 0 1.13931957-.90750287 2.06293568-2.02682775 2.06293568z" fill="#00a676"/></g><circle cx="62.5" cy="39.5" fill="#e8e9eb" r="11"/><path d="m56.5 32.5h11.88v13.5h-11.88z" fill="#eacb7e"/><g fill-rule="nonzero" transform="translate(61 38)"><path d="m2.99187769 9.78617177 1.11825485-2.74183192c-.23288671.12976616-.491349.2058215-.75860224.2058215-.41894431 0-.81254384-.16306266-1.1088135-.45912251-.18670801-.18668703-.08937814-.13406722-.53968873-.25458085-.20431088-.05478083-.38392738-.16006241-.54633964-.28617791l-.97474629 2.38992122c-.09432961.23137609.08184604.48274688.3314964.47330552l1.13201826-.04319943.77857594.82242579c.17187459.18133692.47351534.12481472.56784495-.10656141z" fill="#fcba04"/><path d="m5.13803031 9.89273318.77880674-.82242579 1.13201825.04319943c.24965036.00944136.42582601-.24213923.3314964-.47330552l-.97474628-2.38992122c-.16241226.12632531-.34202876.23139708-.54633964.28617791-.45268142.12116403-.35342133.06831344-.53968874.25458085-.29626966.29605985-.69007899.45912251-1.10902331.45912251-.26725323 0-.52571552-.07626515-.75860224-.2058215l1.11825486 2.74183192c.09430863.23137613.39618016.28789833.56782396.10656141z" fill="#fcba04"/><path d="m5.30653391 7.30485111c.32828634-.33407704.36588391-.30529141.83337776-.43268673.2984097-.08142643.53173701-.31884499.61165282-.62262578.16071282-.6101422.119024-.53645769.5575224-.98290781.21849389-.22235436.30378079-.54654945.22386498-.85035121-.16048203-.60972259-.16069184-.52464551 0-1.13501851.07991581-.30378078-.00537109-.62797587-.22386498-.85035121-.4384984-.44642914-.39680958-.37295443-.5575224-.98290781-.07991581-.30378079-.31324312-.54117837-.61165282-.62260479-.59898043-.16350326-.52680653-.12074442-.96572455-.56740435-.2184939-.22235436-.5371081-.30938266-.8355178-.22795623-.59877062.16329345-.51520415.16350326-1.1150448 0-.2984097-.08142643-.6170239.00537108-.83551779.22795623-.43849841.44645012-.36630353.40390109-.96551475.56740435-.2984097.08142642-.53173701.318824-.61165282.62260479-.16048202.60995338-.11902399.53647867-.5575224.98290781-.21849389.22237534-.30399059.54657043-.22386497.85035121.16048202.60930298.16071281.5242259 0 1.1348087-.07991581.30378079.00537108.62797587.22386497.85056102.43849841.44645012.39680959.37276561.5575224.98290781.07991581.30378079.31324312.54119935.61165282.62262578.48081665.13104598.51669379.11042187.83316795.43268673.28424768.28938796.72702616.34116854 1.0686353.12504547.11543628-.07330686.32012482-.13278738.4568566-.13278738.13675275 0 .34142031.05948052.45685659.13278738.34139933.21612307.78417782.16434249 1.06842549-.12504547zm-1.52538699-1.46135364c-1.11932487 0-2.02682775-.92361611-2.02682775-2.06293568 0-1.13931956.90750288-2.06291469 2.02682775-2.06291469 1.11932488 0 2.02682775.92359513 2.02682775 2.06291469 0 1.13931957-.90750287 2.06293568-2.02682775 2.06293568z" fill="#00a676"/></g></g></svg>