<svg height="104" viewBox="0 0 185 104" width="185" xmlns="http://www.w3.org/2000/svg"><g fill="none" fill-rule="evenodd"><path d="m0 0h185v104h-185z" fill="#fafbfb"/><rect fill="#27baff" height="67" rx="1" width="67" x="59" y="21"/><g fill-rule="nonzero"><g transform="translate(31 33)"><g transform="translate(1 2)"><path d="m60.01 0h-58.02c-1.1 0-1.99.889-1.99 1.99v37.01h.05 61.95v-37.01c0-1.101-.89-1.99-1.99-1.99z" fill="#656d78"/><path d="m22 50.5h18 2c1.11 0 2 .889 2 2v1h-26v-1c0-1.111.9-2 2-2z" fill="#e6e9ed"/><path d="m38.5 42.5 2 8h-19.001l2-8z" fill="#ccd1d9"/><path d="m.05 38.5h61.95v2.01c0 1.1-.89 1.99-1.99 1.99h-22.01-14-22.01c-1.1 0-1.99-.891-1.99-1.99v-2.01z" fill="#e6e9ed"/></g><path d="m61 45.498h-58c-1.654 0-3-1.346-3-3v-38.998c0-1.654 1.346-3 3-3h58c1.654 0 3 1.346 3 3v38.998c0 1.654-1.346 3-3 3zm-58-42.998c-.552 0-1 .449-1 1v38.998c0 .553.448 1 1 1h58c.552 0 1-.447 1-1v-38.998c0-.551-.448-1-1-1z" fill="#e6e9ed"/><path d="m32.03 43.998c-.553 0-1.005-.447-1.005-1s.442-1 .994-1h.011c.552 0 1 .447 1 1s-.448 1-1 1z" fill="#ccd1d9"/></g><path d="m63.9715766 63.8345743 8.3144333-8.5851273c2.4191685-2.4964617 2.2773384-6.630054-.4210843-8.9331987-2.3546735-2.0066022-5.8566183-1.6456908-8.0179329.5843988l-.8464907.8722552-.8464908-.8722552c-2.1570345-2.2300896-5.6632593-2.591001-8.0179328-.5843988-2.6984227 2.3031447-2.8402528 6.436737-.4254064 8.9331987l8.3144333 8.5851273c.5371081.5543124 1.4093633.5543124 1.9464713 0z" fill="#f06543"/><g transform="translate(109 26)"><path d="m34 6h-34v-1c0-2.76 2.24-5 5-5h24c2.77 0 5 2.24 5 5z" fill="#656d78"/><path d="m17 50h-17v2c0 3.3 2.7 6 6 6h11 11c3.3 0 6-2.7 6-6v-2z" fill="#656d78"/><path d="m17 52c1.11 0 2 .9 2 2s-.89 2-2 2c-1.1 0-2-.9-2-2s.9-2 2-2z" fill="#aab2bd"/><path d="m34 52v4c0 3.3-2.7 6-6 6h-22c-3.3 0-6-2.7-6-6v-4c0 3.3 2.7 6 6 6h11 11c3.3 0 6-2.7 6-6z" fill="#545c66"/><path d="m0 6v44h17 17v-44z" fill="#e6e9ed"/><path d="m14.03 4c-.553 0-1.005-.447-1.005-1s.442-1 .994-1h.011c.552 0 1 .447 1 1s-.448 1-1 1z" fill="#5d9cec"/><path d="m20 4h-3c-.553 0-1-.447-1-1s.447-1 1-1h3c.553 0 1 .447 1 1s-.447 1-1 1z" fill="#545c66"/><g fill="#656d78"><path d="m0 6h2.001v44h-2.001z"/><path d="m31.999 6h2.001v44h-2.001z"/></g></g><path d="m126.971577 63.8345743 8.314433-8.5851273c2.419168-2.4964617 2.277338-6.630054-.421084-8.9331987-2.354674-2.0066022-5.856619-1.6456908-8.017933.5843988l-.846491.8722552-.846491-.8722552c-2.157034-2.2300896-5.663259-2.591001-8.017933-.5843988-2.698422 2.3031447-2.840252 6.436737-.425406 8.9331987l8.314433 8.5851273c.537108.5543124 1.409364.5543124 1.946472 0z" fill="#f06543"/></g></g></svg>