<svg height="104" viewBox="0 0 185 104" width="185" xmlns="http://www.w3.org/2000/svg"><g fill="none" fill-rule="evenodd"><rect fill="#fcba04" height="67" rx="1" width="67" x="62" y="21"/><g fill-rule="nonzero"><g transform="translate(71 46)"><path d="m40 0v6.99c0 6.15-3.7 11.44-9 13.75-1.84.8-3.87 1.25-6 1.25s-4.16-.45-6-1.25c-5.3-2.31-9-7.6-9-13.75v-6.99z" fill="#eac6bb"/><path d="m35.996 0v6.99c0 6.15-3.7 11.44-9 13.75-1.252.545-2.598.911-3.998 1.1.657.088 1.322.15 2.002.15 2.13 0 4.16-.45 6-1.25 5.3-2.31 9-7.6 9-13.75v-6.99z" fill="#d3b1a9"/><path d="m31 20.74v13.25h-12v-13.25c1.84.8 3.87 1.25 6 1.25s4.16-.45 6-1.25z" fill="#eac6bb"/></g><g transform="translate(81 30)"><path d="m4.09090909 15.9285714-4.09090909 4.0714286v-7.7857143c0-6.74499999 5.48318182-12.2142857 12.2727273-12.2142857h10.9090909v5.42857143c3.7636363 0 6.8181818 3.04 6.8181818 6.78571427v7.7857143l-4.0909091-4.0714286s-5.0727273 2.7142857-10.9090909 2.7142857c-5.85 0-10.90909091-2.7142857-10.90909091-2.7142857z" fill="#965353"/><path d="m23.125 9.5c1.516625 0 2.75 1.2173571 2.75 2.7142857v2.7142857l4.125 4.0714286v-6.7857143c0-3.74571427-3.08-6.78571427-6.875-6.78571427v-5.42857143h-4.125v5.42857143c0 2.24878571 1.846625 4.07142857 4.125 4.07142857z" fill="#844747"/></g><g transform="translate(71 65)"><path d="m47 15v7c0 .55-.44 1-1 1h-42c-.55 0-1-.45-1-1v-7c0-4.42 3.58-8 8-8h7 1.0341628l5.9658372 15 5.9628547-15h1.0371453 7c4.42 0 8 3.58 8 8z" fill="#e6e9ed"/><path d="m39 7h-4.004c4.42 0 8 3.58 8 8v7c0 .55-.44 1-1 1h4.004c.56 0 1-.45 1-1v-7c0-4.42-3.58-8-8-8z" fill="#ccd1d9"/><path d="m31 7-5 16h-2l-5-16v-1c0 2.21 2.69 4 6 4s6-1.79 6-4z" fill="#00a676"/><g fill="#f5f7fa"><path d="m19 7 5 16h-2l-6-8 2-2-3-4z"/><path d="m26 23 5-16 4 2-3 4 2 2-6 8z"/></g></g></g><circle cx="32.5" cy="54.5" fill="#e8e9eb" fill-rule="evenodd" r="11"/><g fill-rule="nonzero" transform="translate(28.5 49.000019)"><path d="m4.62685089 10.4999815c.19235382 0 .43487396-.1306444.54111786-.2928534l.34713745-.52688383c.05550232-.09217012.10473633-.2544392.1098938-.36219131v-1.78631004h-3.25l.00121002 1.78631004c.00023804.10911404.04901581.27136309.10888214.36219131l.34733582.52688383c.10624389.162209.34878387.2928534.54113769.2928534z" fill="#798ca3"/><path d="m5.62743988 7.87545643c0-.00512723.00142822-.01025447.00224152-.01600259.20007019-.6813018.72494201-1.48874167 1.06051483-1.87532741.48841247-.56103202.88480377-1.6225706.88480377-2.36952508v-.00500707c0-1.99695913-1.60651245-3.61592463-3.58616791-3.60959428-2.07207336.00636757-3.56383209 1.70226168-3.56383209 3.60959428v.00500707c0 .74695448.3963913 1.80849306.88480377 2.36952508.33557282.38658574.86044464 1.19402561 1.06051483 1.87532741 0 .00574812.00142823.01087536.00224152.01600259z" fill="#fcba04"/><path d="m2.05 3.93773752c-.17940063 0-.325-.14700753-.325-.32814324.00134888-1.26658805 1.02054443-2.29564078 2.275-2.2970027.17940063 0 .325.14700753.325.32814324s-.14559937.32814325-.325.32814325c-.89599152.00102144-1.62398834.7360591-1.625 1.64071621 0 .18113571-.14559937.32814324-.325.32814324z" fill="#ffe293"/></g><g transform="translate(138 42)"><circle cx="12.5" cy="12.5" fill="#e8e9eb" fill-rule="evenodd" r="11"/><path d="m12.9857883 17.9172872 4.1572167-4.2925637c1.2095842-1.2482308 1.1386691-3.315027-.2105422-4.46659933-1.1773367-1.00330114-2.9283091-.8228454-4.0089664.29219939l-.4232454.43612758-.4232454-.43612758c-1.0785172-1.11504479-2.83162965-1.29550053-4.0089664-.29219939-1.34921134 1.15157233-1.42012639 3.21836853-.2127032 4.46659933l4.1572167 4.2925637c.268554.2771561.7046816.2771561.9732356 0z" fill="#f06543" fill-rule="nonzero"/></g><circle cx="60.5" cy="24.5" fill="#e8e9eb" r="11"/><g transform="translate(53.5 21.5)"><rect fill="#00a676" height="6.6" rx=".5" width="14.256"/><path d="m6 5.4h1.8l-1.8 1.8z" fill="#00a676" transform="matrix(-.70710678 -.70710678 .70710678 -.70710678 7.324264 15.63381)"/><g fill="#fff" fill-rule="nonzero"><path d="m6.813408 2.664h-5.181408c-.238896 0-.432-.193104-.432-.432s.193104-.432.432-.432h5.181408c.238896 0 .432.193104.432.432s-.193104.432-.432.432z"/><path d="m11.851248 2.664h-3.019248c-.238896 0-.432-.193104-.432-.432s.193104-.432.432-.432h3.019248c.238896 0 .432.193104.432.432s-.193104.432-.432.432z"/><path d="m10.651248 4.464h-3.019248c-.238896 0-.432-.193104-.432-.432s.193104-.432.432-.432h3.019248c.238896 0 .432.193104.432.432s-.193104.432-.432.432z"/><path d="m5.948544 4.464h-4.316544c-.238896 0-.432-.193104-.432-.432s.193104-.432.432-.432h4.316544c.238896 0 .432.193104.432.432s-.193104.432-.432.432z"/></g></g><circle cx="131.5" cy="86.5" fill="#e8e9eb" r="11"/><g transform="translate(124.5 83.5)"><rect fill="#00a676" height="6.6" rx=".5" width="14.256"/><path d="m6 5.4h1.8l-1.8 1.8z" fill="#00a676" transform="matrix(-.70710678 -.70710678 .70710678 -.70710678 7.324264 15.63381)"/><g fill="#fff" fill-rule="nonzero"><path d="m6.813408 2.664h-5.181408c-.238896 0-.432-.193104-.432-.432s.193104-.432.432-.432h5.181408c.238896 0 .432.193104.432.432s-.193104.432-.432.432z"/><path d="m11.851248 2.664h-3.019248c-.238896 0-.432-.193104-.432-.432s.193104-.432.432-.432h3.019248c.238896 0 .432.193104.432.432s-.193104.432-.432.432z"/><path d="m10.651248 4.464h-3.019248c-.238896 0-.432-.193104-.432-.432s.193104-.432.432-.432h3.019248c.238896 0 .432.193104.432.432s-.193104.432-.432.432z"/><path d="m5.948544 4.464h-4.316544c-.238896 0-.432-.193104-.432-.432s.193104-.432.432-.432h4.316544c.238896 0 .432.193104.432.432s-.193104.432-.432.432z"/></g></g></g></svg>