<?xml version="1.0" encoding="UTF-8"?>
<svg width="185px" height="104px" viewBox="0 0 185 104" version="1.1" xmlns="http://www.w3.org/2000/svg" xmlns:xlink="http://www.w3.org/1999/xlink">
    <title>svg/feedback-edu</title>
    <g id="svg/feedback-edu" stroke="none" stroke-width="1" fill="none" fill-rule="evenodd">
        <g id="teacher-1" transform="translate(15.000000, 30.000000)">
            <g id="face-white" transform="translate(10.000000, 16.000000)" fill-rule="nonzero">
                <path d="M30,0 L30,6.99 C30,13.14 26.3,18.43 21,20.74 C19.16,21.54 17.13,21.99 15,21.99 C12.87,21.99 10.84,21.54 9,20.74 C3.7,18.43 0,13.14 0,6.99 L0,0 L30,0 Z" id="Path" fill="#EAC6BB"></path>
                <path d="M25.996,0 L25.996,6.99 C25.996,13.14 22.296,18.43 16.996,20.74 C15.744,21.285 14.398,21.651 12.998,21.84 C13.655,21.928 14.32,21.99 15,21.99 C17.13,21.99 19.16,21.54 21,20.74 C26.3,18.43 30,13.14 30,6.99 L30,0 L25.996,0 Z" id="Path" fill="#D3B1A9"></path>
                <path d="M21,20.74 L21,33.99 L9,33.99 L9,20.74 C10.84,21.54 12.87,21.99 15,21.99 C17.13,21.99 19.16,21.54 21,20.74 Z" id="Path" fill="#EAC6BB"></path>
            </g>
            <g id="Group" transform="translate(10.000000, 0.000000)" fill-rule="nonzero">
                <path d="M0,9.33333333 C0,6.38222222 1.78666667,4 4,4 L4,14.6666667 C4,17.6177778 2.21333333,20 0,20 L0,9.33333333 L0,9.33333333 Z" id="Path" fill="#E9573F"></path>
                <path d="M30,14.9124191 L30,27 C30,23.6184314 28.2811111,20.6373678 25.6666667,18.8478775 L25.6666667,18.8336752 C24.0344444,17.7116932 22.0411111,17.0583872 19.8888889,17.0583872 L19.8888889,17.0285624 L8.33333333,17.0285624 C5.93555556,17.0285624 4,17.1254537 4,14.7678712 L4,4.24648887 C6.75888889,1.47703961 10.5866667,0 14.8333333,0 C23.2111111,0 30,6.67508285 30,14.9124191 Z" id="Path" fill="#F06543"></path>
                <path d="M15.1879512,0 C14.4417061,0 13.7152104,0.0639103677 13,0.159065804 C20.2085304,1.16458892 25.763754,7.37667666 25.763754,14.9124191 L25.763754,18.8308348 C25.7651647,18.832255 25.7665754,18.832255 25.7679861,18.8336752 L25.7679861,18.8478775 C28.3213011,20.6373678 30,23.6184314 30,27 L30,14.9124191 C30,6.67508285 23.3698448,0 15.1879512,0 Z" id="Path" fill="#E9573F"></path>
            </g>
            <g id="Group" transform="translate(0.000000, 35.000000)">
                <path d="M47,15 L47,22 C47,22.55 46.56,23 46,23 L4,23 C3.45,23 3,22.55 3,22 L3,15 C3,10.58 6.58,7 11,7 L18,7 L32,7 L39,7 C43.42,7 47,10.58 47,15 Z" id="Path-Copy" fill="#AB7969" fill-rule="nonzero"></path>
                <path d="M39,7 L34.996,7 C39.416,7 42.996,10.58 42.996,15 L42.996,22 C42.996,22.55 42.556,23 41.996,23 L46,23 C46.56,23 47,22.55 47,22 L47,15 C47,10.58 43.42,7 39,7 Z" id="Path-Copy-3" fill="#976656" fill-rule="nonzero"></path>
                <path d="M31.9292691,4.00040904 L32,4.06459096 L32.0015351,7.93661968 C30.6372389,9.16708788 28.0131565,10 25,10 C21.9870715,10 19.3631581,9.1672139 17.9987745,7.93689894 L17.9987437,4.06312888 C18.0223634,4.04182968 18.0463607,4.02064962 18.0707309,3.99959096 C19.4540849,5.1957862 22.0392083,6 25,6 C27.9607917,6 30.5459151,5.1957862 31.9292691,4.00040904 Z" id="Combined-Shape" fill="#C19789"></path>
            </g>
        </g>
        <g id="Group-2" transform="translate(61.000000, 23.000000)" fill="#007BC0">
            <rect id="Rectangle" x="0" y="0" width="33" height="25" rx="1"></rect>
            <polygon id="Rectangle" transform="translate(16.500000, 23.500000) rotate(-45.000000) translate(-16.500000, -23.500000) " points="13.2 20.2 19 21 19.8 26.8 14 26"></polygon>
        </g>
        <g id="student-2" transform="translate(124.000000, 28.000000)">
            <path d="M37,16 L37,22.99 C37,29.14 33.3,34.43 28,36.74 C26.16,37.54 24.13,37.99 22,37.99 C19.87,37.99 17.84,37.54 16,36.74 C10.7,34.43 7,29.14 7,22.99 L7,16 L37,16 Z" id="Path" fill="#AB7969" fill-rule="nonzero"></path>
            <path d="M32.996,16 L32.996,22.99 C32.996,29.14 29.296,34.43 23.996,36.74 C22.744,37.285 21.398,37.651 19.998,37.84 C20.655,37.928 21.32,37.99 22,37.99 C24.13,37.99 26.16,37.54 28,36.74 C33.3,34.43 37,29.14 37,22.99 L37,16 L32.996,16 Z" id="Path" fill="#996559" fill-rule="nonzero"></path>
            <path d="M28,36.74 L28,49.99 L16,49.99 L16,36.74 C17.84,37.54 19.87,37.99 22,37.99 C24.13,37.99 26.16,37.54 28,36.74 Z" id="Path" fill="#AB7969" fill-rule="nonzero"></path>
            <g id="Group" transform="translate(7.000000, 0.000000)" fill-rule="nonzero">
                <path d="M4.09090909,15.9285714 L0,20 L0,12.2142857 C0,5.46928571 5.48318182,0 12.2727273,0 L23.1818182,0 L23.1818182,5.42857143 C26.9454545,5.42857143 30,8.46857143 30,12.2142857 L30,20 L25.9090909,15.9285714 C25.9090909,15.9285714 20.8363636,18.6428571 15,18.6428571 C9.15,18.6428571 4.09090909,15.9285714 4.09090909,15.9285714 Z" id="Path" fill="#965353"></path>
                <path d="M23.125,9.5 C24.641625,9.5 25.875,10.7173571 25.875,12.2142857 L25.875,14.9285714 L30,19 L30,12.2142857 C30,8.46857143 26.92,5.42857143 23.125,5.42857143 L23.125,0 L19,0 L19,5.42857143 C19,7.67735714 20.846625,9.5 23.125,9.5 Z" id="Path" fill="#844747"></path>
            </g>
            <path d="M44,52 L44,59 C44,59.55 43.56,60 43,60 L1,60 C0.45,60 -1.42108547e-14,59.55 -1.42108547e-14,59 L-1.42108547e-14,52 C-1.42108547e-14,47.58 3.58,44 8,44 L15,44 L29,44 L36,44 C40.42,44 44,47.58 44,52 Z" id="Path" fill="#00A676" fill-rule="nonzero"></path>
            <path d="M22,41.4461538 C24.88,41.4461538 27.6,40.7846154 30,39.6 L30,44.5230769 L26.8,47.6 L22,46.0615385 L17.2,47.6 L14,44.5230769 L14,39.6 C16.4,40.7846154 19.12,41.4461538 22,41.4461538 Z" id="Path" fill="#22C293" fill-rule="nonzero"></path>
            <path d="M36,44 L31.996,44 C36.416,44 39.996,47.58 39.996,52 L39.996,59 C39.996,59.55 39.556,60 38.996,60 L43,60 C43.56,60 44,59.55 44,59 L44,52 C44,47.58 40.42,44 36,44 Z" id="Path" fill="#00966A" fill-rule="nonzero"></path>
            <circle id="Oval" fill="#22C293" cx="22" cy="49" r="1"></circle>
        </g>
        <g id="Group" transform="translate(69.000000, 27.000000)">
            <rect id="Rectangle" fill="#FFFFFF" x="0" y="0" width="16.83" height="16.32"></rect>
            <path d="M8.15694,3.673836 L2.04,3.673836 C1.75797,3.673836 1.53,3.400272 1.53,3.061836 C1.53,2.7234 1.75797,2.449836 2.04,2.449836 L8.15694,2.449836 C8.43897,2.449836 8.66694,2.7234 8.66694,3.061836 C8.66694,3.400272 8.43897,3.673836 8.15694,3.673836 Z" id="Path" fill="#CCD1D9" fill-rule="nonzero"></path>
            <path d="M14.79,3.673836 L13.26,3.673836 C12.97797,3.673836 12.75,3.400272 12.75,3.061836 C12.75,2.7234 12.97797,2.449836 13.26,2.449836 L14.79,2.449836 C15.07203,2.449836 15.3,2.7234 15.3,3.061836 C15.3,3.400272 15.07203,3.673836 14.79,3.673836 Z" id="Path" fill="#CCD1D9" fill-rule="nonzero"></path>
            <path d="M5.60439,6.121836 L2.04,6.121836 C1.75797,6.121836 1.53,5.848272 1.53,5.509836 C1.53,5.1714 1.75797,4.897836 2.04,4.897836 L5.60439,4.897836 C5.88642,4.897836 6.11439,5.1714 6.11439,5.509836 C6.11439,5.848272 5.88642,6.121836 5.60439,6.121836 Z" id="Path" fill="#CCD1D9" fill-rule="nonzero"></path>
            <path d="M14.79,6.121836 L13.26,6.121836 C12.97797,6.121836 12.75,5.848272 12.75,5.509836 C12.75,5.1714 12.97797,4.897836 13.26,4.897836 L14.79,4.897836 C15.07203,4.897836 15.3,5.1714 15.3,5.509836 C15.3,5.848272 15.07203,6.121836 14.79,6.121836 Z" id="Path" fill="#CCD1D9" fill-rule="nonzero"></path>
            <path d="M7.13592,8.569836 L2.04,8.569836 C1.75797,8.569836 1.53,8.296272 1.53,7.957836 C1.53,7.6194 1.75797,7.345836 2.04,7.345836 L7.13592,7.345836 C7.41795,7.345836 7.64592,7.6194 7.64592,7.957836 C7.64592,8.296272 7.41795,8.569836 7.13592,8.569836 Z" id="Path" fill="#CCD1D9" fill-rule="nonzero"></path>
            <path d="M14.79,8.569836 L13.26,8.569836 C12.97797,8.569836 12.75,8.296272 12.75,7.957836 C12.75,7.6194 12.97797,7.345836 13.26,7.345836 L14.79,7.345836 C15.07203,7.345836 15.3,7.6194 15.3,7.957836 C15.3,8.296272 15.07203,8.569836 14.79,8.569836 Z" id="Path" fill="#CCD1D9" fill-rule="nonzero"></path>
            <path d="M10.19898,11.017836 L2.04,11.017836 C1.75797,11.017836 1.53,10.744272 1.53,10.405836 C1.53,10.0674 1.75797,9.793836 2.04,9.793836 L10.19898,9.793836 C10.48101,9.793836 10.70898,10.0674 10.70898,10.405836 C10.70898,10.744272 10.48101,11.017836 10.19898,11.017836 Z" id="Path" fill="#CCD1D9" fill-rule="nonzero"></path>
            <path d="M14.79,11.017836 L13.26,11.017836 C12.97797,11.017836 12.75,10.744272 12.75,10.405836 C12.75,10.0674 12.97797,9.793836 13.26,9.793836 L14.79,9.793836 C15.07203,9.793836 15.3,10.0674 15.3,10.405836 C15.3,10.744272 15.07203,11.017836 14.79,11.017836 Z" id="Path" fill="#CCD1D9" fill-rule="nonzero"></path>
            <path d="M7.13592,13.465836 L2.29449,13.465836 C2.01246,13.465836 1.78449,13.192272 1.78449,12.853836 C1.78449,12.5154 2.01246,12.241836 2.29449,12.241836 L7.13592,12.241836 C7.41795,12.241836 7.64592,12.5154 7.64592,12.853836 C7.64592,13.192272 7.41795,13.465836 7.13592,13.465836 Z" id="Path" fill="#CCD1D9" fill-rule="nonzero"></path>
        </g>
        <g id="Group-2" transform="translate(90.000000, 36.000000)" fill="#00A676">
            <rect id="Rectangle" x="0" y="0" width="33" height="25" rx="1"></rect>
            <polygon id="Rectangle" transform="translate(16.500000, 23.500000) rotate(-45.000000) translate(-16.500000, -23.500000) " points="13.2 20.2 19 21 19.8 26.8 14 26"></polygon>
        </g>
        <rect id="Rectangle" fill="#FFFFFF" x="98" y="40" width="17" height="17"></rect>
        <path d="M105.015122,52.4160111 L110.999334,46.4554484 C111.092877,46.3622955 111.092877,46.2112278 110.999334,46.1180555 L110.434806,45.5557404 C110.341264,45.4625875 110.189616,45.4625875 110.096073,45.5557404 L104.845756,50.7852916 L102.916609,48.8637752 C102.823067,48.7706028 102.671419,48.7706028 102.577857,48.8637752 L102.013328,49.4260708 C101.919786,49.5192431 101.919786,49.6702914 102.013328,49.7634831 L104.676389,52.4160111 C104.769912,52.509164 104.92156,52.509164 105.015122,52.4160111 Z" id="check-copy" fill="#00A676" fill-rule="nonzero"></path>
    </g>
</svg>