<svg height="104" viewBox="0 0 185 104" width="185" xmlns="http://www.w3.org/2000/svg"><g fill="none" fill-rule="evenodd"><rect fill="#00bcbd" height="67" rx="1" width="67" x="60" y="21"/><g fill="#fff"><rect height="19" rx="1" width="19" x="63" y="66"/><rect height="30" rx="1" width="19" x="84" y="55"/><rect height="53" rx="1" width="19" x="105" y="32"/></g><g transform="translate(42 24)"><circle cx="18.5" cy="18.5" fill="#e8e9eb" fill-rule="evenodd" r="16.28"/><g fill-rule="nonzero"><path d="m18.3148127 23.4029693c3.3717338 0 6.1049855-.9109908 6.1049855-2.0349952l-.4508687-3.6079741-4.6114985 1.4168517c-.9071714.2785325-1.6801379.124641-2.0855471 0l-4.6111879-1.4165412-.4508687 3.6076636c0 1.1240044 2.7332516 2.0349952 6.1049854 2.0349952z" fill="#2d2d2a"/><path d="m11.0667261 24.7900485c.3256067 0 .56725-.3014485.4966698-.619075l-.811781-3.6528125c.2601189-.1844463.4407148-.4728222.4407148-.8156004 0-.3678989-.2057166-.6756819-.4979428-.8543837.0241581-.477573.2683786-.8998432.6578894-1.1675697l6.2184789 1.9106647c.2880964.0884037.840721.1987299 1.4877735 0l8.8697233-2.724992c.7488084-.2302162.7488084-1.2197053 0-1.4499216l-8.8693818-2.7249919c-.4833175-.1484885-1.0047974-.1484885-1.4877734 0l-8.86972338 2.7249919c-.74849789.2298747-.74849789 1.2197054 0 1.4496111l1.54627458.4750579c-.33926932.4193824-.54787372.9309879-.568523 1.4912512-.30619945.1755345-.52179045.4922294-.52179045.8702821 0 .3427782.18059589.6311541.44071482.8156004l-.81178098 3.6528125c-.0705802.3176265.17106305.619075.49635921.619075z" fill="#4a4a4a"/></g></g><g transform="translate(29 55)"><circle cx="13.5" cy="13.5" fill="#e8e9eb" fill-rule="evenodd" r="11.88"/><g fill-rule="nonzero"><path d="m13.3648633 17.0778424c2.4604545 0 4.4549894-.664777 4.4549894-1.4849964l-.3290123-2.632846-3.3651475 1.0339188c-.6619899.2032535-1.2260466.0909542-1.5218857 0l-3.36492096-1.0336922-.32901228 2.6326194c0 .8202194 1.99453494 1.4849964 4.45498934 1.4849964z" fill="#2d2d2a"/><path d="m8.07571907 18.0900354c.23760487 0 .41393914-.219976.36243467-.4517574l-.59238071-2.6655659c.18981651-.134596.3216027-.3450324.3216027-.5951678 0-.2684668-.15011752-.4930653-.3633637-.6234692.0176289-.3484993.19584388-.6566424.48008148-.8520104l4.53780889 1.3942688c.2102325.0645109.6134992.1450192 1.0856726 0l6.4725008-1.9885076c.5464278-.1679957.5464278-.8900552 0-1.0580509l-6.4722516-1.98850761c-.3526912-.10835652-.7332306-.10835652-1.0856725 0l-6.47250083 1.98850761c-.54620116.1677464-.54620116.8900552 0 1.0578243l1.12836256.3466638c-.24757494.3060358-.39979976.6793696-.41486816 1.0882104-.22344284.1280927-.380766.3591944-.380766.6350708 0 .2501354.13178618.4605718.3216027.5951678l-.59238071 2.6655659c-.05150447.2317814.12482979.4517574.36220807.4517574z" fill="#4a4a4a"/></g></g></g></svg>