<?xml version="1.0" encoding="UTF-8"?>
<svg width="185px" height="104px" viewBox="0 0 185 104" version="1.1" xmlns="http://www.w3.org/2000/svg" xmlns:xlink="http://www.w3.org/1999/xlink">
    <title>svg/group-management</title>
    <g id="svg/group-management" stroke="none" stroke-width="1" fill="none" fill-rule="evenodd">
        <g id="Group-2" transform="translate(19.000000, 58.000000)">
            <rect id="Rectangle" fill="#007BC0" x="0" y="0" width="32" height="32" rx="1"></rect>
            <g id="doctor-1" transform="translate(2.787500, 6.000000)">
                <g id="hair-cap" transform="translate(1.837500, 0.000000)" fill-rule="nonzero">
                    <g id="Group">
                        <path d="M1.07386364,4.18125 L0,5.25 L0,3.20625 C0,1.4356875 1.43933523,0 3.22159091,0 L6.08522727,0 L6.08522727,1.425 C7.07318182,1.425 7.875,2.223 7.875,3.20625 L7.875,5.25 L6.80113636,4.18125 C6.80113636,4.18125 5.46954545,4.89375 3.9375,4.89375 C2.401875,4.89375 1.07386364,4.18125 1.07386364,4.18125 Z" id="Path" fill="#965353"></path>
                        <path d="M6.0703125,2.49375 C6.46842656,2.49375 6.7921875,2.81330625 6.7921875,3.20625 L6.7921875,3.91875 L7.875,4.9875 L7.875,3.20625 C7.875,2.223 7.0665,1.425 6.0703125,1.425 L6.0703125,0 L4.9875,0 L4.9875,1.425 C4.9875,2.01530625 5.47223906,2.49375 6.0703125,2.49375 Z" id="Path" fill="#844747"></path>
                    </g>
                </g>
                <g id="face-white" transform="translate(1.837500, 4.200000)" fill-rule="nonzero">
                    <path d="M7.875,8.8817842e-16 L7.875,1.834875 C7.875,3.44925 6.90375,4.837875 5.5125,5.44425 C5.0295,5.65425 4.496625,5.772375 3.9375,5.772375 C3.378375,5.772375 2.8455,5.65425 2.3625,5.44425 C0.97125,4.837875 0,3.44925 0,1.834875 L0,8.8817842e-16 L7.875,8.8817842e-16 Z" id="Path" fill="#AB7969"></path>
                    <path d="M6.82395,8.8817842e-16 L6.82395,1.834875 C6.82395,3.44925 5.8527,4.837875 4.46145,5.44425 C4.1328,5.5873125 3.779475,5.6833875 3.411975,5.733 C3.5844375,5.7561 3.759,5.772375 3.9375,5.772375 C4.496625,5.772375 5.0295,5.65425 5.5125,5.44425 C6.90375,4.837875 7.875,3.44925 7.875,1.834875 L7.875,8.8817842e-16 L6.82395,8.8817842e-16 Z" id="Path" fill="#996559"></path>
                    <path d="M5.5125,5.44425 L5.5125,8.922375 L2.3625,8.922375 L2.3625,5.44425 C2.8455,5.65425 3.378375,5.772375 3.9375,5.772375 C4.496625,5.772375 5.0295,5.65425 5.5125,5.44425 Z" id="Path" fill="#AB7969"></path>
                </g>
                <g id="body-coat" transform="translate(0.000000, 9.870000)">
                    <path d="M11.55,3.255 L11.55,5.0925 C11.55,5.236875 11.4345,5.355 11.2875,5.355 L0.2625,5.355 C0.118125,5.355 3.33066907e-16,5.236875 3.33066907e-16,5.0925 L3.33066907e-16,3.255 C3.33066907e-16,2.09475 0.93975,1.155 2.1,1.155 L3.9375,1.155 L7.6125,1.155 L9.45,1.155 C10.61025,1.155 11.55,2.09475 11.55,3.255 Z" id="Path" fill="#FCBA04" fill-rule="nonzero"></path>
                    <path d="M5.775,0.484615385 C6.531,0.484615385 7.245,0.310961538 7.875,0 L7.875,1.29230769 L7.035,2.1 L5.775,1.69615385 L4.515,2.1 L3.675,1.29230769 L3.675,0 C4.305,0.310961538 5.019,0.484615385 5.775,0.484615385 Z" id="Path" fill="#FFD971" fill-rule="nonzero"></path>
                    <path d="M9.45,1.155 L8.39895,1.155 C9.5592,1.155 10.49895,2.09475 10.49895,3.255 L10.49895,5.0925 C10.49895,5.236875 10.38345,5.355 10.23645,5.355 L11.2875,5.355 C11.4345,5.355 11.55,5.236875 11.55,5.0925 L11.55,3.255 C11.55,2.09475 10.61025,1.155 9.45,1.155 Z" id="Path" fill="#DAA000" fill-rule="nonzero"></path>
                    <circle id="Oval" fill="#FFD971" cx="5.775" cy="2.4675" r="1"></circle>
                </g>
            </g>
            <g id="doctor-1" transform="translate(17.787500, 6.000000)">
                <g id="face-white" transform="translate(1.837500, 4.200000)" fill-rule="nonzero">
                    <path d="M7.875,8.8817842e-16 L7.875,1.834875 C7.875,3.44925 6.90375,4.837875 5.5125,5.44425 C5.0295,5.65425 4.496625,5.772375 3.9375,5.772375 C3.378375,5.772375 2.8455,5.65425 2.3625,5.44425 C0.97125,4.837875 0,3.44925 0,1.834875 L0,8.8817842e-16 L7.875,8.8817842e-16 Z" id="Path" fill="#EAC6BB"></path>
                    <path d="M6.82395,8.8817842e-16 L6.82395,1.834875 C6.82395,3.44925 5.8527,4.837875 4.46145,5.44425 C4.1328,5.5873125 3.779475,5.6833875 3.411975,5.733 C3.5844375,5.7561 3.759,5.772375 3.9375,5.772375 C4.496625,5.772375 5.0295,5.65425 5.5125,5.44425 C6.90375,4.837875 7.875,3.44925 7.875,1.834875 L7.875,8.8817842e-16 L6.82395,8.8817842e-16 Z" id="Path" fill="#D3B1A9"></path>
                    <path d="M5.5125,5.44425 L5.5125,8.922375 L2.3625,8.922375 L2.3625,5.44425 C2.8455,5.65425 3.378375,5.772375 3.9375,5.772375 C4.496625,5.772375 5.0295,5.65425 5.5125,5.44425 Z" id="Path" fill="#EAC6BB"></path>
                </g>
                <g id="hair-cap" transform="translate(1.837500, 0.000000)" fill-rule="nonzero">
                    <g id="Group">
                        <path d="M0,2.45 C0,1.67533333 0.469,1.05 1.05,1.05 L1.05,3.85 C1.05,4.62466667 0.581,5.25 0,5.25 L0,2.45 L0,2.45 Z" id="Path" fill="#E9573F"></path>
                        <path d="M7.875,3.91451002 L7.875,7.0875 C7.875,6.19983825 7.42379167,5.41730906 6.7375,4.94756786 L6.7375,4.94383975 C6.30904167,4.64931947 5.78579167,4.47782665 5.22083333,4.47782665 L5.22083333,4.46999763 L2.1875,4.46999763 C1.55808333,4.46999763 1.05,4.49543159 1.05,3.8765662 L1.05,1.11470333 C1.77420833,0.387722897 2.779,0 3.89375,0 C6.09291667,0 7.875,1.75220925 7.875,3.91451002 Z" id="Path" fill="#F06543"></path>
                        <path d="M3.98683719,0 C3.79094785,0 3.60024272,0.0167764715 3.4125,0.0417547736 C5.30473923,0.305704592 6.76298544,1.93637762 6.76298544,3.91451002 L6.76298544,4.94309413 C6.76335574,4.94346694 6.76372604,4.94346694 6.76409634,4.94383975 L6.76409634,4.94756786 C7.43434155,5.41730906 7.875,6.19983825 7.875,7.0875 L7.875,3.91451002 C7.875,1.75220925 6.13458427,0 3.98683719,0 Z" id="Path" fill="#E9573F"></path>
                    </g>
                </g>
                <g id="body-coat" transform="translate(0.000000, 9.870000)">
                    <path d="M11.55,3.255 L11.55,5.0925 C11.55,5.236875 11.4345,5.355 11.2875,5.355 L0.2625,5.355 C0.118125,5.355 3.33066907e-16,5.236875 3.33066907e-16,5.0925 L3.33066907e-16,3.255 C3.33066907e-16,2.09475 0.93975,1.155 2.1,1.155 L3.9375,1.155 L7.6125,1.155 L9.45,1.155 C10.61025,1.155 11.55,2.09475 11.55,3.255 Z" id="Path" fill="#27BAFF" fill-rule="nonzero"></path>
                    <path d="M5.775,0.484615385 C6.531,0.484615385 7.245,0.310961538 7.875,0 L7.875,1.29230769 L7.035,2.1 L5.775,1.69615385 L4.515,2.1 L3.675,1.29230769 L3.675,0 C4.305,0.310961538 5.019,0.484615385 5.775,0.484615385 Z" id="Path" fill="#A0D6F0" fill-rule="nonzero"></path>
                    <path d="M9.45,1.155 L8.39895,1.155 C9.5592,1.155 10.49895,2.09475 10.49895,3.255 L10.49895,5.0925 C10.49895,5.236875 10.38345,5.355 10.23645,5.355 L11.2875,5.355 C11.4345,5.355 11.55,5.236875 11.55,5.0925 L11.55,3.255 C11.55,2.09475 10.61025,1.155 9.45,1.155 Z" id="Path" fill="#22A7E5" fill-rule="nonzero"></path>
                    <circle id="Oval" fill="#A0D6F0" cx="5.775" cy="2.4675" r="1"></circle>
                </g>
                <path d="M21.5248688,0.255474333" id="Path-2" stroke="#979797" stroke-width="0.5"></path>
            </g>
            <g id="doctor-1" transform="translate(9.787500, 13.000000)">
                <g id="face-white" transform="translate(1.837500, 4.200000)" fill-rule="nonzero">
                    <path d="M7.875,8.8817842e-16 L7.875,1.834875 C7.875,3.44925 6.90375,4.837875 5.5125,5.44425 C5.0295,5.65425 4.496625,5.772375 3.9375,5.772375 C3.378375,5.772375 2.8455,5.65425 2.3625,5.44425 C0.97125,4.837875 0,3.44925 0,1.834875 L0,8.8817842e-16 L7.875,8.8817842e-16 Z" id="Path" fill="#EAC6BB"></path>
                    <path d="M6.82395,8.8817842e-16 L6.82395,1.834875 C6.82395,3.44925 5.8527,4.837875 4.46145,5.44425 C4.1328,5.5873125 3.779475,5.6833875 3.411975,5.733 C3.5844375,5.7561 3.759,5.772375 3.9375,5.772375 C4.496625,5.772375 5.0295,5.65425 5.5125,5.44425 C6.90375,4.837875 7.875,3.44925 7.875,1.834875 L7.875,8.8817842e-16 L6.82395,8.8817842e-16 Z" id="Path" fill="#D3B1A9"></path>
                    <path d="M5.5125,5.44425 L5.5125,8.922375 L2.3625,8.922375 L2.3625,5.44425 C2.8455,5.65425 3.378375,5.772375 3.9375,5.772375 C4.496625,5.772375 5.0295,5.65425 5.5125,5.44425 Z" id="Path" fill="#EAC6BB"></path>
                </g>
                <g id="hair-cap" transform="translate(1.312500, 0.000000)">
                    <g id="Group" transform="translate(0.000000, 0.000000)">
                        <circle id="Oval" fill="#A9B5C4" cx="2.3625" cy="2.8875" r="1.8375"></circle>
                        <circle id="Oval" fill="#A9B5C4" cx="1.575" cy="4.2" r="1.575"></circle>
                        <circle id="Oval" fill="#798CA3" cx="6.5625" cy="2.8875" r="1.8375"></circle>
                        <circle id="Oval" fill="#798CA3" cx="7.35" cy="4.2" r="1.575"></circle>
                        <circle id="Oval" fill="#A9B5C4" cx="3.4125" cy="1.05" r="1.05"></circle>
                        <circle id="Oval" fill="#798CA3" cx="5.775" cy="1.05" r="1.05"></circle>
                        <circle id="Oval" fill="#A9B5C4" cx="4.725" cy="1.05" r="1.05"></circle>
                        <circle id="Oval" fill="#A9B5C4" cx="4.725" cy="3.15" r="1.8375"></circle>
                    </g>
                    <circle id="Oval" fill="#A9B5C4" cx="1.3125" cy="1.3125" r="1"></circle>
                </g>
                <g id="body-coat" transform="translate(-0.000000, 9.870000)">
                    <path d="M11.55,3.255 L11.55,5.0925 C11.55,5.236875 11.4345,5.355 11.2875,5.355 L0.2625,5.355 C0.118125,5.355 3.33066907e-16,5.236875 3.33066907e-16,5.0925 L3.33066907e-16,3.255 C3.33066907e-16,2.09475 0.93975,1.155 2.1,1.155 L3.9375,1.155 L7.6125,1.155 L9.45,1.155 C10.61025,1.155 11.55,2.09475 11.55,3.255 Z" id="Path" fill="#00A676" fill-rule="nonzero"></path>
                    <path d="M5.775,0.484615385 C6.531,0.484615385 7.245,0.310961538 7.875,0 L7.875,1.29230769 L7.035,2.1 L5.775,1.69615385 L4.515,2.1 L3.675,1.29230769 L3.675,0 C4.305,0.310961538 5.019,0.484615385 5.775,0.484615385 Z" id="Path" fill="#22C293" fill-rule="nonzero"></path>
                    <path d="M9.45,1.155 L8.39895,1.155 C9.5592,1.155 10.49895,2.09475 10.49895,3.255 L10.49895,5.0925 C10.49895,5.236875 10.38345,5.355 10.23645,5.355 L11.2875,5.355 C11.4345,5.355 11.55,5.236875 11.55,5.0925 L11.55,3.255 C11.55,2.09475 10.61025,1.155 9.45,1.155 Z" id="Path" fill="#00966A" fill-rule="nonzero"></path>
                    <circle id="Oval" fill="#22C293" cx="5.775" cy="2.4675" r="1"></circle>
                </g>
                <path d="M21.5248688,0.255474333" id="Path-2" stroke="#979797" stroke-width="0.5"></path>
            </g>
        </g>
        <g id="Group" transform="translate(135.000000, 9.000000)">
            <rect id="Rectangle" fill="#00A676" x="0" y="0" width="32" height="32" rx="1"></rect>
            <g id="doctor-1" transform="translate(2.500000, 3.000000)" fill-rule="nonzero">
                <g id="Group" transform="translate(3.500000, 0.000000)">
                    <path d="M2.04545455,7.96428571 L0,10 L0,6.10714286 C0,2.73464286 2.74159091,0 6.13636364,0 L11.5909091,0 L11.5909091,2.71428571 C13.4727273,2.71428571 15,4.23428571 15,6.10714286 L15,10 L12.9545455,7.96428571 C12.9545455,7.96428571 10.4181818,9.32142857 7.5,9.32142857 C4.575,9.32142857 2.04545455,7.96428571 2.04545455,7.96428571 Z" id="Path" fill="#965353"></path>
                    <path d="M11.5625,4.75 C12.3208125,4.75 12.9375,5.35867857 12.9375,6.10714286 L12.9375,7.46428571 L15,9.5 L15,6.10714286 C15,4.23428571 13.46,2.71428571 11.5625,2.71428571 L11.5625,0 L9.5,0 L9.5,2.71428571 C9.5,3.83867857 10.4233125,4.75 11.5625,4.75 Z" id="Path" fill="#844747"></path>
                </g>
                <g id="face-white" transform="translate(3.500000, 8.000000)">
                    <path d="M15,1.77635684e-15 L15,3.495 C15,6.57 13.15,9.215 10.5,10.37 C9.58,10.77 8.565,10.995 7.5,10.995 C6.435,10.995 5.42,10.77 4.5,10.37 C1.85,9.215 0,6.57 0,3.495 L0,1.77635684e-15 L15,1.77635684e-15 Z" id="Path" fill="#AB7969"></path>
                    <path d="M12.998,1.77635684e-15 L12.998,3.495 C12.998,6.57 11.148,9.215 8.498,10.37 C7.872,10.6425 7.199,10.8255 6.499,10.92 C6.8275,10.964 7.16,10.995 7.5,10.995 C8.565,10.995 9.58,10.77 10.5,10.37 C13.15,9.215 15,6.57 15,3.495 L15,1.77635684e-15 L12.998,1.77635684e-15 Z" id="Path" fill="#996559"></path>
                    <path d="M10.5,10.37 L10.5,16.995 L4.5,16.995 L4.5,10.37 C5.42,10.77 6.435,10.995 7.5,10.995 C8.565,10.995 9.58,10.77 10.5,10.37 Z" id="Path" fill="#AB7969"></path>
                </g>
                <g id="body-coat" transform="translate(0.000000, 20.500000)">
                    <path d="M22,4.5 L22,8 C22,8.275 21.78,8.5 21.5,8.5 L0.5,8.5 C0.225,8.5 0,8.275 0,8 L0,4.5 C0,2.29 1.79,0.5 4,0.5 L7.5,0.5 L8.01708139,0.5 L11,8 L13.9814273,0.5 L14.5,0.5 L18,0.5 C20.21,0.5 22,2.29 22,4.5 Z" id="Path" fill="#E6E9ED"></path>
                    <path d="M18,0.5 L15.998,0.5 C18.208,0.5 19.998,2.29 19.998,4.5 L19.998,8 C19.998,8.275 19.778,8.5 19.498,8.5 L21.5,8.5 C21.78,8.5 22,8.275 22,8 L22,4.5 C22,2.29 20.21,0.5 18,0.5 Z" id="Path" fill="#CCD1D9"></path>
                    <path d="M14,0.5 L11.5,8.5 L10.5,8.5 L8,0.5 L8,0 C8,1.105 9.345,2 11,2 C12.655,2 14,1.105 14,0 L14,0.5 Z" id="Path" fill="#27BAFF"></path>
                    <polygon id="Path" fill="#F5F7FA" points="8 0.5 10.5 8.5 9.5 8.5 6.5 4.5 7.5 3.5 6 1.5"></polygon>
                    <polygon id="Path" fill="#F5F7FA" points="11.5 8.5 14 0.5 16 1.5 14.5 3.5 15.5 4.5 12.5 8.5"></polygon>
                </g>
            </g>
        </g>
        <g id="14-building,-doctor,-medicine,-medical,-treatment,-pharmacy" transform="translate(70.000000, 43.000000)" fill-rule="nonzero">
            <g id="Group" transform="translate(3.000000, 1.000000)">
                <rect id="Rectangle" fill="#CCD1D9" x="22" y="12.5" width="18" height="32"></rect>
                <polygon id="Path" fill="#E6E9ED" points="11 0.5 0 0.5 0 12.5 0 44.5 7 44.5 7 34.5 15 34.5 15 44.5 22 44.5 22 12.5 22 0.5"></polygon>
                <rect id="Rectangle" fill="#5D9CEC" x="26" y="25.5" width="5" height="5"></rect>
                <rect id="Rectangle" fill="#5D9CEC" x="6" y="7.5" width="5" height="5"></rect>
                <rect id="Rectangle" fill="#5D9CEC" x="11" y="16.5" width="5" height="5"></rect>
                <rect id="Rectangle" fill="#5D9CEC" x="26" y="16.5" width="5" height="5"></rect>
                <rect id="Rectangle" fill="#5D9CEC" x="26" y="34.5" width="5" height="5"></rect>
                <rect id="Rectangle" fill="#5D9CEC" x="11" y="25.5" width="5" height="5"></rect>
                <rect id="Rectangle" fill="#5D9CEC" x="31" y="25.5" width="5" height="5"></rect>
                <rect id="Rectangle" fill="#5D9CEC" x="31" y="16.5" width="5" height="5"></rect>
                <rect id="Rectangle" fill="#5D9CEC" x="6" y="16.5" width="5" height="5"></rect>
                <rect id="Rectangle" fill="#5D9CEC" x="6" y="25.5" width="5" height="5"></rect>
                <rect id="Rectangle" fill="#007BC0" x="7" y="34.5" width="8" height="10"></rect>
                <rect id="Rectangle" fill="#5D9CEC" x="11" y="7.5" width="5" height="5"></rect>
                <rect id="Rectangle" fill="#5D9CEC" x="31" y="34.5" width="5" height="5"></rect>
            </g>
            <path d="M39,23 L28.999,23 C28.723,23 28.499,22.776 28.499,22.5 L28.499,17.5 C28.499,17.224 28.723,17 28.999,17 L39,17 C39.276,17 39.5,17.224 39.5,17.5 L39.5,22.5 C39.5,22.776 39.276,23 39,23 Z M29.499,22 L38.5,22 L38.5,18 L29.499,18 L29.499,22 Z" id="Shape" fill="#E6E9ED"></path>
            <path d="M34,23 C33.724,23 33.5,22.776 33.5,22.5 L33.5,17.5 C33.5,17.224 33.724,17 34,17 C34.276,17 34.5,17.224 34.5,17.5 L34.5,22.5 C34.5,22.776 34.276,23 34,23 Z" id="Path" fill="#E6E9ED"></path>
            <path d="M19.001,14.002 L9,14.002 C8.724,14.002 8.5,13.778 8.5,13.502 L8.5,8.502 C8.5,8.226 8.724,8.002 9,8.002 L19.001,8.002 C19.277,8.002 19.501,8.226 19.501,8.502 L19.501,13.502 C19.501,13.778 19.277,14.002 19.001,14.002 Z M9.5,13.002 L18.501,13.002 L18.501,9.002 L9.5,9.002 L9.5,13.002 Z" id="Shape" fill="#FFFFFF"></path>
            <path d="M14.001,14.002 C13.725,14.002 13.501,13.778 13.501,13.502 L13.501,8.502 C13.501,8.226 13.725,8.002 14.001,8.002 C14.277,8.002 14.501,8.226 14.501,8.502 L14.501,13.502 C14.501,13.778 14.277,14.002 14.001,14.002 Z" id="Path" fill="#FFFFFF"></path>
            <path d="M19.001,23.002 L9,23.002 C8.724,23.002 8.5,22.778 8.5,22.502 L8.5,17.502 C8.5,17.226 8.724,17.002 9,17.002 L19.001,17.002 C19.277,17.002 19.501,17.226 19.501,17.502 L19.501,22.502 C19.501,22.778 19.277,23.002 19.001,23.002 Z M9.5,22.002 L18.501,22.002 L18.501,18.002 L9.5,18.002 L9.5,22.002 Z" id="Shape" fill="#FFFFFF"></path>
            <path d="M14.001,23.002 C13.725,23.002 13.501,22.778 13.501,22.502 L13.501,17.502 C13.501,17.226 13.725,17.002 14.001,17.002 C14.277,17.002 14.501,17.226 14.501,17.502 L14.501,22.502 C14.501,22.778 14.277,23.002 14.001,23.002 Z" id="Path" fill="#FFFFFF"></path>
            <path d="M19.001,32 L9,32 C8.724,32 8.5,31.776 8.5,31.5 L8.5,26.5 C8.5,26.224 8.724,26 9,26 L19.001,26 C19.277,26 19.501,26.224 19.501,26.5 L19.501,31.5 C19.501,31.776 19.277,32 19.001,32 Z M9.5,31 L18.501,31 L18.501,27 L9.5,27 L9.5,31 Z" id="Shape" fill="#FFFFFF"></path>
            <path d="M14.001,32 C13.725,32 13.501,31.776 13.501,31.5 L13.501,26.502 C13.501,26.226 13.725,26.002 14.001,26.002 C14.277,26.002 14.501,26.226 14.501,26.502 L14.501,31.5 C14.501,31.776 14.277,32 14.001,32 Z" id="Path" fill="#FFFFFF"></path>
            <path d="M39,32 L28.999,32 C28.723,32 28.499,31.776 28.499,31.5 L28.499,26.5 C28.499,26.224 28.723,26 28.999,26 L39,26 C39.276,26 39.5,26.224 39.5,26.5 L39.5,31.5 C39.5,31.776 39.276,32 39,32 Z M29.499,31 L38.5,31 L38.5,27 L29.499,27 L29.499,31 Z" id="Shape" fill="#E6E9ED"></path>
            <path d="M34,32 C33.724,32 33.5,31.776 33.5,31.5 L33.5,26.502 C33.5,26.226 33.724,26.002 34,26.002 C34.276,26.002 34.5,26.226 34.5,26.502 L34.5,31.5 C34.5,31.776 34.276,32 34,32 Z" id="Path" fill="#E6E9ED"></path>
            <path d="M39,41.002 L28.999,41.002 C28.723,41.002 28.499,40.778 28.499,40.502 L28.499,35.502 C28.499,35.226 28.723,35.002 28.999,35.002 L39,35.002 C39.276,35.002 39.5,35.226 39.5,35.502 L39.5,40.502 C39.5,40.778 39.276,41.002 39,41.002 Z M29.499,40.002 L38.5,40.002 L38.5,36.002 L29.499,36.002 L29.499,40.002 Z" id="Shape" fill="#E6E9ED"></path>
            <path d="M34,41.002 C33.724,41.002 33.5,40.778 33.5,40.502 L33.5,35.502 C33.5,35.226 33.724,35.002 34,35.002 C34.276,35.002 34.5,35.226 34.5,35.502 L34.5,40.502 C34.5,40.778 34.276,41.002 34,41.002 Z" id="Path" fill="#E6E9ED"></path>
            <path d="M18,46 L10,46 C9.724,46 9.5,45.776 9.5,45.5 L9.5,35.5 C9.5,35.224 9.724,35 10,35 L18,35 C18.276,35 18.5,35.224 18.5,35.5 L18.5,45.5 C18.5,45.776 18.276,46 18,46 Z M10.5,45 L17.5,45 L17.5,36 L10.5,36 L10.5,45 Z" id="Shape" fill="#007BC0"></path>
            <path d="M24.999,2.5 L3.001,2.5 C2.448,2.5 2.001,2.053 2.001,1.5 C2.001,0.947 2.448,0.5 3.001,0.5 L24.999,0.5 C25.552,0.5 25.999,0.947 25.999,1.5 C25.999,2.053 25.552,2.5 24.999,2.5 Z" id="Path" fill="#656D78"></path>
            <path d="M42.999,12.5 L24.981,12.5 L24.981,14.5 L42.999,14.5 C43.552,14.5 43.999,14.053 43.999,13.5 C43.999,12.947 43.552,12.5 42.999,12.5 Z" id="Path" fill="#545C66"></path>
            <path d="M45,46.5 L1,46.5 C0.447,46.5 0,46.053 0,45.5 C0,44.947 0.447,44.5 1,44.5 L45,44.5 C45.553,44.5 46,44.947 46,45.5 C46,46.053 45.553,46.5 45,46.5 Z" id="Path" fill="#656D78"></path>
        </g>
        <g id="Group-3" transform="translate(135.000000, 58.000000)">
            <rect id="Rectangle" fill="#FCBA04" x="0" y="0" width="32" height="32" rx="1"></rect>
            <g id="doctor-1" transform="translate(3.787500, 5.000000)">
                <g id="hair-cap" transform="translate(1.050000, 0.000000)">
                    <path d="M4.725,0 C7.3355625,0 9.45,1.8795 9.45,4.2 L8.5640625,4.2 L8.26875,4.2 L7.0875,4.2 L5.90625,4.2 L4.725,4.2 L3.54375,4.2 L2.3625,4.2 L1.18125,4.2 L0.8859375,4.2 L-4.4408921e-16,4.2 C-4.4408921e-16,1.8795 2.1144375,0 4.725,0 Z" id="Path" fill="#A9B5C4" fill-rule="nonzero"></path>
                    <path d="M-4.4408921e-16,4.2 L9.45,4.2 L9.45,7.37453273 C9.45,8.45011065 7.875,8.98789961 4.725,8.98789961 C1.575,8.98789961 -4.4408921e-16,8.45011065 -4.4408921e-16,7.37453273 L-4.4408921e-16,4.2 Z" id="Rectangle" fill="#798CA3"></path>
                    <path d="M4.65027427,0 C4.49818296,0 4.34819153,0.0076125 4.2,0.01995 C6.64006057,0.2186625 8.54915148,2.0125875 8.54915148,4.2 L8.55005143,4.2 L9.45,4.2 C9.45,1.8795 7.30212274,0 4.65027427,0 Z" id="Path" fill="#798CA3" fill-rule="nonzero"></path>
                </g>
                <g id="face-white" transform="translate(1.837500, 4.200000)" fill-rule="nonzero">
                    <path d="M7.875,8.8817842e-16 L7.875,1.834875 C7.875,3.44925 6.90375,4.837875 5.5125,5.44425 C5.0295,5.65425 4.496625,5.772375 3.9375,5.772375 C3.378375,5.772375 2.8455,5.65425 2.3625,5.44425 C0.97125,4.837875 0,3.44925 0,1.834875 L0,8.8817842e-16 L7.875,8.8817842e-16 Z" id="Path" fill="#EAC6BB"></path>
                    <path d="M6.82395,8.8817842e-16 L6.82395,1.834875 C6.82395,3.44925 5.8527,4.837875 4.46145,5.44425 C4.1328,5.5873125 3.779475,5.6833875 3.411975,5.733 C3.5844375,5.7561 3.759,5.772375 3.9375,5.772375 C4.496625,5.772375 5.0295,5.65425 5.5125,5.44425 C6.90375,4.837875 7.875,3.44925 7.875,1.834875 L7.875,8.8817842e-16 L6.82395,8.8817842e-16 Z" id="Path" fill="#D3B1A9"></path>
                    <path d="M5.5125,5.44425 L5.5125,8.922375 L2.3625,8.922375 L2.3625,5.44425 C2.8455,5.65425 3.378375,5.772375 3.9375,5.772375 C4.496625,5.772375 5.0295,5.65425 5.5125,5.44425 Z" id="Path" fill="#EAC6BB"></path>
                </g>
                <g id="body-coat" transform="translate(0.000000, 9.870000)">
                    <path d="M11.55,3.255 L11.55,5.0925 C11.55,5.236875 11.4345,5.355 11.2875,5.355 L0.2625,5.355 C0.118125,5.355 3.33066907e-16,5.236875 3.33066907e-16,5.0925 L3.33066907e-16,3.255 C3.33066907e-16,2.09475 0.93975,1.155 2.1,1.155 L3.9375,1.155 L7.6125,1.155 L9.45,1.155 C10.61025,1.155 11.55,2.09475 11.55,3.255 Z" id="Path" fill="#4A4A4A" fill-rule="nonzero"></path>
                    <path d="M5.775,0.484615385 C6.531,0.484615385 7.245,0.310961538 7.875,0 L7.875,1.29230769 L7.035,2.1 L5.775,1.69615385 L4.515,2.1 L3.675,1.29230769 L3.675,0 C4.305,0.310961538 5.019,0.484615385 5.775,0.484615385 Z" id="Path" fill="#6D7278" fill-rule="nonzero"></path>
                    <path d="M9.45,1.155 L8.39895,1.155 C9.5592,1.155 10.49895,2.09475 10.49895,3.255 L10.49895,5.0925 C10.49895,5.236875 10.38345,5.355 10.23645,5.355 L11.2875,5.355 C11.4345,5.355 11.55,5.236875 11.55,5.0925 L11.55,3.255 C11.55,2.09475 10.61025,1.155 9.45,1.155 Z" id="Path" fill="#2D2D2A" fill-rule="nonzero"></path>
                    <circle id="Oval" fill="#6D7278" cx="5.775" cy="2.4675" r="1"></circle>
                    <circle id="Oval" fill="#6D7278" cx="5.775" cy="3.5175" r="1"></circle>
                    <circle id="Oval" fill="#6D7278" cx="5.775" cy="4.5675" r="1"></circle>
                </g>
            </g>
            <g id="doctor-1" transform="translate(18.787500, 5.000000)">
                <g id="face-white" transform="translate(1.837500, 4.200000)" fill-rule="nonzero">
                    <path d="M7.875,8.8817842e-16 L7.875,1.834875 C7.875,3.44925 6.90375,4.837875 5.5125,5.44425 C5.0295,5.65425 4.496625,5.772375 3.9375,5.772375 C3.378375,5.772375 2.8455,5.65425 2.3625,5.44425 C0.97125,4.837875 0,3.44925 0,1.834875 L0,8.8817842e-16 L7.875,8.8817842e-16 Z" id="Path" fill="#EAC6BB"></path>
                    <path d="M6.82395,8.8817842e-16 L6.82395,1.834875 C6.82395,3.44925 5.8527,4.837875 4.46145,5.44425 C4.1328,5.5873125 3.779475,5.6833875 3.411975,5.733 C3.5844375,5.7561 3.759,5.772375 3.9375,5.772375 C4.496625,5.772375 5.0295,5.65425 5.5125,5.44425 C6.90375,4.837875 7.875,3.44925 7.875,1.834875 L7.875,8.8817842e-16 L6.82395,8.8817842e-16 Z" id="Path" fill="#D3B1A9"></path>
                    <path d="M5.5125,5.44425 L5.5125,8.922375 L2.3625,8.922375 L2.3625,5.44425 C2.8455,5.65425 3.378375,5.772375 3.9375,5.772375 C4.496625,5.772375 5.0295,5.65425 5.5125,5.44425 Z" id="Path" fill="#EAC6BB"></path>
                </g>
                <g id="hair-cap" transform="translate(1.837500, 0.000000)" fill-rule="nonzero">
                    <g id="Group">
                        <path d="M1.07386364,4.18125 L0,5.25 L0,3.20625 C0,1.4356875 1.43933523,0 3.22159091,0 L6.08522727,0 L6.08522727,1.425 C7.07318182,1.425 7.875,2.223 7.875,3.20625 L7.875,5.25 L6.80113636,4.18125 C6.80113636,4.18125 5.46954545,4.89375 3.9375,4.89375 C2.401875,4.89375 1.07386364,4.18125 1.07386364,4.18125 Z" id="Path" fill="#965353"></path>
                        <path d="M6.0703125,2.49375 C6.46842656,2.49375 6.7921875,2.81330625 6.7921875,3.20625 L6.7921875,3.91875 L7.875,4.9875 L7.875,3.20625 C7.875,2.223 7.0665,1.425 6.0703125,1.425 L6.0703125,0 L4.9875,0 L4.9875,1.425 C4.9875,2.01530625 5.47223906,2.49375 6.0703125,2.49375 Z" id="Path" fill="#844747"></path>
                    </g>
                </g>
                <g id="body-coat" transform="translate(0.000000, 10.237411)">
                    <path d="M11.55,2.88758887 L11.55,4.72508887 C11.55,4.86946387 11.4345,4.98758887 11.2875,4.98758887 L0.2625,4.98758887 C0.118125,4.98758887 3.33066907e-16,4.86946387 3.33066907e-16,4.72508887 L3.33066907e-16,2.88758887 C3.33066907e-16,1.72733887 0.93975,0.787588868 2.1,0.787588868 L3.9375,0.787588868 L7.6125,0.787588868 L9.45,0.787588868 C10.61025,0.787588868 11.55,1.72733887 11.55,2.88758887 Z" id="Path-Copy" fill="#AB7969" fill-rule="nonzero"></path>
                    <path d="M9.45,0.787588868 L8.39895,0.787588868 C9.5592,0.787588868 10.49895,1.72733887 10.49895,2.88758887 L10.49895,4.72508887 C10.49895,4.86946387 10.38345,4.98758887 10.23645,4.98758887 L11.2875,4.98758887 C11.4345,4.98758887 11.55,4.86946387 11.55,4.72508887 L11.55,2.88758887 C11.55,1.72733887 10.61025,0.787588868 9.45,0.787588868 Z" id="Path-Copy-3" fill="#976656" fill-rule="nonzero"></path>
                    <path d="M7.59447116,0.000446668785 L7.612,0.017 L7.61265538,1.03367477 C7.2544578,1.35655017 6.56577135,1.57508887 5.775,1.57508887 C4.98355891,1.57508887 4.29437572,1.35617984 3.93643521,1.03285418 L3.93625357,0.0174876623 C3.94257567,0.0117745323 3.94900118,0.00609399065 3.95552884,0.000446668785 C4.31852677,0.313774092 4.99740818,0.525088868 5.775,0.525088868 C6.50750398,0.525088868 7.15241291,0.33756935 7.52818321,0.0533020967 L7.59447116,0.000446668785 Z" id="Combined-Shape" fill="#C19789"></path>
                </g>
                <path d="M21.5248688,0.255474333" id="Path-2" stroke="#979797" stroke-width="0.5"></path>
            </g>
            <g id="doctor-1" transform="translate(10.787500, 12.000000)">
                <g id="face-white" transform="translate(1.837500, 4.200000)" fill-rule="nonzero">
                    <path d="M7.875,8.8817842e-16 L7.875,1.834875 C7.875,3.44925 6.90375,4.837875 5.5125,5.44425 C5.0295,5.65425 4.496625,5.772375 3.9375,5.772375 C3.378375,5.772375 2.8455,5.65425 2.3625,5.44425 C0.97125,4.837875 0,3.44925 0,1.834875 L0,8.8817842e-16 L7.875,8.8817842e-16 Z" id="Path" fill="#EAC6BB"></path>
                    <path d="M6.82395,8.8817842e-16 L6.82395,1.834875 C6.82395,3.44925 5.8527,4.837875 4.46145,5.44425 C4.1328,5.5873125 3.779475,5.6833875 3.411975,5.733 C3.5844375,5.7561 3.759,5.772375 3.9375,5.772375 C4.496625,5.772375 5.0295,5.65425 5.5125,5.44425 C6.90375,4.837875 7.875,3.44925 7.875,1.834875 L7.875,8.8817842e-16 L6.82395,8.8817842e-16 Z" id="Path" fill="#D3B1A9"></path>
                    <path d="M5.5125,5.44425 L5.5125,8.922375 L2.3625,8.922375 L2.3625,5.44425 C2.8455,5.65425 3.378375,5.772375 3.9375,5.772375 C4.496625,5.772375 5.0295,5.65425 5.5125,5.44425 Z" id="Path" fill="#EAC6BB"></path>
                </g>
                <g id="hair-cap" transform="translate(1.837500, 0.000000)" fill-rule="nonzero">
                    <g id="Group">
                        <path d="M0,2.45 C0,1.67533333 0.469,1.05 1.05,1.05 L1.05,3.85 C1.05,4.62466667 0.581,5.25 0,5.25 L0,2.45 L0,2.45 Z" id="Path" fill="#E9573F"></path>
                        <path d="M7.875,3.91451002 L7.875,7.0875 C7.875,6.19983825 7.42379167,5.41730906 6.7375,4.94756786 L6.7375,4.94383975 C6.30904167,4.64931947 5.78579167,4.47782665 5.22083333,4.47782665 L5.22083333,4.46999763 L2.1875,4.46999763 C1.55808333,4.46999763 1.05,4.49543159 1.05,3.8765662 L1.05,1.11470333 C1.77420833,0.387722897 2.779,0 3.89375,0 C6.09291667,0 7.875,1.75220925 7.875,3.91451002 Z" id="Path" fill="#F06543"></path>
                        <path d="M3.98683719,0 C3.79094785,0 3.60024272,0.0167764715 3.4125,0.0417547736 C5.30473923,0.305704592 6.76298544,1.93637762 6.76298544,3.91451002 L6.76298544,4.94309413 C6.76335574,4.94346694 6.76372604,4.94346694 6.76409634,4.94383975 L6.76409634,4.94756786 C7.43434155,5.41730906 7.875,6.19983825 7.875,7.0875 L7.875,3.91451002 C7.875,1.75220925 6.13458427,0 3.98683719,0 Z" id="Path" fill="#E9573F"></path>
                    </g>
                </g>
                <g id="body-coat" transform="translate(-0.000000, 9.870000)">
                    <path d="M11.55,3.255 L11.55,5.0925 C11.55,5.236875 11.4345,5.355 11.2875,5.355 L0.2625,5.355 C0.118125,5.355 3.33066907e-16,5.236875 3.33066907e-16,5.0925 L3.33066907e-16,3.255 C3.33066907e-16,2.09475 0.93975,1.155 2.1,1.155 L3.9375,1.155 L7.6125,1.155 L9.45,1.155 C10.61025,1.155 11.55,2.09475 11.55,3.255 Z" id="Path" fill="#00A676" fill-rule="nonzero"></path>
                    <path d="M5.775,0.484615385 C6.531,0.484615385 7.245,0.310961538 7.875,0 L7.875,1.29230769 L7.035,2.1 L5.775,1.69615385 L4.515,2.1 L3.675,1.29230769 L3.675,0 C4.305,0.310961538 5.019,0.484615385 5.775,0.484615385 Z" id="Path" fill="#22C293" fill-rule="nonzero"></path>
                    <path d="M9.45,1.155 L8.39895,1.155 C9.5592,1.155 10.49895,2.09475 10.49895,3.255 L10.49895,5.0925 C10.49895,5.236875 10.38345,5.355 10.23645,5.355 L11.2875,5.355 C11.4345,5.355 11.55,5.236875 11.55,5.0925 L11.55,3.255 C11.55,2.09475 10.61025,1.155 9.45,1.155 Z" id="Path" fill="#00966A" fill-rule="nonzero"></path>
                    <circle id="Oval" fill="#22C293" cx="5.775" cy="2.4675" r="1"></circle>
                </g>
                <path d="M21.5248688,0.255474333" id="Path-2" stroke="#979797" stroke-width="0.5"></path>
            </g>
        </g>
    </g>
</svg>