<svg height="104" viewBox="0 0 185 104" width="185" xmlns="http://www.w3.org/2000/svg"><g fill="none" fill-rule="evenodd"><path d="m0 0h185v104h-185z" fill="#fafbfb"/><g fill="#00a676" transform="translate(56 38)"><rect height="24" rx="1" width="67" y="7.5"/><path d="m77 8.65563492v22.24436508c0 .6075132-.4924868 1.1-1.1 1.1h-22.2443651c-.6075132 0-1.1-.4924868-1.1-1.1 0-.2917381.1158925-.5715274.3221826-.7778175l22.244365-22.24436504c.4295768-.42957672 1.1260582-.42957672 1.555635 0 .20629.20629002.3221825.48607932.3221825.77781746z" transform="matrix(.70710678 -.70710678 .70710678 .70710678 5.310137 50.819805)"/></g><g fill-rule="nonzero" transform="translate(71 46)"><path d="m40 0v6.99c0 6.15-3.7 11.44-9 13.75-1.84.8-3.87 1.25-6 1.25s-4.16-.45-6-1.25c-5.3-2.31-9-7.6-9-13.75v-6.99z" fill="#eac6bb"/><path d="m35.996 0v6.99c0 6.15-3.7 11.44-9 13.75-1.252.545-2.598.911-3.998 1.1.657.088 1.322.15 2.002.15 2.13 0 4.16-.45 6-1.25 5.3-2.31 9-7.6 9-13.75v-6.99z" fill="#d3b1a9"/><path d="m31 20.74v13.25h-12v-13.25c1.84.8 3.87 1.25 6 1.25s4.16-.45 6-1.25z" fill="#eac6bb"/></g><g fill-rule="nonzero" transform="translate(71 65)"><path d="m47 15v7c0 .55-.44 1-1 1h-42c-.55 0-1-.45-1-1v-7c0-4.42 3.58-8 8-8h7 1.0341628l5.9658372 15 5.9628547-15h1.0371453 7c4.42 0 8 3.58 8 8z" fill="#e6e9ed"/><path d="m39 7h-4.004c4.42 0 8 3.58 8 8v7c0 .55-.44 1-1 1h4.004c.56 0 1-.45 1-1v-7c0-4.42-3.58-8-8-8z" fill="#ccd1d9"/><path d="m31 7-5 16h-2l-5-16v-1c0 2.21 2.69 4 6 4s6-1.79 6-4z" fill="#00a676"/><g fill="#f5f7fa"><path d="m19 7 5 16h-2l-6-8 2-2-3-4z"/><path d="m26 23 5-16 4 2-3 4 2 2-6 8z"/></g></g><g fill-rule="evenodd"><g><circle cx="88" cy="41" fill="#a9b5c4" r="7"/><circle cx="85" cy="46" fill="#a9b5c4" r="6"/><circle cx="104" cy="41" fill="#798ca3" r="7"/><circle cx="107" cy="46" fill="#798ca3" r="6"/><circle cx="92" cy="34" fill="#a9b5c4" r="4"/><circle cx="101" cy="34" fill="#798ca3" r="4"/><g fill="#a9b5c4"><circle cx="97" cy="34" r="4"/><circle cx="97" cy="42" r="7"/></g></g><circle cx="84" cy="35" fill="#a9b5c4" r="2"/></g><g transform="translate(16 57)"><circle cx="12.5" cy="12.5" fill="#e8e9eb" fill-rule="evenodd" r="11"/><g fill-rule="nonzero"><path d="m13.1268509 17.5c.1923538 0 .434874-.1306444.5411179-.2928534l.3471374-.5268838c.0555023-.0921701.1047363-.2544392.1098938-.3621913v-1.7863101h-3.25l.00121 1.7863101c.0002381.109114.0490158.271363.1088822.3621913l.3473358.5268838c.1062439.162209.3487839.2928534.5411377.2928534z" fill="#798ca3"/><path d="m14.1274399 14.8754749c0-.0051272.0014282-.0102544.0022415-.0160026.2000702-.6813018.724942-1.4887416 1.0605148-1.8753274.4884125-.561032.8848038-1.6225706.8848038-2.3695251v-.005007c0-1.99695914-1.6065125-3.61592465-3.5861679-3.6095943-2.0720734.00636757-3.5638321 1.70226168-3.5638321 3.6095943v.005007c0 .7469545.3963913 1.8084931.88480377 2.3695251.33557283.3865858.86044463 1.1940256 1.06051483 1.8753274 0 .0057482.0014282.0108754.0022415.0160026z" fill="#fcba04"/><path d="m10.55 10.937756c-.1794006 0-.325-.1470075-.325-.3281432.0013489-1.26658807 1.0205444-2.2956408 2.275-2.29700272.1794006 0 .325.14700753.325.32814324 0 .18113572-.1455994.32814325-.325.32814325-.8959915.00102144-1.6239883.7360591-1.625 1.64071623 0 .1811357-.1455994.3281432-.325.3281432z" fill="#ffe293"/></g></g><g transform="translate(143 44)"><circle cx="12.5" cy="12.5" fill="#e8e9eb" fill-rule="evenodd" r="11"/><path d="m12.5 19c3.5899323 0 6.5-2.9100677 6.5-6.5 0-3.58993235-2.9100677-6.5-6.5-6.5-3.58993235 0-6.5 2.91006765-6.5 6.5 0 3.5899323 2.91006765 6.5 6.5 6.5zm0-1.6774194c-2.66527336 0-4.82258065-2.1567953-4.82258065-4.8225806 0-2.66527336 2.15679538-4.82258065 4.82258065-4.82258065 2.6652734 0 4.8225806 2.15679538 4.8225806 4.82258065 0 2.6652734-2.1567953 4.8225806-4.8225806 4.8225806zm0-1.4677419c1.8527734 0 3.3548387-1.5020653 3.3548387-3.3548387s-1.5020653-3.35483871-3.3548387-3.35483871-3.35483871 1.50206531-3.35483871 3.35483871 1.50206531 3.3548387 3.35483871 3.3548387zm0-1.6774193c-.9249405 0-1.6774194-.7524789-1.6774194-1.6774194s.7524789-1.6774194 1.6774194-1.6774194 1.6774194.7524789 1.6774194 1.6774194-.7524789 1.6774194-1.6774194 1.6774194z" fill="#007bc0" fill-rule="nonzero"/></g><circle cx="36.5" cy="38.5" fill="#e8e9eb" r="11"/><g transform="translate(29.5 35.5)"><rect fill="#00a676" height="6.6" rx=".5" width="14.256"/><path d="m6 5.4h1.8l-1.8 1.8z" fill="#00a676" transform="matrix(-.70710678 -.70710678 .70710678 -.70710678 7.324264 15.63381)"/><g fill="#fff" fill-rule="nonzero"><path d="m6.813408 2.664h-5.181408c-.238896 0-.432-.193104-.432-.432s.193104-.432.432-.432h5.181408c.238896 0 .432.193104.432.432s-.193104.432-.432.432z"/><path d="m11.851248 2.664h-3.019248c-.238896 0-.432-.193104-.432-.432s.193104-.432.432-.432h3.019248c.238896 0 .432.193104.432.432s-.193104.432-.432.432z"/><path d="m10.651248 4.464h-3.019248c-.238896 0-.432-.193104-.432-.432s.193104-.432.432-.432h3.019248c.238896 0 .432.193104.432.432s-.193104.432-.432.432z"/><path d="m5.948544 4.464h-4.316544c-.238896 0-.432-.193104-.432-.432s.193104-.432.432-.432h4.316544c.238896 0 .432.193104.432.432s-.193104.432-.432.432z"/></g></g></g></svg>