<svg height="104" viewBox="0 0 185 104" width="185" xmlns="http://www.w3.org/2000/svg"><g fill="none" fill-rule="evenodd"><g fill="#00a676" transform="translate(56 38)"><rect height="24" rx="1" width="67" y="7.5"/><path d="m77 8.65563492v22.24436508c0 .6075132-.4924868 1.1-1.1 1.1h-22.2443651c-.6075132 0-1.1-.4924868-1.1-1.1 0-.2917381.1158925-.5715274.3221826-.7778175l22.244365-22.24436504c.4295768-.42957672 1.1260582-.42957672 1.555635 0 .20629.20629002.3221825.48607932.3221825.77781746z" transform="matrix(.70710678 -.70710678 .70710678 .70710678 5.310137 50.819805)"/></g><g fill-rule="nonzero" transform="translate(71 46)"><path d="m40 0v6.99c0 6.15-3.7 11.44-9 13.75-1.84.8-3.87 1.25-6 1.25s-4.16-.45-6-1.25c-5.3-2.31-9-7.6-9-13.75v-6.99z" fill="#eac6bb"/><path d="m35.996 0v6.99c0 6.15-3.7 11.44-9 13.75-1.252.545-2.598.911-3.998 1.1.657.088 1.322.15 2.002.15 2.13 0 4.16-.45 6-1.25 5.3-2.31 9-7.6 9-13.75v-6.99z" fill="#d3b1a9"/><path d="m31 20.74v13.25h-12v-13.25c1.84.8 3.87 1.25 6 1.25s4.16-.45 6-1.25z" fill="#eac6bb"/></g><g fill-rule="nonzero" transform="translate(71 65)"><path d="m47 15v7c0 .55-.44 1-1 1h-42c-.55 0-1-.45-1-1v-7c0-4.42 3.58-8 8-8h7 1.0341628l5.9658372 15 5.9628547-15h1.0371453 7c4.42 0 8 3.58 8 8z" fill="#e6e9ed"/><path d="m39 7h-4.004c4.42 0 8 3.58 8 8v7c0 .55-.44 1-1 1h4.004c.56 0 1-.45 1-1v-7c0-4.42-3.58-8-8-8z" fill="#ccd1d9"/><path d="m31 7-5 16h-2l-5-16v-1c0 2.21 2.69 4 6 4s6-1.79 6-4z" fill="#00a676"/><g fill="#f5f7fa"><path d="m19 7 5 16h-2l-6-8 2-2-3-4z"/><path d="m26 23 5-16 4 2-3 4 2 2-6 8z"/></g></g><g fill-rule="evenodd"><g><circle cx="88" cy="41" fill="#a9b5c4" r="7"/><circle cx="85" cy="46" fill="#a9b5c4" r="6"/><circle cx="104" cy="41" fill="#798ca3" r="7"/><circle cx="107" cy="46" fill="#798ca3" r="6"/><circle cx="92" cy="34" fill="#a9b5c4" r="4"/><circle cx="101" cy="34" fill="#798ca3" r="4"/><g fill="#a9b5c4"><circle cx="97" cy="34" r="4"/><circle cx="97" cy="42" r="7"/></g></g><circle cx="84" cy="35" fill="#a9b5c4" r="2"/></g><circle cx="28.5" cy="69.5" fill="#e8e9eb" fill-rule="evenodd" r="11"/><g fill-rule="nonzero" transform="translate(24.5 64.000019)"><path d="m4.62685089 10.4999815c.19235382 0 .43487396-.1306444.54111786-.2928534l.34713745-.52688383c.05550232-.09217012.10473633-.2544392.1098938-.36219131v-1.78631004h-3.25l.00121002 1.78631004c.00023804.10911404.04901581.27136309.10888214.36219131l.34733582.52688383c.10624389.162209.34878387.2928534.54113769.2928534z" fill="#798ca3"/><path d="m5.62743988 7.87545643c0-.00512723.00142822-.01025447.00224152-.01600259.20007019-.6813018.72494201-1.48874167 1.06051483-1.87532741.48841247-.56103202.88480377-1.6225706.88480377-2.36952508v-.00500707c0-1.99695913-1.60651245-3.61592463-3.58616791-3.60959428-2.07207336.00636757-3.56383209 1.70226168-3.56383209 3.60959428v.00500707c0 .74695448.3963913 1.80849306.88480377 2.36952508.33557282.38658574.86044464 1.19402561 1.06051483 1.87532741 0 .00574812.00142823.01087536.00224152.01600259z" fill="#fcba04"/><path d="m2.05 3.93773752c-.17940063 0-.325-.14700753-.325-.32814324.00134888-1.26658805 1.02054443-2.29564078 2.275-2.2970027.17940063 0 .325.14700753.325.32814324s-.14559937.32814325-.325.32814325c-.89599152.00102144-1.62398834.7360591-1.625 1.64071621 0 .18113571-.14559937.32814324-.325.32814324z" fill="#ffe293"/></g><g transform="translate(143 44)"><circle cx="12.5" cy="12.5" fill="#e8e9eb" fill-rule="evenodd" r="11"/><path d="m12.5 19c3.5899323 0 6.5-2.9100677 6.5-6.5 0-3.58993235-2.9100677-6.5-6.5-6.5-3.58993235 0-6.5 2.91006765-6.5 6.5 0 3.5899323 2.91006765 6.5 6.5 6.5zm0-1.6774194c-2.66527336 0-4.82258065-2.1567953-4.82258065-4.8225806 0-2.66527336 2.15679538-4.82258065 4.82258065-4.82258065 2.6652734 0 4.8225806 2.15679538 4.8225806 4.82258065 0 2.6652734-2.1567953 4.8225806-4.8225806 4.8225806zm0-1.4677419c1.8527734 0 3.3548387-1.5020653 3.3548387-3.3548387s-1.5020653-3.35483871-3.3548387-3.35483871-3.35483871 1.50206531-3.35483871 3.35483871 1.50206531 3.3548387 3.35483871 3.3548387zm0-1.6774193c-.9249405 0-1.6774194-.7524789-1.6774194-1.6774194s.7524789-1.6774194 1.6774194-1.6774194 1.6774194.7524789 1.6774194 1.6774194-.7524789 1.6774194-1.6774194 1.6774194z" fill="#007bc0" fill-rule="nonzero"/></g><circle cx="36.5" cy="38.5" fill="#e8e9eb" r="11"/><g transform="translate(29.5 35.5)"><rect fill="#00a676" height="6.6" rx=".5" width="14.256"/><path d="m6 5.4h1.8l-1.8 1.8z" fill="#00a676" transform="matrix(-.70710678 -.70710678 .70710678 -.70710678 7.324264 15.63381)"/><g fill="#fff" fill-rule="nonzero"><path d="m6.813408 2.664h-5.181408c-.238896 0-.432-.193104-.432-.432s.193104-.432.432-.432h5.181408c.238896 0 .432.193104.432.432s-.193104.432-.432.432z"/><path d="m11.851248 2.664h-3.019248c-.238896 0-.432-.193104-.432-.432s.193104-.432.432-.432h3.019248c.238896 0 .432.193104.432.432s-.193104.432-.432.432z"/><path d="m10.651248 4.464h-3.019248c-.238896 0-.432-.193104-.432-.432s.193104-.432.432-.432h3.019248c.238896 0 .432.193104.432.432s-.193104.432-.432.432z"/><path d="m5.948544 4.464h-4.316544c-.238896 0-.432-.193104-.432-.432s.193104-.432.432-.432h4.316544c.238896 0 .432.193104.432.432s-.193104.432-.432.432z"/></g></g></g></svg>