<?xml version="1.0" encoding="UTF-8"?>
<svg width="1047px" height="588px" viewBox="0 0 1047 588" version="1.1" xmlns="http://www.w3.org/2000/svg" xmlns:xlink="http://www.w3.org/1999/xlink">
    <title>svg/input</title>
    <g id="svg/input" stroke="none" stroke-width="1" fill="none" fill-rule="evenodd">
        <rect fill="#FFFFFF" x="0" y="0" width="1047" height="588"></rect>
        <g id="Group-2" transform="translate(255.000000, 45.000000)">
            <rect id="Rectangle" fill="#E9FAFF" x="5.66315789" y="33.8823529" width="515.347368" height="344.470588"></rect>
            <g id="20-treatment,-man,-immunity,-medical,-technology,-medicine,-equipment" transform="translate(186.884211, 118.588235)" fill-rule="nonzero">
                <g id="Group" transform="translate(0.000000, -0.000000)">
                    <path d="M39.6421053,62.1176471 L22.6526316,79.0588235 L22.6526316,50.8235294 C22.6526316,22.7576471 45.4241895,0 73.6210526,0 L118.926316,0 L118.926316,22.5882353 C134.556632,22.5882353 147.242105,35.2376471 147.242105,50.8235294 L147.242105,79.0588235 L130.252632,62.1176471 C130.252632,62.1176471 109.185684,73.4117647 84.9473684,73.4117647 C60.6524211,73.4117647 39.6421053,62.1176471 39.6421053,62.1176471 Z" id="Path" fill="#965353"></path>
                    <path d="M118.926316,39.5294118 C125.172779,39.5294118 130.252632,44.5948235 130.252632,50.8235294 L130.252632,62.1176471 L147.242105,79.0588235 L147.242105,50.8235294 C147.242105,35.2376471 134.556632,22.5882353 118.926316,22.5882353 L118.926316,0 L101.936842,0 L101.936842,22.5882353 C101.936842,31.9454118 109.542463,39.5294118 118.926316,39.5294118 Z" id="Path" fill="#844747"></path>
                    <path d="M147.242105,79.0588235 L147.242105,101.647059 C147.242105,125.765647 133.429663,146.710588 113.263158,156.988235 C104.768421,161.342118 95.1410526,163.764706 84.9473684,163.764706 C74.7536842,163.764706 65.1263158,161.336471 56.6315789,156.988235 C36.4707368,146.716235 22.6526316,125.765647 22.6526316,101.647059 L22.6526316,79.0588235 L39.6421053,62.1176471 C39.6421053,62.1176471 60.6524211,73.4117647 84.9473684,73.4117647 C109.185684,73.4117647 130.252632,62.1176471 130.252632,62.1176471 L147.242105,79.0588235 Z" id="Path" fill="#EAC6BB"></path>
                    <path d="M130.252632,62.1176471 L130.235642,62.1289412 L130.235642,101.647059 C130.235642,125.765647 116.4232,146.710588 96.2566947,156.988235 C90.1688,160.105412 83.4862737,162.189176 76.4413053,163.143529 C79.2275789,163.521882 82.0591579,163.764706 84.9473684,163.764706 C95.1410526,163.764706 104.768421,161.336471 113.263158,156.988235 C133.429663,146.716235 147.242105,125.765647 147.242105,101.647059 L147.242105,79.0588235 L130.252632,62.1176471 Z" id="Path" fill="#D3B1A9"></path>
                    <path d="M84.9473684,163.764706 C95.1410526,163.764706 104.768421,161.336471 113.263158,156.988235 L113.263158,175.058824 L101.936842,186.352941 L84.9473684,180.705882 L67.9578947,186.352941 L56.6315789,175.058824 L56.6315789,156.988235 C65.1263158,161.336471 74.7536842,163.764706 84.9473684,163.764706 Z" id="Path" fill="#87BCF4"></path>
                    <path d="M67.9578947,186.352941 L84.9473684,180.705882 L101.936842,186.352941 L113.263158,175.058824 L135.915789,175.058824 C154.666505,175.058824 169.894737,190.198588 169.894737,208.941176 L169.894737,237.176471 L0,237.176471 L0,208.941176 C0,190.198588 15.1772632,175.058824 33.9789474,175.058824 L56.6315789,175.058824 L67.9578947,186.352941 Z" id="Path" fill="#5D9CEC"></path>
                    <path d="M135.915789,175.058824 L118.909326,175.058824 C137.660042,175.058824 152.888274,190.198588 152.888274,208.941176 L152.888274,237.176471 L169.894737,237.176471 L169.894737,208.941176 C169.894737,190.198588 154.666505,175.058824 135.915789,175.058824 Z" id="Path" fill="#4A89DC"></path>
                </g>
            </g>
            <g id="43-brain,-computer,-tomography,-medical,-technology,-medicine,-equipment" transform="translate(0.000000, 16.941176)" fill-rule="nonzero">
                <g id="Group" transform="translate(8.406250, 336.770053)">
                    <path d="M184.9375,101.031016 L336.25,101.031016 L353.0625,101.031016 C362.393438,101.031016 369.875,108.51573 369.875,117.869519 L369.875,126.28877 L151.3125,126.28877 L151.3125,117.869519 C151.3125,108.51573 158.878125,101.031016 168.125,101.031016 L184.9375,101.031016 Z" id="Path" fill="#E6E9ED"></path>
                    <polygon id="Path" fill="#CCD1D9" points="323.640625 33.6770053 340.453125 101.031016 180.725969 101.031016 197.538469 33.6770053"></polygon>
                    <path d="M0.4203125,0 L521.1875,0 L521.1875,16.9226952 C521.1875,26.1838717 513.705938,33.6770053 504.459063,33.6770053 L319.4375,33.6770053 L201.75,33.6770053 L16.7284375,33.6770053 C7.4815625,33.6770053 0,26.1754524 0,16.9226952 L0,0 L0.4203125,0 Z" id="Path" fill="#E6E9ED"></path>
                </g>
                <path d="M512.78125,378.849472 L25.21875,378.849472 C11.3148125,378.849472 0,367.517159 0,353.591718 L0,25.257754 C0,11.3323123 11.3148125,0 25.21875,0 L512.78125,0 C526.685187,0 538,11.3323123 538,25.257754 L538,353.591718 C538,367.517159 526.685187,378.849472 512.78125,378.849472 Z M25.21875,16.8385027 C20.5785,16.8385027 16.8125,20.6187465 16.8125,25.257754 L16.8125,353.591718 C16.8125,358.247564 20.5785,362.010969 25.21875,362.010969 L512.78125,362.010969 C517.4215,362.010969 521.1875,358.247564 521.1875,353.591718 L521.1875,25.257754 C521.1875,20.6187465 517.4215,16.8385027 512.78125,16.8385027 L25.21875,16.8385027 Z" id="Shape" fill="#E6E9ED"></path>
                <path d="M269.252187,366.220595 C264.603531,366.220595 260.803906,362.457189 260.803906,357.801343 C260.803906,353.145497 264.519469,349.382092 269.159719,349.382092 L269.252188,349.382092 C273.892438,349.382092 277.658438,353.145497 277.658438,357.801343 C277.658438,362.457189 273.892437,366.220595 269.252187,366.220595 Z" id="Path" fill="#CCD1D9"></path>
            </g>
            <path d="M135.978947,147 C154.729663,147 169.957895,162.139765 169.957895,180.882353 C169.957895,199.579765 154.729663,214.764706 135.978947,214.764706 C117.177263,214.764706 102,199.579765 102,180.882353 C102,162.139765 117.177263,147 135.978947,147 Z" id="Path" fill="#FCBA04" fill-rule="nonzero"></path>
            <path d="M125.833333,163 C123.167448,163 121,164.961914 121,167.375 L121,193.625 C121,196.038086 123.167448,198 125.833333,198 L145.166667,198 C147.832552,198 150,196.038086 150,193.625 L150,173.9375 L140.333333,173.9375 C138.996615,173.9375 137.916667,172.959961 137.916667,171.75 L137.916667,163 L125.833333,163 Z M140.333333,163 L140.333333,171.75 L150,171.75 L140.333333,163 Z M129.458333,180.5 L141.541667,180.5 C142.20625,180.5 142.75,180.992187 142.75,181.59375 C142.75,182.195312 142.20625,182.6875 141.541667,182.6875 L129.458333,182.6875 C128.79375,182.6875 128.25,182.195312 128.25,181.59375 C128.25,180.992187 128.79375,180.5 129.458333,180.5 Z M129.458333,184.875 L141.541667,184.875 C142.20625,184.875 142.75,185.367187 142.75,185.96875 C142.75,186.570312 142.20625,187.0625 141.541667,187.0625 L129.458333,187.0625 C128.79375,187.0625 128.25,186.570312 128.25,185.96875 C128.25,185.367187 128.79375,184.875 129.458333,184.875 Z M129.458333,189.25 L141.541667,189.25 C142.20625,189.25 142.75,189.742187 142.75,190.34375 C142.75,190.945312 142.20625,191.4375 141.541667,191.4375 L129.458333,191.4375 C128.79375,191.4375 128.25,190.945312 128.25,190.34375 C128.25,189.742187 128.79375,189.25 129.458333,189.25 Z" id="Shape" fill="#FFFFFF" fill-rule="nonzero"></path>
            <path d="M171.978947,47 C190.724,47 205.957895,62.1849412 205.957895,80.8823529 C205.957895,90.2 202.163579,98.6705882 195.990737,104.825882 C189.812232,110.981176 181.317495,114.764706 171.978947,114.764706 C153.228232,114.764706 138,99.5741176 138,80.8823529 C138,62.1905882 153.233895,47 171.978947,47 Z" id="Path" fill="#ED5565" fill-rule="nonzero"></path>
            <path d="M154.811719,83.6434559 L169.281836,97.1286953 C169.882422,97.6882488 170.675195,98 171.5,98 C172.324805,98 173.117578,97.6882488 173.718164,97.1286953 L188.188281,83.6434559 C190.622656,81.381261 192,78.2077933 192,74.8904404 L192,74.4268103 C192,68.8392689 187.956055,64.0750705 182.438672,63.1558041 C178.787109,62.5482888 175.071484,63.7393384 172.460938,66.345259 L171.5,67.3044936 L170.539062,66.345259 C167.928516,63.7393384 164.212891,62.5482888 160.561328,63.1558041 C155.043945,64.0750705 151,68.8392689 151,74.4268103 L151,74.8904404 C151,78.2077933 152.377344,81.381261 154.811719,83.6434559 Z" id="Path" fill="#FFFFFF" fill-rule="nonzero"></path>
            <path d="M271.978947,6 C290.729663,6 305.957895,21.1397647 305.957895,39.8823529 C305.957895,58.5797647 290.729663,73.7647059 271.978947,73.7647059 C253.177263,73.7647059 238,58.5797647 238,39.8823529 C238,21.1397647 253.177263,6 271.978947,6 Z" id="Path" fill="#00A676" fill-rule="nonzero"></path>
            <path d="M405.901263,80.8823529 C405.901263,99.5741176 390.724,114.764706 371.978947,114.764706 C362.583768,114.764706 354.089032,110.981176 347.910526,104.825882 C341.794316,98.6705882 338,90.2 338,80.8823529 C338,62.1849412 353.182926,47 371.922316,47 C390.724,47 405.901263,62.1905882 405.901263,80.8823529 Z" id="Path" fill="#F06543" fill-rule="nonzero"></path>
            <path d="M407.978947,147 C426.729663,147 441.957895,162.139765 441.957895,180.882353 C441.957895,199.579765 426.729663,214.764706 407.978947,214.764706 C389.177263,214.764706 374,199.579765 374,180.882353 C374,162.139765 389.177263,147 407.978947,147 Z" id="Path" fill="#27BAFF" fill-rule="nonzero"></path>
            <path d="M395.9,173.9375 C392.86125,173.9375 390.4,171.490234 390.4,168.46875 C390.4,165.447266 392.86125,163 395.9,163 C398.93875,163 401.4,165.447266 401.4,168.46875 C401.4,171.490234 398.93875,173.9375 395.9,173.9375 Z M421.2,173.9375 C418.16125,173.9375 415.7,171.490234 415.7,168.46875 C415.7,165.447266 418.16125,163 421.2,163 C424.23875,163 426.7,165.447266 426.7,168.46875 C426.7,171.490234 424.23875,173.9375 421.2,173.9375 Z M386,183.418945 C386,179.392578 389.28625,176.125 393.335625,176.125 L396.27125,176.125 C397.364375,176.125 398.4025,176.364258 399.3375,176.788086 C399.248125,177.280273 399.206875,177.792969 399.206875,178.3125 C399.206875,180.923828 400.361875,183.268555 402.18375,184.875 C402.17,184.875 402.15625,184.875 402.135625,184.875 L387.464375,184.875 C386.66,184.875 386,184.21875 386,183.418945 Z M413.864375,184.875 C413.850625,184.875 413.836875,184.875 413.81625,184.875 C415.645,183.268555 416.793125,180.923828 416.793125,178.3125 C416.793125,177.792969 416.745,177.287109 416.6625,176.788086 C417.5975,176.357422 418.635625,176.125 419.72875,176.125 L422.664375,176.125 C426.71375,176.125 430,179.392578 430,183.418945 C430,184.225586 429.34,184.875 428.535625,184.875 L413.864375,184.875 Z M414.6,178.3125 C414.6,181.935547 411.64375,184.875 408,184.875 C404.35625,184.875 401.4,181.935547 401.4,178.3125 C401.4,174.689453 404.35625,171.75 408,171.75 C411.64375,171.75 414.6,174.689453 414.6,178.3125 Z M394.8,196.174805 C394.8,191.143555 398.904375,187.0625 403.964375,187.0625 L412.035625,187.0625 C417.095625,187.0625 421.2,191.143555 421.2,196.174805 C421.2,197.179687 420.381875,198 419.364375,198 L396.635625,198 C395.625,198 394.8,197.186523 394.8,196.174805 Z" id="Shape" fill="#FFFFFF" fill-rule="nonzero"></path>
            <path d="M272.001474,327.546353 C268.869747,327.546353 266.31,325.022118 266.31,321.899294 C266.31,318.776471 268.813116,316.252235 271.939179,316.252235 L272.001474,316.252235 C275.127537,316.252235 277.664632,318.776471 277.664632,321.899294 C277.664632,325.022118 275.127537,327.546353 272.001474,327.546353 Z" id="Path" fill="#87BCF4" fill-rule="nonzero"></path>
            <path d="M272.001474,350.157176 C268.869747,350.157176 266.31,347.632941 266.31,344.510118 C266.31,341.387294 268.813116,338.863059 271.939179,338.863059 L272.001474,338.863059 C275.127537,338.863059 277.664632,341.387294 277.664632,344.510118 C277.664632,347.632941 275.127537,350.157176 272.001474,350.157176 Z" id="Path" fill="#87BCF4" fill-rule="nonzero"></path>
            <path d="M186.884211,186.375529 L169.9004,186.375529 C166.768674,186.375529 164.237242,183.851294 164.237242,180.728471 C164.237242,177.605647 166.768674,175.081412 169.9004,175.081412 L186.884211,175.081412 C190.015937,175.081412 192.547368,177.605647 192.547368,180.728471 C192.547368,183.851294 190.015937,186.375529 186.884211,186.375529 Z" id="Path" fill="#DAA000" fill-rule="nonzero"></path>
            <path d="M373.768421,186.375529 L356.778947,186.375529 C353.647221,186.375529 351.115789,183.851294 351.115789,180.728471 C351.115789,177.605647 353.647221,175.081412 356.778947,175.081412 L373.768421,175.081412 C376.900147,175.081412 379.431579,177.605647 379.431579,180.728471 C379.431579,183.851294 376.900147,186.375529 373.768421,186.375529 Z" id="Path" fill="#22A7E5" fill-rule="nonzero"></path>
            <path d="M335.904547,122.479059 C334.454779,122.479059 333.005011,121.925647 331.900695,120.824471 C329.6864,118.616471 329.6864,115.047529 331.900695,112.839529 L343.917916,100.862118 C346.132211,98.6541176 349.711326,98.6541176 351.925621,100.862118 C354.139916,103.070118 354.139916,106.639059 351.925621,108.847059 L339.9084,120.824471 C338.804084,121.931294 337.354316,122.479059 335.904547,122.479059 Z" id="Path" fill="#E9573F" fill-rule="nonzero"></path>
            <path d="M271.842905,96.0112941 C268.711179,96.0112941 266.179747,93.4870588 266.179747,90.3642353 L266.179747,73.4230588 C266.179747,70.3002353 268.711179,67.776 271.842905,67.776 C274.974632,67.776 277.506063,70.3002353 277.506063,73.4230588 L277.506063,90.3642353 C277.506063,93.4870588 274.974632,96.0112941 271.842905,96.0112941 Z" id="Path" fill="#00966A" fill-rule="nonzero"></path>
            <path d="M207.769937,122.473412 C206.320168,122.473412 204.8704,121.92 203.766084,120.818824 L191.754526,108.841412 C189.540232,106.633412 189.540232,103.064471 191.754526,100.856471 C193.968821,98.6484706 197.547937,98.6484706 199.762232,100.856471 L211.773789,112.833882 C213.988084,115.041882 213.988084,118.610824 211.773789,120.818824 C210.663811,121.92 209.214042,122.473412 207.769937,122.473412 Z" id="Path" fill="#DA4453" fill-rule="nonzero"></path>
            <path d="M407.758695,220.257882 L407.758695,220.257882 C385.898905,220.257882 368.110926,202.520471 368.110926,180.717176 C368.110926,158.925176 385.893242,141.187765 407.747368,141.187765 C429.601495,141.187765 447.389474,158.925176 447.389474,180.717176 C447.383811,202.503529 429.601495,220.246588 407.758695,220.257882 Z M407.747368,152.481882 C392.134042,152.481882 379.437242,165.148235 379.437242,180.717176 C379.437242,196.291765 392.139705,208.963765 407.753032,208.963765 C423.360695,208.952471 436.057495,196.280471 436.063158,180.717176 C436.063158,165.148235 423.360695,152.481882 407.747368,152.481882 Z" id="Shape" fill="#27BAFF" fill-rule="nonzero"></path>
            <path d="M135.921453,220.257882 C135.915789,220.257882 135.915789,220.257882 135.921453,220.257882 C114.061663,220.257882 96.2736842,202.520471 96.2736842,180.717176 C96.2736842,158.925176 114.056,141.187765 135.910126,141.187765 C157.764253,141.187765 175.552232,158.925176 175.552232,180.717176 C175.546568,202.503529 157.764253,220.246588 135.921453,220.257882 Z M135.910126,152.481882 C120.2968,152.481882 107.6,165.148235 107.6,180.717176 C107.6,196.291765 120.302463,208.963765 135.915789,208.963765 C151.523453,208.952471 164.220253,196.280471 164.225916,180.717176 C164.225916,165.148235 151.523453,152.481882 135.910126,152.481882 Z" id="Shape" fill="#FCBA04" fill-rule="nonzero"></path>
            <path d="M271.848568,79.0701176 C271.842905,79.0701176 271.842905,79.0701176 271.848568,79.0701176 C249.988779,79.0701176 232.2008,61.3327059 232.2008,39.5294118 C232.2008,17.7374118 249.983116,-5.68434189e-14 271.837242,-5.68434189e-14 C293.691368,-5.68434189e-14 311.479347,17.7374118 311.479347,39.5294118 C311.473684,61.3157647 293.691368,79.0588235 271.848568,79.0701176 Z M271.837242,11.2941176 C256.223916,11.2941176 243.527116,23.9604706 243.527116,39.5294118 C243.527116,55.104 256.229579,67.776 271.842905,67.776 C287.450568,67.7647059 300.147368,55.0927059 300.153032,39.5294118 C300.153032,23.9604706 287.450568,11.2941176 271.837242,11.2941176 Z" id="Shape" fill="#00A676" fill-rule="nonzero"></path>
            <path d="M371.956211,120.429176 C350.096421,120.429176 332.308442,102.691765 332.308442,80.8884706 C332.308442,59.0964706 350.090758,41.3590588 371.944884,41.3590588 C393.799011,41.3590588 411.586989,59.0964706 411.586989,80.8884706 C411.581326,102.680471 393.799011,120.417882 371.956211,120.429176 Z M371.944884,52.6531765 C356.331558,52.6531765 343.634758,65.3195294 343.634758,80.8884706 C343.634758,96.4630588 356.337221,109.135059 371.950547,109.135059 C387.558211,109.123765 400.255011,96.4517647 400.260674,80.8884706 C400.260674,65.3195294 387.558211,52.6531765 371.944884,52.6531765 Z" id="Shape" fill="#F06543" fill-rule="nonzero"></path>
            <path d="M171.735263,120.429176 C171.7296,120.429176 171.7296,120.429176 171.735263,120.429176 C149.875474,120.429176 132.087495,102.691765 132.087495,80.8884706 C132.087495,59.0964706 149.869811,41.3590588 171.723937,41.3590588 C193.578063,41.3590588 211.366042,59.0964706 211.366042,80.8884706 C211.360379,102.680471 193.583726,120.417882 171.735263,120.429176 Z M171.723937,52.6531765 C156.110611,52.6531765 143.413811,65.3195294 143.413811,80.8884706 C143.413811,96.4630588 156.116274,109.135059 171.7296,109.135059 C187.337263,109.123765 200.034063,96.4517647 200.039726,80.8884706 C200.039726,65.3195294 187.337263,52.6531765 171.723937,52.6531765 Z" id="Shape" fill="#ED5565" fill-rule="nonzero"></path>
            <path d="M292.002317,38.25 C292.002317,47.2265625 283.049192,54.5 272.002317,54.5 C269.103879,54.5 266.353879,54 263.869504,53.1015625 C262.939817,53.78125 261.424192,54.7109375 259.627317,55.4921875 C257.752317,56.3046875 255.494504,57 253.252317,57 C252.744504,57 252.291379,56.6953125 252.096067,56.2265625 C251.900754,55.7578125 252.010129,55.2265625 252.361692,54.8671875 L252.361692,54.8671875 L252.361692,54.8671875 L252.361692,54.8671875 L252.361692,54.8671875 L252.385129,54.84375 C252.408567,54.8203125 252.439817,54.7890625 252.486692,54.734375 C252.572629,54.640625 252.705442,54.4921875 252.869504,54.2890625 C253.189817,53.8984375 253.619504,53.3203125 254.057004,52.6015625 C254.838254,51.3046875 255.580442,49.6015625 255.728879,47.6875 C253.385129,45.03125 252.002317,41.7734375 252.002317,38.25 C252.002317,29.2734375 260.955442,22 272.002317,22 C283.049192,22 292.002317,29.2734375 292.002317,38.25 Z" id="Path" fill="#FFFFFF" fill-rule="nonzero"></path>
            <path d="M372.000601,63 C371.367804,63 370.742819,63.1093536 370.149083,63.3202497 L348.235548,71.2327614 C347.493378,71.5061453 347.001202,72.2091325 347.001202,72.9980404 C347.001202,73.7869483 347.493378,74.4899355 348.235548,74.7633194 L352.758877,76.395812 C351.477657,78.411042 350.751112,80.7933875 350.751112,83.3007086 L350.751112,85.4955909 C350.751112,87.7139061 349.907383,90.0025201 349.008967,91.8068539 C348.501166,92.8222799 347.923055,93.822084 347.251196,94.7437783 C347.001202,95.07965 346.930892,95.5170642 347.071513,95.9154237 C347.212135,96.3137831 347.540252,96.6105999 347.946492,96.7121425 L352.946372,97.9618976 C353.274489,98.0478182 353.626043,97.9853305 353.915099,97.8056782 C354.204154,97.6260259 354.407274,97.3292091 354.469773,96.9933374 C355.141632,93.6502426 354.805702,90.6508305 354.305714,88.502814 C354.05572,87.3936564 353.719791,86.2610659 353.251052,85.222207 L353.251052,83.3007086 C353.251052,80.941796 354.047908,78.7156698 355.430687,76.9347688 C356.438476,75.7240686 357.743132,74.7476975 359.274345,74.1462529 L371.539675,69.3268849 C372.180284,69.0769339 372.906829,69.3893727 373.156823,70.0298722 C373.406817,70.6703716 373.094325,71.3967918 372.453715,71.6467428 L360.188385,76.4661107 C359.219659,76.8488482 358.368117,77.4346708 357.672821,78.15328 L370.141271,82.6523982 C370.735007,82.8632944 371.359992,82.9726479 371.992789,82.9726479 C372.625586,82.9726479 373.250571,82.8632944 373.844307,82.6523982 L395.765655,74.7633194 C396.507824,74.4977465 397,73.7869483 397,72.9980404 C397,72.2091325 396.507824,71.5061453 395.765655,71.2327614 L373.852119,63.3202497 C373.258383,63.1093536 372.633399,63 372.000601,63 Z M357.000962,92.3692437 C357.000962,95.1265158 363.71955,97.9931414 372.000601,97.9931414 C380.281652,97.9931414 387.00024,95.1265158 387.00024,92.3692437 L385.804957,81.0120947 L374.695849,85.0269328 C373.828682,85.3393715 372.914642,85.4955909 372.000601,85.4955909 C371.086561,85.4955909 370.164708,85.3393715 369.305354,85.0269328 L358.196246,81.0120947 L357.000962,92.3692437 Z" id="Shape" fill="#FFFFFF" fill-rule="nonzero"></path>
        </g>
    </g>
</svg>