<?xml version="1.0" encoding="UTF-8"?>
<svg width="185px" height="104px" viewBox="0 0 185 104" version="1.1" xmlns="http://www.w3.org/2000/svg" xmlns:xlink="http://www.w3.org/1999/xlink">
    <title>svg/insight-edu</title>
    <g id="svg/insight-edu" stroke="none" stroke-width="1" fill="none" fill-rule="evenodd">
        <rect id="Rectangle" fill="#27BAFF" x="60" y="21" width="67" height="67" rx="1"></rect>
        <rect id="Rectangle" fill="#FFFFFF" x="65" y="68" width="15" height="15" rx="1"></rect>
        <rect id="Rectangle" fill="#FFFFFF" x="86" y="53" width="15" height="30" rx="1"></rect>
        <rect id="Rectangle" fill="#FFFFFF" x="107" y="30" width="15" height="53" rx="1"></rect>
        <g id="item-education" transform="translate(44.220000, 26.220000)">
            <g id="item-bg" fill="#E8E9EB">
                <circle id="Oval" cx="16.28" cy="16.28" r="16.28"></circle>
            </g>
            <g id="light" transform="translate(10.989000, 8.140027)" fill-rule="nonzero">
                <path d="M6.21873932,15.5399726 C6.50342297,15.5399726 6.86235278,15.3466189 7.01959375,15.1065496 L7.53335718,14.3267615 C7.61550061,14.1903497 7.68836694,13.9501915 7.696,13.7907184 L7.696,11.1469795 L2.886,11.1469795 L2.88779083,13.7907184 C2.88814313,13.9522072 2.96033423,14.1923357 3.0489364,14.3267615 L3.56299341,15.1065496 C3.72023437,15.3466189 4.07919354,15.5399726 4.3638772,15.5399726 L6.21873932,15.5399726 Z" id="Path" fill="#798CA3"></path>
                <path d="M7.69961102,11.6556755 C7.69961102,11.6480872 7.70172479,11.6404989 7.70292847,11.6319917 C7.99903235,10.623665 8.77584265,9.42865402 9.27249042,8.85650711 C9.99534088,8.02617973 10.582,6.45510263 10.582,5.34960999 L10.582,5.34219953 C10.582,2.38670003 8.20436157,-0.00936892226 5.2744715,0 C2.20780292,0.00942400789 -1.77635684e-15,2.51934729 -1.77635684e-15,5.34219953 L-1.77635684e-15,5.34960999 C-1.77635684e-15,6.45510263 0.586659119,8.02617973 1.30950958,8.85650711 C1.80615735,9.42865402 2.58296765,10.623665 2.87907153,11.6319917 C2.87907153,11.6404989 2.8811853,11.6480872 2.88238898,11.6556755 L7.69961102,11.6556755 Z" id="Path" fill="#FCBA04"></path>
                <path d="M2.405,5.82785153 C2.13948706,5.82785153 1.924,5.61028039 1.924,5.34219953 C1.92599634,3.46764921 3.43440576,1.94465118 5.291,1.94263554 C5.55651294,1.94263554 5.772,2.16020669 5.772,2.42828754 C5.772,2.69636839 5.55651294,2.91393954 5.291,2.91393954 C3.96493256,2.91545127 2.88749725,4.00330701 2.886,5.34219953 C2.886,5.61028039 2.67051294,5.82785153 2.405,5.82785153 Z" id="Path" fill="#FFE293"></path>
            </g>
        </g>
        <g id="item-education" transform="translate(30.620000, 56.620000)">
            <g id="item-bg" fill="#E8E9EB">
                <circle id="Oval" cx="11.88" cy="11.88" r="11.88"></circle>
            </g>
            <path d="M11.7448633,15.4578424 C14.2053178,15.4578424 16.1998527,14.7930654 16.1998527,13.972846 L15.8708404,11.34 L12.5056929,12.3739188 C11.843703,12.5771723 11.2796463,12.464873 10.9838072,12.3739188 L7.61888624,11.3402266 L7.28987396,13.972846 C7.28987396,14.7930654 9.28440892,15.4578424 11.7448633,15.4578424 Z" id="Path" fill="#2D2D2A" fill-rule="nonzero"></path>
            <path d="M6.45571907,16.4700354 C6.69332394,16.4700354 6.86965821,16.2500594 6.81815374,16.018278 L6.22577303,13.3527121 C6.41558954,13.2181161 6.54737573,13.0076797 6.54737573,12.7575443 C6.54737573,12.4890775 6.39725821,12.264479 6.18401203,12.1340751 C6.20164093,11.7855758 6.37985591,11.4774327 6.66409351,11.2820647 L11.2019024,12.6763335 C11.4121349,12.7408444 11.8154016,12.8213527 12.287575,12.6763335 L18.7600758,10.6878259 C19.3065036,10.5198302 19.3065036,9.79777066 18.7600758,9.629775 L12.2878242,7.64126739 C11.935133,7.53291087 11.5545936,7.53291087 11.2021517,7.64126739 L4.72965087,9.629775 C4.18344971,9.79752141 4.18344971,10.5198302 4.72965087,10.6875993 L5.85801343,11.0342631 C5.61043849,11.3402989 5.45821367,11.7136327 5.44314527,12.1224735 C5.21970243,12.2505662 5.06237927,12.4816679 5.06237927,12.7575443 C5.06237927,13.0076797 5.19416545,13.2181161 5.38398197,13.3527121 L4.79160126,16.018278 C4.74009679,16.2500594 4.91643105,16.4700354 5.15380933,16.4700354 L6.45571907,16.4700354 Z" id="g" fill="#4A4A4A" fill-rule="nonzero"></path>
        </g>
    </g>
</svg>