<svg height="104" viewBox="0 0 185 104" width="185" xmlns="http://www.w3.org/2000/svg"><g fill="none" fill-rule="evenodd"><rect fill="#00a676" height="67" rx="1" width="67" x="62" y="21"/><g fill-rule="nonzero" transform="translate(47 35)"><g transform="translate(3 1)"><path d="m22 12.5h18v32h-18z" fill="#ccd1d9"/><path d="m11 .5h-11v12 32h7v-10h8v10h7v-32-12z" fill="#e6e9ed"/><g fill="#5d9cec"><path d="m26 25.5h5v5h-5z"/><path d="m6 7.5h5v5h-5z"/><path d="m11 16.5h5v5h-5z"/><path d="m26 16.5h5v5h-5z"/><path d="m26 34.5h5v5h-5z"/><path d="m11 25.5h5v5h-5z"/><path d="m31 25.5h5v5h-5z"/><path d="m31 16.5h5v5h-5z"/><path d="m6 16.5h5v5h-5z"/><path d="m6 25.5h5v5h-5z"/></g><path d="m7 34.5h8v10h-8z" fill="#007bc0"/><path d="m11 7.5h5v5h-5z" fill="#5d9cec"/><path d="m31 34.5h5v5h-5z" fill="#5d9cec"/></g><path d="m39 23h-10.001c-.276 0-.5-.224-.5-.5v-5c0-.276.224-.5.5-.5h10.001c.276 0 .5.224.5.5v5c0 .276-.224.5-.5.5zm-9.501-1h9.001v-4h-9.001z" fill="#e6e9ed"/><path d="m34 23c-.276 0-.5-.224-.5-.5v-5c0-.276.224-.5.5-.5s.5.224.5.5v5c0 .276-.224.5-.5.5z" fill="#e6e9ed"/><g fill="#fff"><path d="m19.001 14.002h-10.001c-.276 0-.5-.224-.5-.5v-5c0-.276.224-.5.5-.5h10.001c.276 0 .5.224.5.5v5c0 .276-.224.5-.5.5zm-9.501-1h9.001v-4h-9.001z"/><path d="m14.001 14.002c-.276 0-.5-.224-.5-.5v-5c0-.276.224-.5.5-.5s.5.224.5.5v5c0 .276-.224.5-.5.5z"/><path d="m19.001 23.002h-10.001c-.276 0-.5-.224-.5-.5v-5c0-.276.224-.5.5-.5h10.001c.276 0 .5.224.5.5v5c0 .276-.224.5-.5.5zm-9.501-1h9.001v-4h-9.001z"/><path d="m14.001 23.002c-.276 0-.5-.224-.5-.5v-5c0-.276.224-.5.5-.5s.5.224.5.5v5c0 .276-.224.5-.5.5z"/><path d="m19.001 32h-10.001c-.276 0-.5-.224-.5-.5v-5c0-.276.224-.5.5-.5h10.001c.276 0 .5.224.5.5v5c0 .276-.224.5-.5.5zm-9.501-1h9.001v-4h-9.001z"/><path d="m14.001 32c-.276 0-.5-.224-.5-.5v-4.998c0-.276.224-.5.5-.5s.5.224.5.5v4.998c0 .276-.224.5-.5.5z"/></g><path d="m39 32h-10.001c-.276 0-.5-.224-.5-.5v-5c0-.276.224-.5.5-.5h10.001c.276 0 .5.224.5.5v5c0 .276-.224.5-.5.5zm-9.501-1h9.001v-4h-9.001z" fill="#e6e9ed"/><path d="m34 32c-.276 0-.5-.224-.5-.5v-4.998c0-.276.224-.5.5-.5s.5.224.5.5v4.998c0 .276-.224.5-.5.5z" fill="#e6e9ed"/><path d="m39 41.002h-10.001c-.276 0-.5-.224-.5-.5v-5c0-.276.224-.5.5-.5h10.001c.276 0 .5.224.5.5v5c0 .276-.224.5-.5.5zm-9.501-1h9.001v-4h-9.001z" fill="#e6e9ed"/><path d="m34 41.002c-.276 0-.5-.224-.5-.5v-5c0-.276.224-.5.5-.5s.5.224.5.5v5c0 .276-.224.5-.5.5z" fill="#e6e9ed"/><path d="m18 46h-8c-.276 0-.5-.224-.5-.5v-10c0-.276.224-.5.5-.5h8c.276 0 .5.224.5.5v10c0 .276-.224.5-.5.5zm-7.5-1h7v-9h-7z" fill="#007bc0"/><path d="m24.999 2.5h-21.998c-.553 0-1-.447-1-1s.447-1 1-1h21.998c.553 0 1 .447 1 1s-.447 1-1 1z" fill="#656d78"/><path d="m42.999 12.5h-18.018v2h18.018c.553 0 1-.447 1-1s-.447-1-1-1z" fill="#545c66"/><path d="m45 46.5h-44c-.553 0-1-.447-1-1s.447-1 1-1h44c.553 0 1 .447 1 1s-.447 1-1 1z" fill="#656d78"/></g></g></svg>