<svg height="104" viewBox="0 0 185 104" width="185" xmlns="http://www.w3.org/2000/svg"><g fill="none" fill-rule="evenodd"><path d="m0 0h185v104h-185z" fill="#fafbfb"/><g fill="#54288b" transform="translate(65 29)"><rect height="20" rx="1" width="28.512" y=".2"/><path d="m12 17.8h3.6l-3.6 3.6z" transform="matrix(-.70710678 -.70710678 .70710678 -.70710678 9.698781 43.217366)"/></g><path d="m79.6066461 41.734375c.3013281 0 .5456007-.2728252.5456007-.609375v-.1465912c0-1.0882263 2.8477532-1.1335525 2.8477532-4.0784187 0-2.2177124-2.0596559-3.8999901-3.9892832-3.8999901-1.8145619 0-2.9898589.8303528-3.9125803 2.3112164-.1673922.2686348-.1157759.6369476.1177073.834692l.980687.8305015c.235792.1996784.5713311.1529884.7559509-.1053314.5694441-.7967796.9918539-1.2555466 1.8813411-1.2555466.6993617 0 1.5644061.5027046 1.5644061 1.2601586 0 .572628-.4232091.866703-1.1137572 1.2990875-.8053027.5042667-1.8709512 1.1318168-1.8709512 2.7016964v.2485256c0 .3365498.2442726.609375.5456007.609375zm-.8237514 4.265625c.8683301 0 1.5747738-.7890186 1.5747738-1.7588463 0-.9698028-.7064437-1.7587967-1.5747738-1.7587967-.86833 0-1.5747737.7890187-1.5747737 1.7588463 0 .9697781.7064437 1.7587967 1.5747737 1.7587967z" fill="#fff" fill-rule="nonzero"/><g fill="#007bc0" transform="translate(96 45)"><rect height="20" rx="1" width="28.512" y=".2"/><path d="m12 17.8h3.6l-3.6 3.6z" transform="matrix(-.70710678 -.70710678 .70710678 -.70710678 9.698781 43.217366)"/></g><g fill-rule="nonzero"><g transform="translate(102 42)"><path d="m9.25370178 20.999963c.38470764 0 .86974792-.2612889 1.08223572-.5857068l.6942749-1.0537677c.1110046-.1843402.2094727-.5088784.2197876-.7243826v-3.5726201h-6.5l.00242004 3.5726201c.00047608.2182281.09803162.5427262.21776429.7243826l.69467163 1.0537677c.21248779.3244179.69756775.5857068 1.08227539.5857068z" fill="#798ca3"/><path d="m11.2548798 15.7509129c0-.0102545.0028564-.020509.004483-.0320052.4001404-1.3626036 1.449884-2.9774834 2.1210297-3.7506548.9768249-1.1220641 1.7696075-3.24514124 1.7696075-4.7390502v-.01001414c0-3.99391825-3.2130249-7.23184927-7.17233582-7.21918856-4.14414672.01273515-7.12766418 3.40452336-7.12766418 7.21918856v.01001414c0 1.49390896.79278259 3.6169861 1.76960754 4.7390502.67114563.7731714 1.72088929 2.3880512 2.12102967 3.7506548 0 .0114962.00285644.0217507.00448303.0320052z" fill="#fcba04"/><path d="m4.1 7.87547504c-.35880127 0-.65-.29401506-.65-.65628648.00269775-2.53317611 2.04108887-4.59128155 4.55-4.5940054.35880127 0 .65.29401506.65.65628649 0 .36227142-.29119873.65628648-.65.65628648-1.79198303.00204289-3.24797668 1.4721182-3.25 3.28143243 0 .36227142-.29119873.65628648-.65.65628648z" fill="#ffe293"/></g><g transform="translate(118 46)"><path d="m40 0v6.99c0 6.15-3.7 11.44-9 13.75-1.84.8-3.87 1.25-6 1.25s-4.16-.45-6-1.25c-5.3-2.31-9-7.6-9-13.75v-6.99z" fill="#eac6bb"/><path d="m35.996 0v6.99c0 6.15-3.7 11.44-9 13.75-1.252.545-2.598.911-3.998 1.1.657.088 1.322.15 2.002.15 2.13 0 4.16-.45 6-1.25 5.3-2.31 9-7.6 9-13.75v-6.99z" fill="#d3b1a9"/><path d="m31 20.74v13.25h-12v-13.25c1.84.8 3.87 1.25 6 1.25s4.16-.45 6-1.25z" fill="#eac6bb"/></g><g transform="translate(118 65)"><path d="m47 15v7c0 .55-.44 1-1 1h-42c-.55 0-1-.45-1-1v-7c0-4.42 3.58-8 8-8h7 1.0341628l5.9658372 15 5.9628547-15h1.0371453 7c4.42 0 8 3.58 8 8z" fill="#e6e9ed"/><path d="m39 7h-4.004c4.42 0 8 3.58 8 8v7c0 .55-.44 1-1 1h4.004c.56 0 1-.45 1-1v-7c0-4.42-3.58-8-8-8z" fill="#ccd1d9"/><path d="m31 7-5 16h-2l-5-16v-1c0 2.21 2.69 4 6 4s6-1.79 6-4z" fill="#00a676"/><g fill="#f5f7fa"><path d="m19 7 5 16h-2l-6-8 2-2-3-4z"/><path d="m26 23 5-16 4 2-3 4 2 2-6 8z"/></g></g></g><g fill-rule="evenodd"><g><circle cx="135" cy="41" fill="#a9b5c4" r="7"/><circle cx="132" cy="46" fill="#a9b5c4" r="6"/><circle cx="151" cy="41" fill="#798ca3" r="7"/><circle cx="154" cy="46" fill="#798ca3" r="6"/><circle cx="139" cy="34" fill="#a9b5c4" r="4"/><circle cx="148" cy="34" fill="#798ca3" r="4"/><g fill="#a9b5c4"><circle cx="144" cy="34" r="4"/><circle cx="144" cy="42" r="7"/></g></g><circle cx="131" cy="35" fill="#a9b5c4" r="2"/></g><g transform="translate(19 30)"><path d="m25 0c9.945 0 18 7.16 18 16h-3.375-1.125-4.5-4.5-4.5-4.5-4.5-4.5-1.125-3.375c0-8.84 8.055-16 18-16z" fill="#965353" fill-rule="nonzero"/><g fill="#844747"><path d="m7 16h36v41h-36z" fill-rule="evenodd"/><path d="m24.7153306 0c-.5793955 0-1.1507914.029-1.7153306.076 9.2954688.757 16.5681961 7.591 16.5681961 15.924h.0034284 3.4283755c0-8.84-8.1823896-16-18.2846694-16z" fill-rule="nonzero"/></g></g><g fill-rule="nonzero" transform="translate(19 46)"><path d="m40 0v6.99c0 6.15-3.7 11.44-9 13.75-1.84.8-3.87 1.25-6 1.25s-4.16-.45-6-1.25c-5.3-2.31-9-7.6-9-13.75v-6.99z" fill="#eac6bb"/><path d="m35.996 0v6.99c0 6.15-3.7 11.44-9 13.75-1.252.545-2.598.911-3.998 1.1.657.088 1.322.15 2.002.15 2.13 0 4.16-.45 6-1.25 5.3-2.31 9-7.6 9-13.75v-6.99z" fill="#d3b1a9"/><path d="m31 20.74v13.25h-12v-13.25c1.84.8 3.87 1.25 6 1.25s4.16-.45 6-1.25z" fill="#eac6bb"/></g><g transform="translate(19 65)"><g fill-rule="nonzero"><path d="m47 15v7c0 .55-.44 1-1 1h-42c-.55 0-1-.45-1-1v-7c0-4.42 3.58-8 8-8h7 14 7c4.42 0 8 3.58 8 8z" fill="#4a4a4a"/><path d="m25 4.44615385c2.88 0 5.6-.66153847 8-1.84615385v4.92307692l-3.2 3.07692308-4.8-1.53846154-4.8 1.53846154-3.2-3.07692308v-4.92307692c2.4 1.18461538 5.12 1.84615385 8 1.84615385z" fill="#6d7278"/><path d="m39 7h-4.004c4.42 0 8 3.58 8 8v7c0 .55-.44 1-1 1h4.004c.56 0 1-.45 1-1v-7c0-4.42-3.58-8-8-8z" fill="#2d2d2a"/></g><circle cx="25" cy="12" fill="#6d7278" fill-rule="evenodd" r="1"/><circle cx="25" cy="16" fill="#6d7278" fill-rule="evenodd" r="1"/><circle cx="25" cy="20" fill="#6d7278" fill-rule="evenodd" r="1"/></g></g></svg>