<svg height="104" viewBox="0 0 185 104" width="185" xmlns="http://www.w3.org/2000/svg"><g fill="none" fill-rule="evenodd"><rect fill="#27baff" height="67" rx="1" width="67" x="59" y="21"/><g transform="translate(45 30)"><path d="m25 0c9.945 0 18 7.16 18 16h-3.375-1.125-4.5-4.5-4.5-4.5-4.5-4.5-1.125-3.375c0-8.84 8.055-16 18-16z" fill="#965353" fill-rule="nonzero"/><g fill="#844747"><path d="m7 16h36v41h-36z" fill-rule="evenodd"/><path d="m24.7153306 0c-.5793955 0-1.1507914.029-1.7153306.076 9.2954688.757 16.5681961 7.591 16.5681961 15.924h.0034284 3.4283755c0-8.84-8.1823896-16-18.2846694-16z" fill-rule="nonzero"/></g></g><g fill-rule="nonzero" transform="translate(45 46)"><path d="m40 0v6.99c0 6.15-3.7 11.44-9 13.75-1.84.8-3.87 1.25-6 1.25s-4.16-.45-6-1.25c-5.3-2.31-9-7.6-9-13.75v-6.99z" fill="#eac6bb"/><path d="m35.996 0v6.99c0 6.15-3.7 11.44-9 13.75-1.252.545-2.598.911-3.998 1.1.657.088 1.322.15 2.002.15 2.13 0 4.16-.45 6-1.25 5.3-2.31 9-7.6 9-13.75v-6.99z" fill="#d3b1a9"/><path d="m31 20.74v13.25h-12v-13.25c1.84.8 3.87 1.25 6 1.25s4.16-.45 6-1.25z" fill="#eac6bb"/></g><g transform="translate(45 65)"><g fill-rule="nonzero"><path d="m47 15v7c0 .55-.44 1-1 1h-42c-.55 0-1-.45-1-1v-7c0-4.42 3.58-8 8-8h7 14 7c4.42 0 8 3.58 8 8z" fill="#fcba04"/><path d="m25 4.44615385c2.88 0 5.6-.66153847 8-1.84615385v4.92307692l-3.2 3.07692308-4.8-1.53846154-4.8 1.53846154-3.2-3.07692308v-4.92307692c2.4 1.18461538 5.12 1.84615385 8 1.84615385z" fill="#ffd971"/><path d="m39 7h-4.004c4.42 0 8 3.58 8 8v7c0 .55-.44 1-1 1h4.004c.56 0 1-.45 1-1v-7c0-4.42-3.58-8-8-8z" fill="#daa000"/></g><circle cx="25" cy="12" fill="#ffd971" fill-rule="evenodd" r="1"/></g><circle cx="86.5" cy="13.5" fill="#e8e9eb" r="11"/><g fill-rule="nonzero" transform="translate(78.5 5)"><path d="m2.4000001 2v1.40100029 3.19800013l3.45300013 2.30100009 1.34700006.90000004.90000003.60000005.90000004-.60000005 4.80000014-3.20100013v-3.19800013-1.40100029z" fill="#fff"/><g fill="#edab37"><path d="m16.2000006 5.00000036-2.4000001 1.59900006v-3.19800013z"/><path d="m2.4000001 3.40100029v3.19800013l-2.4000001-1.59900006z"/><path d="m8.25 0 3.0000004 2h-6.00165019z"/></g><g fill="#ccd1d9" transform="translate(3.9 3.8)"><path d="m3.89820015.60090002h-3.59820014c-.1659 0-.30000001-.1341-.30000001-.30000001 0-.1659.13410001-.30000001.30000001-.30000001h3.59820014c.16590001 0 .30000002.13410001.30000002.30000001 0 .16590001-.13410001.30000001-.30000002.30000001z"/><path d="m7.80000031.60090002h-.90000004c-.1659 0-.30000001-.1341-.30000001-.30000001 0-.1659.13410001-.30000001.30000001-.30000001h.90000004c.16590001 0 .29999995.13410001.29999995.30000001 0 .16590001-.13409994.30000001-.29999995.30000001z"/><path d="m2.3967001 1.80090007h-2.09670009c-.1659 0-.30000001-.1341-.30000001-.30000001s.13410001-.30000001.30000001-.30000001h2.09670009c.1659 0 .30000001.1341.30000001.30000001s-.13410001.30000001-.30000001.30000001z"/><path d="m7.80000031 1.80090007h-.90000004c-.1659 0-.30000001-.1341-.30000001-.30000001s.13410001-.30000001.30000001-.30000001h.90000004c.16590001 0 .29999995.1341.29999995.30000001s-.13409994.30000001-.29999995.30000001z"/><path d="m3.29760013 3.00090012h-2.99760012c-.1659 0-.30000001-.13410001-.30000001-.30000001 0-.16590001.13410001-.30000001.30000001-.30000001h2.99760012c.16590001 0 .30000001.1341.30000001.30000001 0 .1659-.1341.30000001-.30000001.30000001z"/><path d="m7.80000031 3.00090012h-.90000004c-.1659 0-.30000001-.13410001-.30000001-.30000001 0-.16590001.13410001-.30000001.30000001-.30000001h.90000004c.16590001 0 .29999995.1341.29999995.30000001 0 .1659-.13409994.30000001-.29999995.30000001z"/><path d="m5.0994002 4.20090017h-4.79940019c-.1659 0-.30000001-.13410001-.30000001-.30000001 0-.16590001.13410001-.30000002.30000001-.30000002h4.79940019c.16590001 0 .30000001.13410001.30000001.30000002 0 .1659-.1341.30000001-.30000001.30000001z"/><path d="m7.80000031 4.20090017h-.90000004c-.1659 0-.30000001-.13410001-.30000001-.30000001 0-.16590001.13410001-.30000002.30000001-.30000002h.90000004c.16590001 0 .29999995.13410001.29999995.30000002 0 .1659-.13409994.30000001-.29999995.30000001z"/><path d="m7.80000031 5.40210021h-.90000004c-.1659 0-.30000001-.1341-.30000001-.30000001 0-.1659.13410001-.30000001.30000001-.30000001h.90000004c.16590001 0 .29999995.13410001.29999995.30000001 0 .16590001-.13409994.30000001-.29999995.30000001z"/><path d="m3.29760013 5.40090021h-2.84790011c-.16590001 0-.30000001-.1341-.30000001-.30000001 0-.1659.1341-.30000001.30000001-.30000001h2.84790011c.16590001 0 .30000001.13410001.30000001.30000001 0 .16590001-.1341.30000001-.30000001.30000001z"/></g><path d="m16.2000006 5.00000036v9.60000034l-7.20000024-4.80000015 4.80000014-3.20100013z" fill="#f6bb42"/><path d="m7.20000029 9.80000055-7.20000029 4.80000015v-9.60000034l2.4000001 1.59900006 3.45300013 2.30100009z" fill="#f6bb42"/><path d="m16.2000006 14.6000007h-16.2000006l7.20000029-4.80000015.90000003.60000005.90000004-.60000005z" fill="#ffce54"/></g><circle cx="119.5" cy="25.5" fill="#e8e9eb" r="11"/><g fill-rule="nonzero" transform="translate(111.5 17)"><path d="m2.4000001 2v1.40100029 3.19800013l3.45300013 2.30100009 1.34700006.90000004.90000003.60000005.90000004-.60000005 4.80000014-3.20100013v-3.19800013-1.40100029z" fill="#fff"/><g fill="#edab37"><path d="m16.2000006 5.00000036-2.4000001 1.59900006v-3.19800013z"/><path d="m2.4000001 3.40100029v3.19800013l-2.4000001-1.59900006z"/><path d="m8.25 0 3.0000004 2h-6.00165019z"/></g><g fill="#ccd1d9" transform="translate(3.9 3.8)"><path d="m3.89820015.60090002h-3.59820014c-.1659 0-.30000001-.1341-.30000001-.30000001 0-.1659.13410001-.30000001.30000001-.30000001h3.59820014c.16590001 0 .30000002.13410001.30000002.30000001 0 .16590001-.13410001.30000001-.30000002.30000001z"/><path d="m7.80000031.60090002h-.90000004c-.1659 0-.30000001-.1341-.30000001-.30000001 0-.1659.13410001-.30000001.30000001-.30000001h.90000004c.16590001 0 .29999995.13410001.29999995.30000001 0 .16590001-.13409994.30000001-.29999995.30000001z"/><path d="m2.3967001 1.80090007h-2.09670009c-.1659 0-.30000001-.1341-.30000001-.30000001s.13410001-.30000001.30000001-.30000001h2.09670009c.1659 0 .30000001.1341.30000001.30000001s-.13410001.30000001-.30000001.30000001z"/><path d="m7.80000031 1.80090007h-.90000004c-.1659 0-.30000001-.1341-.30000001-.30000001s.13410001-.30000001.30000001-.30000001h.90000004c.16590001 0 .29999995.1341.29999995.30000001s-.13409994.30000001-.29999995.30000001z"/><path d="m3.29760013 3.00090012h-2.99760012c-.1659 0-.30000001-.13410001-.30000001-.30000001 0-.16590001.13410001-.30000001.30000001-.30000001h2.99760012c.16590001 0 .30000001.1341.30000001.30000001 0 .1659-.1341.30000001-.30000001.30000001z"/><path d="m7.80000031 3.00090012h-.90000004c-.1659 0-.30000001-.13410001-.30000001-.30000001 0-.16590001.13410001-.30000001.30000001-.30000001h.90000004c.16590001 0 .29999995.1341.29999995.30000001 0 .1659-.13409994.30000001-.29999995.30000001z"/><path d="m5.0994002 4.20090017h-4.79940019c-.1659 0-.30000001-.13410001-.30000001-.30000001 0-.16590001.13410001-.30000002.30000001-.30000002h4.79940019c.16590001 0 .30000001.13410001.30000001.30000002 0 .1659-.1341.30000001-.30000001.30000001z"/><path d="m7.80000031 4.20090017h-.90000004c-.1659 0-.30000001-.13410001-.30000001-.30000001 0-.16590001.13410001-.30000002.30000001-.30000002h.90000004c.16590001 0 .29999995.13410001.29999995.30000002 0 .1659-.13409994.30000001-.29999995.30000001z"/><path d="m7.80000031 5.40210021h-.90000004c-.1659 0-.30000001-.1341-.30000001-.30000001 0-.1659.13410001-.30000001.30000001-.30000001h.90000004c.16590001 0 .29999995.13410001.29999995.30000001 0 .16590001-.13409994.30000001-.29999995.30000001z"/><path d="m3.29760013 5.40090021h-2.84790011c-.16590001 0-.30000001-.1341-.30000001-.30000001 0-.1659.1341-.30000001.30000001-.30000001h2.84790011c.16590001 0 .30000001.13410001.30000001.30000001 0 .16590001-.1341.30000001-.30000001.30000001z"/></g><path d="m16.2000006 5.00000036v9.60000034l-7.20000024-4.80000015 4.80000014-3.20100013z" fill="#f6bb42"/><path d="m7.20000029 9.80000055-7.20000029 4.80000015v-9.60000034l2.4000001 1.59900006 3.45300013 2.30100009z" fill="#f6bb42"/><path d="m16.2000006 14.6000007h-16.2000006l7.20000029-4.80000015.90000003.60000005.90000004-.60000005z" fill="#ffce54"/></g><circle cx="129.5" cy="61.5" fill="#e8e9eb" r="11"/><g fill-rule="nonzero" transform="translate(121.5 53)"><path d="m2.4000001 2v1.40100029 3.19800013l3.45300013 2.30100009 1.34700006.90000004.90000003.60000005.90000004-.60000005 4.80000014-3.20100013v-3.19800013-1.40100029z" fill="#fff"/><g fill="#edab37"><path d="m16.2000006 5.00000036-2.4000001 1.59900006v-3.19800013z"/><path d="m2.4000001 3.40100029v3.19800013l-2.4000001-1.59900006z"/><path d="m8.25 0 3.0000004 2h-6.00165019z"/></g><g fill="#ccd1d9" transform="translate(3.9 3.8)"><path d="m3.89820015.60090002h-3.59820014c-.1659 0-.30000001-.1341-.30000001-.30000001 0-.1659.13410001-.30000001.30000001-.30000001h3.59820014c.16590001 0 .30000002.13410001.30000002.30000001 0 .16590001-.13410001.30000001-.30000002.30000001z"/><path d="m7.80000031.60090002h-.90000004c-.1659 0-.30000001-.1341-.30000001-.30000001 0-.1659.13410001-.30000001.30000001-.30000001h.90000004c.16590001 0 .29999995.13410001.29999995.30000001 0 .16590001-.13409994.30000001-.29999995.30000001z"/><path d="m2.3967001 1.80090007h-2.09670009c-.1659 0-.30000001-.1341-.30000001-.30000001s.13410001-.30000001.30000001-.30000001h2.09670009c.1659 0 .30000001.1341.30000001.30000001s-.13410001.30000001-.30000001.30000001z"/><path d="m7.80000031 1.80090007h-.90000004c-.1659 0-.30000001-.1341-.30000001-.30000001s.13410001-.30000001.30000001-.30000001h.90000004c.16590001 0 .29999995.1341.29999995.30000001s-.13409994.30000001-.29999995.30000001z"/><path d="m3.29760013 3.00090012h-2.99760012c-.1659 0-.30000001-.13410001-.30000001-.30000001 0-.16590001.13410001-.30000001.30000001-.30000001h2.99760012c.16590001 0 .30000001.1341.30000001.30000001 0 .1659-.1341.30000001-.30000001.30000001z"/><path d="m7.80000031 3.00090012h-.90000004c-.1659 0-.30000001-.13410001-.30000001-.30000001 0-.16590001.13410001-.30000001.30000001-.30000001h.90000004c.16590001 0 .29999995.1341.29999995.30000001 0 .1659-.13409994.30000001-.29999995.30000001z"/><path d="m5.0994002 4.20090017h-4.79940019c-.1659 0-.30000001-.13410001-.30000001-.30000001 0-.16590001.13410001-.30000002.30000001-.30000002h4.79940019c.16590001 0 .30000001.13410001.30000001.30000002 0 .1659-.1341.30000001-.30000001.30000001z"/><path d="m7.80000031 4.20090017h-.90000004c-.1659 0-.30000001-.13410001-.30000001-.30000001 0-.16590001.13410001-.30000002.30000001-.30000002h.90000004c.16590001 0 .29999995.13410001.29999995.30000002 0 .1659-.13409994.30000001-.29999995.30000001z"/><path d="m7.80000031 5.40210021h-.90000004c-.1659 0-.30000001-.1341-.30000001-.30000001 0-.1659.13410001-.30000001.30000001-.30000001h.90000004c.16590001 0 .29999995.13410001.29999995.30000001 0 .16590001-.13409994.30000001-.29999995.30000001z"/><path d="m3.29760013 5.40090021h-2.84790011c-.16590001 0-.30000001-.1341-.30000001-.30000001 0-.1659.1341-.30000001.30000001-.30000001h2.84790011c.16590001 0 .30000001.13410001.30000001.30000001 0 .16590001-.1341.30000001-.30000001.30000001z"/></g><path d="m16.2000006 5.00000036v9.60000034l-7.20000024-4.80000015 4.80000014-3.20100013z" fill="#f6bb42"/><path d="m7.20000029 9.80000055-7.20000029 4.80000015v-9.60000034l2.4000001 1.59900006 3.45300013 2.30100009z" fill="#f6bb42"/><path d="m16.2000006 14.6000007h-16.2000006l7.20000029-4.80000015.90000003.60000005.90000004-.60000005z" fill="#ffce54"/></g><circle cx="114.5" cy="90.5" fill="#e8e9eb" r="11"/><g fill-rule="nonzero" transform="translate(106.5 82)"><path d="m2.4000001 2v1.40100029 3.19800013l3.45300013 2.30100009 1.34700006.90000004.90000003.60000005.90000004-.60000005 4.80000014-3.20100013v-3.19800013-1.40100029z" fill="#fff"/><g fill="#edab37"><path d="m16.2000006 5.00000036-2.4000001 1.59900006v-3.19800013z"/><path d="m2.4000001 3.40100029v3.19800013l-2.4000001-1.59900006z"/><path d="m8.25 0 3.0000004 2h-6.00165019z"/></g><g fill="#ccd1d9" transform="translate(3.9 3.8)"><path d="m3.89820015.60090002h-3.59820014c-.1659 0-.30000001-.1341-.30000001-.30000001 0-.1659.13410001-.30000001.30000001-.30000001h3.59820014c.16590001 0 .30000002.13410001.30000002.30000001 0 .16590001-.13410001.30000001-.30000002.30000001z"/><path d="m7.80000031.60090002h-.90000004c-.1659 0-.30000001-.1341-.30000001-.30000001 0-.1659.13410001-.30000001.30000001-.30000001h.90000004c.16590001 0 .29999995.13410001.29999995.30000001 0 .16590001-.13409994.30000001-.29999995.30000001z"/><path d="m2.3967001 1.80090007h-2.09670009c-.1659 0-.30000001-.1341-.30000001-.30000001s.13410001-.30000001.30000001-.30000001h2.09670009c.1659 0 .30000001.1341.30000001.30000001s-.13410001.30000001-.30000001.30000001z"/><path d="m7.80000031 1.80090007h-.90000004c-.1659 0-.30000001-.1341-.30000001-.30000001s.13410001-.30000001.30000001-.30000001h.90000004c.16590001 0 .29999995.1341.29999995.30000001s-.13409994.30000001-.29999995.30000001z"/><path d="m3.29760013 3.00090012h-2.99760012c-.1659 0-.30000001-.13410001-.30000001-.30000001 0-.16590001.13410001-.30000001.30000001-.30000001h2.99760012c.16590001 0 .30000001.1341.30000001.30000001 0 .1659-.1341.30000001-.30000001.30000001z"/><path d="m7.80000031 3.00090012h-.90000004c-.1659 0-.30000001-.13410001-.30000001-.30000001 0-.16590001.13410001-.30000001.30000001-.30000001h.90000004c.16590001 0 .29999995.1341.29999995.30000001 0 .1659-.13409994.30000001-.29999995.30000001z"/><path d="m5.0994002 4.20090017h-4.79940019c-.1659 0-.30000001-.13410001-.30000001-.30000001 0-.16590001.13410001-.30000002.30000001-.30000002h4.79940019c.16590001 0 .30000001.13410001.30000001.30000002 0 .1659-.1341.30000001-.30000001.30000001z"/><path d="m7.80000031 4.20090017h-.90000004c-.1659 0-.30000001-.13410001-.30000001-.30000001 0-.16590001.13410001-.30000002.30000001-.30000002h.90000004c.16590001 0 .29999995.13410001.29999995.30000002 0 .1659-.13409994.30000001-.29999995.30000001z"/><path d="m7.80000031 5.40210021h-.90000004c-.1659 0-.30000001-.1341-.30000001-.30000001 0-.1659.13410001-.30000001.30000001-.30000001h.90000004c.16590001 0 .29999995.13410001.29999995.30000001 0 .16590001-.13409994.30000001-.29999995.30000001z"/><path d="m3.29760013 5.40090021h-2.84790011c-.16590001 0-.30000001-.1341-.30000001-.30000001 0-.1659.1341-.30000001.30000001-.30000001h2.84790011c.16590001 0 .30000001.13410001.30000001.30000001 0 .16590001-.1341.30000001-.30000001.30000001z"/></g><path d="m16.2000006 5.00000036v9.60000034l-7.20000024-4.80000015 4.80000014-3.20100013z" fill="#f6bb42"/><path d="m7.20000029 9.80000055-7.20000029 4.80000015v-9.60000034l2.4000001 1.59900006 3.45300013 2.30100009z" fill="#f6bb42"/><path d="m16.2000006 14.6000007h-16.2000006l7.20000029-4.80000015.90000003.60000005.90000004-.60000005z" fill="#ffce54"/></g></g></svg>