<svg height="104" viewBox="0 0 185 104" width="185" xmlns="http://www.w3.org/2000/svg"><g fill="none" fill-rule="evenodd"><g transform="translate(118 30)"><path d="m25 0c9.945 0 18 7.16 18 16h-3.375-1.125-4.5-4.5-4.5-4.5-4.5-4.5-1.125-3.375c0-8.84 8.055-16 18-16z" fill="#a9b5c4" fill-rule="nonzero"/><g fill="#798ca3"><path d="m7 16h36v12.093458c0 4.0974397-6 6.1461596-18 6.1461596s-18-2.0487199-18-6.1461596z" fill-rule="evenodd"/><path d="m24.7153306 0c-.5793955 0-1.1507914.029-1.7153306.076 9.2954688.757 16.5681961 7.591 16.5681961 15.924h.0034284 3.4283755c0-8.84-8.1823896-16-18.2846694-16z" fill-rule="nonzero"/></g></g><g fill-rule="nonzero" transform="translate(118 46)"><path d="m40 0v6.99c0 6.15-3.7 11.44-9 13.75-1.84.8-3.87 1.25-6 1.25s-4.16-.45-6-1.25c-5.3-2.31-9-7.6-9-13.75v-6.99z" fill="#eac6bb"/><path d="m35.996 0v6.99c0 6.15-3.7 11.44-9 13.75-1.252.545-2.598.911-3.998 1.1.657.088 1.322.15 2.002.15 2.13 0 4.16-.45 6-1.25 5.3-2.31 9-7.6 9-13.75v-6.99z" fill="#d3b1a9"/><path d="m31 20.74v13.25h-12v-13.25c1.84.8 3.87 1.25 6 1.25s4.16-.45 6-1.25z" fill="#eac6bb"/></g><g fill-rule="nonzero" transform="translate(118 65)"><path d="m47 15v7c0 .55-.44 1-1 1h-42c-.55 0-1-.45-1-1v-7c0-4.42 3.58-8 8-8h8l6 7 6-7h8c4.42 0 8 3.58 8 8z" fill="#48cfad"/><path d="m39 7h-4.004c4.42 0 8 3.58 8 8v7c0 .55-.44 1-1 1h4.004c.56 0 1-.45 1-1v-7c0-4.42-3.58-8-8-8z" fill="#37bc9b"/></g><g transform="translate(68 30)"><path d="m25 0c9.945 0 18 7.16 18 16h-3.375-1.125-4.5-4.5-4.5-4.5-4.5-4.5-1.125-3.375c0-8.84 8.055-16 18-16z" fill="#965353" fill-rule="nonzero"/><g fill="#844747"><path d="m7 16h36v41h-36z" fill-rule="evenodd"/><path d="m24.7153306 0c-.5793955 0-1.1507914.029-1.7153306.076 9.2954688.757 16.5681961 7.591 16.5681961 15.924h.0034284 3.4283755c0-8.84-8.1823896-16-18.2846694-16z" fill-rule="nonzero"/></g></g><g fill-rule="nonzero"><g transform="translate(68 46)"><path d="m40 0v6.99c0 6.15-3.7 11.44-9 13.75-1.84.8-3.87 1.25-6 1.25s-4.16-.45-6-1.25c-5.3-2.31-9-7.6-9-13.75v-6.99z" fill="#eac6bb"/><path d="m35.996 0v6.99c0 6.15-3.7 11.44-9 13.75-1.252.545-2.598.911-3.998 1.1.657.088 1.322.15 2.002.15 2.13 0 4.16-.45 6-1.25 5.3-2.31 9-7.6 9-13.75v-6.99z" fill="#d3b1a9"/><path d="m31 20.74v13.25h-12v-13.25c1.84.8 3.87 1.25 6 1.25s4.16-.45 6-1.25z" fill="#eac6bb"/></g><g transform="translate(68 65)"><path d="m47 15v7c0 .55-.44 1-1 1h-42c-.55 0-1-.45-1-1v-7c0-4.42 3.58-8 8-8h7 1.0341628l5.9658372 15 5.9628547-15h1.0371453 7c4.42 0 8 3.58 8 8z" fill="#e6e9ed"/><path d="m39 7h-4.004c4.42 0 8 3.58 8 8v7c0 .55-.44 1-1 1h4.004c.56 0 1-.45 1-1v-7c0-4.42-3.58-8-8-8z" fill="#ccd1d9"/><path d="m31 7-5 16h-2l-5-16v-1c0 2.21 2.69 4 6 4s6-1.79 6-4z" fill="#27baff"/><g fill="#f5f7fa"><path d="m19 7 5 16h-2l-6-8 2-2-3-4z"/><path d="m26 23 5-16 4 2-3 4 2 2-6 8z"/></g></g><g transform="translate(18 46)"><path d="m40 0v6.99c0 6.15-3.7 11.44-9 13.75-1.84.8-3.87 1.25-6 1.25s-4.16-.45-6-1.25c-5.3-2.31-9-7.6-9-13.75v-6.99z" fill="#eac6bb"/><path d="m35.996 0v6.99c0 6.15-3.7 11.44-9 13.75-1.252.545-2.598.911-3.998 1.1.657.088 1.322.15 2.002.15 2.13 0 4.16-.45 6-1.25 5.3-2.31 9-7.6 9-13.75v-6.99z" fill="#d3b1a9"/><path d="m31 20.74v13.25h-12v-13.25c1.84.8 3.87 1.25 6 1.25s4.16-.45 6-1.25z" fill="#eac6bb"/></g><g transform="translate(28 30)"><path d="m0 9.33333333c0-2.95111111 1.78666667-5.33333333 4-5.33333333v10.6666667c0 2.9511111-1.78666667 5.3333333-4 5.3333333z" fill="#844747"/><path d="m30 14.9124191v12.0875809c0-3.3815686-1.7188889-6.3626322-4.3333333-8.1521225v-.0142023c-1.6322223-1.121982-3.6255556-1.775288-5.7777778-1.775288v-.0298248h-11.55555557c-2.39777777 0-4.33333333.0968913-4.33333333-2.2606912v-10.52138233c2.75888889-2.76944926 6.5866667-4.24648887 10.8333333-4.24648887 8.3777778 0 15.1666667 6.67508285 15.1666667 14.9124191z" fill="#965353"/><path d="m15.1879512 0c-.7462451 0-1.4727408.06391037-2.1879512.1590658 7.2085304 1.00552312 12.763754 7.21761086 12.763754 14.7533533v3.9184157c.0014107.0014202.0028214.0014202.0042321.0028404v.0142023c2.553315 1.7894903 4.2320139 4.7705539 4.2320139 8.1521225v-12.0875809c0-8.23733625-6.6301552-14.9124191-14.8120488-14.9124191z" fill="#844747"/></g></g><g transform="translate(18 65)"><g fill-rule="nonzero"><path d="m47 15v7c0 .55-.44 1-1 1h-42c-.55 0-1-.45-1-1v-7c0-4.42 3.58-8 8-8h7 14 7c4.42 0 8 3.58 8 8z" fill="#fcba04"/><path d="m25 4.44615385c2.88 0 5.6-.66153847 8-1.84615385v4.92307692l-3.2 3.07692308-4.8-1.53846154-4.8 1.53846154-3.2-3.07692308v-4.92307692c2.4 1.18461538 5.12 1.84615385 8 1.84615385z" fill="#ffd971"/><path d="m39 7h-4.004c4.42 0 8 3.58 8 8v7c0 .55-.44 1-1 1h4.004c.56 0 1-.45 1-1v-7c0-4.42-3.58-8-8-8z" fill="#daa000"/></g><circle cx="25" cy="12" fill="#ffd971" fill-rule="evenodd" r="1"/></g></g></svg>