<?xml version="1.0" encoding="UTF-8"?>
<svg width="185px" height="104px" viewBox="0 0 185 104" version="1.1" xmlns="http://www.w3.org/2000/svg" xmlns:xlink="http://www.w3.org/1999/xlink">
    <title>svg/lms-integration</title>
    <g id="svg/lms-integration" stroke="none" stroke-width="1" fill="none" fill-rule="evenodd">
        <g id="Group-2" transform="translate(42.000000, 42.778199)" fill="#007BC0">
            <g id="progress-line" transform="translate(0.000000, 26.221801)">
                <rect id="Rectangle" x="0" y="0" width="3" height="1"></rect>
                <rect id="Rectangle-Copy-2" x="14" y="0" width="3" height="1"></rect>
                <rect id="Rectangle-Copy-4" x="28" y="0" width="3" height="1"></rect>
                <rect id="Rectangle-Copy-6" x="42" y="0" width="3" height="1"></rect>
                <rect id="Rectangle-Copy-8" x="56" y="0" width="3" height="1"></rect>
                <rect id="Rectangle-Copy-10" x="70" y="0" width="3" height="1"></rect>
                <rect id="Rectangle-Copy-12" x="84" y="0" width="3" height="1"></rect>
                <rect id="Rectangle-Copy-14" x="98" y="0" width="3" height="1"></rect>
                <rect id="Rectangle-Copy" x="7" y="0" width="3" height="1"></rect>
                <rect id="Rectangle-Copy-3" x="21" y="0" width="3" height="1"></rect>
                <rect id="Rectangle-Copy-5" x="35" y="0" width="3" height="1"></rect>
                <rect id="Rectangle-Copy-7" x="49" y="0" width="3" height="1"></rect>
                <rect id="Rectangle-Copy-9" x="63" y="0" width="3" height="1"></rect>
                <rect id="Rectangle-Copy-11" x="77" y="0" width="3" height="1"></rect>
                <rect id="Rectangle-Copy-13" x="91" y="0" width="3" height="1"></rect>
                <rect id="Rectangle-Copy-15" x="105" y="0" width="3" height="1"></rect>
            </g>
            <g id="progress-line" transform="translate(0.000000, 6.221801)">
                <rect id="Rectangle" x="0" y="0" width="3" height="1"></rect>
                <rect id="Rectangle-Copy-2" x="14" y="0" width="3" height="1"></rect>
                <rect id="Rectangle-Copy-4" x="28" y="0" width="3" height="1"></rect>
                <rect id="Rectangle-Copy-6" x="42" y="0" width="3" height="1"></rect>
                <rect id="Rectangle-Copy-8" x="56" y="0" width="3" height="1"></rect>
                <rect id="Rectangle-Copy-10" x="70" y="0" width="3" height="1"></rect>
                <rect id="Rectangle-Copy-12" x="84" y="0" width="3" height="1"></rect>
                <rect id="Rectangle-Copy-14" x="98" y="0" width="3" height="1"></rect>
                <rect id="Rectangle-Copy" x="7" y="0" width="3" height="1"></rect>
                <rect id="Rectangle-Copy-3" x="21" y="0" width="3" height="1"></rect>
                <rect id="Rectangle-Copy-5" x="35" y="0" width="3" height="1"></rect>
                <rect id="Rectangle-Copy-7" x="49" y="0" width="3" height="1"></rect>
                <rect id="Rectangle-Copy-9" x="63" y="0" width="3" height="1"></rect>
                <rect id="Rectangle-Copy-11" x="77" y="0" width="3" height="1"></rect>
                <rect id="Rectangle-Copy-13" x="91" y="0" width="3" height="1"></rect>
                <rect id="Rectangle-Copy-15" x="105" y="0" width="3" height="1"></rect>
            </g>
            <g id="chevron-left" transform="translate(40.500000, 0.000000)" fill-rule="nonzero">
                <path d="M5.9593749,13.2405515 L0.237499714,7.26867628 C0.0693750381,7.06867647 0,6.88117647 0,6.72180128 C0,6.56242609 0.0693435669,6.34773874 0.208999634,6.20336389 L5.93087482,0.231488701 C6.2168746,-0.0683236162 6.69149971,-0.0780739824 6.99025011,0.209029671 C7.29103136,0.494185921 7.30081272,0.970592018 7.01270962,1.26871633 L1.78874969,6.72180128 L7.03874969,12.2030511 C7.32684326,12.4999261 7.31706238,12.977426 7.01629019,13.2627387 C6.71875,13.5499263 6.2437501,13.5405517 5.9593749,13.2405515 Z" id="Path"></path>
            </g>
            <g id="chevron-right" transform="translate(59.249023, 19.971867)" fill-rule="nonzero">
                <path d="M1.29160214,0.231496843 L7.01347781,6.20337203 C7.15313387,6.34790328 7.22247744,6.53524688 7.22247744,6.72180942 C7.22247744,6.90837196 7.15313387,7.09587196 7.01347781,7.2402468 L1.29160261,13.212122 C1.00560236,13.5119343 0.530977253,13.5216847 0.232226852,13.234581 C-0.068554398,12.9494248 -0.0783357587,12.4727059 0.209767345,12.1748934 L5.45976734,6.6936436 L0.210663799,1.26868442 C-0.0774302449,0.971809419 -0.0676488843,0.494309457 0.233122829,0.208996805 C0.531913761,-0.0781907718 1.00722647,-0.0681905429 1.29160166,0.231496843 L1.29160214,0.231496843 Z" id="Path"></path>
            </g>
        </g>
        <g id="14-building,-doctor,-medicine,-medical,-treatment,-pharmacy" transform="translate(21.000000, 24.000000)" fill-rule="nonzero">
            <g id="Group" transform="translate(1.850000, 2.000000)">
                <rect id="Rectangle" fill="#CCD1D9" x="25" y="14.1818182" width="21.15" height="37.8181818"></rect>
                <polygon id="Path" fill="#E6E9ED" points="12.5 0 0 0 0 14.1818182 0 52 7.95454545 52 7.95454545 40.1818182 17.0454545 40.1818182 17.0454545 52 25 52 25 14.1818182 25 0"></polygon>
                <rect id="Rectangle" fill="#5D9CEC" x="29.7" y="29.5454545" width="5.875" height="5.90909091"></rect>
                <rect id="Rectangle" fill="#5D9CEC" x="7.2" y="7.27272727" width="5.875" height="5.90909091"></rect>
                <rect id="Rectangle" fill="#5D9CEC" x="13.075" y="18.9090909" width="5.875" height="5.90909091"></rect>
                <rect id="Rectangle" fill="#5D9CEC" x="29.7" y="18.9090909" width="5.875" height="5.90909091"></rect>
                <rect id="Rectangle" fill="#5D9CEC" x="29.7" y="40.1818182" width="5.875" height="5.90909091"></rect>
                <rect id="Rectangle" fill="#5D9CEC" x="13.075" y="29.5454545" width="5.875" height="5.90909091"></rect>
                <rect id="Rectangle" fill="#5D9CEC" x="35.575" y="29.5454545" width="5.875" height="5.90909091"></rect>
                <rect id="Rectangle" fill="#5D9CEC" x="35.575" y="18.9090909" width="5.875" height="5.90909091"></rect>
                <rect id="Rectangle" fill="#5D9CEC" x="7.2" y="18.9090909" width="5.875" height="5.90909091"></rect>
                <rect id="Rectangle" fill="#5D9CEC" x="6.2" y="29.5454545" width="5.875" height="5.90909091"></rect>
                <rect id="Rectangle" fill="#007BC0" x="7.375" y="40.1818182" width="9.4" height="11.8181818"></rect>
                <rect id="Rectangle" fill="#5D9CEC" x="13.075" y="7.27272727" width="5.875" height="5.90909091"></rect>
                <rect id="Rectangle" fill="#5D9CEC" x="35.575" y="40.1818182" width="5.875" height="5.90909091"></rect>
            </g>
            <path d="M43.4091446,27 L31.5908554,27 C31.2647032,27 31,26.7386667 31,26.4166667 L31,20.5833333 C31,20.2613333 31.2647032,20 31.5908554,20 L43.4091446,20 C43.7352968,20 44,20.2613333 44,20.5833333 L44,26.4166667 C44,26.7386667 43.7352968,27 43.4091446,27 Z M32,26 L43,26 L43,21 L32,21 L32,26 Z" id="Shape" fill="#E6E9ED"></path>
            <path d="M37.5,27 C37.224,27 37,26.7386667 37,26.4166667 L37,20.5833333 C37,20.2613333 37.224,20 37.5,20 C37.776,20 38,20.2613333 38,20.5833333 L38,26.4166667 C38,26.7386667 37.776,27 37.5,27 Z" id="Path" fill="#E6E9ED"></path>
            <path d="M20.4091446,16 L8.59085538,16 C8.26470321,16 8,15.7386667 8,15.4166667 L8,9.58333333 C8,9.26133333 8.26470321,9 8.59085538,9 L20.4091446,9 C20.7352968,9 21,9.26133333 21,9.58333333 L21,15.4166667 C21,15.7386667 20.7352968,16 20.4091446,16 Z M9,15 L20,15 L20,10 L9,10 L9,15 Z" id="Shape" fill="#FFFFFF"></path>
            <path d="M14.5,16 C14.224,16 14,15.7386667 14,15.4166667 L14,9.58333333 C14,9.26133333 14.224,9 14.5,9 C14.776,9 15,9.26133333 15,9.58333333 L15,15.4166667 C15,15.7386667 14.776,16 14.5,16 Z" id="Path" fill="#FFFFFF"></path>
            <path d="M20.4091446,27 L8.59085538,27 C8.26470321,27 8,26.7386667 8,26.4166667 L8,20.5833333 C8,20.2613333 8.26470321,20 8.59085538,20 L20.4091446,20 C20.7352968,20 21,20.2613333 21,20.5833333 L21,26.4166667 C21,26.7386667 20.7352968,27 20.4091446,27 Z M9,26 L20,26 L20,21 L9,21 L9,26 Z" id="Shape" fill="#FFFFFF"></path>
            <path d="M14.5,27 C14.224,27 14,26.7386667 14,26.4166667 L14,20.5833333 C14,20.2613333 14.224,20 14.5,20 C14.776,20 15,20.2613333 15,20.5833333 L15,26.4166667 C15,26.7386667 14.776,27 14.5,27 Z" id="Path" fill="#FFFFFF"></path>
            <path d="M20.4091446,38 L8.59085538,38 C8.26470321,38 8,37.7386667 8,37.4166667 L8,31.5833333 C8,31.2613333 8.26470321,31 8.59085538,31 L20.4091446,31 C20.7352968,31 21,31.2613333 21,31.5833333 L21,37.4166667 C21,37.7386667 20.7352968,38 20.4091446,38 Z M9,37 L20,37 L20,32 L9,32 L9,37 Z" id="Shape" fill="#FFFFFF"></path>
            <path d="M14.5,38 C14.224,38 14,37.7385795 14,37.4164722 L14,31.5835278 C14,31.2614205 14.224,31 14.5,31 C14.776,31 15,31.2614205 15,31.5835278 L15,37.4164722 C15,37.7385795 14.776,38 14.5,38 Z" id="Path" fill="#FFFFFF"></path>
            <path d="M43.4091446,38 L31.5908554,38 C31.2647032,38 31,37.7386667 31,37.4166667 L31,31.5833333 C31,31.2613333 31.2647032,31 31.5908554,31 L43.4091446,31 C43.7352968,31 44,31.2613333 44,31.5833333 L44,37.4166667 C44,37.7386667 43.7352968,38 43.4091446,38 Z M32,37 L43,37 L43,32 L32,32 L32,37 Z" id="Shape" fill="#E6E9ED"></path>
            <path d="M37.5,38 C37.224,38 37,37.7385795 37,37.4164722 L37,31.5835278 C37,31.2614205 37.224,31 37.5,31 C37.776,31 38,31.2614205 38,31.5835278 L38,37.4164722 C38,37.7385795 37.776,38 37.5,38 Z" id="Path" fill="#E6E9ED"></path>
            <path d="M43.4091446,49 L31.5908554,49 C31.2647032,49 31,48.7386667 31,48.4166667 L31,42.5833333 C31,42.2613333 31.2647032,42 31.5908554,42 L43.4091446,42 C43.7352968,42 44,42.2613333 44,42.5833333 L44,48.4166667 C44,48.7386667 43.7352968,49 43.4091446,49 Z M32,48 L43,48 L43,43 L32,43 L32,48 Z" id="Shape" fill="#E6E9ED"></path>
            <path d="M37.5,49 C37.224,49 37,48.7386667 37,48.4166667 L37,42.5833333 C37,42.2613333 37.224,42 37.5,42 C37.776,42 38,42.2613333 38,42.5833333 L38,48.4166667 C38,48.7386667 37.776,49 37.5,49 Z" id="Path" fill="#E6E9ED"></path>
            <path d="M18.4444444,55 L9.55555556,55 C9.24888889,55 9,54.7352727 9,54.4090909 L9,42.5909091 C9,42.2647273 9.24888889,42 9.55555556,42 L18.4444444,42 C18.7511111,42 19,42.2647273 19,42.5909091 L19,54.4090909 C19,54.7352727 18.7511111,55 18.4444444,55 Z M10.1111111,53.8181818 L17.8888889,53.8181818 L17.8888889,43.1818182 L10.1111111,43.1818182 L10.1111111,53.8181818 Z" id="Shape" fill="#007BC0"></path>
            <path d="M26.8749062,3 L2.12509376,3 C1.50291691,3 1,2.3295 1,1.5 C1,0.6705 1.50291691,0 2.12509376,0 L26.8749062,0 C27.4970831,0 28,0.6705 28,1.5 C28,2.3295 27.4970831,3 26.8749062,3 Z" id="Path" fill="#656D78"></path>
            <path d="M47.8432012,14 L27,14 L27,17 L47.8432012,17 C48.4829109,17 49,16.3295 49,15.5 C49,14.6705 48.4829109,14 47.8432012,14 Z" id="Path" fill="#545C66"></path>
            <path d="M48.9130435,56 L1.08695652,56 C0.485869565,56 0,55.3295 0,54.5 C0,53.6705 0.485869565,53 1.08695652,53 L48.9130435,53 C49.5141304,53 50,53.6705 50,54.5 C50,55.3295 49.5141304,56 48.9130435,56 Z" id="Path" fill="#656D78"></path>
        </g>
        <g id="item-folder" transform="translate(121.000000, 41.000000)">
            <rect id="Rectangle" fill="#F6BB42" x="1" y="0" width="42" height="32" rx="2"></rect>
            <path d="M6,4 L45,4 C45.5522847,4 46,4.44771525 46,5 L46,19 C46,19.5522847 45.5522847,20 45,20 L5,20 L5,20 L5,5 C5,4.44771525 5.44771525,4 6,4 Z" id="Rectangle" fill="#FFFFFF"></path>
            <path d="M11.9931887,7 L49.9715949,7 C51.0761644,7 51.9715949,7.8954305 51.9715949,9 C51.9715949,9.26989876 51.9169665,9.53700525 51.811,9.78523183 L42.8462163,30.7852318 C42.531697,31.5219931 41.8078977,32 41.0068113,32 L3.0284051,32 C1.9238356,32 1.0284051,31.1045695 1.0284051,30 C1.0284051,29.7301012 1.08303349,29.4629947 1.18900004,29.2147682 L10.1537837,8.21476817 C10.468303,7.47800692 11.1921023,7 11.9931887,7 Z" id="Rectangle" fill="#FFCE54"></path>
        </g>
    </g>
</svg>