<svg height="106" viewBox="0 0 802 106" width="802" xmlns="http://www.w3.org/2000/svg"><path d="m21.8171319 87.0646766v-30.1057214h10.3686238l16.0009625 30.1057214h21.1212706l-18.9451397-33.4365671c4.5229388-1.964345 8.128489-4.932214 10.8166507-8.903607s4.0322426-9.0317164 4.0322426-15.1809702c0-4.9535655-.8533847-9.0957711-2.560154-12.4266169-1.7067694-3.3308457-4.010908-5.9997927-6.9124159-8.00684077-2.9015078-2.0070481-6.2937119-3.43760365-10.1766121-4.29166667-3.8829003-.85406302-8.0431505-1.28109453-12.4807508-1.28109453h-30.0818096v83.52736317zm9.7285853-45.0945273h-9.7285853v-23.4440299h9.7285853c4.9496311 0 8.7258582.8113599 11.3286815 2.4340796 2.6028232 1.6227197 3.9042348 4.4838309 3.9042348 8.5833333 0 4.0995025-1.3014116 7.195481-3.9042348 9.2879354-2.6028233 2.0924544-6.3790504 3.1386816-11.3286815 3.1386816zm110.5417608 45.0945273v-15.8855721h-34.690087v-19.2164179h28.417709v-15.7574627h-28.417709v-16.7823383h33.41001v-15.88557217h-52.2271422v83.52736317zm58.570634 1.5373134c11.008662 0 20.01187-4.0995024 27.009624-12.2985074l-9.9846-11.7860697c-2.048124 2.2205639-4.416266 4.0781509-7.104428 5.5727612-2.688161 1.4946103-5.739012 2.2419155-9.15255 2.2419155-6.14437 0-11.051332-2.3700249-14.720886-7.1100747-3.669554-4.7400497-5.504331-11.4230928-5.504331-20.0491293 0-4.1849088.533365-7.9427861 1.600096-11.2736319 1.066731-3.3308457 2.517485-6.1492537 4.352262-8.4552238 1.834777-2.3059702 4.010908-4.078151 6.528393-5.3165423 2.517485-1.2383914 5.184312-1.8575871 8.000481-1.8575871 2.986846 0 5.653674.6191957 8.000481 1.8575871 2.346808 1.2383913 4.586943 2.8397595 6.720405 4.8041044l9.9846-12.0422885c-2.816169-2.90381428-6.357715-5.44465176-10.624639-7.62251246-4.266923-2.17786069-9.088547-3.26679104-14.46487-3.26679104-5.290985 0-10.325954.98217247-15.104909 2.94651741-4.778954 1.96434494-8.960539 4.82545606-12.544754 8.58333329-3.584216 3.7578773-6.443054 8.348466-8.576516 13.7717662s-3.200193 11.5939055-3.200193 18.5118159c0 7.0033168 1.024062 13.1739221 3.072185 18.511816 2.048123 5.3378938 4.842958 9.8003731 8.384505 13.3874378 3.541546 3.5870646 7.659127 6.2987147 12.352743 8.1349502 4.693615 1.8362355 9.685916 2.7543532 14.976901 2.7543532zm75.979681 0c5.632339 0 10.773981-1.003524 15.424928-3.0105721 4.650946-2.0070481 8.640519-4.8895108 11.96872-8.647388 3.3282-3.7578773 5.909688-8.3271145 7.744466-13.7077115 1.834777-5.380597 2.752165-11.4871476 2.752165-18.3196517 0-6.7470979-.917388-12.7895937-2.752165-18.1274876-1.834778-5.3378939-4.416266-9.8430763-7.744466-13.5155473-3.328201-3.67247094-7.317774-6.46952732-11.96872-8.39116911-4.650947-1.92164179-9.792589-2.88246269-15.424928-2.88246269s-10.773982.9608209-15.424928 2.88246269c-4.650947 1.92164179-8.64052 4.6973466-11.96872 8.32711441-3.3282 3.6297678-5.909689 8.1135987-7.744466 13.4514926-1.834777 5.3378938-2.752166 11.4230928-2.752166 18.255597 0 6.8325041.917389 12.9390547 2.752166 18.3196517s4.416266 9.9498342 7.744466 13.7077115c3.3282 3.7578772 7.317773 6.6403399 11.96872 8.647388 4.650946 2.0070481 9.792589 3.0105721 15.424928 3.0105721zm0-16.2699004c-5.717677 0-10.240616-2.4554312-13.568816-7.3662936-3.328201-4.9108623-4.992301-11.5939055-4.992301-20.0491293 0-8.3698176 1.6641-14.9033997 4.992301-19.6007463 3.3282-4.6973466 7.851139-7.0460199 13.568816-7.0460199s10.240616 2.3486733 13.568816 7.0460199 4.9923 11.2309287 4.9923 19.6007463c0 8.4552238-1.6641 15.138267-4.9923 20.0491293-3.3282 4.9108624-7.851139 7.3662936-13.568816 7.3662936zm78.667843 14.732587v-29.5932836c0-4.9535655-.27735-10.0779436-.83205-15.3731343s-1.045397-10.2487562-1.472089-14.8606965h.512031l8.192493 18.1915423 21.761309 41.6355721h19.329163v-83.52736317h-17.921078v29.46517417c0 4.9535655.27735 10.1633499.83205 15.6293532s1.045396 10.4195688 1.472088 14.8606965h-.512031l-8.192492-18.4477612-21.76131-41.50746267h-19.329162v83.52736317zm109.133675 1.5373134c11.008663 0 20.011871-4.0995024 27.009625-12.2985074l-9.9846-11.7860697c-2.048124 2.2205639-4.416266 4.0781509-7.104428 5.5727612s-5.739012 2.2419155-9.15255 2.2419155c-6.14437 0-11.051332-2.3700249-14.720886-7.1100747-3.669554-4.7400497-5.504331-11.4230928-5.504331-20.0491293 0-4.1849088.533365-7.9427861 1.600096-11.2736319 1.066731-3.3308457 2.517485-6.1492537 4.352262-8.4552238 1.834777-2.3059702 4.010908-4.078151 6.528393-5.3165423 2.517484-1.2383914 5.184312-1.8575871 8.000481-1.8575871 2.986846 0 5.653673.6191957 8.000481 1.8575871 2.346808 1.2383913 4.586943 2.8397595 6.720405 4.8041044l9.9846-12.0422885c-2.816169-2.90381428-6.357716-5.44465176-10.624639-7.62251246-4.266923-2.17786069-9.088547-3.26679104-14.46487-3.26679104-5.290985 0-10.325955.98217247-15.104909 2.94651741s-8.960539 4.82545606-12.544754 8.58333329c-3.584216 3.7578773-6.443055 8.348466-8.576516 13.7717662-2.133462 5.4233002-3.200193 11.5939055-3.200193 18.5118159 0 7.0033168 1.024062 13.1739221 3.072185 18.511816 2.048123 5.3378938 4.842958 9.8003731 8.384504 13.3874378 3.541547 3.5870646 7.659128 6.2987147 12.352743 8.1349502 4.693616 1.8362355 9.685916 2.7543532 14.976901 2.7543532zm100.301145-1.5373134v-15.8855721h-34.690087v-19.2164179h28.417709v-15.7574627h-28.417709v-16.7823383h33.41001v-15.88557217h-52.227142v83.52736317zm42.569671 0v-28.312189h10.368624c4.4376 0 8.619185-.555141 12.544755-1.6654229 3.925569-1.1102819 7.381777-2.818408 10.368623-5.1243781 2.986847-2.3059702 5.354989-5.2524876 7.104428-8.8395523 1.749438-3.5870646 2.624157-7.8146766 2.624157-12.6828358 0-5.0389718-.874719-9.2879353-2.624157-12.7468905-1.749439-3.4589553-4.117581-6.2346601-7.104428-8.32711447-2.986846-2.09245439-6.485723-3.58706467-10.496631-4.48383084s-8.320501-1.34514926-12.928778-1.34514926h-28.673725v83.52736317zm9.216555-43.300995h-9.216555v-25.2375622h8.704524c5.120308 0 9.045877.8967662 11.776708 2.6902985s4.096247 4.8681592 4.096247 9.2238806c0 8.8822554-5.120308 13.3233831-15.360924 13.3233831zm88.780451 43.300995v-67.641791h22.913378v-15.88557217h-64.771896v15.88557217h22.913378v67.641791zm95.692867 17.9353234v-10.6330846h-60.931665v10.6330846z" fill="#2d2d2a"/></svg>