<svg height="104" viewBox="0 0 185 104" width="185" xmlns="http://www.w3.org/2000/svg"><g fill="none" fill-rule="evenodd"><rect fill="#007bc0" height="67" rx="1" width="67" x="62" y="21"/><g fill-rule="nonzero"><g transform="translate(69 56)"><path d="m24 12v4c0 6.62-5.37 12-12 12s-12-5.38-12-12v-4c0 3.31 1.34 6.31 3.51 8.479s5.17 3.521 8.49 3.521c6.63 0 12-5.38 12-12z" fill="#ccd1d9"/><path d="m20.49 3.51c-2.17-2.17-5.17-3.51-8.49-3.51-6.63 0-12 5.37-12 12 0 3.31 1.34 6.31 3.51 8.479s5.17 3.521 8.49 3.521c6.63 0 12-5.38 12-12 0-3.31-1.34-6.31-3.51-8.49z" fill="#e6e9ed"/><path d="m20.49 3.51c-.236-.236-.487-.459-.742-.675l-16.908 16.907c.215.254.436.503.67.737.237.237.488.46.745.677l16.905-16.906c-.215-.254-.434-.504-.67-.74z" fill="#ccd1d9"/></g><g transform="translate(133 26)"><path d="m26 31v18c0 1.12-.14 2.21-.41 3.25-.109.41-.229.82-.38 1.22-.14.4-.31.79-.49 1.17-1.279 2.65-3.43 4.801-6.08 6.08-.38.181-.77.351-1.17.49-.399.15-.81.271-1.22.38-1.04.27-2.13.41-3.25.41-7.18 0-13-5.82-13-13v-18z" fill="#f06543"/><path d="m26 13v18h-26v-18c0-7.18 5.82-13 13-13s13 5.82 13 13z" fill="#e6e9ed"/><path d="m21.996 31v18c0 1.12-.14 2.21-.41 3.25-.109.41-.229.82-.38 1.22-.14.4-.31.79-.49 1.17-1.279 2.65-3.43 4.801-6.08 6.08-.38.181-.77.351-1.17.49-.399.15-.81.271-1.22.38-.407.105-.828.175-1.25.24.655.102 1.32.17 2.004.17 1.12 0 2.21-.14 3.25-.41.41-.109.82-.229 1.22-.38.4-.14.79-.31 1.17-.49 2.65-1.279 4.801-3.43 6.08-6.08.181-.38.351-.77.49-1.17.15-.399.271-.81.38-1.22.271-1.04.41-2.13.41-3.25v-18z" fill="#ad3b1f"/><path d="m13 0c-.683 0-1.348.068-2.002.17 6.227.965 10.998 6.333 10.998 12.83v18h4.004v-18c0-7.18-5.82-13-13-13z" fill="#ccd1d9"/></g><g transform="translate(100 56)"><path d="m12.5 0c-3.32 0-6.32 1.34-8.49 3.51s-3.51 5.17-3.51 8.49c0 6.62 5.37 12 12 12 3.32 0 6.32-1.34 8.49-3.52 1.95-1.95 3.229-4.57 3.47-7.48.03-.33.04-.66.04-1 0-6.63-5.37-12-12-12z" fill="#f06543"/><g fill="#ad3b1f"><path d="m24.5 16c0 6.62-5.37 12-12 12s-12-5.38-12-12v-4c0 6.62 5.37 12 12 12 3.32 0 6.32-1.34 8.49-3.52 1.95-1.95 3.229-4.57 3.47-7.48h.04z"/><path d="m4.752 2.835c-.255.216-.506.438-.742.675-.235.235-.457.485-.672.739l16.909 16.909c.256-.217.507-.44.743-.678.234-.234.459-.48.674-.734z"/></g></g></g></g></svg>