<svg height="104" viewBox="0 0 185 104" width="185" xmlns="http://www.w3.org/2000/svg"><g fill="none" fill-rule="evenodd"><rect fill="#27baff" height="67" rx="1" width="67" x="59" y="21"/><g fill-rule="nonzero" transform="translate(34 37)"><path d="m58 11.502h-3-9-29-9-4c-2.2 0-4 1.789-4 4v26 6c0 2.199 1.8 4 4 4h54c2.2 0 4-1.801 4-4v-6-26c0-2.211-1.8-4-4-4z" fill="#e6e9ed"/><path d="m46 5.502h9v6h-9z" fill="#656d78"/><path d="m8 5.502h9v6h-9z" fill="#656d78"/><g fill="#ccd1d9"><path d="m8 5.502v6h-4c-2.2 0-4 1.789-4 4v-6c0-2.201 1.8-4 4-4z"/><path d="m46 11.502h-29v-6h5v3h3v-3h11.92.08v3h3v-3h6z"/><path d="m62 9.502v6c0-2.211-1.8-4-4-4h-3v-6h3c2.2 0 4 1.799 4 4z"/></g><path d="m14 9.504h-3c-.553 0-1-.447-1-1s.447-1 1-1h3c.553 0 1 .447 1 1s-.447 1-1 1z" fill="#545c66"/><path d="m52.002 9.504h-3c-.553 0-1-.447-1-1s.447-1 1-1h3c.553 0 1 .447 1 1s-.447 1-1 1z" fill="#545c66"/><path d="m26 9.504h-5c-.553 0-1-.447-1-1s.447-1 1-1h5c.553 0 1 .447 1 1s-.447 1-1 1z" fill="#aab2bd"/><path d="m41 9.498h-5c-.553 0-1-.447-1-1s.447-1 1-1h5c.553 0 1 .447 1 1s-.447 1-1 1z" fill="#aab2bd"/><g transform="translate(22)"><path d="m18 6.498v3h-3v-3-2h3z" fill="#e6e9ed"/><path d="m18 2.498v2h-3-12-3v-2c0-1.109.89-2 2-2h14c1.11 0 2 .891 2 2z" fill="#656d78"/><path d="m3 6.498v3h-3v-3-2h3z" fill="#e6e9ed"/></g></g></g></svg>