<svg height="104" viewBox="0 0 185 104" width="185" xmlns="http://www.w3.org/2000/svg"><g fill="none" fill-rule="evenodd"><path d="m41 53c.5522847 0 1 .4477153 1 1v1h5v-1c0-.5522847.4477153-1 1-1h7c.5522847 0 1 .4477153 1 1v1h5v-1c0-.5522847.4477153-1 1-1h7c.5522847 0 1 .4477153 1 1v1h5v-1c0-.5522847.4477153-1 1-1h7c.5522847 0 1 .4477153 1 1v1h7c.5522847 0 1 .4477153 1 1v31c0 .5522847-.4477153 1-1 1h-65c-.5522847 0-1-.4477153-1-1v-31c0-.5522847.4477153-1 1-1h7v-1c0-.5522847.4477153-1 1-1z" fill="#fcba04"/><path d="m109 53c.552285 0 1 .4477153 1 1v1h5v-1c0-.5522847.447715-1 1-1h7c.552285 0 1 .4477153 1 1v1h5v-1c0-.5522847.447715-1 1-1h7c.552285 0 1 .4477153 1 1v1h5v-1c0-.5522847.447715-1 1-1h7c.552285 0 1 .4477153 1 1v1h7c.552285 0 1 .4477153 1 1v31c0 .5522847-.447715 1-1 1h-65c-.5522847 0-1-.4477153-1-1v-31c0-.5522847.4477153-1 1-1h7v-1c0-.5522847.447715-1 1-1z" fill="#007bc0"/><path d="m75 20c.5522847 0 1 .4477153 1 1v1h5v-1c0-.5522847.4477153-1 1-1h7c.5522847 0 1 .4477153 1 1v1h5v-1c0-.5522847.4477153-1 1-1h7c.552285 0 1 .4477153 1 1v1h5v-1c0-.5522847.447715-1 1-1h7c.552285 0 1 .4477153 1 1v1h7c.552285 0 1 .4477153 1 1v31c0 .5522847-.447715 1-1 1h-65c-.5522847 0-1-.4477153-1-1v-31c0-.5522847.4477153-1 1-1h7v-1c0-.5522847.4477153-1 1-1z" fill="#00a676"/></g></svg>