<svg height="104" viewBox="0 0 185 104" width="185" xmlns="http://www.w3.org/2000/svg"><g fill="none" fill-rule="evenodd"><rect fill="#007bc0" height="67" rx="1" width="67" x="60" y="21"/><g transform="translate(36 26)"><g fill-rule="nonzero"><path d="m8 6h34v44h-34z" fill="#e6e9ed"/><path d="m8 6h1.992v44h-1.992z" fill="#656d78"/><path d="m39.998 6h1.992v44h-1.992z" fill="#656d78"/><path d="m42 6h-34v-1c0-2.76 2.24-5 5-5h24c2.76 0 5 2.24 5 5z" fill="#656d78"/><path d="m25 50h-17v2c0 3.3 2.7 6 6 6h11 11c3.3 0 6-2.7 6-6v-2z" fill="#656d78"/><path d="m25 52c1.1 0 2 .9 2 2 0 1.11-.9 2-2 2s-2-.89-2-2c0-1.1.9-2 2-2z" fill="#aab2bd"/><path d="m42 52v4c0 3.3-2.7 6-6 6h-22c-3.3 0-6-2.7-6-6v-4c0 3.3 2.7 6 6 6h11 11c3.3 0 6-2.7 6-6z" fill="#545c66"/></g><g transform="translate(0 8)"><rect fill="#f06543" height="20" rx="1" width="28.512" y=".2"/><path d="m14.6181482 15.7408451 5.2909142-5.3516819c1.539445-1.55621087 1.449191-4.13295437-.2679582-5.56865791-1.4984035-1.25084889-3.7268764-1.02586873-5.1022353.3642947l-.5386669.54373476-.5386669-.54373476c-1.3726353-1.39016343-3.60383185-1.61514359-5.10223529-.3642947-1.71714925 1.43570354-1.80740326 4.01244704-.27070862 5.56865791l5.29091421 5.3516819c.3417903.3455399.8968525.3455399 1.2386428 0z" fill="#fff" fill-rule="nonzero"/><path d="m12 17.8h3.6l-3.6 3.6z" fill="#f06543" transform="matrix(-.70710678 -.70710678 .70710678 -.70710678 9.698781 43.217366)"/></g><path d="m22.03 4c-.553 0-1.005-.447-1.005-1s.442-1 .994-1h.011c.552 0 1 .447 1 1s-.448 1-1 1z" fill="#5d9cec" fill-rule="nonzero"/><path d="m28 4h-3c-.553 0-1-.447-1-1s.447-1 1-1h3c.553 0 1 .447 1 1s-.447 1-1 1z" fill="#545c66" fill-rule="nonzero"/></g></g></svg>