<svg height="104" viewBox="0 0 185 104" width="185" xmlns="http://www.w3.org/2000/svg" xmlns:xlink="http://www.w3.org/1999/xlink"><defs><circle id="a" cx="12.5" cy="12.5" r="11"/><circle id="b" cx="12.5" cy="12.5" r="11"/><circle id="c" cx="12.5" cy="12.5" r="11"/><mask id="d" fill="#fff"><use fill="#fff" fill-rule="evenodd" xlink:href="#a"/></mask><mask id="e" fill="#fff"><use fill="#fff" fill-rule="evenodd" xlink:href="#b"/></mask><mask id="f" fill="#fff"><use fill="#fff" fill-rule="evenodd" xlink:href="#c"/></mask></defs><g fill="none" fill-rule="evenodd"><rect fill="#f06543" height="67" rx="1" width="67" x="62" y="21"/><g fill-rule="nonzero"><g transform="translate(103 30)"><path d="m27.5 16h-25-2.5v-.008884-12.43753466c0-1.95446974 1.5-3.55358134 3.33333333-3.55358134h23.33333337c1.8333333 0 3.3333333 1.5991116 3.3333333 3.55358134v12.43753466.008884z" fill="#e6e9ed"/><path d="m26 0h-4.004c2.2 0 4 1.5991116 4 3.55358134v12.43753466.008884h1.004 3v-.008884-12.43753466c0-1.95446974-1.8-3.55358134-4-3.55358134z" fill="#ccd1d9"/><g fill="#ed5565"><path d="m15 13c-.553 0-1-.447-1-1v-8c0-.553.447-1 1-1s1 .447 1 1v8c0 .553-.447 1-1 1z"/><path d="m19 9h-8c-.553 0-1-.447-1-1s.447-1 1-1h8c.553 0 1 .447 1 1s-.447 1-1 1z"/></g></g><g transform="translate(93 46)"><path d="m40 0v6.99c0 6.15-3.7 11.44-9 13.75-1.84.8-3.87 1.25-6 1.25s-4.16-.45-6-1.25c-5.3-2.31-9-7.6-9-13.75v-6.99z" fill="#eac6bb"/><path d="m35.996 0v6.99c0 6.15-3.7 11.44-9 13.75-1.252.545-2.598.911-3.998 1.1.657.088 1.322.15 2.002.15 2.13 0 4.16-.45 6-1.25 5.3-2.31 9-7.6 9-13.75v-6.99z" fill="#d3b1a9"/><path d="m31 20.74v13.25h-12v-13.25c1.84.8 3.87 1.25 6 1.25s4.16-.45 6-1.25z" fill="#eac6bb"/></g><g transform="translate(93 65)"><path d="m47 15v7c0 .55-.44 1-1 1h-42c-.55 0-1-.45-1-1v-7c0-4.42 3.58-8 8-8h7 1.0341628l5.9658372 15 5.9628547-15h1.0371453 7c4.42 0 8 3.58 8 8z" fill="#e6e9ed"/><path d="m39 7h-4.004c4.42 0 8 3.58 8 8v7c0 .55-.44 1-1 1h4.004c.56 0 1-.45 1-1v-7c0-4.42-3.58-8-8-8z" fill="#ccd1d9"/><path d="m31 7-5 16h-2l-5-16v-1c0 2.21 2.69 4 6 4s6-1.79 6-4z" fill="#27baff"/><g fill="#f5f7fa"><path d="m19 7 5 16h-2l-6-8 2-2-3-4z"/><path d="m26 23 5-16 4 2-3 4 2 2-6 8z"/></g></g></g><g fill-rule="evenodd" transform="translate(50 57)"><circle cx="12.5" cy="12.5" fill="#e8e9eb" r="11"/><use fill="#e8e9eb" opacity="0" xlink:href="#a"/><g mask="url(#d)"><g fill-rule="nonzero" transform="translate(5 5)"><path d="m3.2610426 12c-.0668102-.000261-.1336204-.0258384-.18451099-.0764714-.10204215-.1020488-.10204215-.2669972 0-.369046l1.47791479-1.4777502c.10204215-.10230985.26697984-.10230985.36902199 0 .10204215.1020488.10204215.2669972 0 .369046l-1.47791479 1.4774892c-.05089059.050894-.11770079.0767324-.184511.0767324z" fill="#fff"/><path d="m11.6841257 4-.683884-.68393908-.0002417-.00265936 2.3158743-2.31340156.6841257.68418084-2.3158743 2.31340156z" fill="#656d78"/><path d="m2.3834612 11.0790331-.3834612.3837589 1.53710367 1.537208.3834612-.3834872c.10591351-.1056491.10591351-.2783813 0-.384302l-1.15309933-1.1531777c-.10537035-.1053775-.27836241-.1053775-.38400434 0z" fill="#656d78"/><path d="m3.5 13.0486667v.6286666l-1.44231701 1.3226667-2.05768299-1.8866667.12651478-.1133333h3.32016481z" fill="#5d9cec"/><path d="m8.42374728 5.96165577.61655773.61655774.45969499.46013072-.46165577.46165577-1.53834423-1.53812636.46165577-.46187364z" fill="#656d78"/><path d="m10.9553377 4.5.5446623.54449284-1.95274406 1.95550716-.54725594-.54760423z" fill="#e6e9ed"/><path d="m6 10.1222812v.0026525l-.74933687.3750663-.37665782-.3740053-.37400531-.37665783.37506631-.74933687z" fill="#ccd1d9"/><path d="m13.1842966.11803852 1.697544 1.6977253c.1575013.15484835.1575013.41114907.000267.56599743-.1550988.15778513-.4084357.15751815-.565937 0l-.4698345-.46961768-.7554725-.75555317-.4727709-.47282143c-.1575014-.15725118-.1575014-.41061512.0002669-.56573045.1572344-.15725117.4084357-.15751815.565937 0z" fill="#656d78"/><path d="m11.8263275 3.83275355.5727608.5726213c.1345489.13683539.1345489.3576274 0 .49191162-.1368687.13683539-.3570186.13706731-.4915675 0l-.0023198-.00487041-.0837451-.08140546-.4873918-.48704121v-.00208732l-.6562739-.656346-.4915675-.49144777-.0837451-.08163739c-.13663679-.13706731-.13663679-.35461238 0-.49144777.1345489-.13451614.3551627-.13474806.4920314-.00023192l.5755446.5754044z" fill="#656d78"/><path d="m7.9816003 4.16904857h2.5794318v.72536692h-2.5794318z" fill="#e6e9ed" transform="matrix(.70715677 -.70705678 .70705678 .70715677 -.48915 7.882434)"/><path d="m3.5 13h-3.5l1.38732754-1.5h.72278999z" fill="#fff"/><path d="m9 7.66982025-2.66480975 2.66201515-.83222094.1681646-1.00296931-1.00070956.16838343-.83703878 2.66173534-2.66225166z" fill="#5d9cec"/><path d="m11 4.68256341v.00192883l-1.81767769 1.81550776-.68232231-.68232231 1.8176777-1.81767769z" fill="#ccd1d9"/></g></g></g><g fill-rule="evenodd" transform="translate(25 42)"><circle cx="12.5" cy="12.5" fill="#e8e9eb" r="11"/><use fill="#e8e9eb" opacity="0" xlink:href="#b"/><g mask="url(#e)"><g fill-rule="nonzero" transform="translate(5.5 5)"><path d="m14 7.5v4.3548387c0 .2709678-.035.5346774-.1025.7862903-.02725.0991936-.05725.1983871-.095.2951613-.035.0967742-.0775.1911291-.1225.2830645-.31975.6411291-.8575 1.1615323-1.52 1.4709678-.095.0437903-.1925.0849193-.2925.1185484-.09975.0362903-.2025.0655645-.305.0919355-.26.0653225-.5325.0991935-.8125.0991935-1.795 0-3.25-1.4080645-3.25-3.1451613v-4.3548387z" fill="#ed5565"/><path d="m14 3.14516129v4.35483871h-6.5v-4.35483871c0-1.73709677 1.455-3.14516129 3.25-3.14516129s3.25 1.40806452 3.25 3.14516129z" fill="#e6e9ed"/><path d="m12.9325513 7.5v4.3548387c0 .2709678-.0373234.5346774-.1093042.7862903-.0290589.0991936-.0610504.1983871-.1013063.2951613-.0373234.0967742-.0826446.1911291-.1306318.2830645-.3409758.6411291-.9144228 1.1615323-1.6209011 1.4709678-.1013063.0437903-.2052786.0849193-.3119168.1185484-.1063717.0362903-.2159424.0655645-.3252466.0919355-.1085044.0254032-.2207412.0423387-.3332445.0580645.1746201.0246774.3519062.041129.5342575.041129.2985871 0 .5891763-.033871.8664356-.0991935.1093042-.026371.2186084-.0554033.3252466-.0919355.1066383-.033871.2106106-.075.3119169-.1185484.7064782-.3094355 1.2799253-.8298387 1.6209011-1.4709678.0482538-.0919354.093575-.1862903.1306318-.2830645.0399893-.0965322.0722474-.1959677.1013063-.2951613.0722474-.2516129.1093042-.5153225.1093042-.7862903v-4.3548387z" fill="#da4453"/><path d="m10.5337955 0c-.1821091 0-.3594188.01645161-.5337955.04112903 1.660312.23346774 2.932409 1.53217742 2.932409 3.10403226v4.35483871h1.067591v-4.35483871c0-1.73709677-1.5517931-3.14516129-3.4662045-3.14516129z" fill="#ccd1d9"/><path d="m3 8c-.83 0-1.58.335-2.1225.8775s-.8775 1.2925-.8775 2.1225c0 1.655 1.3425 3 3 3 .83 0 1.58-.335 2.1225-.88.4875-.4875.80725-1.1425.8675-1.87.0075-.0825.01-.165.01-.25 0-1.6575-1.3425-3-3-3z" fill="#5d9cec"/><path d="m6 3v1c0 1.655-1.3425 3-3 3s-3-1.345-3-3v-1c0 .8275.335 1.5775.8775 2.11975s1.2925.88025 2.1225.88025c1.6575 0 3-1.345 3-3z" fill="#da4453"/><path d="m6 12c0 1.655-1.3425 3-3 3s-3-1.345-3-3v-1c0 1.655 1.3425 3 3 3 .83 0 1.58-.335 2.1225-.88.4875-.4875.80725-1.1425.8675-1.87h.01z" fill="#4a89dc"/><path d="m5.1225.8775c-.5425-.5425-1.2925-.8775-2.1225-.8775-1.6575 0-3 1.3425-3 3 0 .8275.335 1.5775.8775 2.11975s1.2925.88025 2.1225.88025c1.6575 0 3-1.345 3-3 0-.8275-.335-1.5775-.8775-2.1225z" fill="#ed5565"/><path d="m5.33542576 1.16579335c-.05796943-.05796627-.11962336-.11273948-.18225982-.16579335l-4.15316594 4.15269363c.05281114.06238742.10709607.12354675.16457424.18102178.05821506.05821189.11986899.1129851.18299672.16628459l4.15242904-4.15244801c-.05281114-.06238742-.1066048-.12379237-.16457424-.18175864z" fill="#da4453"/><path d="m1.34721161 8.5c-.06261595.05304808-.1242497.10756972-.18220015.16577526-.0577049.05771434-.11221762.11911259-.16501146.1814932l4.15205173 4.15273154c.06286151-.0532937.12449525-.1080609.18244571-.166512.05745934-.0574688.11270872-.1178847.16550256-.1802653z" fill="#4a89dc"/></g></g></g><g fill-rule="evenodd" transform="translate(50 29)"><circle cx="12.5" cy="12.5" fill="#e8e9eb" r="11"/><use fill="#e8e9eb" opacity="0" xlink:href="#c"/><g mask="url(#f)"><g fill-rule="nonzero" transform="translate(7.5 4)"><path d="m2.62500018 2.27710016c-.19355001 0-.35000003-.15645002-.35000003-.35000003v-1.40350009c0-.19355002.15645002-.35000003.35000003-.35000003s.35000002.15645001.35000002.35000003v1.40350009c0 .19355001-.15645001.35000003-.35000002.35000003z" fill="#545c66"/><path d="m7.17500049 2.27710016c-.19355001 0-.35000003-.15645002-.35000003-.35000003v-1.40350009c0-.19355002.15645002-.35000003.35000003-.35000003s.35000002.15645001.35000002.35000003v1.40350009c0 .19355001-.15645001.35000003-.35000002.35000003z" fill="#545c66"/><path d="m4.90000033 11.7236008c-.19355001 0-.35000002-.15645-.35000002-.35v-1.0458001c0-.19355.15645001-.35000002.35000002-.35000002.19355002 0 .35000003.15645002.35000003.35000002v1.0458001c0 .19355-.15645001.35-.35000003.35z" fill="#ccd1d9"/><g fill="#4a89dc"><path d="m4.90000033 16.2771011c-.19355001 0-.35000002-.15645-.35000002-.35v-2.0993002c0-.19355.15645001-.35.35000002-.35.19355002 0 .35000003.15645.35000003.35v2.0993002c0 .19355-.15645001.35-.35000003.35z"/><path d="m3.50000024 17.6771012c-.19355001 0-.35000003-.15645-.35000003-.35s.15645002-.35.35000003-.35c.57890004 0 1.05000007-.4711001 1.05000007-1.0500001 0-.19355.15645001-.35.35000002-.35.19355002 0 .35000003.15645.35000003.35 0 .9653001-.78505006 1.7500001-1.75000012 1.7500001z"/><path d="m3.50000024 17.6771012h-2.9746502c-.19355002 0-.35000003-.15645-.35000003-.35s.15645001-.35.35000003-.35h2.9746502c.19355001 0 .35000002.15645.35000002.35s-.15645001.35-.35000002.35z"/></g><path d="m8.22535056 6.12430042v3.15000021l-1.06400007 1.05000007h-2.26100016-2.27500015l-1.05000007-1.05000007v-3.15000021z" fill="#5d9cec"/><path d="m8.22535056 1.92780013v4.19650029h-6.65000045v-4.19650029h1.05000007 4.55000031z" fill="#fff"/><path d="m9.62465066.87430006h-9.09965062c-.19355002 0-.35000003-.15645001-.35000003-.35000002 0-.19355002.15645001-.35000003.35000003-.35000003h9.09965062c.19355001 0 .35000002.15645001.35000002.35000003 0 .19355001-.15645001.35000002-.35000002.35000002z" fill="#656d78"/><path d="m7.16030049 10.6736007h-4.53530031c-.09310001 0-.18200001-.03675-.24745002-.10255l-1.05000007-1.05070005c-.0658-.06580001-.10255001-.15435001-.10255001-.24745002v-7.3458005c0-.19355001.15645001-.35000002.35000003-.35000002h6.64999997c.19355049 0 .3500005.15645001.3500005.35000002v7.3458005c0 .09380001-.03745.18305001-.1043.24955002l-1.06470008 1.05070005c-.0651.0644-.15365001.10045-.24570001.10045zm-4.3904003-.70000002h4.24690029l.85820006-.84700006v-6.84950046h-5.95000041v6.85090046z" fill="#fff"/><path d="m9.62465066.17430001c-.19355002 0-.35000003.15645001-.35000003.35000003v18.20210126h.70000005v-18.20210126c0-.19355002-.15645001-.35000003-.35000002-.35000003z" fill="#656d78"/><path d="m5.60035038 13.4778009c0 .19285-.15750001.35-.35000002.35h-.70000005c-.19250001 0-.35000002-.15715-.35000002-.35v-1.7500001c0-.19215.15750001-.35.35000002-.35h.70000005c.19250001 0 .35000002.15785.35000002.35z" fill="#5d9cec"/><path d="m5.25035036 11.3778008h-.35000003-.35000002c-.19250001 0-.35000002.15785-.35000002.35v.7h1.40000009v-.7c0-.19215-.15750001-.35-.35000002-.35z" fill="#fff"/></g></g></g></g></svg>