<svg height="104" viewBox="0 0 185 104" width="185" xmlns="http://www.w3.org/2000/svg" xmlns:xlink="http://www.w3.org/1999/xlink"><defs><circle id="a" cx="12.5" cy="12.5" r="11"/><circle id="b" cx="12.5" cy="12.5" r="11"/><circle id="c" cx="12.5" cy="12.5" r="11"/><mask id="d" fill="#fff"><use fill="#fff" fill-rule="evenodd" xlink:href="#a"/></mask><mask id="e" fill="#fff"><use fill="#fff" fill-rule="evenodd" xlink:href="#b"/></mask><mask id="f" fill="#fff"><use fill="#fff" fill-rule="evenodd" xlink:href="#c"/></mask></defs><g fill="none" fill-rule="evenodd"><rect fill="#00a676" height="67" rx="1" width="67" x="62" y="21"/><g fill-rule="nonzero"><g transform="translate(93 46)"><path d="m40 0v6.99c0 6.15-3.7 11.44-9 13.75-1.84.8-3.87 1.25-6 1.25s-4.16-.45-6-1.25c-5.3-2.31-9-7.6-9-13.75v-6.99z" fill="#ab7969"/><path d="m35.996 0v6.99c0 6.15-3.7 11.44-9 13.75-1.252.545-2.598.911-3.998 1.1.657.088 1.322.15 2.002.15 2.13 0 4.16-.45 6-1.25 5.3-2.31 9-7.6 9-13.75v-6.99z" fill="#996559"/><path d="m31 20.74v13.25h-12v-13.25c1.84.8 3.87 1.25 6 1.25s4.16-.45 6-1.25z" fill="#ab7969"/></g><g transform="translate(93 65)"><path d="m47 15v7c0 .55-.44 1-1 1h-42c-.55 0-1-.45-1-1v-7c0-4.42 3.58-8 8-8h8l6 7 6-7h8c4.42 0 8 3.58 8 8z" fill="#48cfad"/><path d="m39 7h-4.004c4.42 0 8 3.58 8 8v7c0 .55-.44 1-1 1h4.004c.56 0 1-.45 1-1v-7c0-4.42-3.58-8-8-8z" fill="#37bc9b"/></g><g transform="translate(93 30)"><g><path d="m40 4v12h-.01-29.99v-12c0-2.2 1.8-4 4-4h22c2.2 0 4 1.8 4 4z" fill="#48cfad"/><path d="m36 0h-4.004c2.2 0 4 1.8 4 4v12h3.994.01v-12c0-2.2-1.8-4-4-4z" fill="#37bc9b"/><g fill="#e6e9ed"><path d="m24.998 12.998c-.553 0-1-.447-1-1v-8c0-.553.447-1 1-1s1 .447 1 1v8c0 .553-.447 1-1 1z"/><path d="m28.998 8.998h-8c-.553 0-1-.447-1-1s.447-1 1-1h8c.553 0 1 .447 1 1s-.447 1-1 1z"/></g></g><g><path d="m15.999 22.995h18v11h-18z" fill="#f5f7fa"/><g fill="#e6e9ed"><path d="m34.999 35.001h-1c-.553 0-1-.447-1-1s.447-1 1-1h1c.553 0 1 .447 1 1s-.447 1-1 1z"/><path d="m15.999 35.001h-1c-.553 0-1-.447-1-1s.447-1 1-1h1c.553 0 1 .447 1 1s-.447 1-1 1z"/><path d="m15.999 24h-5.999c-.553 0-1-.447-1-1s.447-1 1-1h5.999c.553 0 1 .447 1 1s-.447 1-1 1z"/><path d="m39.998 24h-5.999c-.553 0-1-.447-1-1s.447-1 1-1h5.999c.553 0 1 .447 1 1s-.447 1-1 1z"/><path d="m29.999 27.997h-10c-.553 0-1-.447-1-1s.447-1 1-1h10c.553 0 1 .447 1 1s-.447 1-1 1z"/><path d="m29.999 30.996h-10c-.553 0-1-.447-1-1s.447-1 1-1h10c.553 0 1 .447 1 1s-.447 1-1 1z"/></g><path d="m33.999 35.001h-18c-.553 0-1-.447-1-1v-11.001c0-.553.447-1 1-1h18c.553 0 1 .447 1 1v11.001c0 .553-.447 1-1 1zm-17-2h16v-9.001h-16z" fill="#f5f7fa"/></g></g></g><g fill-rule="evenodd"><g transform="translate(50 57)"><circle cx="12.5" cy="12.5" fill="#e8e9eb" r="11"/><use fill="#e8e9eb" opacity="0" xlink:href="#a"/><g mask="url(#d)"><g fill-rule="nonzero" transform="translate(4.5 5)"><path d="m6.5.5c.2775 0 .5.22475.5.5 0 .27725-.2225.5-.5.5h-1c-.275 0-.5-.22275-.5-.5 0-.27525.225-.5.5-.5z" fill="#da4453"/><path d="m6.96774194 1.01799673v1.01799673h-.00258065c0 .14251954.11612903.25704417.26064516.25704417v-.00254499h.51612903c.73806452-1.36182512 2.19612904-2.29049264 3.87096772-2.29049264 2.4232258 0 4.3870968 1.93928377 4.3870968 4.32648609v.002545c0 5.34448282-4.3870968 9.67096891-9.80645161 9.67096891h-.77419355c-1.85290323 0-3.35483871-1.4786402-3.35483871-3.3084894v2.796946c0-.2802036-.22967742-.5089983-.51612903-.5089983h-1.03225807c-.28387096 0-.51612903.2287947-.51612903.5089983v-2.799491c0-1.08925646.86709677-1.98000359 1.95870968-2.03344842h.10580645.77419355v-.00254499c2.42580645 0 4.38709677-1.93444829 4.38709677-4.3239411v-.002545c-1.28258064 0-2.32258064-1.02334121-2.32258064-2.29049263v-1.01799673c0 .28223959.23225806.50899836.51612903.50899836h1.03225806c.28645162 0 .51612904-.22675877.51612904-.50899836z" fill="#ed5565"/><path d="m1.5 13c.2775 0 .5.22475.5.5 0 .27725-.2225.5-.5.5h-1c-.275 0-.5-.22275-.5-.5 0-.27525.225-.5.5-.5z" fill="#da4453"/></g></g></g><g transform="translate(25 42)"><circle cx="12.5" cy="12.5" fill="#e8e9eb" r="11"/><use fill="#e8e9eb" opacity="0" xlink:href="#b"/><g mask="url(#e)"><g fill-rule="nonzero" transform="translate(5 3)"><g fill="none"><g fill="#fff"><path d="m7.016129 3.629032h1v1.209677h-1z"/><path d="m7.016129 1.209677h1v1.209677h-1z"/><path d="m7.016129 2.419355h1v1.209677h-1z"/></g><path d="m7.016129 0h1v1.209677h-1z" fill="#e6e9ed"/><path d="m7.98387097 4.83870968v.72580645c0 .26854839.2175.48387097.48387097.48387097v.96774193c-.37016129 0-.70911291-.14032258-.96774194-.37016129-.29758065-.26612903-.48387097-.65056451-.48387097-1.08145161v-.72580645z" fill="#fff"/><path d="m7.01612903 5.56451613c0 .43064516.18629032.81532258.48387097 1.08145161-.25669355.22983871-.59516129.37016129-.96774194.37016129v-.96774193c.26830646 0 .48387097-.21532258.48387097-.48387097z" fill="#ccd1d9"/><path d="m15 9.43790323v4.11048387c0 .8032258-.648629 1.4516129-1.4516129 1.4516129h-3.62661291c-.8032258 0-1.4516129-.6483871-1.4516129-1.4516129h-.00241935v-6.53225807-.96774193-.23951613c0-.80298387.64838709-1.45161291 1.4516129-1.45161291h.00241935c2.80620971 0 5.07822581 2.2717742 5.07822581 5.08064517z" fill="#ed5565"/><path d="m6.53467742 5.80887097h-.00241936v.23951613.96774193 6.53225807c0 .8032258-.65080645 1.4516129-1.4516129 1.4516129h-3.62903226c-.80104838 0-1.4516129-.6483871-1.4516129-1.4516129v-4.11048387c0-2.80862904 2.27177419-5.08064517 5.08064516-5.08064517h.00241936c.80056451 0 1.4516129.6483871 1.4516129 1.45161291z" fill="#ed5565"/></g><g fill="#ccd1d9"><path d="m7 4.5h1v1h-1z"/><path d="m7 3.5h1v1h-1z"/><path d="m7 2h1v1h-1z"/><path d="m7 1h1v1h-1z"/></g></g></g></g><g transform="translate(50 29)"><circle cx="12.5" cy="12.5" fill="#e8e9eb" r="11"/><use fill="#e8e9eb" opacity="0" xlink:href="#c"/><g mask="url(#f)"><g fill-rule="nonzero" transform="translate(4.5 7)"><g fill="#fff"><path d="m7.25 7.5703125v.796875c0-1.31989063-1.005-2.390625-2.25-2.390625v-.796875c1.245 0 2.25 1.06807813 2.25 2.390625z"/><path d="m7.2505 8.6328125c-.13825 0-.25-.11873438-.25-.265625 0-1.17140625-.897-2.125-2-2.125-.13825 0-.25-.11873437-.25-.265625s.11175-.265625.25-.265625c1.3785 0 2.5 1.19159375 2.5 2.65625 0 .14689062-.11175.265625-.25.265625z"/><path d="m7.2505 7.83540625c-.13825 0-.25-.11873437-.25-.265625 0-1.1719375-.897-2.125-2-2.125-.13825 0-.25-.11873437-.25-.265625s.11175-.265625.25-.265625c1.3785 0 2.5 1.19159375 2.5 2.65625 0 .14689062-.11175.265625-.25.265625z"/><path d="m7.2505 16.8671875c-.13825 0-.25-.1187344-.25-.265625v-9.03178125c0-.14689063.11175-.265625.25-.265625s.25.11873437.25.265625v9.03178125c0 .1468906-.11175.265625-.25.265625z"/></g><path d="m5 5.9765625v.796875c.55275 0 1 .47573438 1 1.0625 0 1.76135937-1.34225 3.1875-3 3.1875-1.65725 0-3-1.42614063-3-3.1875v-4.515625c0-1.76082812 1.34275-3.1875 3-3.1875 1.65775 0 3 1.42667188 3 3.1875 0 .58995312-.44725 1.0656875-1 1.0656875v.7936875z" fill="#ed5565"/><path d="m4.249 4.383875c-.13825 0-.25.11873438-.25.265625 0 .14689063.11175.265625.25.265625h.7465v-.53125z" fill="#da4453"/><path d="m4.249 6.24484375c-.13825 0-.25.11873438-.25.265625 0 .14689063.11175.265625.25.265625h.7465v-.53125z" fill="#da4453"/><g transform="translate(8.5)"><g fill="#fff"><path d="m.25 7.5703125v.796875c0-1.31989063 1.005-2.390625 2.25-2.390625v-.796875c-1.245 0-2.25 1.06807813-2.25 2.390625z"/><path d="m.2495 8.6328125c.13825 0 .25-.11873438.25-.265625 0-1.17140625.897-2.125 2-2.125.13825 0 .25-.11873437.25-.265625s-.11175-.265625-.25-.265625c-1.3785 0-2.5 1.19159375-2.5 2.65625 0 .14689062.11175.265625.25.265625z"/><path d="m.2495 7.83540625c.13825 0 .25-.11873437.25-.265625 0-1.1719375.897-2.125 2-2.125.13825 0 .25-.11873437.25-.265625s-.11175-.265625-.25-.265625c-1.3785 0-2.5 1.19159375-2.5 2.65625 0 .14689062.11175.265625.25.265625z"/><path d="m.2495 16.8671875c.13825 0 .25-.1187344.25-.265625v-9.03178125c0-.14689063-.11175-.265625-.25-.265625s-.25.11873437-.25.265625v9.03178125c0 .1468906.11175.265625.25.265625z"/></g><path d="m2.5 5.9765625v.796875c-.55275 0-1 .47573438-1 1.0625 0 1.76135937 1.34225 3.1875 3 3.1875 1.65725 0 3-1.42614063 3-3.1875v-4.515625c0-1.76082812-1.34275-3.1875-3-3.1875-1.65775 0-3 1.42667188-3 3.1875 0 .58995312.44725 1.0656875 1 1.0656875v.7936875z" fill="#ed5565"/><path d="m3.251 4.383875c.13825 0 .25.11873438.25.265625 0 .14689063-.11175.265625-.25.265625h-.7465v-.53125z" fill="#da4453"/><path d="m3.251 6.24484375c.13825 0 .25.11873438.25.265625 0 .14689063-.11175.265625-.25.265625h-.7465v-.53125z" fill="#da4453"/></g></g></g></g></g></g></svg>