<?xml version="1.0" encoding="UTF-8"?>
<svg width="1047px" height="588px" viewBox="0 0 1047 588" version="1.1" xmlns="http://www.w3.org/2000/svg" xmlns:xlink="http://www.w3.org/1999/xlink">
    <title>svg/overview</title>
    <defs>
        <rect id="path-1" x="0" y="0" width="21" height="45"></rect>
        <circle id="path-3" cx="22.5" cy="22.5" r="22.5"></circle>
        <polygon id="path-5" points="0 0 174 0 174 100 116.129032 54.8387097 48.3841935 40 0 61"></polygon>
        <path d="M22.5806452,29.0322581 C15.7096774,29.0322581 10.0967742,34.3870968 9.70967742,41.1290323 C3.83870968,37.0645161 0,30.2903226 0,22.5806452 C0,10.1290323 10.0967742,0 22.5806452,0 C35.0645161,0 45.1612903,10.1290323 45.1612903,22.5806452 C45.1612903,30.2903226 41.3258065,37.0645161 35.4516129,41.1290323 C35.0322581,34.3870968 29.4193548,29.0322581 22.5806452,29.0322581 C26.1322581,29.0322581 29.0322581,26.1612903 29.0322581,22.5806452 C29.0322581,19.0322581 26.1322581,16.1290323 22.5806452,16.1290323 C19.0322581,16.1290323 16.1290323,19.0322581 16.1290323,22.5806452 C16.1290323,26.1612903 19.0322581,29.0322581 22.5806452,29.0322581 Z" id="path-7"></path>
    </defs>
    <g id="svg/overview" stroke="none" stroke-width="1" fill="none" fill-rule="evenodd">
        <rect fill="#FFFFFF" x="0" y="0" width="1047" height="588"></rect>
        <g id="Group-2" transform="translate(242.000000, 139.000000)">
            <g id="Group">
                <g id="24-medical,-record,-tablet,-medical,-technology,-medicine,-equipment" transform="translate(194.003548, 120.000000)">
                    <polygon id="Path" fill="#27BAFF" fill-rule="nonzero" points="0 0 0 100 146.947572 100 174.193548 51.6129032 174.193548 0"></polygon>
                    <g id="Path" transform="translate(152.996452, 55.000000)">
                        <mask id="mask-2" fill="white">
                            <use xlink:href="#path-1"></use>
                        </mask>
                        <rect stroke="#979797" x="0.5" y="0.5" width="20" height="44"></rect>
                        <polygon fill="#E6E9ED" fill-rule="nonzero" mask="url(#mask-2)" points="-152.996452 -55 -152.996452 45 21.1970968 45 21.1970968 -3.38709677 21.1970968 -55"></polygon>
                    </g>
                    <path d="M38.7096774,45.1612903 C31.8387097,45.1612903 26.2258065,50.516129 25.8387097,57.2580645 C19.9677419,53.1935484 16.1290323,46.4193548 16.1290323,38.7096774 C16.1290323,26.2580645 26.2258065,16.1290323 38.7096774,16.1290323 C51.1935484,16.1290323 61.2903226,26.2580645 61.2903226,38.7096774 C61.2903226,46.4193548 57.4548387,53.1935484 51.5806452,57.2580645 C51.1612903,50.516129 45.5483871,45.1612903 38.7096774,45.1612903 C42.2612903,45.1612903 45.1612903,42.2903226 45.1612903,38.7096774 C45.1612903,35.1612903 42.2612903,32.2580645 38.7096774,32.2580645 C35.1612903,32.2580645 32.2580645,35.1612903 32.2580645,38.7096774 C32.2580645,42.2903226 35.1612903,45.1612903 38.7096774,45.1612903 Z" id="Path" fill="#E9FAFF" fill-rule="nonzero"></path>
                    <g id="teacher-1" transform="translate(15.996452, 17.000000)">
                        <mask id="mask-4" fill="white">
                            <use xlink:href="#path-3"></use>
                        </mask>
                        <use id="Mask" fill="#E9FAFF" xlink:href="#path-3"></use>
                        <g mask="url(#mask-4)">
                            <g transform="translate(5.000000, 7.200000)">
                                <g id="face-white" transform="translate(7.200000, 11.520000)">
                                    <path d="M21.6,0 L21.6,5.0328 C21.6,9.4608 18.936,13.2696 15.12,14.9328 C13.7952,15.5088 12.3336,15.8328 10.8,15.8328 C9.2664,15.8328 7.8048,15.5088 6.48,14.9328 C2.664,13.2696 8.8817842e-16,9.4608 8.8817842e-16,5.0328 L8.8817842e-16,0 L21.6,0 Z" id="Path" fill="#EAC6BB" fill-rule="nonzero"></path>
                                    <path d="M18.71712,0 L18.71712,5.0328 C18.71712,9.4608 16.05312,13.2696 12.23712,14.9328 C11.33568,15.3252 10.36656,15.58872 9.35856,15.7248 C9.8316,15.78816 10.3104,15.8328 10.8,15.8328 C12.3336,15.8328 13.7952,15.5088 15.12,14.9328 C18.936,13.2696 21.6,9.4608 21.6,5.0328 L21.6,0 L18.71712,0 Z" id="Path" fill="#D3B1A9" fill-rule="nonzero"></path>
                                    <path d="M15.12,14.9328 L15.12,24.4728 L6.48,24.4728 L6.48,14.9328 C7.8048,15.5088 9.2664,15.8328 10.8,15.8328 C12.3336,15.8328 13.7952,15.5088 15.12,14.9328 Z" id="Path" fill="#EAC6BB" fill-rule="nonzero"></path>
                                </g>
                                <g id="Group" transform="translate(7.200000, 0.000000)">
                                    <path d="M0,6.72 C0,4.5952 1.2864,2.88 2.88,2.88 L2.88,10.56 C2.88,12.6848 1.5936,14.4 0,14.4 L0,6.72 L0,6.72 Z" id="Path" fill="#E9573F" fill-rule="nonzero"></path>
                                    <path d="M21.6,10.7369418 L21.6,19.44 C21.6,17.0052706 20.3624,14.8589048 18.48,13.5704718 L18.48,13.5602462 C17.3048,12.7524191 15.8696,12.2820388 14.32,12.2820388 L14.32,12.2605649 L6,12.2605649 C4.2736,12.2605649 2.88,12.3303267 2.88,10.6328673 L2.88,3.05747199 C4.8664,1.06346852 7.6224,0 10.68,0 C16.712,0 21.6,4.80605965 21.6,10.7369418 Z" id="Path" fill="#F06543" fill-rule="nonzero"></path>
                                    <path d="M10.9353249,0 C10.3980284,0 9.87495146,0.0460154647 9.36,0.114527379 C14.5501419,0.838504024 18.5499029,5.3112072 18.5499029,10.7369418 L18.5499029,13.558201 C18.5509186,13.5592236 18.5519343,13.5592236 18.55295,13.5602462 L18.55295,13.5704718 C20.3913368,14.8589048 21.6,17.0052706 21.6,19.44 L21.6,10.7369418 C21.6,4.80605965 16.8262883,0 10.9353249,0 Z" id="Path" fill="#E9573F" fill-rule="nonzero"></path>
                                </g>
                                <g id="Group" transform="translate(0.000000, 25.200000)">
                                    <path d="M33.84,10.8 L33.84,15.84 C33.84,16.236 33.5232,16.56 33.12,16.56 L2.88,16.56 C2.484,16.56 2.16,16.236 2.16,15.84 L2.16,10.8 C2.16,7.6176 4.7376,5.04 7.92,5.04 L12.96,5.04 L23.04,5.04 L28.08,5.04 C31.2624,5.04 33.84,7.6176 33.84,10.8 Z" id="Path-Copy" fill="#AB7969" fill-rule="nonzero"></path>
                                    <path d="M28.08,5.04 L25.19712,5.04 C28.37952,5.04 30.95712,7.6176 30.95712,10.8 L30.95712,15.84 C30.95712,16.236 30.64032,16.56 30.23712,16.56 L33.12,16.56 C33.5232,16.56 33.84,16.236 33.84,15.84 L33.84,10.8 C33.84,7.6176 31.2624,5.04 28.08,5.04 Z" id="Path-Copy-3" fill="#976656" fill-rule="nonzero"></path>
                                    <path d="M22.9893759,2.87996662 L23.04,2.92670549 L23.0407356,5.71469954 C22.058338,6.60045371 20.1692005,7.2 18,7.2 C15.8301747,7.2 13.9405737,6.60010829 12.9584157,5.7139341 L12.9578995,2.92653177 C12.9751939,2.91092068 12.9927699,2.89539839 13.0106241,2.87996662 C14.0065647,3.74084895 15.8680144,4.32 18,4.32 C20.0904767,4.32 21.9208493,3.76318111 22.9302243,2.92999013 L22.9893759,2.87996662 Z" id="Combined-Shape" fill="#C19789"></path>
                                </g>
                            </g>
                        </g>
                    </g>
                    <path d="M54.8419355,74.2032258 L22.583871,74.2032258 C20.8,74.2032258 19.3580645,72.7612903 19.3580645,70.9774194 C19.3580645,69.1935484 20.8,67.7516129 22.583871,67.7516129 L54.8419355,67.7516129 C56.6258065,67.7516129 58.0677419,69.1935484 58.0677419,70.9774194 C58.0677419,72.7612903 56.6258065,74.2032258 54.8419355,74.2032258 Z" id="Path" fill="#E9FAFF" fill-rule="nonzero"></path>
                    <path d="M45.1548387,83.8806452 L32.2709677,83.8806452 C30.4870968,83.8806452 29.0451613,82.4387097 29.0451613,80.6548387 C29.0451613,78.8709677 30.4870968,77.4290323 32.2709677,77.4290323 L45.1548387,77.4290323 C46.9387097,77.4290323 48.3806452,78.8709677 48.3806452,80.6548387 C48.3806452,82.4387097 46.9387097,83.8806452 45.1548387,83.8806452 Z" id="Path" fill="#E9FAFF" fill-rule="nonzero"></path>
                    <path d="M158.064516,22.5806452 C158.064516,24.3548387 156.612903,25.8064516 154.83871,25.8064516 L77.4193548,25.8064516 C75.6451613,25.8064516 74.1935484,24.3548387 74.1935484,22.5806452 L74.1935484,19.3548387 C74.1935484,17.5806452 75.6451613,16.1290323 77.4193548,16.1290323 L154.83871,16.1290323 C156.612903,16.1290323 158.064516,17.5806452 158.064516,19.3548387 L158.064516,22.5806452 Z" id="Path" fill="#E9FAFF" fill-rule="nonzero"></path>
                    <path d="M158.064516,41.9548387 C158.064516,43.7290323 156.612903,45.1806452 154.83871,45.1806452 L77.4193548,45.1806452 C75.6451613,45.1806452 74.1935484,43.7290323 74.1935484,41.9548387 L74.1935484,38.7290323 C74.1935484,36.9548387 75.6451613,35.5032258 77.4193548,35.5032258 L154.83871,35.5032258 C156.612903,35.5032258 158.064516,36.9548387 158.064516,38.7290323 L158.064516,41.9548387 Z" id="Path" fill="#E9FAFF" fill-rule="nonzero"></path>
                    <path d="M158.064516,61.2903226 C158.064516,63.0645161 156.612903,64.516129 154.83871,64.516129 L77.4193548,64.516129 C75.6451613,64.516129 74.1935484,63.0645161 74.1935484,61.2903226 L74.1935484,58.0645161 C74.1935484,56.2903226 75.6451613,54.8387097 77.4193548,54.8387097 L154.83871,54.8387097 C156.612903,54.8387097 158.064516,56.2903226 158.064516,58.0645161 L158.064516,61.2903226 Z" id="Path" fill="#E9FAFF" fill-rule="nonzero"></path>
                    <path d="M158.064516,80.6258065 C158.064516,82.4 156.612903,83.8516129 154.83871,83.8516129 L77.4193548,83.8516129 C75.6451613,83.8516129 74.1935484,82.4 74.1935484,80.6258065 L74.1935484,77.4 C74.1935484,75.6258065 75.6451613,74.1741935 77.4193548,74.1741935 L154.83871,74.1741935 C156.612903,74.1741935 158.064516,75.6258065 158.064516,77.4 L158.064516,80.6258065 Z" id="Path" fill="#E9FAFF" fill-rule="nonzero"></path>
                    <path d="M77.4193548,16.1290323 C75.6451613,16.1290323 74.1935484,17.5806452 74.1935484,19.3548387 L74.1935484,22.5806452 C74.1935484,24.3548387 75.6451613,25.8064516 77.4193548,25.8064516 L96.7419355,25.8064516 L87.0645161,16.1290323 L77.4193548,16.1290323 Z" id="Path" fill="#ED5565" fill-rule="nonzero"></path>
                    <path d="M77.3258065,45.1612903 L141.967742,45.1612903 L132.309677,35.5032258 L77.4193548,35.5032258 C75.6451613,35.5032258 74.1935484,36.9548387 74.1935484,38.7290323 L74.1935484,41.9548387 C74.1935484,43.6967742 75.6,45.1064516 77.3258065,45.1612903 Z" id="Path" fill="#00A676" fill-rule="nonzero"></path>
                    <path d="M77.4193548,54.8387097 C75.6451613,54.8387097 74.1935484,56.2903226 74.1935484,58.0645161 L74.1935484,61.2903226 C74.1935484,63.0645161 75.6451613,64.516129 77.4193548,64.516129 L112.903226,64.516129 L103.225806,54.8387097 L77.4193548,54.8387097 Z" id="Path" fill="#FCBA04" fill-rule="nonzero"></path>
                    <path d="M77.4193548,83.8516129 L138.722581,83.8516129 L129.064516,74.1935484 L77.3258065,74.1935484 C75.6,74.2483871 74.1935484,75.6580645 74.1935484,77.4 L74.1935484,80.6258065 C74.1935484,82.4 75.6451613,83.8516129 77.4193548,83.8516129 Z" id="Path" fill="#00A676" fill-rule="nonzero"></path>
                </g>
                <g id="24-medical,-record,-tablet,-medical,-technology,-medicine,-equipment" transform="translate(0.000000, 120.000000)" fill-rule="nonzero">
                    <polygon id="Path" fill="#E6E9ED" points="0 0 0 100 174.193548 100 174.193548 51.6129032 174.193548 0"></polygon>
                    <path d="M38.7096774,45.1612903 C45.5483871,45.1612903 51.1612903,50.516129 51.5806452,57.2580645 C47.9354839,59.8064516 43.483871,61.2903226 38.7096774,61.2903226 C33.9387097,61.2903226 29.4870968,59.8064516 25.8387097,57.2580645 C26.2258065,50.516129 31.8387097,45.1612903 38.7096774,45.1612903 Z" id="Path" fill="#B5BCC8"></path>
                    <path d="M38.7096774,45.1612903 C31.8387097,45.1612903 26.2258065,50.516129 25.8387097,57.2580645 C19.9677419,53.1935484 16.1290323,46.4193548 16.1290323,38.7096774 C16.1290323,26.2580645 26.2258065,16.1290323 38.7096774,16.1290323 C51.1935484,16.1290323 61.2903226,26.2580645 61.2903226,38.7096774 C61.2903226,46.4193548 57.4548387,53.1935484 51.5806452,57.2580645 C51.1612903,50.516129 45.5483871,45.1612903 38.7096774,45.1612903 C42.2612903,45.1612903 45.1612903,42.2903226 45.1612903,38.7096774 C45.1612903,35.1612903 42.2612903,32.2580645 38.7096774,32.2580645 C35.1612903,32.2580645 32.2580645,35.1612903 32.2580645,38.7096774 C32.2580645,42.2903226 35.1612903,45.1612903 38.7096774,45.1612903 Z" id="Path" fill="#656D78"></path>
                    <path d="M46.7741935,40.3225806 C46.7741935,44.8 43.1483871,48.3870968 38.7096774,48.3870968 C34.2741935,48.3870968 30.6451613,44.8 30.6451613,40.3225806 C30.6451613,35.8870968 34.2741935,32.2580645 38.7096774,32.2580645 C43.1483871,32.2580645 46.7741935,35.8870968 46.7741935,40.3225806 Z" id="Path" fill="#B5BCC8"></path>
                    <path d="M54.8419355,74.2032258 L22.583871,74.2032258 C20.8,74.2032258 19.3580645,72.7612903 19.3580645,70.9774194 C19.3580645,69.1935484 20.8,67.7516129 22.583871,67.7516129 L54.8419355,67.7516129 C56.6258065,67.7516129 58.0677419,69.1935484 58.0677419,70.9774194 C58.0677419,72.7612903 56.6258065,74.2032258 54.8419355,74.2032258 Z" id="Path" fill="#CCD1D9"></path>
                    <path d="M45.1548387,83.8806452 L32.2709677,83.8806452 C30.4870968,83.8806452 29.0451613,82.4387097 29.0451613,80.6548387 C29.0451613,78.8709677 30.4870968,77.4290323 32.2709677,77.4290323 L45.1548387,77.4290323 C46.9387097,77.4290323 48.3806452,78.8709677 48.3806452,80.6548387 C48.3806452,82.4387097 46.9387097,83.8806452 45.1548387,83.8806452 Z" id="Path" fill="#CCD1D9"></path>
                    <path d="M158.064516,22.5806452 C158.064516,24.3548387 156.612903,25.8064516 154.83871,25.8064516 L77.4193548,25.8064516 C75.6451613,25.8064516 74.1935484,24.3548387 74.1935484,22.5806452 L74.1935484,19.3548387 C74.1935484,17.5806452 75.6451613,16.1290323 77.4193548,16.1290323 L154.83871,16.1290323 C156.612903,16.1290323 158.064516,17.5806452 158.064516,19.3548387 L158.064516,22.5806452 Z" id="Path" fill="#CCD1D9"></path>
                    <path d="M158.064516,41.9548387 C158.064516,43.7290323 156.612903,45.1806452 154.83871,45.1806452 L77.4193548,45.1806452 C75.6451613,45.1806452 74.1935484,43.7290323 74.1935484,41.9548387 L74.1935484,38.7290323 C74.1935484,36.9548387 75.6451613,35.5032258 77.4193548,35.5032258 L154.83871,35.5032258 C156.612903,35.5032258 158.064516,36.9548387 158.064516,38.7290323 L158.064516,41.9548387 Z" id="Path" fill="#CCD1D9"></path>
                    <path d="M158.064516,61.2903226 C158.064516,63.0645161 156.612903,64.516129 154.83871,64.516129 L77.4193548,64.516129 C75.6451613,64.516129 74.1935484,63.0645161 74.1935484,61.2903226 L74.1935484,58.0645161 C74.1935484,56.2903226 75.6451613,54.8387097 77.4193548,54.8387097 L154.83871,54.8387097 C156.612903,54.8387097 158.064516,56.2903226 158.064516,58.0645161 L158.064516,61.2903226 Z" id="Path" fill="#CCD1D9"></path>
                    <path d="M158.064516,80.6258065 C158.064516,82.4 156.612903,83.8516129 154.83871,83.8516129 L77.4193548,83.8516129 C75.6451613,83.8516129 74.1935484,82.4 74.1935484,80.6258065 L74.1935484,77.4 C74.1935484,75.6258065 75.6451613,74.1741935 77.4193548,74.1741935 L154.83871,74.1741935 C156.612903,74.1741935 158.064516,75.6258065 158.064516,77.4 L158.064516,80.6258065 Z" id="Path" fill="#CCD1D9"></path>
                </g>
                <g id="24-medical,-record,-tablet,-medical,-technology,-medicine,-equipment" transform="translate(0.000000, 240.000000)" fill-rule="nonzero">
                    <polygon id="Path" fill="#E6E9ED" points="0 0 0 100 174.193548 100 174.193548 51.6129032 174.193548 0"></polygon>
                    <path d="M38.7096774,45.1612903 C45.5483871,45.1612903 51.1612903,50.516129 51.5806452,57.2580645 C47.9354839,59.8064516 43.483871,61.2903226 38.7096774,61.2903226 C33.9387097,61.2903226 29.4870968,59.8064516 25.8387097,57.2580645 C26.2258065,50.516129 31.8387097,45.1612903 38.7096774,45.1612903 Z" id="Path" fill="#B5BCC8"></path>
                    <path d="M38.7096774,45.1612903 C31.8387097,45.1612903 26.2258065,50.516129 25.8387097,57.2580645 C19.9677419,53.1935484 16.1290323,46.4193548 16.1290323,38.7096774 C16.1290323,26.2580645 26.2258065,16.1290323 38.7096774,16.1290323 C51.1935484,16.1290323 61.2903226,26.2580645 61.2903226,38.7096774 C61.2903226,46.4193548 57.4548387,53.1935484 51.5806452,57.2580645 C51.1612903,50.516129 45.5483871,45.1612903 38.7096774,45.1612903 C42.2612903,45.1612903 45.1612903,42.2903226 45.1612903,38.7096774 C45.1612903,35.1612903 42.2612903,32.2580645 38.7096774,32.2580645 C35.1612903,32.2580645 32.2580645,35.1612903 32.2580645,38.7096774 C32.2580645,42.2903226 35.1612903,45.1612903 38.7096774,45.1612903 Z" id="Path" fill="#656D78"></path>
                    <path d="M46.7741935,40.3225806 C46.7741935,44.8 43.1483871,48.3870968 38.7096774,48.3870968 C34.2741935,48.3870968 30.6451613,44.8 30.6451613,40.3225806 C30.6451613,35.8870968 34.2741935,32.2580645 38.7096774,32.2580645 C43.1483871,32.2580645 46.7741935,35.8870968 46.7741935,40.3225806 Z" id="Path" fill="#B5BCC8"></path>
                    <path d="M54.8419355,74.2032258 L22.583871,74.2032258 C20.8,74.2032258 19.3580645,72.7612903 19.3580645,70.9774194 C19.3580645,69.1935484 20.8,67.7516129 22.583871,67.7516129 L54.8419355,67.7516129 C56.6258065,67.7516129 58.0677419,69.1935484 58.0677419,70.9774194 C58.0677419,72.7612903 56.6258065,74.2032258 54.8419355,74.2032258 Z" id="Path" fill="#CCD1D9"></path>
                    <path d="M45.1548387,83.8806452 L32.2709677,83.8806452 C30.4870968,83.8806452 29.0451613,82.4387097 29.0451613,80.6548387 C29.0451613,78.8709677 30.4870968,77.4290323 32.2709677,77.4290323 L45.1548387,77.4290323 C46.9387097,77.4290323 48.3806452,78.8709677 48.3806452,80.6548387 C48.3806452,82.4387097 46.9387097,83.8806452 45.1548387,83.8806452 Z" id="Path" fill="#CCD1D9"></path>
                    <path d="M158.064516,22.5806452 C158.064516,24.3548387 156.612903,25.8064516 154.83871,25.8064516 L77.4193548,25.8064516 C75.6451613,25.8064516 74.1935484,24.3548387 74.1935484,22.5806452 L74.1935484,19.3548387 C74.1935484,17.5806452 75.6451613,16.1290323 77.4193548,16.1290323 L154.83871,16.1290323 C156.612903,16.1290323 158.064516,17.5806452 158.064516,19.3548387 L158.064516,22.5806452 Z" id="Path" fill="#CCD1D9"></path>
                    <path d="M158.064516,41.9548387 C158.064516,43.7290323 156.612903,45.1806452 154.83871,45.1806452 L77.4193548,45.1806452 C75.6451613,45.1806452 74.1935484,43.7290323 74.1935484,41.9548387 L74.1935484,38.7290323 C74.1935484,36.9548387 75.6451613,35.5032258 77.4193548,35.5032258 L154.83871,35.5032258 C156.612903,35.5032258 158.064516,36.9548387 158.064516,38.7290323 L158.064516,41.9548387 Z" id="Path" fill="#CCD1D9"></path>
                    <path d="M158.064516,61.2903226 C158.064516,63.0645161 156.612903,64.516129 154.83871,64.516129 L77.4193548,64.516129 C75.6451613,64.516129 74.1935484,63.0645161 74.1935484,61.2903226 L74.1935484,58.0645161 C74.1935484,56.2903226 75.6451613,54.8387097 77.4193548,54.8387097 L154.83871,54.8387097 C156.612903,54.8387097 158.064516,56.2903226 158.064516,58.0645161 L158.064516,61.2903226 Z" id="Path" fill="#CCD1D9"></path>
                    <path d="M158.064516,80.6258065 C158.064516,82.4 156.612903,83.8516129 154.83871,83.8516129 L77.4193548,83.8516129 C75.6451613,83.8516129 74.1935484,82.4 74.1935484,80.6258065 L74.1935484,77.4 C74.1935484,75.6258065 75.6451613,74.1741935 77.4193548,74.1741935 L154.83871,74.1741935 C156.612903,74.1741935 158.064516,75.6258065 158.064516,77.4 L158.064516,80.6258065 Z" id="Path" fill="#CCD1D9"></path>
                </g>
                <g id="24-medical,-record,-tablet,-medical,-technology,-medicine,-equipment" transform="translate(194.000000, 240.000000)" fill-rule="nonzero">
                    <polygon id="Path" fill="#E6E9ED" points="0 0 0 100 174.193548 100 174.193548 51.6129032 174.193548 0"></polygon>
                    <path d="M38.7096774,45.1612903 C45.5483871,45.1612903 51.1612903,50.516129 51.5806452,57.2580645 C47.9354839,59.8064516 43.483871,61.2903226 38.7096774,61.2903226 C33.9387097,61.2903226 29.4870968,59.8064516 25.8387097,57.2580645 C26.2258065,50.516129 31.8387097,45.1612903 38.7096774,45.1612903 Z" id="Path" fill="#B5BCC8"></path>
                    <path d="M38.7096774,45.1612903 C31.8387097,45.1612903 26.2258065,50.516129 25.8387097,57.2580645 C19.9677419,53.1935484 16.1290323,46.4193548 16.1290323,38.7096774 C16.1290323,26.2580645 26.2258065,16.1290323 38.7096774,16.1290323 C51.1935484,16.1290323 61.2903226,26.2580645 61.2903226,38.7096774 C61.2903226,46.4193548 57.4548387,53.1935484 51.5806452,57.2580645 C51.1612903,50.516129 45.5483871,45.1612903 38.7096774,45.1612903 C42.2612903,45.1612903 45.1612903,42.2903226 45.1612903,38.7096774 C45.1612903,35.1612903 42.2612903,32.2580645 38.7096774,32.2580645 C35.1612903,32.2580645 32.2580645,35.1612903 32.2580645,38.7096774 C32.2580645,42.2903226 35.1612903,45.1612903 38.7096774,45.1612903 Z" id="Path" fill="#656D78"></path>
                    <path d="M46.7741935,40.3225806 C46.7741935,44.8 43.1483871,48.3870968 38.7096774,48.3870968 C34.2741935,48.3870968 30.6451613,44.8 30.6451613,40.3225806 C30.6451613,35.8870968 34.2741935,32.2580645 38.7096774,32.2580645 C43.1483871,32.2580645 46.7741935,35.8870968 46.7741935,40.3225806 Z" id="Path" fill="#B5BCC8"></path>
                    <path d="M54.8419355,74.2032258 L22.583871,74.2032258 C20.8,74.2032258 19.3580645,72.7612903 19.3580645,70.9774194 C19.3580645,69.1935484 20.8,67.7516129 22.583871,67.7516129 L54.8419355,67.7516129 C56.6258065,67.7516129 58.0677419,69.1935484 58.0677419,70.9774194 C58.0677419,72.7612903 56.6258065,74.2032258 54.8419355,74.2032258 Z" id="Path" fill="#CCD1D9"></path>
                    <path d="M45.1548387,83.8806452 L32.2709677,83.8806452 C30.4870968,83.8806452 29.0451613,82.4387097 29.0451613,80.6548387 C29.0451613,78.8709677 30.4870968,77.4290323 32.2709677,77.4290323 L45.1548387,77.4290323 C46.9387097,77.4290323 48.3806452,78.8709677 48.3806452,80.6548387 C48.3806452,82.4387097 46.9387097,83.8806452 45.1548387,83.8806452 Z" id="Path" fill="#CCD1D9"></path>
                    <path d="M158.064516,22.5806452 C158.064516,24.3548387 156.612903,25.8064516 154.83871,25.8064516 L77.4193548,25.8064516 C75.6451613,25.8064516 74.1935484,24.3548387 74.1935484,22.5806452 L74.1935484,19.3548387 C74.1935484,17.5806452 75.6451613,16.1290323 77.4193548,16.1290323 L154.83871,16.1290323 C156.612903,16.1290323 158.064516,17.5806452 158.064516,19.3548387 L158.064516,22.5806452 Z" id="Path" fill="#CCD1D9"></path>
                    <path d="M158.064516,41.9548387 C158.064516,43.7290323 156.612903,45.1806452 154.83871,45.1806452 L77.4193548,45.1806452 C75.6451613,45.1806452 74.1935484,43.7290323 74.1935484,41.9548387 L74.1935484,38.7290323 C74.1935484,36.9548387 75.6451613,35.5032258 77.4193548,35.5032258 L154.83871,35.5032258 C156.612903,35.5032258 158.064516,36.9548387 158.064516,38.7290323 L158.064516,41.9548387 Z" id="Path" fill="#CCD1D9"></path>
                    <path d="M158.064516,61.2903226 C158.064516,63.0645161 156.612903,64.516129 154.83871,64.516129 L77.4193548,64.516129 C75.6451613,64.516129 74.1935484,63.0645161 74.1935484,61.2903226 L74.1935484,58.0645161 C74.1935484,56.2903226 75.6451613,54.8387097 77.4193548,54.8387097 L154.83871,54.8387097 C156.612903,54.8387097 158.064516,56.2903226 158.064516,58.0645161 L158.064516,61.2903226 Z" id="Path" fill="#CCD1D9"></path>
                    <path d="M158.064516,80.6258065 C158.064516,82.4 156.612903,83.8516129 154.83871,83.8516129 L77.4193548,83.8516129 C75.6451613,83.8516129 74.1935484,82.4 74.1935484,80.6258065 L74.1935484,77.4 C74.1935484,75.6258065 75.6451613,74.1741935 77.4193548,74.1741935 L154.83871,74.1741935 C156.612903,74.1741935 158.064516,75.6258065 158.064516,77.4 L158.064516,80.6258065 Z" id="Path" fill="#CCD1D9"></path>
                </g>
                <g id="24-medical,-record,-tablet,-medical,-technology,-medicine,-equipment" transform="translate(388.000000, 240.000000)" fill-rule="nonzero">
                    <polygon id="Path" fill="#E6E9ED" points="0 0 0 100 174.193548 100 174.193548 51.6129032 174.193548 0"></polygon>
                    <path d="M38.7096774,45.1612903 C45.5483871,45.1612903 51.1612903,50.516129 51.5806452,57.2580645 C47.9354839,59.8064516 43.483871,61.2903226 38.7096774,61.2903226 C33.9387097,61.2903226 29.4870968,59.8064516 25.8387097,57.2580645 C26.2258065,50.516129 31.8387097,45.1612903 38.7096774,45.1612903 Z" id="Path" fill="#B5BCC8"></path>
                    <path d="M38.7096774,45.1612903 C31.8387097,45.1612903 26.2258065,50.516129 25.8387097,57.2580645 C19.9677419,53.1935484 16.1290323,46.4193548 16.1290323,38.7096774 C16.1290323,26.2580645 26.2258065,16.1290323 38.7096774,16.1290323 C51.1935484,16.1290323 61.2903226,26.2580645 61.2903226,38.7096774 C61.2903226,46.4193548 57.4548387,53.1935484 51.5806452,57.2580645 C51.1612903,50.516129 45.5483871,45.1612903 38.7096774,45.1612903 C42.2612903,45.1612903 45.1612903,42.2903226 45.1612903,38.7096774 C45.1612903,35.1612903 42.2612903,32.2580645 38.7096774,32.2580645 C35.1612903,32.2580645 32.2580645,35.1612903 32.2580645,38.7096774 C32.2580645,42.2903226 35.1612903,45.1612903 38.7096774,45.1612903 Z" id="Path" fill="#656D78"></path>
                    <path d="M46.7741935,40.3225806 C46.7741935,44.8 43.1483871,48.3870968 38.7096774,48.3870968 C34.2741935,48.3870968 30.6451613,44.8 30.6451613,40.3225806 C30.6451613,35.8870968 34.2741935,32.2580645 38.7096774,32.2580645 C43.1483871,32.2580645 46.7741935,35.8870968 46.7741935,40.3225806 Z" id="Path" fill="#B5BCC8"></path>
                    <path d="M54.8419355,74.2032258 L22.583871,74.2032258 C20.8,74.2032258 19.3580645,72.7612903 19.3580645,70.9774194 C19.3580645,69.1935484 20.8,67.7516129 22.583871,67.7516129 L54.8419355,67.7516129 C56.6258065,67.7516129 58.0677419,69.1935484 58.0677419,70.9774194 C58.0677419,72.7612903 56.6258065,74.2032258 54.8419355,74.2032258 Z" id="Path" fill="#CCD1D9"></path>
                    <path d="M45.1548387,83.8806452 L32.2709677,83.8806452 C30.4870968,83.8806452 29.0451613,82.4387097 29.0451613,80.6548387 C29.0451613,78.8709677 30.4870968,77.4290323 32.2709677,77.4290323 L45.1548387,77.4290323 C46.9387097,77.4290323 48.3806452,78.8709677 48.3806452,80.6548387 C48.3806452,82.4387097 46.9387097,83.8806452 45.1548387,83.8806452 Z" id="Path" fill="#CCD1D9"></path>
                    <path d="M158.064516,22.5806452 C158.064516,24.3548387 156.612903,25.8064516 154.83871,25.8064516 L77.4193548,25.8064516 C75.6451613,25.8064516 74.1935484,24.3548387 74.1935484,22.5806452 L74.1935484,19.3548387 C74.1935484,17.5806452 75.6451613,16.1290323 77.4193548,16.1290323 L154.83871,16.1290323 C156.612903,16.1290323 158.064516,17.5806452 158.064516,19.3548387 L158.064516,22.5806452 Z" id="Path" fill="#CCD1D9"></path>
                    <path d="M158.064516,41.9548387 C158.064516,43.7290323 156.612903,45.1806452 154.83871,45.1806452 L77.4193548,45.1806452 C75.6451613,45.1806452 74.1935484,43.7290323 74.1935484,41.9548387 L74.1935484,38.7290323 C74.1935484,36.9548387 75.6451613,35.5032258 77.4193548,35.5032258 L154.83871,35.5032258 C156.612903,35.5032258 158.064516,36.9548387 158.064516,38.7290323 L158.064516,41.9548387 Z" id="Path" fill="#CCD1D9"></path>
                    <path d="M158.064516,61.2903226 C158.064516,63.0645161 156.612903,64.516129 154.83871,64.516129 L77.4193548,64.516129 C75.6451613,64.516129 74.1935484,63.0645161 74.1935484,61.2903226 L74.1935484,58.0645161 C74.1935484,56.2903226 75.6451613,54.8387097 77.4193548,54.8387097 L154.83871,54.8387097 C156.612903,54.8387097 158.064516,56.2903226 158.064516,58.0645161 L158.064516,61.2903226 Z" id="Path" fill="#CCD1D9"></path>
                    <path d="M158.064516,80.6258065 C158.064516,82.4 156.612903,83.8516129 154.83871,83.8516129 L77.4193548,83.8516129 C75.6451613,83.8516129 74.1935484,82.4 74.1935484,80.6258065 L74.1935484,77.4 C74.1935484,75.6258065 75.6451613,74.1741935 77.4193548,74.1741935 L154.83871,74.1741935 C156.612903,74.1741935 158.064516,75.6258065 158.064516,77.4 L158.064516,80.6258065 Z" id="Path" fill="#CCD1D9"></path>
                </g>
                <g id="24-medical,-record,-tablet,-medical,-technology,-medicine,-equipment" transform="translate(388.007097, 120.000000)" fill-rule="nonzero">
                    <polygon id="Path" fill="#E6E9ED" points="0 0 0 100 174.193548 100 174.193548 51.6129032 174.193548 0"></polygon>
                    <path d="M38.7096774,45.1612903 C45.5483871,45.1612903 51.1612903,50.516129 51.5806452,57.2580645 C47.9354839,59.8064516 43.483871,61.2903226 38.7096774,61.2903226 C33.9387097,61.2903226 29.4870968,59.8064516 25.8387097,57.2580645 C26.2258065,50.516129 31.8387097,45.1612903 38.7096774,45.1612903 Z" id="Path" fill="#B5BCC8"></path>
                    <path d="M38.7096774,45.1612903 C31.8387097,45.1612903 26.2258065,50.516129 25.8387097,57.2580645 C19.9677419,53.1935484 16.1290323,46.4193548 16.1290323,38.7096774 C16.1290323,26.2580645 26.2258065,16.1290323 38.7096774,16.1290323 C51.1935484,16.1290323 61.2903226,26.2580645 61.2903226,38.7096774 C61.2903226,46.4193548 57.4548387,53.1935484 51.5806452,57.2580645 C51.1612903,50.516129 45.5483871,45.1612903 38.7096774,45.1612903 C42.2612903,45.1612903 45.1612903,42.2903226 45.1612903,38.7096774 C45.1612903,35.1612903 42.2612903,32.2580645 38.7096774,32.2580645 C35.1612903,32.2580645 32.2580645,35.1612903 32.2580645,38.7096774 C32.2580645,42.2903226 35.1612903,45.1612903 38.7096774,45.1612903 Z" id="Path" fill="#656D78"></path>
                    <path d="M46.7741935,40.3225806 C46.7741935,44.8 43.1483871,48.3870968 38.7096774,48.3870968 C34.2741935,48.3870968 30.6451613,44.8 30.6451613,40.3225806 C30.6451613,35.8870968 34.2741935,32.2580645 38.7096774,32.2580645 C43.1483871,32.2580645 46.7741935,35.8870968 46.7741935,40.3225806 Z" id="Path" fill="#B5BCC8"></path>
                    <path d="M54.8419355,74.2032258 L22.583871,74.2032258 C20.8,74.2032258 19.3580645,72.7612903 19.3580645,70.9774194 C19.3580645,69.1935484 20.8,67.7516129 22.583871,67.7516129 L54.8419355,67.7516129 C56.6258065,67.7516129 58.0677419,69.1935484 58.0677419,70.9774194 C58.0677419,72.7612903 56.6258065,74.2032258 54.8419355,74.2032258 Z" id="Path" fill="#CCD1D9"></path>
                    <path d="M45.1548387,83.8806452 L32.2709677,83.8806452 C30.4870968,83.8806452 29.0451613,82.4387097 29.0451613,80.6548387 C29.0451613,78.8709677 30.4870968,77.4290323 32.2709677,77.4290323 L45.1548387,77.4290323 C46.9387097,77.4290323 48.3806452,78.8709677 48.3806452,80.6548387 C48.3806452,82.4387097 46.9387097,83.8806452 45.1548387,83.8806452 Z" id="Path" fill="#CCD1D9"></path>
                    <path d="M158.064516,22.5806452 C158.064516,24.3548387 156.612903,25.8064516 154.83871,25.8064516 L77.4193548,25.8064516 C75.6451613,25.8064516 74.1935484,24.3548387 74.1935484,22.5806452 L74.1935484,19.3548387 C74.1935484,17.5806452 75.6451613,16.1290323 77.4193548,16.1290323 L154.83871,16.1290323 C156.612903,16.1290323 158.064516,17.5806452 158.064516,19.3548387 L158.064516,22.5806452 Z" id="Path" fill="#CCD1D9"></path>
                    <path d="M158.064516,41.9548387 C158.064516,43.7290323 156.612903,45.1806452 154.83871,45.1806452 L77.4193548,45.1806452 C75.6451613,45.1806452 74.1935484,43.7290323 74.1935484,41.9548387 L74.1935484,38.7290323 C74.1935484,36.9548387 75.6451613,35.5032258 77.4193548,35.5032258 L154.83871,35.5032258 C156.612903,35.5032258 158.064516,36.9548387 158.064516,38.7290323 L158.064516,41.9548387 Z" id="Path" fill="#CCD1D9"></path>
                    <path d="M158.064516,61.2903226 C158.064516,63.0645161 156.612903,64.516129 154.83871,64.516129 L77.4193548,64.516129 C75.6451613,64.516129 74.1935484,63.0645161 74.1935484,61.2903226 L74.1935484,58.0645161 C74.1935484,56.2903226 75.6451613,54.8387097 77.4193548,54.8387097 L154.83871,54.8387097 C156.612903,54.8387097 158.064516,56.2903226 158.064516,58.0645161 L158.064516,61.2903226 Z" id="Path" fill="#CCD1D9"></path>
                    <path d="M158.064516,80.6258065 C158.064516,82.4 156.612903,83.8516129 154.83871,83.8516129 L77.4193548,83.8516129 C75.6451613,83.8516129 74.1935484,82.4 74.1935484,80.6258065 L74.1935484,77.4 C74.1935484,75.6258065 75.6451613,74.1741935 77.4193548,74.1741935 L154.83871,74.1741935 C156.612903,74.1741935 158.064516,75.6258065 158.064516,77.4 L158.064516,80.6258065 Z" id="Path" fill="#CCD1D9"></path>
                </g>
                <g id="24-medical,-record,-tablet,-medical,-technology,-medicine,-equipment" transform="translate(194.000000, 0.000000)">
                    <polygon id="Path" fill="#27BAFF" fill-rule="nonzero" points="0.0035483871 36.6935484 0.0035483871 100 158.068065 100 141.97129 64.516129 96.7454839 36.6935484"></polygon>
                    <g id="Path">
                        <mask id="mask-6" fill="white">
                            <use xlink:href="#path-5"></use>
                        </mask>
                        <path stroke="#979797" d="M173.5,0.5 L173.5,98.9755803 L116.347039,54.3746076 L48.333341,39.4770074 L0.5,60.2379231 L0.5,0.5 L173.5,0.5 Z"></path>
                        <polygon fill="#E6E9ED" fill-rule="nonzero" mask="url(#mask-6)" points="0.0035483871 0 0.0035483871 100 174.197097 100 174.197097 51.6129032 174.197097 0"></polygon>
                    </g>
                    <path d="M38.7132258,45.1612903 C45.5519355,45.1612903 51.1648387,50.516129 51.5841935,57.2580645 C47.9390323,59.8064516 43.4874194,61.2903226 38.7132258,61.2903226 C33.9422581,61.2903226 29.4906452,59.8064516 25.8422581,57.2580645 C26.2293548,50.516129 31.8422581,45.1612903 38.7132258,45.1612903 Z" id="Path" fill="#AC92EC" fill-rule="nonzero"></path>
                    <path d="M38.7132258,45.1612903 C31.8422581,45.1612903 26.2293548,50.516129 25.8422581,57.2580645 C19.9712903,53.1935484 16.1325806,46.4193548 16.1325806,38.7096774 C16.1325806,26.2580645 26.2293548,16.1290323 38.7132258,16.1290323 C51.1970968,16.1290323 61.293871,26.2580645 61.293871,38.7096774 C61.293871,46.4193548 57.4583871,53.1935484 51.5841935,57.2580645 C51.1648387,50.516129 45.5519355,45.1612903 38.7132258,45.1612903 C42.2648387,45.1612903 45.1648387,42.2903226 45.1648387,38.7096774 C45.1648387,35.1612903 42.2648387,32.2580645 38.7132258,32.2580645 C35.1648387,32.2580645 32.2616129,35.1612903 32.2616129,38.7096774 C32.2616129,42.2903226 35.1648387,45.1612903 38.7132258,45.1612903 Z" id="Path" fill="#656D78" fill-rule="nonzero"></path>
                    <g id="Oval" transform="translate(16.132581, 16.129032)">
                        <mask id="mask-8" fill="white">
                            <use xlink:href="#path-7"></use>
                        </mask>
                        <use id="Mask" fill="#E9FAFF" fill-rule="nonzero" xlink:href="#path-7"></use>
                        <ellipse stroke="#979797" fill="#656D78" mask="url(#mask-8)" cx="26.8674194" cy="7.37096774" rx="23.5" ry="16"></ellipse>
                    </g>
                    <path d="M46.7777419,40.3225806 C46.7777419,44.8 43.1519355,48.3870968 38.7132258,48.3870968 C34.2777419,48.3870968 30.6487097,44.8 30.6487097,40.3225806 C30.6487097,35.8870968 34.2777419,32.2580645 38.7132258,32.2580645 C43.1519355,32.2580645 46.7777419,35.8870968 46.7777419,40.3225806 Z" id="Path" fill="#EAC6BB" fill-rule="nonzero"></path>
                    <path d="M54.8454839,74.2032258 L22.5874194,74.2032258 C20.8035484,74.2032258 19.3616129,72.7612903 19.3616129,70.9774194 C19.3616129,69.1935484 20.8035484,67.7516129 22.5874194,67.7516129 L54.8454839,67.7516129 C56.6293548,67.7516129 58.0712903,69.1935484 58.0712903,70.9774194 C58.0712903,72.7612903 56.6293548,74.2032258 54.8454839,74.2032258 Z" id="Path" fill="#E9FAFF" fill-rule="nonzero"></path>
                    <path d="M45.1583871,83.8806452 L32.2745161,83.8806452 C30.4906452,83.8806452 29.0487097,82.4387097 29.0487097,80.6548387 C29.0487097,78.8709677 30.4906452,77.4290323 32.2745161,77.4290323 L45.1583871,77.4290323 C46.9422581,77.4290323 48.3841935,78.8709677 48.3841935,80.6548387 C48.3841935,82.4387097 46.9422581,83.8806452 45.1583871,83.8806452 Z" id="Path" fill="#E9FAFF" fill-rule="nonzero"></path>
                    <path d="M158.068065,22.5806452 C158.068065,24.3548387 156.616452,25.8064516 154.842258,25.8064516 L77.4229032,25.8064516 C75.6487097,25.8064516 74.1970968,24.3548387 74.1970968,22.5806452 L74.1970968,19.3548387 C74.1970968,17.5806452 75.6487097,16.1290323 77.4229032,16.1290323 L154.842258,16.1290323 C156.616452,16.1290323 158.068065,17.5806452 158.068065,19.3548387 L158.068065,22.5806452 Z" id="Path" fill="#CCD1D9" fill-rule="nonzero"></path>
                    <path d="M158.068065,41.9548387 C158.068065,43.7290323 156.616452,45.1806452 154.842258,45.1806452 L77.4229032,45.1806452 C75.6487097,45.1806452 74.1970968,43.7290323 74.1970968,41.9548387 L74.1970968,38.7290323 C74.1970968,36.9548387 75.6487097,35.5032258 77.4229032,35.5032258 L154.842258,35.5032258 C156.616452,35.5032258 158.068065,36.9548387 158.068065,38.7290323 L158.068065,41.9548387 Z" id="Path" fill="#CCD1D9" fill-rule="nonzero"></path>
                    <path d="M158.068065,61.2903226 C158.068065,63.0645161 156.616452,64.516129 154.842258,64.516129 L77.4229032,64.516129 C75.6487097,64.516129 74.1970968,63.0645161 74.1970968,61.2903226 L74.1970968,58.0645161 C74.1970968,56.2903226 75.6487097,54.8387097 77.4229032,54.8387097 L154.842258,54.8387097 C156.616452,54.8387097 158.068065,56.2903226 158.068065,58.0645161 L158.068065,61.2903226 Z" id="Path" fill="#CCD1D9" fill-rule="nonzero"></path>
                    <path d="M158.068065,80.6258065 C158.068065,82.4 156.616452,83.8516129 154.842258,83.8516129 L77.4229032,83.8516129 C75.6487097,83.8516129 74.1970968,82.4 74.1970968,80.6258065 L74.1970968,77.4 C74.1970968,75.6258065 75.6487097,74.1741935 77.4229032,74.1741935 L154.842258,74.1741935 C156.616452,74.1741935 158.068065,75.6258065 158.068065,77.4 L158.068065,80.6258065 Z" id="Path" fill="#CCD1D9" fill-rule="nonzero"></path>
                    <path d="M77.4229032,54.8387097 C75.6487097,54.8387097 74.1970968,56.2903226 74.1970968,58.0645161 L74.1970968,61.2903226 C74.1970968,63.0645161 75.6487097,64.516129 77.4229032,64.516129 L112.906774,64.516129 L103.229355,54.8387097 L77.4229032,54.8387097 Z" id="Path" fill="#00A676" fill-rule="nonzero"></path>
                    <path d="M77.4229032,83.8516129 L138.726129,83.8516129 L129.068065,74.1935484 L77.3293548,74.1935484 C75.6035484,74.2483871 74.1970968,75.6580645 74.1970968,77.4 L74.1970968,80.6258065 C74.1970968,82.4 75.6487097,83.8516129 77.4229032,83.8516129 Z" id="Path" fill="#00A676" fill-rule="nonzero"></path>
                </g>
                <g id="24-medical,-record,-tablet,-medical,-technology,-medicine,-equipment" fill-rule="nonzero">
                    <polygon id="Path" fill="#E6E9ED" points="0 0 0 100 174.193548 100 174.193548 51.6129032 174.193548 0"></polygon>
                    <path d="M38.7096774,45.1612903 C45.5483871,45.1612903 51.1612903,50.516129 51.5806452,57.2580645 C47.9354839,59.8064516 43.483871,61.2903226 38.7096774,61.2903226 C33.9387097,61.2903226 29.4870968,59.8064516 25.8387097,57.2580645 C26.2258065,50.516129 31.8387097,45.1612903 38.7096774,45.1612903 Z" id="Path" fill="#B5BCC8"></path>
                    <path d="M38.7096774,45.1612903 C31.8387097,45.1612903 26.2258065,50.516129 25.8387097,57.2580645 C19.9677419,53.1935484 16.1290323,46.4193548 16.1290323,38.7096774 C16.1290323,26.2580645 26.2258065,16.1290323 38.7096774,16.1290323 C51.1935484,16.1290323 61.2903226,26.2580645 61.2903226,38.7096774 C61.2903226,46.4193548 57.4548387,53.1935484 51.5806452,57.2580645 C51.1612903,50.516129 45.5483871,45.1612903 38.7096774,45.1612903 C42.2612903,45.1612903 45.1612903,42.2903226 45.1612903,38.7096774 C45.1612903,35.1612903 42.2612903,32.2580645 38.7096774,32.2580645 C35.1612903,32.2580645 32.2580645,35.1612903 32.2580645,38.7096774 C32.2580645,42.2903226 35.1612903,45.1612903 38.7096774,45.1612903 Z" id="Path" fill="#656D78"></path>
                    <path d="M46.7741935,40.3225806 C46.7741935,44.8 43.1483871,48.3870968 38.7096774,48.3870968 C34.2741935,48.3870968 30.6451613,44.8 30.6451613,40.3225806 C30.6451613,35.8870968 34.2741935,32.2580645 38.7096774,32.2580645 C43.1483871,32.2580645 46.7741935,35.8870968 46.7741935,40.3225806 Z" id="Path" fill="#B5BCC8"></path>
                    <path d="M54.8419355,74.2032258 L22.583871,74.2032258 C20.8,74.2032258 19.3580645,72.7612903 19.3580645,70.9774194 C19.3580645,69.1935484 20.8,67.7516129 22.583871,67.7516129 L54.8419355,67.7516129 C56.6258065,67.7516129 58.0677419,69.1935484 58.0677419,70.9774194 C58.0677419,72.7612903 56.6258065,74.2032258 54.8419355,74.2032258 Z" id="Path" fill="#CCD1D9"></path>
                    <path d="M45.1548387,83.8806452 L32.2709677,83.8806452 C30.4870968,83.8806452 29.0451613,82.4387097 29.0451613,80.6548387 C29.0451613,78.8709677 30.4870968,77.4290323 32.2709677,77.4290323 L45.1548387,77.4290323 C46.9387097,77.4290323 48.3806452,78.8709677 48.3806452,80.6548387 C48.3806452,82.4387097 46.9387097,83.8806452 45.1548387,83.8806452 Z" id="Path" fill="#CCD1D9"></path>
                    <path d="M158.064516,22.5806452 C158.064516,24.3548387 156.612903,25.8064516 154.83871,25.8064516 L77.4193548,25.8064516 C75.6451613,25.8064516 74.1935484,24.3548387 74.1935484,22.5806452 L74.1935484,19.3548387 C74.1935484,17.5806452 75.6451613,16.1290323 77.4193548,16.1290323 L154.83871,16.1290323 C156.612903,16.1290323 158.064516,17.5806452 158.064516,19.3548387 L158.064516,22.5806452 Z" id="Path" fill="#CCD1D9"></path>
                    <path d="M158.064516,41.9548387 C158.064516,43.7290323 156.612903,45.1806452 154.83871,45.1806452 L77.4193548,45.1806452 C75.6451613,45.1806452 74.1935484,43.7290323 74.1935484,41.9548387 L74.1935484,38.7290323 C74.1935484,36.9548387 75.6451613,35.5032258 77.4193548,35.5032258 L154.83871,35.5032258 C156.612903,35.5032258 158.064516,36.9548387 158.064516,38.7290323 L158.064516,41.9548387 Z" id="Path" fill="#CCD1D9"></path>
                    <path d="M158.064516,61.2903226 C158.064516,63.0645161 156.612903,64.516129 154.83871,64.516129 L77.4193548,64.516129 C75.6451613,64.516129 74.1935484,63.0645161 74.1935484,61.2903226 L74.1935484,58.0645161 C74.1935484,56.2903226 75.6451613,54.8387097 77.4193548,54.8387097 L154.83871,54.8387097 C156.612903,54.8387097 158.064516,56.2903226 158.064516,58.0645161 L158.064516,61.2903226 Z" id="Path" fill="#CCD1D9"></path>
                    <path d="M158.064516,80.6258065 C158.064516,82.4 156.612903,83.8516129 154.83871,83.8516129 L77.4193548,83.8516129 C75.6451613,83.8516129 74.1935484,82.4 74.1935484,80.6258065 L74.1935484,77.4 C74.1935484,75.6258065 75.6451613,74.1741935 77.4193548,74.1741935 L154.83871,74.1741935 C156.612903,74.1741935 158.064516,75.6258065 158.064516,77.4 L158.064516,80.6258065 Z" id="Path" fill="#CCD1D9"></path>
                </g>
                <g id="24-medical,-record,-tablet,-medical,-technology,-medicine,-equipment" transform="translate(388.007097, 0.000000)" fill-rule="nonzero">
                    <polygon id="Path" fill="#E6E9ED" points="0 0 0 100 174.193548 100 174.193548 51.6129032 174.193548 0"></polygon>
                    <path d="M38.7096774,45.1612903 C45.5483871,45.1612903 51.1612903,50.516129 51.5806452,57.2580645 C47.9354839,59.8064516 43.483871,61.2903226 38.7096774,61.2903226 C33.9387097,61.2903226 29.4870968,59.8064516 25.8387097,57.2580645 C26.2258065,50.516129 31.8387097,45.1612903 38.7096774,45.1612903 Z" id="Path" fill="#B5BCC8"></path>
                    <path d="M38.7096774,45.1612903 C31.8387097,45.1612903 26.2258065,50.516129 25.8387097,57.2580645 C19.9677419,53.1935484 16.1290323,46.4193548 16.1290323,38.7096774 C16.1290323,26.2580645 26.2258065,16.1290323 38.7096774,16.1290323 C51.1935484,16.1290323 61.2903226,26.2580645 61.2903226,38.7096774 C61.2903226,46.4193548 57.4548387,53.1935484 51.5806452,57.2580645 C51.1612903,50.516129 45.5483871,45.1612903 38.7096774,45.1612903 C42.2612903,45.1612903 45.1612903,42.2903226 45.1612903,38.7096774 C45.1612903,35.1612903 42.2612903,32.2580645 38.7096774,32.2580645 C35.1612903,32.2580645 32.2580645,35.1612903 32.2580645,38.7096774 C32.2580645,42.2903226 35.1612903,45.1612903 38.7096774,45.1612903 Z" id="Path" fill="#656D78"></path>
                    <path d="M46.7741935,40.3225806 C46.7741935,44.8 43.1483871,48.3870968 38.7096774,48.3870968 C34.2741935,48.3870968 30.6451613,44.8 30.6451613,40.3225806 C30.6451613,35.8870968 34.2741935,32.2580645 38.7096774,32.2580645 C43.1483871,32.2580645 46.7741935,35.8870968 46.7741935,40.3225806 Z" id="Path" fill="#B5BCC8"></path>
                    <path d="M54.8419355,74.2032258 L22.583871,74.2032258 C20.8,74.2032258 19.3580645,72.7612903 19.3580645,70.9774194 C19.3580645,69.1935484 20.8,67.7516129 22.583871,67.7516129 L54.8419355,67.7516129 C56.6258065,67.7516129 58.0677419,69.1935484 58.0677419,70.9774194 C58.0677419,72.7612903 56.6258065,74.2032258 54.8419355,74.2032258 Z" id="Path" fill="#CCD1D9"></path>
                    <path d="M45.1548387,83.8806452 L32.2709677,83.8806452 C30.4870968,83.8806452 29.0451613,82.4387097 29.0451613,80.6548387 C29.0451613,78.8709677 30.4870968,77.4290323 32.2709677,77.4290323 L45.1548387,77.4290323 C46.9387097,77.4290323 48.3806452,78.8709677 48.3806452,80.6548387 C48.3806452,82.4387097 46.9387097,83.8806452 45.1548387,83.8806452 Z" id="Path" fill="#CCD1D9"></path>
                    <path d="M158.064516,22.5806452 C158.064516,24.3548387 156.612903,25.8064516 154.83871,25.8064516 L77.4193548,25.8064516 C75.6451613,25.8064516 74.1935484,24.3548387 74.1935484,22.5806452 L74.1935484,19.3548387 C74.1935484,17.5806452 75.6451613,16.1290323 77.4193548,16.1290323 L154.83871,16.1290323 C156.612903,16.1290323 158.064516,17.5806452 158.064516,19.3548387 L158.064516,22.5806452 Z" id="Path" fill="#CCD1D9"></path>
                    <path d="M158.064516,41.9548387 C158.064516,43.7290323 156.612903,45.1806452 154.83871,45.1806452 L77.4193548,45.1806452 C75.6451613,45.1806452 74.1935484,43.7290323 74.1935484,41.9548387 L74.1935484,38.7290323 C74.1935484,36.9548387 75.6451613,35.5032258 77.4193548,35.5032258 L154.83871,35.5032258 C156.612903,35.5032258 158.064516,36.9548387 158.064516,38.7290323 L158.064516,41.9548387 Z" id="Path" fill="#CCD1D9"></path>
                    <path d="M158.064516,61.2903226 C158.064516,63.0645161 156.612903,64.516129 154.83871,64.516129 L77.4193548,64.516129 C75.6451613,64.516129 74.1935484,63.0645161 74.1935484,61.2903226 L74.1935484,58.0645161 C74.1935484,56.2903226 75.6451613,54.8387097 77.4193548,54.8387097 L154.83871,54.8387097 C156.612903,54.8387097 158.064516,56.2903226 158.064516,58.0645161 L158.064516,61.2903226 Z" id="Path" fill="#CCD1D9"></path>
                    <path d="M158.064516,80.6258065 C158.064516,82.4 156.612903,83.8516129 154.83871,83.8516129 L77.4193548,83.8516129 C75.6451613,83.8516129 74.1935484,82.4 74.1935484,80.6258065 L74.1935484,77.4 C74.1935484,75.6258065 75.6451613,74.1741935 77.4193548,74.1741935 L154.83871,74.1741935 C156.612903,74.1741935 158.064516,75.6258065 158.064516,77.4 L158.064516,80.6258065 Z" id="Path" fill="#CCD1D9"></path>
                </g>
            </g>
            <g id="Group" transform="translate(212.000000, 109.000000)" fill="#54288B">
                <rect id="Rectangle" x="0" y="2.84217094e-14" width="42" height="30" rx="1"></rect>
                <polygon id="Rectangle" transform="translate(20.465217, 28.473913) rotate(-135.000000) translate(-20.465217, -28.473913) " points="17.8043478 25.8130435 23.126087 25.8130435 17.8043478 31.1347826"></polygon>
            </g>
            <path d="M233.909969,127 C234.361961,127 234.72837,126.593935 234.72837,126.093023 L234.72837,125.874841 C234.72837,124.255155 239,124.187693 239,119.804636 C239,116.503855 235.910516,114 233.016075,114 C230.294232,114 228.531287,115.235874 227.147205,117.43995 C226.896116,117.839778 226.973541,118.387965 227.323766,118.682282 L228.794796,119.918378 C229.148484,120.215573 229.651793,120.146081 229.928723,119.761605 C230.782889,118.575701 231.416503,117.892885 232.750734,117.892885 C233.799777,117.892885 235.097343,118.641096 235.097343,119.76847 C235.097343,120.620753 234.46253,121.058446 233.426708,121.701995 C232.218754,122.452532 230.620281,123.38656 230.620281,125.723125 L230.620281,126.093023 C230.620281,126.593935 230.98669,127 231.438682,127 L233.909969,127 Z M232.5,134 C233.8785,134 235,132.878484 235,131.499965 C235,130.121481 233.8785,129 232.5,129 C231.1215,129 230,130.121516 230,131.500035 C230,132.878484 231.1215,134 232.5,134 Z" id="q" fill="#FFFFFF" fill-rule="nonzero"></path>
            <path d="M426.450507,295.976563 L347.913803,217.460938 C364.910553,196.660156 374.288069,170.46875 374.288069,141.875 C374.288069,74.5507813 319.705061,20 252.380351,20 C185.055641,20 131,74.5683594 131,141.875 C131,209.181641 185.577265,263.75 252.380351,263.75 C280.975916,263.75 307.209519,253.841797 327.98658,237.359375 L406.523284,315.875 C409.805414,318.652344 413.439202,320 417.01438,320 C420.589559,320 424.211625,318.626563 426.960409,315.880273 C432.428674,310.390625 432.428674,301.484375 426.450507,295.976563 Z M159.235294,142.205882 C159.235294,90.3928493 201.392849,48.2352941 253.205882,48.2352941 C305.018915,48.2352941 347.176471,90.3928493 347.176471,142.205882 C347.176471,194.018915 305.018915,236.176471 253.205882,236.176471 C201.392849,236.176471 159.235294,194.007169 159.235294,142.205882 Z" id="Shape" fill="#4A4A4A" fill-rule="nonzero"></path>
        </g>
    </g>
</svg>