<?xml version="1.0" encoding="UTF-8"?>
<svg width="185px" height="104px" viewBox="0 0 185 104" version="1.1" xmlns="http://www.w3.org/2000/svg" xmlns:xlink="http://www.w3.org/1999/xlink">
    <title>svg/personal-portfolio-edu</title>
    <g id="svg/personal-portfolio-edu" stroke="none" stroke-width="1" fill="none" fill-rule="evenodd">
        <rect id="Rectangle" fill="#00A676" x="62" y="21" width="67" height="67" rx="1"></rect>
        <g id="item-feedback" transform="translate(51.500000, 59.500000)">
            <g id="item-bg" fill="#E8E9EB">
                <circle id="Oval" cx="11" cy="11" r="11"></circle>
            </g>
            <g id="light" transform="translate(7.425000, 5.500019)" fill-rule="nonzero">
                <path d="M4.20185089,10.4999815 C4.39420471,10.4999815 4.63672485,10.3693371 4.74296875,10.2071281 L5.0901062,9.68024427 C5.14560852,9.58807415 5.19484253,9.42580507 5.2,9.31805296 L5.2,7.53174292 L1.95,7.53174292 L1.95121002,9.31805296 C1.95144806,9.427167 2.00022583,9.58941605 2.06009216,9.68024427 L2.40742798,10.2071281 C2.51367188,10.3693371 2.75621185,10.4999815 2.94856567,10.4999815 L4.20185089,10.4999815 Z" id="Path" fill="#798CA3"></path>
                <path d="M5.20243988,7.87545643 C5.20243988,7.8703292 5.2038681,7.86520196 5.2046814,7.85945384 C5.40475159,7.17815204 5.92962341,6.37071217 6.26519623,5.98412643 C6.7536087,5.42309441 7.15,4.36155583 7.15,3.61460135 L7.15,3.60959428 C7.15,1.61263515 5.54348755,-0.00633035288 3.56383209,8.8817842e-16 C1.49175873,0.0063675729 8.8817842e-16,1.70226168 8.8817842e-16,3.60959428 L8.8817842e-16,3.61460135 C8.8817842e-16,4.36155583 0.396391296,5.42309441 0.884803772,5.98412643 C1.22037659,6.37071217 1.74524841,7.17815204 1.9453186,7.85945384 C1.9453186,7.86520196 1.94674683,7.8703292 1.94756012,7.87545643 L5.20243988,7.87545643 Z" id="Path" fill="#FCBA04"></path>
                <path d="M1.625,3.93773752 C1.44559937,3.93773752 1.3,3.79072999 1.3,3.60959428 C1.30134888,2.34300623 2.32054443,1.3139535 3.575,1.31259158 C3.75440063,1.31259158 3.9,1.45959911 3.9,1.64073482 C3.9,1.82187053 3.75440063,1.96887807 3.575,1.96887807 C2.67900848,1.96989951 1.95101166,2.70493717 1.95,3.60959428 C1.95,3.79072999 1.80440063,3.93773752 1.625,3.93773752 Z" id="Path" fill="#FFE293"></path>
            </g>
        </g>
        <g id="item-approval" transform="translate(28.500000, 45.500000)">
            <g id="item-bg" fill="#E8E9EB">
                <circle id="Oval" cx="11" cy="11" r="11"></circle>
            </g>
            <g id="Group" transform="translate(7.500000, 6.500000)" fill-rule="nonzero">
                <path d="M2.99187769,9.78617177 L4.11013254,7.04433985 C3.87724583,7.17410601 3.61878354,7.25016135 3.3515303,7.25016135 C2.93258599,7.25016135 2.53898646,7.08709869 2.2427168,6.79103884 C2.05600879,6.60435181 2.15333866,6.65697162 1.70302807,6.53645799 C1.49871719,6.48167716 1.31910069,6.37639558 1.15668843,6.25028008 L0.181942142,8.6402013 C0.0876125328,8.87157739 0.263788184,9.12294818 0.513438544,9.11350682 L1.6454568,9.07030739 L2.42403274,9.89273318 C2.59590733,10.0740701 2.89754808,10.0175479 2.99187769,9.78617177 Z" id="Path" fill="#FCBA04"></path>
                <path d="M5.13803031,9.89273318 L5.91683705,9.07030739 L7.0488553,9.11350682 C7.29850566,9.12294818 7.47468131,8.87136759 7.3803517,8.6402013 L6.40560542,6.25028008 C6.24319316,6.37660539 6.06357666,6.48167716 5.85926578,6.53645799 C5.40658436,6.65762202 5.50584445,6.60477143 5.31957704,6.79103884 C5.02330738,7.08709869 4.62949805,7.25016135 4.21055373,7.25016135 C3.9433005,7.25016135 3.68483821,7.1738962 3.45195149,7.04433985 L4.57020635,9.78617177 C4.66451498,10.0175479 4.96638651,10.0740701 5.13803031,9.89273318 Z" id="Path" fill="#FCBA04"></path>
                <path d="M5.30653391,7.30485111 C5.63482025,6.97077407 5.67241782,6.9995597 6.13991167,6.87216438 C6.43832137,6.79073795 6.67164868,6.55331939 6.75156449,6.2495386 C6.91227731,5.6393964 6.87058849,5.71308091 7.30908689,5.26663079 C7.52758078,5.04427643 7.61286768,4.72008134 7.53295187,4.41627958 C7.37246984,3.80655699 7.37226003,3.89163407 7.53295187,3.28126107 C7.61286768,2.97748029 7.52758078,2.6532852 7.30908689,2.43090986 C6.87058849,1.98448072 6.91227731,2.05795543 6.75156449,1.44800205 C6.67164868,1.14422126 6.43832137,0.906823681 6.13991167,0.825397255 C5.54093124,0.661893998 5.61310514,0.704652838 5.17418712,0.257992907 C4.95569322,0.0356385483 4.63707902,-0.0513897476 4.33866932,0.0300366787 C3.7398987,0.193330128 3.82346517,0.193539936 3.22362452,0.0300366787 C2.92521482,-0.0513897476 2.60660062,0.0354077597 2.38810673,0.257992907 C1.94960832,0.70444303 2.0218032,0.661893998 1.42259198,0.825397255 C1.12418228,0.906823681 0.89085497,1.14422126 0.81093916,1.44800205 C0.650457136,2.05795543 0.691915167,1.98448072 0.253416762,2.43090986 C0.0349228677,2.6532852 -0.050573831,2.97748029 0.0295517867,3.28126107 C0.190033811,3.89056405 0.190264599,3.80548697 0.0295517867,4.41606977 C-0.0503640231,4.71985056 0.0349228677,5.04404564 0.253416762,5.26663079 C0.691915167,5.71308091 0.650226348,5.6393964 0.81093916,6.2495386 C0.89085497,6.55331939 1.12418228,6.79073795 1.42259198,6.87216438 C1.90340863,7.00321036 1.93928577,6.98258625 2.25575993,7.30485111 C2.54000761,7.59423907 2.98278609,7.64601965 3.32439523,7.42989658 C3.43983151,7.35658972 3.64452005,7.2971092 3.78125183,7.2971092 C3.91800458,7.2971092 4.12267214,7.35658972 4.23810842,7.42989658 C4.57950775,7.64601965 5.02228624,7.59423907 5.30653391,7.30485111 Z M3.78114692,5.84349747 C2.66182205,5.84349747 1.75431917,4.91988136 1.75431917,3.78056179 C1.75431917,2.64124223 2.66182205,1.7176471 3.78114692,1.7176471 C4.9004718,1.7176471 5.80797467,2.64124223 5.80797467,3.78056179 C5.80797467,4.91988136 4.9004718,5.84349747 3.78114692,5.84349747 Z" id="a" fill="#00A676"></path>
            </g>
        </g>
        <g id="item-education" transform="translate(51.500000, 31.500000)">
            <g id="item-bg" fill="#E8E9EB">
                <circle id="Oval" cx="11" cy="11" r="11"></circle>
            </g>
            <path d="M10.8748735,14.3128171 C13.153072,14.3128171 14.9998636,13.6972828 14.9998636,12.9378203 L14.6952226,10.5 L11.5793453,11.4573322 C10.9663916,11.6455299 10.444117,11.5415491 10.1701918,11.4573322 L7.05452429,10.5002098 L6.74988329,12.9378203 C6.74988329,13.6972828 8.59667493,14.3128171 10.8748735,14.3128171 Z" id="Path" fill="#2D2D2A" fill-rule="nonzero"></path>
            <path d="M5.97751766,15.2500328 C6.19752217,15.2500328 6.36079464,15.0463513 6.31310531,14.8317389 L5.76460465,12.3636223 C5.94036069,12.2389964 6.06238493,12.0441479 6.06238493,11.812541 C6.06238493,11.5639606 5.92338723,11.3559991 5.72593707,11.2352547 C5.74226012,10.9125702 5.90727399,10.6272525 6.17045696,10.4463562 L10.3721319,11.7373458 C10.5667916,11.7970781 10.9401866,11.8716229 11.3773842,11.7373458 L17.3704406,9.8961351 C17.8763922,9.74058356 17.8763922,9.07200987 17.3704406,8.91645833 L11.377615,7.07524759 C11.0510491,6.97491747 10.6986978,6.97491747 10.3723627,7.07524759 L4.37930637,8.91645833 C3.87356454,9.07177908 3.87356454,9.74058356 4.37930637,9.89592529 L5.42408651,10.2169103 C5.19485046,10.5002768 5.05390154,10.8459562 5.03994932,11.2245125 C4.8330578,11.3431169 4.68738821,11.5570999 4.68738821,11.812541 C4.68738821,12.0441479 4.80941246,12.2389964 4.98516849,12.3636223 L4.43666783,14.8317389 C4.38897851,15.0463513 4.55225098,15.2500328 4.77204568,15.2500328 L5.97751766,15.2500328 Z" id="g" fill="#4A4A4A" fill-rule="nonzero"></path>
        </g>
        <g id="student-1" transform="translate(95.000000, 28.000000)">
            <g id="hair-cap" transform="translate(4.000000, 0.000000)">
                <path d="M18,0 C27.945,0 36,7.16 36,16 L32.625,16 L31.5,16 L27,16 L22.5,16 L18,16 L13.5,16 L9,16 L4.5,16 L3.375,16 L0,16 C0,7.16 8.055,0 18,0 Z" id="Path" fill="#965353" fill-rule="nonzero"></path>
                <rect id="Rectangle" fill="#844747" x="0" y="16" width="36" height="41"></rect>
                <path d="M17.7153306,0 C17.1359351,0 16.5645392,0.029 16,0.076 C25.2954688,0.833 32.5681961,7.667 32.5681961,16 L32.5716245,16 L36,16 C36,7.16 27.8176104,0 17.7153306,0 Z" id="Path" fill="#844747" fill-rule="nonzero"></path>
            </g>
            <g id="face-white" transform="translate(7.000000, 16.000000)" fill-rule="nonzero">
                <path d="M30,0 L30,6.99 C30,13.14 26.3,18.43 21,20.74 C19.16,21.54 17.13,21.99 15,21.99 C12.87,21.99 10.84,21.54 9,20.74 C3.7,18.43 0,13.14 0,6.99 L0,0 L30,0 Z" id="Path" fill="#EAC6BB"></path>
                <path d="M25.996,0 L25.996,6.99 C25.996,13.14 22.296,18.43 16.996,20.74 C15.744,21.285 14.398,21.651 12.998,21.84 C13.655,21.928 14.32,21.99 15,21.99 C17.13,21.99 19.16,21.54 21,20.74 C26.3,18.43 30,13.14 30,6.99 L30,0 L25.996,0 Z" id="Path" fill="#D3B1A9"></path>
                <path d="M21,20.74 L21,33.99 L9,33.99 L9,20.74 C10.84,21.54 12.87,21.99 15,21.99 C17.13,21.99 19.16,21.54 21,20.74 Z" id="Path" fill="#EAC6BB"></path>
            </g>
            <path d="M44,52 L44,59 C44,59.55 43.56,60 43,60 L1,60 C0.45,60 0,59.55 0,59 L0,52 C0,47.58 3.58,44 8,44 L15,44 L29,44 L36,44 C40.42,44 44,47.58 44,52 Z" id="Path" fill="#27BAFF" fill-rule="nonzero"></path>
            <path d="M22,41.4461538 C24.88,41.4461538 27.6,40.7846154 30,39.6 L30,44.5230769 L26.8,47.6 L22,46.0615385 L17.2,47.6 L14,44.5230769 L14,39.6 C16.4,40.7846154 19.12,41.4461538 22,41.4461538 Z" id="Path" fill="#A0D6F0" fill-rule="nonzero"></path>
            <path d="M36,44 L31.996,44 C36.416,44 39.996,47.58 39.996,52 L39.996,59 C39.996,59.55 39.556,60 38.996,60 L43,60 C43.56,60 44,59.55 44,59 L44,52 C44,47.58 40.42,44 36,44 Z" id="Path" fill="#22A7E5" fill-rule="nonzero"></path>
            <circle id="Oval" fill="#A0D6F0" cx="22" cy="49" r="1"></circle>
        </g>
    </g>
</svg>