<svg height="104" viewBox="0 0 185 104" width="185" xmlns="http://www.w3.org/2000/svg"><g fill="none" fill-rule="evenodd"><rect fill="#00a676" height="67" rx="1" width="67" x="62" y="21"/><g transform="translate(93 30)"><path d="m25 0c9.945 0 18 7.16 18 16h-3.375-1.125-4.5-4.5-4.5-4.5-4.5-4.5-1.125-3.375c0-8.84 8.055-16 18-16z" fill="#965353" fill-rule="nonzero"/><g fill="#844747"><path d="m7 16h36v41h-36z" fill-rule="evenodd"/><path d="m24.7153306 0c-.5793955 0-1.1507914.029-1.7153306.076 9.2954688.757 16.5681961 7.591 16.5681961 15.924h.0034284 3.4283755c0-8.84-8.1823896-16-18.2846694-16z" fill-rule="nonzero"/></g></g><g fill-rule="nonzero" transform="translate(93 46)"><path d="m40 0v6.99c0 6.15-3.7 11.44-9 13.75-1.84.8-3.87 1.25-6 1.25s-4.16-.45-6-1.25c-5.3-2.31-9-7.6-9-13.75v-6.99z" fill="#eac6bb"/><path d="m35.996 0v6.99c0 6.15-3.7 11.44-9 13.75-1.252.545-2.598.911-3.998 1.1.657.088 1.322.15 2.002.15 2.13 0 4.16-.45 6-1.25 5.3-2.31 9-7.6 9-13.75v-6.99z" fill="#d3b1a9"/><path d="m31 20.74v13.25h-12v-13.25c1.84.8 3.87 1.25 6 1.25s4.16-.45 6-1.25z" fill="#eac6bb"/></g><g fill-rule="nonzero" transform="translate(93 65)"><path d="m47 15v7c0 .55-.44 1-1 1h-42c-.55 0-1-.45-1-1v-7c0-4.42 3.58-8 8-8h7 1.0341628l5.9658372 15 5.9628547-15h1.0371453 7c4.42 0 8 3.58 8 8z" fill="#e6e9ed"/><path d="m39 7h-4.004c4.42 0 8 3.58 8 8v7c0 .55-.44 1-1 1h4.004c.56 0 1-.45 1-1v-7c0-4.42-3.58-8-8-8z" fill="#ccd1d9"/><path d="m31 7-5 16h-2l-5-16v-1c0 2.21 2.69 4 6 4s6-1.79 6-4z" fill="#27baff"/><g fill="#f5f7fa"><path d="m19 7 5 16h-2l-6-8 2-2-3-4z"/><path d="m26 23 5-16 4 2-3 4 2 2-6 8z"/></g></g><circle cx="62.5" cy="70.5" fill="#e8e9eb" fill-rule="evenodd" r="11"/><g fill-rule="nonzero" transform="translate(58.5 65.000019)"><path d="m4.62685089 10.4999815c.19235382 0 .43487396-.1306444.54111786-.2928534l.34713745-.52688383c.05550232-.09217012.10473633-.2544392.1098938-.36219131v-1.78631004h-3.25l.00121002 1.78631004c.00023804.10911404.04901581.27136309.10888214.36219131l.34733582.52688383c.10624389.162209.34878387.2928534.54113769.2928534z" fill="#798ca3"/><path d="m5.62743988 7.87545643c0-.00512723.00142822-.01025447.00224152-.01600259.20007019-.6813018.72494201-1.48874167 1.06051483-1.87532741.48841247-.56103202.88480377-1.6225706.88480377-2.36952508v-.00500707c0-1.99695913-1.60651245-3.61592463-3.58616791-3.60959428-2.07207336.00636757-3.56383209 1.70226168-3.56383209 3.60959428v.00500707c0 .74695448.3963913 1.80849306.88480377 2.36952508.33557282.38658574.86044464 1.19402561 1.06051483 1.87532741 0 .00574812.00142823.01087536.00224152.01600259z" fill="#fcba04"/><path d="m2.05 3.93773752c-.17940063 0-.325-.14700753-.325-.32814324.00134888-1.26658805 1.02054443-2.29564078 2.275-2.2970027.17940063 0 .325.14700753.325.32814324s-.14559937.32814325-.325.32814325c-.89599152.00102144-1.62398834.7360591-1.625 1.64071621 0 .18113571-.14559937.32814324-.325.32814324z" fill="#ffe293"/></g><circle cx="39.5" cy="56.5" fill="#e8e9eb" r="11"/><g fill-rule="nonzero" transform="translate(36 52)"><path d="m2.99187769 9.78617177 1.11825485-2.74183192c-.23288671.12976616-.491349.2058215-.75860224.2058215-.41894431 0-.81254384-.16306266-1.1088135-.45912251-.18670801-.18668703-.08937814-.13406722-.53968873-.25458085-.20431088-.05478083-.38392738-.16006241-.54633964-.28617791l-.97474629 2.38992122c-.09432961.23137609.08184604.48274688.3314964.47330552l1.13201826-.04319943.77857594.82242579c.17187459.18133692.47351534.12481472.56784495-.10656141z" fill="#fcba04"/><path d="m5.13803031 9.89273318.77880674-.82242579 1.13201825.04319943c.24965036.00944136.42582601-.24213923.3314964-.47330552l-.97474628-2.38992122c-.16241226.12632531-.34202876.23139708-.54633964.28617791-.45268142.12116403-.35342133.06831344-.53968874.25458085-.29626966.29605985-.69007899.45912251-1.10902331.45912251-.26725323 0-.52571552-.07626515-.75860224-.2058215l1.11825486 2.74183192c.09430863.23137613.39618016.28789833.56782396.10656141z" fill="#fcba04"/><path d="m5.30653391 7.30485111c.32828634-.33407704.36588391-.30529141.83337776-.43268673.2984097-.08142643.53173701-.31884499.61165282-.62262578.16071282-.6101422.119024-.53645769.5575224-.98290781.21849389-.22235436.30378079-.54654945.22386498-.85035121-.16048203-.60972259-.16069184-.52464551 0-1.13501851.07991581-.30378078-.00537109-.62797587-.22386498-.85035121-.4384984-.44642914-.39680958-.37295443-.5575224-.98290781-.07991581-.30378079-.31324312-.54117837-.61165282-.62260479-.59898043-.16350326-.52680653-.12074442-.96572455-.56740435-.2184939-.22235436-.5371081-.30938266-.8355178-.22795623-.59877062.16329345-.51520415.16350326-1.1150448 0-.2984097-.08142643-.6170239.00537108-.83551779.22795623-.43849841.44645012-.36630353.40390109-.96551475.56740435-.2984097.08142642-.53173701.318824-.61165282.62260479-.16048202.60995338-.11902399.53647867-.5575224.98290781-.21849389.22237534-.30399059.54657043-.22386497.85035121.16048202.60930298.16071281.5242259 0 1.1348087-.07991581.30378079.00537108.62797587.22386497.85056102.43849841.44645012.39680959.37276561.5575224.98290781.07991581.30378079.31324312.54119935.61165282.62262578.48081665.13104598.51669379.11042187.83316795.43268673.28424768.28938796.72702616.34116854 1.0686353.12504547.11543628-.07330686.32012482-.13278738.4568566-.13278738.13675275 0 .34142031.05948052.45685659.13278738.34139933.21612307.78417782.16434249 1.06842549-.12504547zm-1.52538699-1.46135364c-1.11932487 0-2.02682775-.92361611-2.02682775-2.06293568 0-1.13931956.90750288-2.06291469 2.02682775-2.06291469 1.11932488 0 2.02682775.92359513 2.02682775 2.06291469 0 1.13931957-.90750287 2.06293568-2.02682775 2.06293568z" fill="#00a676"/></g><g transform="translate(50 30)"><circle cx="12.5" cy="12.5" fill="#e8e9eb" fill-rule="evenodd" r="11"/><g fill-rule="nonzero"><path d="m12.3748735 15.8128171c2.2781985 0 4.1249901-.6155343 4.1249901-1.3749968l-.304641-2.4378203-3.1158773.9573322c-.6129537.1881977-1.1352283.0842169-1.4091535 0l-3.11566751-.9571224-.304641 2.4376105c0 .7594625 1.84679161 1.3749968 4.12499021 1.3749968z" fill="#2d2d2a"/><path d="m7.47751766 16.7500328c.22000451 0 .38327698-.2036815.33558765-.4182939l-.54850066-2.4681166c.17575604-.1246259.29778028-.3194744.29778028-.5510813 0-.2485804-.1389977-.4565419-.33644786-.5772863.01632305-.3226845.18133692-.6080022.44451989-.7888985l4.20167494 1.2909896c.1946597.0597323.5680547.1342771 1.0052523 0l5.9930564-1.8412107c.5059516-.1555515.5059516-.8241252 0-.9796768l-5.9928256-1.84121071c-.3265659-.10033012-.6789172-.10033012-1.0052523 0l-5.99305633 1.84121071c-.50574183.1553208-.50574183.8241253 0 .979467l1.04478014.320985c-.22923605.2833665-.37018497.6290459-.38413719 1.0076022-.20689152.1186044-.35256111.3325874-.35256111.5880285 0 .2316069.12202425.4264554.29778028.5510813l-.54850066 2.4681166c-.04768932.2146124.11558315.4182939.33537785.4182939z" fill="#4a4a4a"/></g></g></g></svg>