<?xml version="1.0" encoding="UTF-8"?>
<svg width="185px" height="104px" viewBox="0 0 185 104" version="1.1" xmlns="http://www.w3.org/2000/svg" xmlns:xlink="http://www.w3.org/1999/xlink">
    <title>svg/personal-portfolio-flexibel</title>
    <g id="svg/personal-portfolio-flexibel" stroke="none" stroke-width="1" fill="none" fill-rule="evenodd">
        <rect id="Rectangle" fill="#27BAFF" x="59" y="21" width="67" height="67" rx="1"></rect>
        <g id="doctor-1" transform="translate(48.000000, 30.000000)">
            <g id="hair-cap" transform="translate(4.000000, 0.000000)">
                <path d="M18,0 C27.945,0 36,7.16 36,16 L32.625,16 L31.5,16 L27,16 L22.5,16 L18,16 L13.5,16 L9,16 L4.5,16 L3.375,16 L0,16 C0,7.16 8.055,0 18,0 Z" id="Path" fill="#965353" fill-rule="nonzero"></path>
                <rect id="Rectangle" fill="#844747" x="0" y="16" width="36" height="41"></rect>
                <path d="M17.7153306,0 C17.1359351,0 16.5645392,0.029 16,0.076 C25.2954688,0.833 32.5681961,7.667 32.5681961,16 L32.5716245,16 L36,16 C36,7.16 27.8176104,0 17.7153306,0 Z" id="Path" fill="#844747" fill-rule="nonzero"></path>
            </g>
            <g id="face-white" transform="translate(7.000000, 16.000000)" fill-rule="nonzero">
                <path d="M30,0 L30,6.99 C30,13.14 26.3,18.43 21,20.74 C19.16,21.54 17.13,21.99 15,21.99 C12.87,21.99 10.84,21.54 9,20.74 C3.7,18.43 0,13.14 0,6.99 L0,0 L30,0 Z" id="Path" fill="#EAC6BB"></path>
                <path d="M25.996,0 L25.996,6.99 C25.996,13.14 22.296,18.43 16.996,20.74 C15.744,21.285 14.398,21.651 12.998,21.84 C13.655,21.928 14.32,21.99 15,21.99 C17.13,21.99 19.16,21.54 21,20.74 C26.3,18.43 30,13.14 30,6.99 L30,0 L25.996,0 Z" id="Path" fill="#D3B1A9"></path>
                <path d="M21,20.74 L21,33.99 L9,33.99 L9,20.74 C10.84,21.54 12.87,21.99 15,21.99 C17.13,21.99 19.16,21.54 21,20.74 Z" id="Path" fill="#EAC6BB"></path>
            </g>
            <g id="body-coat" transform="translate(0.000000, 37.600000)">
                <path d="M44,12.4 L44,19.4 C44,19.95 43.56,20.4 43,20.4 L1,20.4 C0.45,20.4 0,19.95 0,19.4 L0,12.4 C0,7.98 3.58,4.4 8,4.4 L15,4.4 L29,4.4 L36,4.4 C40.42,4.4 44,7.98 44,12.4 Z" id="Path" fill="#FCBA04" fill-rule="nonzero"></path>
                <path d="M22,1.84615385 C24.88,1.84615385 27.6,1.18461538 30,0 L30,4.92307692 L26.8,8 L22,6.46153846 L17.2,8 L14,4.92307692 L14,0 C16.4,1.18461538 19.12,1.84615385 22,1.84615385 Z" id="Path" fill="#FFD971" fill-rule="nonzero"></path>
                <path d="M36,4.4 L31.996,4.4 C36.416,4.4 39.996,7.98 39.996,12.4 L39.996,19.4 C39.996,19.95 39.556,20.4 38.996,20.4 L43,20.4 C43.56,20.4 44,19.95 44,19.4 L44,12.4 C44,7.98 40.42,4.4 36,4.4 Z" id="Path" fill="#DAA000" fill-rule="nonzero"></path>
                <circle id="Oval" fill="#FFD971" cx="22" cy="9.4" r="1"></circle>
            </g>
        </g>
        <g id="item-feedback" transform="translate(77.500000, 3.500000)">
            <g id="item-bg" fill="#E8E9EB">
                <circle id="Oval" cx="11" cy="11" r="11"></circle>
            </g>
            <g id="Group" transform="translate(6.000000, 6.000000)" fill-rule="nonzero">
                <path d="M7.104,1.5485 C7.279,1.448 7.484,1.393 7.704,1.393 C8.364,1.393 8.899,1.9235 8.899,2.5775 C8.899,2.7425 8.8645,2.9025 8.8045,3.0425 C9.2195,3.273 9.4995,3.7075 9.4995,4.2135 C9.4995,4.5885 9.3445,4.9285 9.0945,5.1675 C9.339,5.363 9.4995,5.6575 9.4995,5.9925 C9.4995,6.3225 9.3495,6.6125 9.1045,6.808 C9.1645,6.973 9.1995,7.143 9.1995,7.3275 C9.1995,8.143 8.524,8.808 7.6995,8.813 C7.6195,9.483 7.049,9.9975 6.3495,9.9975 C5.6045,9.9975 4.9995,9.403 4.9995,8.6625 L4.9995,5.9975 L4.9995,1.5375 C4.9995,0.9635 5.4695,0.4975 6.0495,0.4975 C6.6295,0.4975 7.1,0.9635 7.1,1.5375 C7.1,1.5425 7.1,1.5425 7.1,1.548 L7.104,1.548 L7.104,1.5485 Z" id="Path" fill="#EC87C0"></path>
                <path d="M3.949,0.498 C4.5285,0.498 4.999,0.964 4.999,1.538 L4.999,5.998 L4.999,8.663 C4.999,9.403 4.399,9.998 3.649,9.998 C2.954,9.998 2.384,9.4835 2.3045,8.8135 C1.4745,8.8085 0.799,8.1435 0.799,7.328 C0.799,7.1435 0.834,6.9735 0.899,6.8085 C0.654,6.613 0.499,6.323 0.499,5.993 C0.499,5.658 0.664,5.363 0.909,5.168 C0.659,4.9285 0.499,4.589 0.499,4.214 C0.499,3.708 0.779,3.2785 1.194,3.043 C1.134,2.8985 1.104,2.743 1.104,2.578 C1.104,1.9235 1.639,1.3935 2.299,1.3935 C2.519,1.3935 2.7195,1.448 2.894,1.549 L2.899,1.549 C2.899,1.543 2.899,1.543 2.899,1.5385 C2.899,0.9635 3.369,0.498 3.949,0.498 Z" id="Path" fill="#EC87C0"></path>
                <path d="M3.0095,2.501 C2.8265,2.501 2.6495,2.3995 2.562,2.2245 C2.456,2.0135 2.4,1.7765 2.4,1.539 C2.4,0.6905 3.095,0 3.9495,0 C4.8045,0 5.5,0.6905 5.5,1.539 C5.5,1.8155 5.2765,2.039 5,2.039 C4.7235,2.039 4.5,1.8155 4.5,1.539 C4.5,1.242 4.253,1 3.9495,1 C3.647,1 3.4,1.242 3.4,1.539 C3.4,1.623 3.4185,1.703 3.4555,1.7765 C3.5795,2.0235 3.48,2.3245 3.233,2.4475 C3.1615,2.4835 3.085,2.501 3.0095,2.501 Z" id="Path" fill="#D770AD"></path>
                <path d="M3.651,10.5 C2.63,10.5 1.799,9.677 1.799,8.664 C1.799,8.243 1.9465,7.833 2.2135,7.5075 C2.3895,7.2945 2.7035,7.2635 2.9175,7.439 C3.1305,7.614 3.161,7.929 2.986,8.143 C2.8635,8.2915 2.799,8.471 2.799,8.6635 C2.799,9.1245 3.1815,9.4995 3.651,9.4995 C4.1195,9.4995 4.5,9.1245 4.5,8.6635 C4.5,8.387 4.7235,8.1635 5,8.1635 C5.2765,8.1635 5.5,8.387 5.5,8.6635 C5.5,9.6765 4.6705,10.5 3.651,10.5 Z" id="Path" fill="#D770AD"></path>
                <path d="M2.3115,9.3125 C1.2025,9.3125 0.301,8.423 0.301,7.328 C0.301,7.087 0.3445,6.8505 0.4295,6.627 C0.528,6.369 0.816,6.2385 1.075,6.338 C1.333,6.4365 1.462,6.7245 1.364,6.9835 C1.322,7.093 1.301,7.209 1.301,7.328 C1.301,7.871 1.7545,8.3125 2.3115,8.3125 C2.588,8.3125 2.8115,8.536 2.8115,8.8125 C2.8115,9.089 2.588,9.3125 2.3115,9.3125 Z" id="Path" fill="#D770AD"></path>
                <path d="M0.897,7.3055 C0.7895,7.3055 0.681,7.2705 0.5895,7.199 C0.215,6.906 1.88737914e-15,6.4655 1.88737914e-15,5.991 C1.88737914e-15,5.5135 0.2195,5.069 0.6035,4.773 C0.822,4.604 1.136,4.645 1.3045,4.864 C1.473,5.083 1.4325,5.397 1.2135,5.565 C1.078,5.6705 0.9995,5.8255 0.9995,5.991 C0.9995,6.1565 1.074,6.3095 1.205,6.411 C1.4225,6.581 1.461,6.8955 1.291,7.113 C1.193,7.239 1.046,7.3055 0.897,7.3055 Z" id="Path" fill="#D770AD"></path>
                <path d="M0.9085,5.67 C0.7835,5.67 0.6585,5.623 0.562,5.5305 C0.1995,5.181 -1.11022302e-16,4.713 -1.11022302e-16,4.211 C-1.11022302e-16,3.543 0.366,2.927 0.9565,2.6045 C1.1985,2.4715 1.502,2.5605 1.6345,2.8035 C1.7675,3.0455 1.6785,3.3495 1.436,3.481 C1.167,3.6285 1,3.908 1,4.2105 C1,4.438 1.091,4.65 1.2555,4.809 C1.4545,5.0005 1.4605,5.317 1.269,5.516 C1.171,5.618 1.0395,5.67 0.9085,5.67 Z" id="Path" fill="#D770AD"></path>
                <path d="M1.1955,3.543 C1.0005,3.543 0.8155,3.4285 0.735,3.2375 C0.6465,3.0285 0.6015,2.807 0.6015,2.5785 C0.6015,1.648 1.3625,0.891 2.299,0.891 C2.5955,0.891 2.8875,0.968 3.143,1.1135 C3.3825,1.25 3.4665,1.555 3.33,1.795 C3.193,2.035 2.887,2.118 2.648,1.9825 C2.542,1.922 2.4245,1.8905 2.2995,1.8905 C1.915,1.8905 1.602,2.199 1.602,2.578 C1.602,2.672 1.62,2.7625 1.656,2.8475 C1.7635,3.1025 1.645,3.3955 1.3905,3.503 C1.3265,3.53 1.2605,3.543 1.1955,3.543 Z" id="Path" fill="#D770AD"></path>
                <path d="M6.991,2.501 C6.9165,2.501 6.8405,2.4845 6.7695,2.449 C6.522,2.326 6.421,2.026 6.544,1.779 C6.581,1.704 6.5995,1.6235 6.5995,1.539 C6.5995,1.242 6.353,1 6.05,1 C5.747,1 5.4995,1.242 5.4995,1.539 C5.4995,1.8155 5.276,2.039 4.9995,2.039 C4.723,2.039 4.4995,1.8155 4.4995,1.539 C4.4995,0.6905 5.195,0 6.05,0 C6.9045,0 7.5995,0.6905 7.5995,1.539 C7.5995,1.779 7.546,2.0095 7.4395,2.2235 C7.352,2.3995 7.1755,2.501 6.991,2.501 Z" id="Path" fill="#D770AD"></path>
                <path d="M6.349,10.5 C5.3295,10.5 4.5,9.677 4.5,8.664 C4.5,8.3875 4.7235,8.164 5,8.164 C5.2765,8.164 5.5,8.3875 5.5,8.664 C5.5,9.125 5.881,9.5 6.349,9.5 C6.8185,9.5 7.201,9.125 7.201,8.664 C7.201,8.5135 7.16,8.366 7.083,8.238 C6.94,8.0015 7.0155,7.695 7.252,7.5515 C7.489,7.408 7.796,7.485 7.9385,7.7205 C8.1105,8.0045 8.201,8.331 8.201,8.664 C8.201,9.6765 7.37,10.5 6.349,10.5 Z" id="Path" fill="#D770AD"></path>
                <path d="M7.6885,9.3125 C7.412,9.3125 7.1885,9.089 7.1885,8.8125 C7.1885,8.536 7.412,8.3125 7.6885,8.3125 C8.2455,8.3125 8.699,7.871 8.699,7.328 C8.699,7.209 8.678,7.0925 8.636,6.9815 C8.5385,6.7225 8.6685,6.4345 8.9275,6.337 C9.186,6.2395 9.474,6.37 9.5715,6.629 C9.656,6.8525 9.699,7.088 9.699,7.328 C9.699,8.4225 8.7975,9.3125 7.6885,9.3125 Z" id="Path" fill="#D770AD"></path>
                <path d="M9.103,7.3055 C8.954,7.3055 8.807,7.239 8.7085,7.113 C8.5385,6.895 8.577,6.581 8.7945,6.411 C8.9255,6.3095 9,6.156 9,5.991 C9,5.826 8.922,5.6705 8.786,5.565 C8.567,5.397 8.5265,5.0825 8.695,4.864 C8.8635,4.6455 9.1775,4.6035 9.396,4.773 C9.78,5.069 9.9995,5.513 9.9995,5.991 C9.9995,6.4655 9.7845,6.906 9.41,7.199 C9.319,7.2705 9.2105,7.3055 9.103,7.3055 Z" id="Path" fill="#D770AD"></path>
                <path d="M9.0915,5.67 C8.9605,5.67 8.8295,5.618 8.731,5.5165 C8.5395,5.3175 8.5455,5.001 8.7445,4.8095 C8.909,4.6505 9,4.4385 9,4.211 C9,3.9085 8.833,3.629 8.564,3.4815 C8.3215,3.3495 8.2325,3.046 8.3655,2.804 C8.4985,2.561 8.8015,2.472 9.0435,2.605 C9.634,2.9275 10,3.5435 10,4.2115 C10,4.7135 9.8005,5.181 9.438,5.531 C9.3415,5.623 9.2165,5.67 9.0915,5.67 Z" id="Path" fill="#D770AD"></path>
                <path d="M8.453,4.002 C8.306,4.002 8.161,3.9385 8.0625,3.8145 C7.8895,3.5995 7.925,3.284 8.14,3.1125 C8.304,2.9805 8.3985,2.7865 8.3985,2.5785 C8.3985,2.1995 8.0855,1.891 7.701,1.891 C7.576,1.891 7.4585,1.9225 7.3525,1.983 C7.112,2.1185 6.807,2.0355 6.6705,1.7955 C6.534,1.5555 6.618,1.2505 6.8575,1.114 C7.113,0.9685 7.405,0.8915 7.7015,0.8915 C8.6375,0.8915 9.399,1.6485 9.399,2.579 C9.399,3.0915 9.168,3.571 8.7655,3.8935 C8.673,3.9665 8.5625,4.002 8.453,4.002 Z" id="Path" fill="#D770AD"></path>
                <path d="M5,9.164 C4.7235,9.164 4.5,8.9405 4.5,8.664 L4.5,1.539 C4.5,1.2625 4.7235,1.039 5,1.039 C5.2765,1.039 5.5,1.2625 5.5,1.539 L5.5,8.664 C5.5,8.9405 5.2765,9.164 5,9.164 Z" id="Path" fill="#D770AD"></path>
                <path d="M5,6.496 C4.7235,6.496 4.5,6.2725 4.5,5.996 C4.5,5.173 5.173,4.504 6,4.504 C6.2765,4.504 6.5,4.7275 6.5,5.004 C6.5,5.2805 6.2765,5.504 6,5.504 C5.724,5.504 5.5,5.7245 5.5,5.996 C5.5,6.2725 5.2765,6.496 5,6.496 Z" id="Path" fill="#D770AD"></path>
                <path d="M5,6.496 C4.7235,6.496 4.5,6.2725 4.5,5.996 C4.5,5.7245 4.276,5.504 4,5.504 C3.7235,5.504 3.5,5.2805 3.5,5.004 C3.5,4.7275 3.7235,4.504 4,4.504 C4.827,4.504 5.5,5.173 5.5,5.996 C5.5,6.2725 5.2765,6.496 5,6.496 Z" id="Path" fill="#D770AD"></path>
            </g>
        </g>
        <g id="item-feedback" transform="translate(109.500000, 13.500000)">
            <g id="item-bg" fill="#E8E9EB">
                <circle id="Oval" cx="11" cy="11" r="11"></circle>
            </g>
            <g id="light" transform="translate(7.425000, 5.500019)" fill-rule="nonzero">
                <path d="M4.20185089,10.4999815 C4.39420471,10.4999815 4.63672485,10.3693371 4.74296875,10.2071281 L5.0901062,9.68024427 C5.14560852,9.58807415 5.19484253,9.42580507 5.2,9.31805296 L5.2,7.53174292 L1.95,7.53174292 L1.95121002,9.31805296 C1.95144806,9.427167 2.00022583,9.58941605 2.06009216,9.68024427 L2.40742798,10.2071281 C2.51367188,10.3693371 2.75621185,10.4999815 2.94856567,10.4999815 L4.20185089,10.4999815 Z" id="Path" fill="#798CA3"></path>
                <path d="M5.20243988,7.87545643 C5.20243988,7.8703292 5.2038681,7.86520196 5.2046814,7.85945384 C5.40475159,7.17815204 5.92962341,6.37071217 6.26519623,5.98412643 C6.7536087,5.42309441 7.15,4.36155583 7.15,3.61460135 L7.15,3.60959428 C7.15,1.61263515 5.54348755,-0.00633035288 3.56383209,8.8817842e-16 C1.49175873,0.0063675729 8.8817842e-16,1.70226168 8.8817842e-16,3.60959428 L8.8817842e-16,3.61460135 C8.8817842e-16,4.36155583 0.396391296,5.42309441 0.884803772,5.98412643 C1.22037659,6.37071217 1.74524841,7.17815204 1.9453186,7.85945384 C1.9453186,7.86520196 1.94674683,7.8703292 1.94756012,7.87545643 L5.20243988,7.87545643 Z" id="Path" fill="#FCBA04"></path>
                <path d="M1.625,3.93773752 C1.44559937,3.93773752 1.3,3.79072999 1.3,3.60959428 C1.30134888,2.34300623 2.32054443,1.3139535 3.575,1.31259158 C3.75440063,1.31259158 3.9,1.45959911 3.9,1.64073482 C3.9,1.82187053 3.75440063,1.96887807 3.575,1.96887807 C2.67900848,1.96989951 1.95101166,2.70493717 1.95,3.60959428 C1.95,3.79072999 1.80440063,3.93773752 1.625,3.93773752 Z" id="Path" fill="#FFE293"></path>
            </g>
        </g>
        <g id="item-feedback" transform="translate(115.500000, 46.500000)">
            <g id="item-bg" fill="#E8E9EB">
                <circle id="Oval" cx="11" cy="11" r="11"></circle>
            </g>
            <path d="M11.4857883,16.4172872 L15.643005,12.1247235 C16.8525892,10.8764927 16.7816741,8.80969651 15.4324628,7.65812417 C14.2551261,6.65482303 12.5041537,6.83527877 11.4234964,7.95032356 L11.000251,8.38645114 L10.5770056,7.95032356 C9.49848837,6.83527877 7.74537595,6.65482303 6.5680392,7.65812417 C5.21882786,8.80969651 5.14791281,10.8764927 6.355336,12.1247235 L10.5125527,16.4172872 C10.7811067,16.6944433 11.2172343,16.6944433 11.4857883,16.4172872 Z" id="h" fill="#F06543" fill-rule="nonzero"></path>
        </g>
        <g id="item-feedback" transform="translate(98.500000, 71.500000)">
            <g id="item-bg" fill="#E8E9EB">
                <circle id="Oval" cx="11" cy="11" r="11"></circle>
            </g>
            <path d="M10.8748735,14.3128171 C13.153072,14.3128171 14.9998636,13.6972828 14.9998636,12.9378203 L14.6952226,10.5 L11.5793453,11.4573322 C10.9663916,11.6455299 10.444117,11.5415491 10.1701918,11.4573322 L7.05452429,10.5002098 L6.74988329,12.9378203 C6.74988329,13.6972828 8.59667493,14.3128171 10.8748735,14.3128171 Z" id="Path" fill="#2D2D2A" fill-rule="nonzero"></path>
            <path d="M5.97751766,15.2500328 C6.19752217,15.2500328 6.36079464,15.0463513 6.31310531,14.8317389 L5.76460465,12.3636223 C5.94036069,12.2389964 6.06238493,12.0441479 6.06238493,11.812541 C6.06238493,11.5639606 5.92338723,11.3559991 5.72593707,11.2352547 C5.74226012,10.9125702 5.90727399,10.6272525 6.17045696,10.4463562 L10.3721319,11.7373458 C10.5667916,11.7970781 10.9401866,11.8716229 11.3773842,11.7373458 L17.3704406,9.8961351 C17.8763922,9.74058356 17.8763922,9.07200987 17.3704406,8.91645833 L11.377615,7.07524759 C11.0510491,6.97491747 10.6986978,6.97491747 10.3723627,7.07524759 L4.37930637,8.91645833 C3.87356454,9.07177908 3.87356454,9.74058356 4.37930637,9.89592529 L5.42408651,10.2169103 C5.19485046,10.5002768 5.05390154,10.8459562 5.03994932,11.2245125 C4.8330578,11.3431169 4.68738821,11.5570999 4.68738821,11.812541 C4.68738821,12.0441479 4.80941246,12.2389964 4.98516849,12.3636223 L4.43666783,14.8317389 C4.38897851,15.0463513 4.55225098,15.2500328 4.77204568,15.2500328 L5.97751766,15.2500328 Z" id="g" fill="#4A4A4A" fill-rule="nonzero"></path>
        </g>
    </g>
</svg>