<?xml version="1.0" encoding="UTF-8"?>
<svg width="185px" height="104px" viewBox="0 0 185 104" version="1.1" xmlns="http://www.w3.org/2000/svg" xmlns:xlink="http://www.w3.org/1999/xlink">
    <title>svg/portfolio-ownership</title>
    <g id="svg/portfolio-ownership" stroke="none" stroke-width="1" fill="none" fill-rule="evenodd">
        <g id="Group-2" transform="translate(53.000000, 52.000000) scale(-1, 1) translate(-53.000000, -52.000000) translate(32.000000, 33.000000)" fill="#00A676">
            <rect id="Rectangle" x="0" y="7.5" width="26" height="24" rx="1"></rect>
            <path d="M36,8.65563492 L36,30.9 C36,31.5075132 35.5075132,32 34.9,32 L12.6556349,32 C12.0481217,32 11.5556349,31.5075132 11.5556349,30.9 C11.5556349,30.6082619 11.6715274,30.3284726 11.8778175,30.1221825 L34.1221825,7.87781746 C34.5517593,7.44824074 35.2482407,7.44824074 35.6778175,7.87781746 C35.8841075,8.08410748 36,8.36389678 36,8.65563492 Z" id="Rectangle-Copy" transform="translate(23.000000, 19.000000) rotate(-45.000000) translate(-23.000000, -19.000000) "></path>
        </g>
        <rect id="Rectangle" fill="#007BC0" x="22" y="18" width="67" height="67" rx="1"></rect>
        <g id="item-folder" transform="translate(67.000000, 30.000000)">
            <g id="item-bg" fill="#E8E9EB">
                <circle id="Oval" cx="22" cy="22" r="22"></circle>
            </g>
            <rect id="Rectangle" fill="#F6BB42" x="10.3" y="13" width="23.4" height="18" rx="2"></rect>
            <path d="M13,15 L34,15 C34.5522847,15 35,15.4477153 35,16 L35,23 C35,23.5522847 34.5522847,24 34,24 L12,24 L12,24 L12,16 C12,15.4477153 12.4477153,15 13,15 Z" id="Rectangle" fill="#FFFFFF"></path>
            <path d="M16.3656489,17 L36.0079855,17 C37.112555,17 38.0079855,17.8954305 38.0079855,19 C38.0079855,19.2729355 37.9521211,19.5429828 37.8438317,19.7935166 L33.5214841,29.7935166 C33.2049461,30.5258455 32.4834486,31 31.6856378,31 L12.0433012,31 C10.9387317,31 10.0433012,30.1045695 10.0433012,29 C10.0433012,28.7270645 10.0991656,28.4570172 10.207455,28.2064834 L14.5298026,18.2064834 C14.8463406,17.4741545 15.5678381,17 16.3656489,17 Z" id="Rectangle" fill="#FFCE54"></path>
        </g>
        <g id="doctor-1" transform="translate(10.000000, 25.000000)">
            <path d="M37,16 L37,22.99 C37,29.14 33.3,34.43 28,36.74 C26.16,37.54 24.13,37.99 22,37.99 C19.87,37.99 17.84,37.54 16,36.74 C10.7,34.43 7,29.14 7,22.99 L7,16 L37,16 Z" id="Path" fill="#AB7969" fill-rule="nonzero"></path>
            <path d="M32.996,16 L32.996,22.99 C32.996,29.14 29.296,34.43 23.996,36.74 C22.744,37.285 21.398,37.651 19.998,37.84 C20.655,37.928 21.32,37.99 22,37.99 C24.13,37.99 26.16,37.54 28,36.74 C33.3,34.43 37,29.14 37,22.99 L37,16 L32.996,16 Z" id="Path" fill="#996559" fill-rule="nonzero"></path>
            <path d="M28,36.74 L28,49.99 L16,49.99 L16,36.74 C17.84,37.54 19.87,37.99 22,37.99 C24.13,37.99 26.16,37.54 28,36.74 Z" id="Path" fill="#AB7969" fill-rule="nonzero"></path>
            <g id="Group" transform="translate(7.000000, 0.000000)" fill-rule="nonzero">
                <path d="M4.09090909,15.9285714 L0,20 L0,12.2142857 C0,5.46928571 5.48318182,0 12.2727273,0 L23.1818182,0 L23.1818182,5.42857143 C26.9454545,5.42857143 30,8.46857143 30,12.2142857 L30,20 L25.9090909,15.9285714 C25.9090909,15.9285714 20.8363636,18.6428571 15,18.6428571 C9.15,18.6428571 4.09090909,15.9285714 4.09090909,15.9285714 Z" id="Path" fill="#965353"></path>
                <path d="M23.125,9.5 C24.641625,9.5 25.875,10.7173571 25.875,12.2142857 L25.875,14.9285714 L30,19 L30,12.2142857 C30,8.46857143 26.92,5.42857143 23.125,5.42857143 L23.125,0 L19,0 L19,5.42857143 C19,7.67735714 20.846625,9.5 23.125,9.5 Z" id="Path" fill="#844747"></path>
            </g>
            <path d="M44,52 L44,59 C44,59.55 43.56,60 43,60 L1,60 C0.45,60 3.55271368e-15,59.55 3.55271368e-15,59 L3.55271368e-15,52 C3.55271368e-15,47.58 3.58,44 8,44 L15,44 L29,44 L36,44 C40.42,44 44,47.58 44,52 Z" id="Path" fill="#00A676" fill-rule="nonzero"></path>
            <path d="M22,41.4461538 C24.88,41.4461538 27.6,40.7846154 30,39.6 L30,44.5230769 L26.8,47.6 L22,46.0615385 L17.2,47.6 L14,44.5230769 L14,39.6 C16.4,40.7846154 19.12,41.4461538 22,41.4461538 Z" id="Path" fill="#22C293" fill-rule="nonzero"></path>
            <path d="M36,44 L31.996,44 C36.416,44 39.996,47.58 39.996,52 L39.996,59 C39.996,59.55 39.556,60 38.996,60 L43,60 C43.56,60 44,59.55 44,59 L44,52 C44,47.58 40.42,44 36,44 Z" id="Path" fill="#00966A" fill-rule="nonzero"></path>
            <circle id="Oval" fill="#22C293" cx="22" cy="49" r="1"></circle>
        </g>
    </g>
</svg>