<svg height="104" viewBox="0 0 185 104" width="185" xmlns="http://www.w3.org/2000/svg" xmlns:xlink="http://www.w3.org/1999/xlink"><defs><circle id="a" cx="12.5" cy="12.5" r="11"/><mask id="b" fill="#fff"><use fill="#fff" fill-rule="evenodd" xlink:href="#a"/></mask></defs><g fill="none" fill-rule="evenodd"><path d="m0 0h185v104h-185z" fill="#fafbfb"/><rect fill="#fcba04" height="67" rx="1" width="67" x="62" y="21"/><g fill-rule="nonzero"><g transform="translate(93 46)"><path d="m40 0v6.99c0 6.15-3.7 11.44-9 13.75-1.84.8-3.87 1.25-6 1.25s-4.16-.45-6-1.25c-5.3-2.31-9-7.6-9-13.75v-6.99z" fill="#eac6bb"/><path d="m35.996 0v6.99c0 6.15-3.7 11.44-9 13.75-1.252.545-2.598.911-3.998 1.1.657.088 1.322.15 2.002.15 2.13 0 4.16-.45 6-1.25 5.3-2.31 9-7.6 9-13.75v-6.99z" fill="#d3b1a9"/><path d="m31 20.74v13.25h-12v-13.25c1.84.8 3.87 1.25 6 1.25s4.16-.45 6-1.25z" fill="#eac6bb"/></g><g transform="translate(103 30)"><path d="m4.09090909 15.9285714-4.09090909 4.0714286v-7.7857143c0-6.74499999 5.48318182-12.2142857 12.2727273-12.2142857h10.9090909v5.42857143c3.7636363 0 6.8181818 3.04 6.8181818 6.78571427v7.7857143l-4.0909091-4.0714286s-5.0727273 2.7142857-10.9090909 2.7142857c-5.85 0-10.90909091-2.7142857-10.90909091-2.7142857z" fill="#965353"/><path d="m23.125 9.5c1.516625 0 2.75 1.2173571 2.75 2.7142857v2.7142857l4.125 4.0714286v-6.7857143c0-3.74571427-3.08-6.78571427-6.875-6.78571427v-5.42857143h-4.125v5.42857143c0 2.24878571 1.846625 4.07142857 4.125 4.07142857z" fill="#844747"/></g><g transform="translate(93 65)"><path d="m47 15v7c0 .55-.44 1-1 1h-42c-.55 0-1-.45-1-1v-7c0-4.42 3.58-8 8-8h7 1.0341628l5.9658372 15 5.9628547-15h1.0371453 7c4.42 0 8 3.58 8 8z" fill="#e6e9ed"/><path d="m39 7h-4.004c4.42 0 8 3.58 8 8v7c0 .55-.44 1-1 1h4.004c.56 0 1-.45 1-1v-7c0-4.42-3.58-8-8-8z" fill="#ccd1d9"/><path d="m31 7-5 16h-2l-5-16v-1c0 2.21 2.69 4 6 4s6-1.79 6-4z" fill="#00a676"/><g fill="#f5f7fa"><path d="m19 7 5 16h-2l-6-8 2-2-3-4z"/><path d="m26 23 5-16 4 2-3 4 2 2-6 8z"/></g></g></g><g fill-rule="evenodd" transform="translate(34 58)"><circle cx="12.5" cy="12.5" fill="#e8e9eb" r="11"/><use fill="#e8e9eb" opacity="0" xlink:href="#a"/><g mask="url(#b)"><g fill-rule="nonzero" transform="translate(5 3)"><g fill="none"><g fill="#fff"><path d="m7.016129 3.629032h1v1.209677h-1z"/><path d="m7.016129 1.209677h1v1.209677h-1z"/><path d="m7.016129 2.419355h1v1.209677h-1z"/></g><path d="m7.016129 0h1v1.209677h-1z" fill="#e6e9ed"/><path d="m7.98387097 4.83870968v.72580645c0 .26854839.2175.48387097.48387097.48387097v.96774193c-.37016129 0-.70911291-.14032258-.96774194-.37016129-.29758065-.26612903-.48387097-.65056451-.48387097-1.08145161v-.72580645z" fill="#fff"/><path d="m7.01612903 5.56451613c0 .43064516.18629032.81532258.48387097 1.08145161-.25669355.22983871-.59516129.37016129-.96774194.37016129v-.96774193c.26830646 0 .48387097-.21532258.48387097-.48387097z" fill="#ccd1d9"/><path d="m15 9.43790323v4.11048387c0 .8032258-.648629 1.4516129-1.4516129 1.4516129h-3.62661291c-.8032258 0-1.4516129-.6483871-1.4516129-1.4516129h-.00241935v-6.53225807-.96774193-.23951613c0-.80298387.64838709-1.45161291 1.4516129-1.45161291h.00241935c2.80620971 0 5.07822581 2.2717742 5.07822581 5.08064517z" fill="#ed5565"/><path d="m6.53467742 5.80887097h-.00241936v.23951613.96774193 6.53225807c0 .8032258-.65080645 1.4516129-1.4516129 1.4516129h-3.62903226c-.80104838 0-1.4516129-.6483871-1.4516129-1.4516129v-4.11048387c0-2.80862904 2.27177419-5.08064517 5.08064516-5.08064517h.00241936c.80056451 0 1.4516129.6483871 1.4516129 1.45161291z" fill="#ed5565"/></g><g fill="#ccd1d9"><path d="m7 4.5h1v1h-1z"/><path d="m7 3.5h1v1h-1z"/><path d="m7 2h1v1h-1z"/><path d="m7 1h1v1h-1z"/></g></g></g></g><circle cx="78.5" cy="70.5" fill="#e8e9eb" r="11"/><g fill-rule="nonzero" transform="translate(73.5 65.5)"><path d="m7.104 1.5485c.175-.1005.38-.1555.6-.1555.66 0 1.195.5305 1.195 1.1845 0 .165-.0345.325-.0945.465.415.2305.695.665.695 1.171 0 .375-.155.715-.405.954.2445.1955.405.49.405.825 0 .33-.15.62-.395.8155.06.165.095.335.095.5195 0 .8155-.6755 1.4805-1.5 1.4855-.08.67-.6505 1.1845-1.35 1.1845-.745 0-1.35-.5945-1.35-1.335v-2.665-4.46c0-.574.47-1.04 1.05-1.04s1.0505.466 1.0505 1.04v.0105h.004z" fill="#ec87c0"/><path d="m3.949.498c.5795 0 1.05.466 1.05 1.04v4.46 2.665c0 .74-.6 1.335-1.35 1.335-.695 0-1.265-.5145-1.3445-1.1845-.83-.005-1.5055-.67-1.5055-1.4855 0-.1845.035-.3545.1-.5195-.245-.1955-.4-.4855-.4-.8155 0-.335.165-.63.41-.825-.25-.2395-.41-.579-.41-.954 0-.506.28-.9355.695-1.171-.06-.1445-.09-.3-.09-.465 0-.6545.535-1.1845 1.195-1.1845.22 0 .4205.0545.595.1555h.005c0-.006 0-.006 0-.0105 0-.575.47-1.0405 1.05-1.0405z" fill="#ec87c0"/><g fill="#d770ad"><path d="m3.0095 2.501c-.183 0-.36-.1015-.4475-.2765-.106-.211-.162-.448-.162-.6855 0-.8485.695-1.539 1.5495-1.539.855 0 1.5505.6905 1.5505 1.539 0 .2765-.2235.5-.5.5s-.5-.2235-.5-.5c0-.297-.247-.539-.5505-.539-.3025 0-.5495.242-.5495.539 0 .084.0185.164.0555.2375.124.247.0245.548-.2225.671-.0715.036-.148.0535-.2235.0535z"/><path d="m3.651 10.5c-1.021 0-1.852-.823-1.852-1.836 0-.421.1475-.831.4145-1.1565.176-.213.49-.244.704-.0685.213.175.2435.49.0685.704-.1225.1485-.187.328-.187.5205 0 .461.3825.836.852.836.4685 0 .849-.375.849-.836 0-.2765.2235-.5.5-.5s.5.2235.5.5c0 1.013-.8295 1.8365-1.849 1.8365z"/><path d="m2.3115 9.3125c-1.109 0-2.0105-.8895-2.0105-1.9845 0-.241.0435-.4775.1285-.701.0985-.258.3865-.3885.6455-.289.258.0985.387.3865.289.6455-.042.1095-.063.2255-.063.3445 0 .543.4535.9845 1.0105.9845.2765 0 .5.2235.5.5s-.2235.5-.5.5z"/><path d="m.897 7.3055c-.1075 0-.216-.035-.3075-.1065-.3745-.293-.5895-.7335-.5895-1.208 0-.4775.2195-.922.6035-1.218.2185-.169.5325-.128.701.091s.128.533-.091.701c-.1355.1055-.214.2605-.214.426s.0745.3185.2055.42c.2175.17.256.4845.086.702-.098.126-.245.1925-.394.1925z"/><path d="m.9085 5.67c-.125 0-.25-.047-.3465-.1395-.3625-.3495-.562-.8175-.562-1.3195 0-.668.366-1.284.9565-1.6065.242-.133.5455-.044.678.199.133.242.044.546-.1985.6775-.269.1475-.436.427-.436.7295 0 .2275.091.4395.2555.5985.199.1915.205.508.0135.707-.098.102-.2295.154-.3605.154z"/><path d="m1.1955 3.543c-.195 0-.38-.1145-.4605-.3055-.0885-.209-.1335-.4305-.1335-.659 0-.9305.761-1.6875 1.6975-1.6875.2965 0 .5885.077.844.2225.2395.1365.3235.4415.187.6815-.137.24-.443.323-.682.1875-.106-.0605-.2235-.092-.3485-.092-.3845 0-.6975.3085-.6975.6875 0 .094.018.1845.054.2695.1075.255-.011.548-.2655.6555-.064.027-.13.04-.195.04z"/><path d="m6.991 2.501c-.0745 0-.1505-.0165-.2215-.052-.2475-.123-.3485-.423-.2255-.67.037-.075.0555-.1555.0555-.24 0-.297-.2465-.539-.5495-.539s-.5505.242-.5505.539c0 .2765-.2235.5-.5.5s-.5-.2235-.5-.5c0-.8485.6955-1.539 1.5505-1.539.8545 0 1.5495.6905 1.5495 1.539 0 .24-.0535.4705-.16.6845-.0875.176-.264.2775-.4485.2775z"/><path d="m6.349 10.5c-1.0195 0-1.849-.823-1.849-1.836 0-.2765.2235-.5.5-.5s.5.2235.5.5c0 .461.381.836.849.836.4695 0 .852-.375.852-.836 0-.1505-.041-.298-.118-.426-.143-.2365-.0675-.543.169-.6865.237-.1435.544-.0665.6865.169.172.284.2625.6105.2625.9435 0 1.0125-.831 1.836-1.852 1.836z"/><path d="m7.6885 9.3125c-.2765 0-.5-.2235-.5-.5s.2235-.5.5-.5c.557 0 1.0105-.4415 1.0105-.9845 0-.119-.021-.2355-.063-.3465-.0975-.259.0325-.547.2915-.6445.2585-.0975.5465.033.644.292.0845.2235.1275.459.1275.699 0 1.0945-.9015 1.9845-2.0105 1.9845z"/><path d="m9.103 7.3055c-.149 0-.296-.0665-.3945-.1925-.17-.218-.1315-.532.086-.702.131-.1015.2055-.255.2055-.42s-.078-.3205-.214-.426c-.219-.168-.2595-.4825-.091-.701s.4825-.2605.701-.091c.384.296.6035.74.6035 1.218 0 .4745-.215.915-.5895 1.208-.091.0715-.1995.1065-.307.1065z"/><path d="m9.0915 5.67c-.131 0-.262-.052-.3605-.1535-.1915-.199-.1855-.5155.0135-.707.1645-.159.2555-.371.2555-.5985 0-.3025-.167-.582-.436-.7295-.2425-.132-.3315-.4355-.1985-.6775.133-.243.436-.332.678-.199.5905.3225.9565.9385.9565 1.6065 0 .502-.1995.9695-.562 1.3195-.0965.092-.2215.139-.3465.139z"/><path d="m8.453 4.002c-.147 0-.292-.0635-.3905-.1875-.173-.215-.1375-.5305.0775-.702.164-.132.2585-.326.2585-.534 0-.379-.313-.6875-.6975-.6875-.125 0-.2425.0315-.3485.092-.2405.1355-.5455.0525-.682-.1875s-.0525-.545.187-.6815c.2555-.1455.5475-.2225.844-.2225.936 0 1.6975.757 1.6975 1.6875 0 .5125-.231.992-.6335 1.3145-.0925.073-.203.1085-.3125.1085z"/><path d="m5 9.164c-.2765 0-.5-.2235-.5-.5v-7.125c0-.2765.2235-.5.5-.5s.5.2235.5.5v7.125c0 .2765-.2235.5-.5.5z"/><path d="m5 6.496c-.2765 0-.5-.2235-.5-.5 0-.823.673-1.492 1.5-1.492.2765 0 .5.2235.5.5s-.2235.5-.5.5c-.276 0-.5.2205-.5.492 0 .2765-.2235.5-.5.5z"/><path d="m5 6.496c-.2765 0-.5-.2235-.5-.5 0-.2715-.224-.492-.5-.492-.2765 0-.5-.2235-.5-.5s.2235-.5.5-.5c.827 0 1.5.669 1.5 1.492 0 .2765-.2235.5-.5.5z"/></g></g><circle cx="62.5" cy="43" fill="#e8e9eb" r="17.16"/><g fill-rule="nonzero" transform="translate(52.36 35.98)"><path d="m19.4787458 3.86275515 2.1060001 3.51000014h-3.1590002c-.77571 0-1.404-.62829002-1.404-1.40400005v-2.10600009z" fill="#5d9cec"/><path d="m17.0217457 2.80659611v1.40751006h-1.7479801v-.09477001-1.31274005z" fill="#ed5565"/><path d="m17.0235007 3.15900013h-1.7557021c-.194103 0-.351-.15689701-.351-.35100002s.156897-.35100001.351-.35100001h1.7557021c.194103 0 .351.156897.351.35100001s-.156897.35100002-.351.35100002z" fill="#ed5565"/><path d="m17.0235007 4.56580818c-.194103 0-.351-.156897-.351-.35100001v-1.40680806c0-.19410301.156897-.35100001.351-.35100001s.351.156897.351.35100001v1.40680806c0 .19410301-.156897.35100001-.351.35100001z" fill="#ed5565"/><path d="m15.2727126 4.46893218c-.194103 0-.351-.15689701-.351-.35100002v-1.30993205c0-.19410301.156897-.35100001.351-.35100001s.351.156897.351.35100001v1.30993205c0 .19410301-.157248.35100002-.351.35100002z" fill="#ed5565"/><path d="m21.9357459 11.9357555v1.404h-2.4570001c0-1.16181-.9441901-2.1060001-2.1060001-2.1060001-1.1618101 0-2.1060001.9441901-2.1060001 2.1060001h-1.7557021v-9.47700035h1.7623711 1.7479801v2.10600009c0 .77571003.62829 1.40400005 1.404 1.40400005h3.1590002v2.80800011 1.7550001z" fill="#ccd1d9"/><path d="m19.4787458 4.21445717h-5.2653512c-.194103 0-.351-.15689701-.351-.35100002 0-.194103.156897-.35100001.351-.35100001h5.2653512c.194103 0 .351.15689701.351.35100001 0 .19410301-.156897.35100002-.351.35100002z" fill="#ccd1d9"/><path d="m14.2137456 12.9887555c0 .19305-.15795.351-.351.351h-13.33449058c-.19305001 0-.35100001-.15795-.35100001-.351v-12.63951049c0-.19305.15795-.35100001.35100001-.35100001h13.33449058c.19305 0 .351.15795001.351.35100001z" fill="#fff"/><path d="m17.3727457 12.6377555c.38961 0 .702.3159.702.702 0 .38961-.31239.7020001-.702.7020001-.3861 0-.702-.3123901-.702-.7020001 0-.3861.316251-.702.702-.702z" fill="#e6e9ed"/><path d="m15.2667456 13.3397555c0-1.16181.94419-2.1060001 2.1060001-2.1060001 1.16181 0 2.1060001.9441901 2.1060001 2.1060001 0 1.1621611-.9441901 2.1060001-2.1060001 2.1060001-1.1618101 0-2.1060001-.94419-2.1060001-2.1060001zm2.8080001 0c0-.3861-.31239-.702-.702-.702-.3861 0-.702.3159-.702.702 0 .38961.3159.7020001.702.7020001.38961 0 .702-.3123901.702-.7020001z" fill="#656d78"/><path d="m4.38574517 11.2337554c1.16181005 0 2.10600009.9441901 2.10600009 2.1060001 0 1.1621611-.94419004 2.1060001-2.10600009 2.1060001-1.16532004 0-2.10600008-.943839-2.10600008-2.1060001 0-1.16181.94068004-2.1060001 2.10600008-2.1060001zm.70200003 2.1060001c0-.3861-.31590001-.702-.70200003-.702-.38961001 0-.70200002.3159-.70200002.702 0 .38961.31239001.7020001.70200002.7020001.38610002 0 .70200003-.3123901.70200003-.7020001z" fill="#656d78"/><path d="m4.38574517 12.6377555c.38610002 0 .70200003.3159.70200003.702 0 .38961-.31590001.7020001-.70200003.7020001-.38961001 0-.70200002-.3123901-.70200002-.7020001 0-.3861.31239001-.702.70200002-.702z" fill="#e6e9ed"/><path d="m7.20778529 2.81326511c1.74096007 0 3.15900011 1.41804006 3.15900011 3.15900013 0 1.74482107-1.41804004 3.15900012-3.15900011 3.15900012-1.74447007 0-3.15900013-1.41417905-3.15900013-3.15900012 0-1.74096007 1.41453006-3.15900013 3.15900013-3.15900013z" fill="#ed5565"/><g fill="#ccd1d9"><path d="m21.5847459 12.2867555c-.1941031 0-.3510001-.156897-.3510001-.351v-4.56300021c0-.194103.156897-.35100001.3510001-.35100001.194103 0 .351.15689701.351.35100001v4.56300021c0 .194103-.156897.351-.351.351z"/><path d="m21.5850969 7.72375531c-.11934 0-.2355211-.06072301-.3011581-.17023501l-2.106-3.50929814c-.099684-.16637401-.045981-.38188801.120393-.48157202.166725-.099684.381888-.045981.481572.12039301l2.1060001 3.50929814c.099684.166374.045981.38188801-.120393.48157201-.056511.03369601-.118989.04984201-.180414.04984201z"/><path d="m21.5847459 7.72375531h-3.1579472c-.194103 0-.351-.15689701-.351-.35100002 0-.194103.156897-.35100001.351-.35100001h3.1579472c.194103 0 .351.15689701.351.35100001 0 .19410301-.156897.35100002-.351.35100002z"/><path d="m18.4267987 7.72375531c-.967707 0-1.755-.78729303-1.755-1.75500007 0-.19410301.156897-.35100002.351-.35100002s.351.15689701.351.35100002c0 .58055402.472446 1.05300004 1.053 1.05300004.194103 0 .351.15689701.351.35100001 0 .19410301-.156897.35100002-.351.35100002z"/><path d="m17.0227987 6.31975525c-.194103 0-.351-.15689701-.351-.35100001v-2.10529809c0-.194103.156897-.35100001.351-.35100001s.351.15689701.351.35100001v2.10529809c0 .194103-.156897.35100001-.351.35100001z"/></g><path d="m15.9747126 2.10529808c-.194103 0-.351-.156897-.351-.35100001v-1.05300004c0-.19410301.156897-.35100002.351-.35100002s.351.15689701.351.35100002v1.05300004c0 .19410301-.157248.35100001-.351.35100001z" fill="#da4453"/><path d="m17.3752027 2.10529808c-.089856 0-.179712-.034398-.248157-.102843-.137241-.13724101-.137241-.35907301 0-.49631402l.704106-.70410603c.137241-.137241.359073-.137241.496314 0 .137241.13724101.137241.35907302 0 .49631402l-.704106.70410603c-.068445.068445-.158301.102843-.248157.102843z" fill="#da4453"/><path d="m7.19374529 7.72866931c-.19410301 0-.35100002-.15689701-.35100002-.35100002v-2.80800011c0-.19410301.15689701-.35100001.35100002-.35100001.194103 0 .35100001.156897.35100001.35100001v2.80800011c0 .19375201-.15689701.35100002-.35100001.35100002z" fill="#e6e9ed"/><path d="m8.59774534 6.32466925h-2.80800011c-.19410301 0-.35100001-.156897-.35100001-.35100001s.156897-.35100002.35100001-.35100002h2.80800011c.19410301 0 .35100002.15689701.35100002.35100002s-.15689701.35100001-.35100002.35100001z" fill="#e6e9ed"/><path d="m20.8897658 11.2334044c-.194103 0-.351.1568971-.351.3510001s.156897.351.351.351h1.0459801v-.7020001z" fill="#aab2bd"/><path d="m21.5847459 12.9813845v-.694629c0-.194103.156897-.351.351-.351s.351.156897.351.351v.694629c0 .194103-.156897.351-.351.351s-.351-.156897-.351-.351z" fill="#ccd1d9"/><path d="m21.5850969 9.82975539c-.194103 0-.3510001.15689701-.3510001.35100001s.1568971.351.3510001.351h.351v-.70200001z" fill="#ed5565"/></g></g></svg>