<svg height="104" viewBox="0 0 185 104" width="185" xmlns="http://www.w3.org/2000/svg"><g fill="none" fill-rule="evenodd"><rect fill="#27baff" height="67" rx="1" width="67" x="96" y="21"/><g fill="#00a676"><rect height="6" rx="1.12" width="35.217391" x="10" y="41"/><rect height="6" rx="1.12" width="35.217391" x="46.335404" y="41"/><rect height="6" rx="1.12" width="35.217391" x="82.670807" y="41"/></g><rect fill="#fcba04" height="6" rx="1.12" width="35.217391" x="10" y="52"/><rect fill="#fcba04" height="6" rx="1.12" width="35.217391" x="46.335404" y="52"/><rect fill="#e8e9eb" height="6" rx="1.12" width="35.217391" x="82.670807" y="52"/><rect fill="#fcba04" height="6" rx="1.12" width="35.217391" x="10" y="63"/><rect fill="#e8e9eb" height="6" rx="1.12" width="35.217391" x="46.335404" y="63"/><rect fill="#e8e9eb" height="6" rx="1.12" width="35.217391" x="82.670807" y="63"/><g fill-rule="nonzero"><g transform="translate(137 30)"><path d="m27.5 16h-25-2.5v-.008884-12.43753466c0-1.95446974 1.5-3.55358134 3.33333333-3.55358134h23.33333337c1.8333333 0 3.3333333 1.5991116 3.3333333 3.55358134v12.43753466.008884z" fill="#e6e9ed"/><path d="m26 0h-4.004c2.2 0 4 1.5991116 4 3.55358134v12.43753466.008884h1.004 3v-.008884-12.43753466c0-1.95446974-1.8-3.55358134-4-3.55358134z" fill="#ccd1d9"/><g fill="#ed5565"><path d="m15 13c-.553 0-1-.447-1-1v-8c0-.553.447-1 1-1s1 .447 1 1v8c0 .553-.447 1-1 1z"/><path d="m19 9h-8c-.553 0-1-.447-1-1s.447-1 1-1h8c.553 0 1 .447 1 1s-.447 1-1 1z"/></g></g><g transform="translate(127 46)"><path d="m40 0v6.99c0 6.15-3.7 11.44-9 13.75-1.84.8-3.87 1.25-6 1.25s-4.16-.45-6-1.25c-5.3-2.31-9-7.6-9-13.75v-6.99z" fill="#ab7969"/><path d="m35.996 0v6.99c0 6.15-3.7 11.44-9 13.75-1.252.545-2.598.911-3.998 1.1.657.088 1.322.15 2.002.15 2.13 0 4.16-.45 6-1.25 5.3-2.31 9-7.6 9-13.75v-6.99z" fill="#996559"/><path d="m31 20.74v13.25h-12v-13.25c1.84.8 3.87 1.25 6 1.25s4.16-.45 6-1.25z" fill="#ab7969"/></g><g transform="translate(127 65)"><path d="m47 15v7c0 .55-.44 1-1 1h-42c-.55 0-1-.45-1-1v-7c0-4.42 3.58-8 8-8h7 1.0341628l5.9658372 15 5.9628547-15h1.0371453 7c4.42 0 8 3.58 8 8z" fill="#e6e9ed"/><path d="m39 7h-4.004c4.42 0 8 3.58 8 8v7c0 .55-.44 1-1 1h4.004c.56 0 1-.45 1-1v-7c0-4.42-3.58-8-8-8z" fill="#ccd1d9"/><path d="m31 7-5 16h-2l-5-16v-1c0 2.21 2.69 4 6 4s6-1.79 6-4z" fill="#27baff"/><g fill="#f5f7fa"><path d="m19 7 5 16h-2l-6-8 2-2-3-4z"/><path d="m26 23 5-16 4 2-3 4 2 2-6 8z"/></g></g></g></g></svg>