<?xml version="1.0" encoding="UTF-8"?>
<svg width="185px" height="104px" viewBox="0 0 185 104" version="1.1" xmlns="http://www.w3.org/2000/svg" xmlns:xlink="http://www.w3.org/1999/xlink">
    <title>svg/portfolio-applies-organisation-edu</title>
    <g id="svg/portfolio-applies-organisation-edu" stroke="none" stroke-width="1" fill="none" fill-rule="evenodd">
        <g id="progress-line" transform="translate(43.000000, 64.000000)" fill="#CCD1D9">
            <rect id="Rectangle" x="0" y="0" width="3" height="1"></rect>
            <rect id="Rectangle-Copy-2" x="14" y="0" width="3" height="1"></rect>
            <rect id="Rectangle-Copy-4" x="28" y="0" width="3" height="1"></rect>
            <rect id="Rectangle-Copy-6" x="42" y="0" width="3" height="1"></rect>
            <rect id="Rectangle-Copy-8" x="56" y="0" width="3" height="1"></rect>
            <rect id="Rectangle-Copy-10" x="70" y="0" width="3" height="1"></rect>
            <rect id="Rectangle-Copy-12" x="84" y="0" width="3" height="1"></rect>
            <rect id="Rectangle-Copy-14" x="98" y="0" width="3" height="1"></rect>
            <rect id="Rectangle-Copy" x="7" y="0" width="3" height="1"></rect>
            <rect id="Rectangle-Copy-3" x="21" y="0" width="3" height="1"></rect>
            <rect id="Rectangle-Copy-5" x="35" y="0" width="3" height="1"></rect>
            <rect id="Rectangle-Copy-7" x="49" y="0" width="3" height="1"></rect>
            <rect id="Rectangle-Copy-9" x="63" y="0" width="3" height="1"></rect>
            <rect id="Rectangle-Copy-11" x="77" y="0" width="3" height="1"></rect>
            <rect id="Rectangle-Copy-13" x="91" y="0" width="3" height="1"></rect>
            <rect id="Rectangle-Copy-15" x="105" y="0" width="3" height="1"></rect>
        </g>
        <g id="progress-line-short" transform="translate(58.000000, 40.000000)" fill="#CCD1D9">
            <rect id="Rectangle" x="0" y="0" width="3" height="1"></rect>
            <rect id="Rectangle-Copy-2" x="14" y="0" width="3" height="1"></rect>
            <rect id="Rectangle-Copy-4" x="28" y="0" width="3" height="1"></rect>
            <rect id="Rectangle-Copy-6" x="42" y="0" width="3" height="1"></rect>
            <rect id="Rectangle-Copy" x="7" y="0" width="3" height="1"></rect>
            <rect id="Rectangle-Copy-3" x="21" y="0" width="3" height="1"></rect>
            <rect id="Rectangle-Copy-5" x="35" y="0" width="3" height="1"></rect>
            <rect id="Rectangle-Copy-7" x="49" y="0" width="3" height="1"></rect>
        </g>
        <g id="14-building,-doctor,-medicine,-medical,-treatment,-pharmacy" transform="translate(27.000000, 21.000000)" fill-rule="nonzero">
            <g id="Group" transform="translate(1.850000, 2.000000)">
                <rect id="Rectangle" fill="#CCD1D9" x="25" y="14.1818182" width="21.15" height="37.8181818"></rect>
                <polygon id="Path" fill="#E6E9ED" points="12.5 0 0 0 0 14.1818182 0 52 7.95454545 52 7.95454545 40.1818182 17.0454545 40.1818182 17.0454545 52 25 52 25 14.1818182 25 0"></polygon>
                <rect id="Rectangle" fill="#5D9CEC" x="29.7" y="29.5454545" width="5.875" height="5.90909091"></rect>
                <rect id="Rectangle" fill="#5D9CEC" x="7.2" y="7.27272727" width="5.875" height="5.90909091"></rect>
                <rect id="Rectangle" fill="#5D9CEC" x="13.075" y="18.9090909" width="5.875" height="5.90909091"></rect>
                <rect id="Rectangle" fill="#5D9CEC" x="29.7" y="18.9090909" width="5.875" height="5.90909091"></rect>
                <rect id="Rectangle" fill="#5D9CEC" x="29.7" y="40.1818182" width="5.875" height="5.90909091"></rect>
                <rect id="Rectangle" fill="#5D9CEC" x="13.075" y="29.5454545" width="5.875" height="5.90909091"></rect>
                <rect id="Rectangle" fill="#5D9CEC" x="35.575" y="29.5454545" width="5.875" height="5.90909091"></rect>
                <rect id="Rectangle" fill="#5D9CEC" x="35.575" y="18.9090909" width="5.875" height="5.90909091"></rect>
                <rect id="Rectangle" fill="#5D9CEC" x="7.2" y="18.9090909" width="5.875" height="5.90909091"></rect>
                <rect id="Rectangle" fill="#5D9CEC" x="6.2" y="29.5454545" width="5.875" height="5.90909091"></rect>
                <rect id="Rectangle" fill="#007BC0" x="7.375" y="40.1818182" width="9.4" height="11.8181818"></rect>
                <rect id="Rectangle" fill="#5D9CEC" x="13.075" y="7.27272727" width="5.875" height="5.90909091"></rect>
                <rect id="Rectangle" fill="#5D9CEC" x="35.575" y="40.1818182" width="5.875" height="5.90909091"></rect>
            </g>
            <path d="M43.4091446,27 L31.5908554,27 C31.2647032,27 31,26.7386667 31,26.4166667 L31,20.5833333 C31,20.2613333 31.2647032,20 31.5908554,20 L43.4091446,20 C43.7352968,20 44,20.2613333 44,20.5833333 L44,26.4166667 C44,26.7386667 43.7352968,27 43.4091446,27 Z M32,26 L43,26 L43,21 L32,21 L32,26 Z" id="Shape" fill="#E6E9ED"></path>
            <path d="M37.5,27 C37.224,27 37,26.7386667 37,26.4166667 L37,20.5833333 C37,20.2613333 37.224,20 37.5,20 C37.776,20 38,20.2613333 38,20.5833333 L38,26.4166667 C38,26.7386667 37.776,27 37.5,27 Z" id="Path" fill="#E6E9ED"></path>
            <path d="M20.4091446,16 L8.59085538,16 C8.26470321,16 8,15.7386667 8,15.4166667 L8,9.58333333 C8,9.26133333 8.26470321,9 8.59085538,9 L20.4091446,9 C20.7352968,9 21,9.26133333 21,9.58333333 L21,15.4166667 C21,15.7386667 20.7352968,16 20.4091446,16 Z M9,15 L20,15 L20,10 L9,10 L9,15 Z" id="Shape" fill="#FFFFFF"></path>
            <path d="M14.5,16 C14.224,16 14,15.7386667 14,15.4166667 L14,9.58333333 C14,9.26133333 14.224,9 14.5,9 C14.776,9 15,9.26133333 15,9.58333333 L15,15.4166667 C15,15.7386667 14.776,16 14.5,16 Z" id="Path" fill="#FFFFFF"></path>
            <path d="M20.4091446,27 L8.59085538,27 C8.26470321,27 8,26.7386667 8,26.4166667 L8,20.5833333 C8,20.2613333 8.26470321,20 8.59085538,20 L20.4091446,20 C20.7352968,20 21,20.2613333 21,20.5833333 L21,26.4166667 C21,26.7386667 20.7352968,27 20.4091446,27 Z M9,26 L20,26 L20,21 L9,21 L9,26 Z" id="Shape" fill="#FFFFFF"></path>
            <path d="M14.5,27 C14.224,27 14,26.7386667 14,26.4166667 L14,20.5833333 C14,20.2613333 14.224,20 14.5,20 C14.776,20 15,20.2613333 15,20.5833333 L15,26.4166667 C15,26.7386667 14.776,27 14.5,27 Z" id="Path" fill="#FFFFFF"></path>
            <path d="M20.4091446,38 L8.59085538,38 C8.26470321,38 8,37.7386667 8,37.4166667 L8,31.5833333 C8,31.2613333 8.26470321,31 8.59085538,31 L20.4091446,31 C20.7352968,31 21,31.2613333 21,31.5833333 L21,37.4166667 C21,37.7386667 20.7352968,38 20.4091446,38 Z M9,37 L20,37 L20,32 L9,32 L9,37 Z" id="Shape" fill="#FFFFFF"></path>
            <path d="M14.5,38 C14.224,38 14,37.7385795 14,37.4164722 L14,31.5835278 C14,31.2614205 14.224,31 14.5,31 C14.776,31 15,31.2614205 15,31.5835278 L15,37.4164722 C15,37.7385795 14.776,38 14.5,38 Z" id="Path" fill="#FFFFFF"></path>
            <path d="M43.4091446,38 L31.5908554,38 C31.2647032,38 31,37.7386667 31,37.4166667 L31,31.5833333 C31,31.2613333 31.2647032,31 31.5908554,31 L43.4091446,31 C43.7352968,31 44,31.2613333 44,31.5833333 L44,37.4166667 C44,37.7386667 43.7352968,38 43.4091446,38 Z M32,37 L43,37 L43,32 L32,32 L32,37 Z" id="Shape" fill="#E6E9ED"></path>
            <path d="M37.5,38 C37.224,38 37,37.7385795 37,37.4164722 L37,31.5835278 C37,31.2614205 37.224,31 37.5,31 C37.776,31 38,31.2614205 38,31.5835278 L38,37.4164722 C38,37.7385795 37.776,38 37.5,38 Z" id="Path" fill="#E6E9ED"></path>
            <path d="M43.4091446,49 L31.5908554,49 C31.2647032,49 31,48.7386667 31,48.4166667 L31,42.5833333 C31,42.2613333 31.2647032,42 31.5908554,42 L43.4091446,42 C43.7352968,42 44,42.2613333 44,42.5833333 L44,48.4166667 C44,48.7386667 43.7352968,49 43.4091446,49 Z M32,48 L43,48 L43,43 L32,43 L32,48 Z" id="Shape" fill="#E6E9ED"></path>
            <path d="M37.5,49 C37.224,49 37,48.7386667 37,48.4166667 L37,42.5833333 C37,42.2613333 37.224,42 37.5,42 C37.776,42 38,42.2613333 38,42.5833333 L38,48.4166667 C38,48.7386667 37.776,49 37.5,49 Z" id="Path" fill="#E6E9ED"></path>
            <path d="M18.4444444,55 L9.55555556,55 C9.24888889,55 9,54.7352727 9,54.4090909 L9,42.5909091 C9,42.2647273 9.24888889,42 9.55555556,42 L18.4444444,42 C18.7511111,42 19,42.2647273 19,42.5909091 L19,54.4090909 C19,54.7352727 18.7511111,55 18.4444444,55 Z M10.1111111,53.8181818 L17.8888889,53.8181818 L17.8888889,43.1818182 L10.1111111,43.1818182 L10.1111111,53.8181818 Z" id="Shape" fill="#007BC0"></path>
            <path d="M26.8749062,3 L2.12509376,3 C1.50291691,3 1,2.3295 1,1.5 C1,0.6705 1.50291691,0 2.12509376,0 L26.8749062,0 C27.4970831,0 28,0.6705 28,1.5 C28,2.3295 27.4970831,3 26.8749062,3 Z" id="Path" fill="#656D78"></path>
            <path d="M47.8432012,14 L27,14 L27,17 L47.8432012,17 C48.4829109,17 49,16.3295 49,15.5 C49,14.6705 48.4829109,14 47.8432012,14 Z" id="Path" fill="#545C66"></path>
            <path d="M48.9130435,56 L1.08695652,56 C0.485869565,56 0,55.3295 0,54.5 C0,53.6705 0.485869565,53 1.08695652,53 L48.9130435,53 C49.5141304,53 50,53.6705 50,54.5 C50,55.3295 49.5141304,56 48.9130435,56 Z" id="Path" fill="#656D78"></path>
        </g>
        <g id="item-classroom" transform="translate(126.160000, 48.160000)">
            <g id="item-bg" fill="#E8E9EB">
                <circle id="Oval" cx="15.84" cy="15.84" r="15.84"></circle>
            </g>
            <rect id="Rectangle" fill="#007C58" x="5.04" y="8.64" width="21.6" height="15.12" rx="1"></rect>
            <g id="teacher" transform="translate(9.360000, 6.480000)">
                <g id="face-white" transform="translate(3.456000, 5.472000)" fill-rule="nonzero">
                    <path d="M10.368,0 L10.368,2.39058 C10.368,4.49388 9.08928,6.30306 7.2576,7.09308 C6.621696,7.36668 5.920128,7.52058 5.184,7.52058 C4.447872,7.52058 3.746304,7.36668 3.1104,7.09308 C1.27872,6.30306 4.4408921e-16,4.49388 4.4408921e-16,2.39058 L4.4408921e-16,0 L10.368,0 Z" id="Path" fill="#EAC6BB"></path>
                    <path d="M8.9842176,0 L8.9842176,2.39058 C8.9842176,4.49388 7.7054976,6.30306 5.8738176,7.09308 C5.4411264,7.27947 4.9759488,7.404642 4.4921088,7.46928 C4.719168,7.499376 4.948992,7.52058 5.184,7.52058 C5.920128,7.52058 6.621696,7.36668 7.2576,7.09308 C9.08928,6.30306 10.368,4.49388 10.368,2.39058 L10.368,0 L8.9842176,0 Z" id="Path" fill="#D3B1A9"></path>
                    <path d="M7.2576,7.09308 L7.2576,11.62458 L3.1104,11.62458 L3.1104,7.09308 C3.746304,7.36668 4.447872,7.52058 5.184,7.52058 C5.920128,7.52058 6.621696,7.36668 7.2576,7.09308 Z" id="Path" fill="#EAC6BB"></path>
                </g>
                <g id="Group" transform="translate(3.456000, 0.000000)" fill-rule="nonzero">
                    <path d="M0,3.192 C0,2.18272 0.617472,1.368 1.3824,1.368 L1.3824,5.016 C1.3824,6.02528 0.764928,6.84 0,6.84 L0,3.192 L0,3.192 Z" id="Path" fill="#E9573F"></path>
                    <path d="M10.368,5.10004734 L10.368,9.234 C10.368,8.07750355 9.773952,7.0579798 8.8704,6.44597412 L8.8704,6.44111693 C8.306304,6.05739908 7.617408,5.83396844 6.8736,5.83396844 L6.8736,5.82376834 L2.88,5.82376834 C2.051328,5.82376834 1.3824,5.85690516 1.3824,5.05061196 L1.3824,1.4522992 C2.335872,0.505147546 3.658752,0 5.1264,0 C8.02176,0 10.368,2.28287833 10.368,5.10004734 Z" id="Path" fill="#F06543"></path>
                    <path d="M5.24895594,0 C4.99105362,0 4.7399767,0.0218573457 4.4928,0.054400505 C6.98406811,0.398289411 8.9039534,2.52282342 8.9039534,5.10004734 L8.9039534,6.44014549 C8.90444093,6.44063121 8.90492845,6.44063121 8.90541598,6.44111693 L8.90541598,6.44597412 C9.78784167,7.0579798 10.368,8.07750355 10.368,9.234 L10.368,5.10004734 C10.368,2.28287833 8.07661837,0 5.24895594,0 Z" id="Path" fill="#E9573F"></path>
                </g>
                <g id="Group" transform="translate(0.000000, 11.970000)">
                    <path d="M16.2432,5.13 L16.2432,7.524 C16.2432,7.7121 16.091136,7.866 15.8976,7.866 L1.3824,7.866 C1.19232,7.866 1.0368,7.7121 1.0368,7.524 L1.0368,5.13 C1.0368,3.61836 2.274048,2.394 3.8016,2.394 L6.2208,2.394 L11.0592,2.394 L13.4784,2.394 C15.005952,2.394 16.2432,3.61836 16.2432,5.13 Z" id="Path-Copy" fill="#AB7969" fill-rule="nonzero"></path>
                    <path d="M13.4784,2.394 L12.0946176,2.394 C13.6221696,2.394 14.8594176,3.61836 14.8594176,5.13 L14.8594176,7.524 C14.8594176,7.7121 14.7073536,7.866 14.5138176,7.866 L15.8976,7.866 C16.091136,7.866 16.2432,7.7121 16.2432,7.524 L16.2432,5.13 C16.2432,3.61836 15.005952,2.394 13.4784,2.394 Z" id="Path-Copy-3" fill="#976656" fill-rule="nonzero"></path>
                    <path d="M11.0337623,1.3670116 L11.0592,1.39186011 L11.0606516,2.71350118 C10.5894115,3.13477273 9.68202539,3.42 8.64,3.42 C7.59746709,3.42 6.68970466,3.13449482 6.21866013,2.71288555 L6.21950178,1.39036169 C6.22826369,1.38253099 6.2371763,1.37474731 6.24623768,1.3670116 C6.7245683,1.7773394 7.61745846,2.052 8.64,2.052 C9.63584144,2.052 10.5087139,1.79149574 10.9954496,1.40070041 L11.0337623,1.3670116 Z" id="Combined-Shape" fill="#C19789"></path>
                </g>
            </g>
        </g>
        <g id="item-classroom" transform="translate(92.160000, 25.160000)">
            <g id="item-bg" fill="#E8E9EB">
                <circle id="Oval" cx="15.84" cy="15.84" r="15.84"></circle>
            </g>
            <rect id="Rectangle" fill="#007C58" x="5.04" y="8.64" width="21.6" height="15.12" rx="1"></rect>
            <g id="teacher" transform="translate(9.360000, 6.480000)">
                <g id="face-white" transform="translate(3.456000, 5.472000)" fill-rule="nonzero">
                    <path d="M10.368,-8.8817842e-16 L10.368,2.39058 C10.368,4.49388 9.08928,6.30306 7.2576,7.09308 C6.621696,7.36668 5.920128,7.52058 5.184,7.52058 C4.447872,7.52058 3.746304,7.36668 3.1104,7.09308 C1.27872,6.30306 8.8817842e-16,4.49388 8.8817842e-16,2.39058 L8.8817842e-16,-8.8817842e-16 L10.368,-8.8817842e-16 Z" id="Path" fill="#EAC6BB"></path>
                    <path d="M8.9842176,-8.8817842e-16 L8.9842176,2.39058 C8.9842176,4.49388 7.7054976,6.30306 5.8738176,7.09308 C5.4411264,7.27947 4.9759488,7.404642 4.4921088,7.46928 C4.719168,7.499376 4.948992,7.52058 5.184,7.52058 C5.920128,7.52058 6.621696,7.36668 7.2576,7.09308 C9.08928,6.30306 10.368,4.49388 10.368,2.39058 L10.368,-8.8817842e-16 L8.9842176,-8.8817842e-16 Z" id="Path" fill="#D3B1A9"></path>
                    <path d="M7.2576,7.09308 L7.2576,11.62458 L3.1104,11.62458 L3.1104,7.09308 C3.746304,7.36668 4.447872,7.52058 5.184,7.52058 C5.920128,7.52058 6.621696,7.36668 7.2576,7.09308 Z" id="Path" fill="#EAC6BB"></path>
                </g>
                <g id="hair-cap" transform="translate(3.456000, 0.000000)" fill-rule="nonzero">
                    <g id="Group" transform="translate(0.000000, 0.000000)">
                        <path d="M1.41381818,5.44757143 L0,6.84 L0,4.17728571 C0,1.87049571 1.89498764,0 4.24145455,0 L8.01163636,0 L8.01163636,1.85657143 C9.31234909,1.85657143 10.368,2.89625143 10.368,4.17728571 L10.368,6.84 L8.95418182,5.44757143 C8.95418182,5.44757143 7.20104727,6.37585714 5.184,6.37585714 C3.16224,6.37585714 1.41381818,5.44757143 1.41381818,5.44757143 Z" id="Path" fill="#965353"></path>
                        <path d="M7.992,3.249 C8.5161456,3.249 8.9424,3.66533614 8.9424,4.17728571 L8.9424,5.10557143 L10.368,6.498 L10.368,4.17728571 C10.368,2.89625143 9.303552,1.85657143 7.992,1.85657143 L7.992,0 L6.5664,0 L6.5664,1.85657143 C6.5664,2.62565614 7.2045936,3.249 7.992,3.249 Z" id="Path" fill="#844747"></path>
                    </g>
                </g>
                <g id="Group" transform="translate(0.000000, 11.970000)">
                    <path d="M16.2432,5.13 L16.2432,7.524 C16.2432,7.7121 16.091136,7.866 15.8976,7.866 L1.3824,7.866 C1.19232,7.866 1.0368,7.7121 1.0368,7.524 L1.0368,5.13 C1.0368,3.61836 2.274048,2.394 3.8016,2.394 L6.2208,2.394 L11.0592,2.394 L13.4784,2.394 C15.005952,2.394 16.2432,3.61836 16.2432,5.13 Z" id="Path" fill="#FCBA04" fill-rule="nonzero"></path>
                    <path d="M8.64,1.52058462 C9.635328,1.52058462 10.57536,1.29433846 11.4048,0.8892 L11.4048,2.57289231 L10.29888,3.6252 L8.64,3.09904615 L6.98112,3.6252 L5.8752,2.57289231 L5.8752,0.8892 C6.70464,1.29433846 7.644672,1.52058462 8.64,1.52058462 Z" id="Path" fill="#FFD971" fill-rule="nonzero"></path>
                    <path d="M13.4784,2.394 L12.0946176,2.394 C13.6221696,2.394 14.8594176,3.61836 14.8594176,5.13 L14.8594176,7.524 C14.8594176,7.7121 14.7073536,7.866 14.5138176,7.866 L15.8976,7.866 C16.091136,7.866 16.2432,7.7121 16.2432,7.524 L16.2432,5.13 C16.2432,3.61836 15.005952,2.394 13.4784,2.394 Z" id="Path" fill="#DAA000" fill-rule="nonzero"></path>
                    <ellipse id="Oval" fill="#FFD971" cx="8.64" cy="4.104" rx="1" ry="1"></ellipse>
                    <ellipse id="Oval" fill="#FFD971" cx="8.64" cy="5.472" rx="1" ry="1"></ellipse>
                    <ellipse id="Oval" fill="#FFD971" cx="8.64" cy="6.84" rx="1" ry="1"></ellipse>
                </g>
            </g>
        </g>
    </g>
</svg>