<?xml version="1.0" encoding="UTF-8"?>
<svg width="185px" height="104px" viewBox="0 0 185 104" version="1.1" xmlns="http://www.w3.org/2000/svg" xmlns:xlink="http://www.w3.org/1999/xlink">
    <title>svg/proces-2</title>
    <g id="svg/proces-2" stroke="none" stroke-width="1" fill="none" fill-rule="evenodd">
        <g id="progress-line" transform="translate(36.500000, 51.821198)" fill="#CCD1D9">
            <rect id="Rectangle" x="0" y="0" width="3" height="1"></rect>
            <rect id="Rectangle-Copy-2" x="14" y="0" width="3" height="1"></rect>
            <rect id="Rectangle-Copy-4" x="28" y="0" width="3" height="1"></rect>
            <rect id="Rectangle-Copy-6" x="42" y="0" width="3" height="1"></rect>
            <rect id="Rectangle-Copy-8" x="56" y="0" width="3" height="1"></rect>
            <rect id="Rectangle-Copy-10" x="70" y="0" width="3" height="1"></rect>
            <rect id="Rectangle-Copy-12" x="84" y="0" width="3" height="1"></rect>
            <rect id="Rectangle-Copy-14" x="98" y="0" width="3" height="1"></rect>
            <rect id="Rectangle-Copy" x="7" y="0" width="3" height="1"></rect>
            <rect id="Rectangle-Copy-3" x="21" y="0" width="3" height="1"></rect>
            <rect id="Rectangle-Copy-5" x="35" y="0" width="3" height="1"></rect>
            <rect id="Rectangle-Copy-7" x="49" y="0" width="3" height="1"></rect>
            <rect id="Rectangle-Copy-9" x="63" y="0" width="3" height="1"></rect>
            <rect id="Rectangle-Copy-11" x="77" y="0" width="3" height="1"></rect>
            <rect id="Rectangle-Copy-13" x="91" y="0" width="3" height="1"></rect>
            <rect id="Rectangle-Copy-15" x="105" y="0" width="3" height="1"></rect>
        </g>
        <g id="item-feedback" transform="translate(12.400000, 34.400000)">
            <g id="item-bg" fill="#E8E9EB">
                <circle id="Oval" cx="17.6" cy="17.6" r="17.6"></circle>
            </g>
            <g id="Group" transform="translate(8.000000, 10.400000)">
                <rect id="Rectangle" fill="#FFFFFF" x="0" y="0" width="19.008" height="15.36"></rect>
                <path d="M9.212544,3.457728 L2.304,3.457728 C1.985472,3.457728 1.728,3.200256 1.728,2.881728 C1.728,2.5632 1.985472,2.305728 2.304,2.305728 L9.212544,2.305728 C9.531072,2.305728 9.788544,2.5632 9.788544,2.881728 C9.788544,3.200256 9.531072,3.457728 9.212544,3.457728 Z" id="Path" fill="#CCD1D9" fill-rule="nonzero"></path>
                <path d="M16.704,3.457728 L14.976,3.457728 C14.657472,3.457728 14.4,3.200256 14.4,2.881728 C14.4,2.5632 14.657472,2.305728 14.976,2.305728 L16.704,2.305728 C17.022528,2.305728 17.28,2.5632 17.28,2.881728 C17.28,3.200256 17.022528,3.457728 16.704,3.457728 Z" id="Path" fill="#CCD1D9" fill-rule="nonzero"></path>
                <path d="M6.329664,5.761728 L2.304,5.761728 C1.985472,5.761728 1.728,5.504256 1.728,5.185728 C1.728,4.8672 1.985472,4.609728 2.304,4.609728 L6.329664,4.609728 C6.648192,4.609728 6.905664,4.8672 6.905664,5.185728 C6.905664,5.504256 6.648192,5.761728 6.329664,5.761728 Z" id="Path" fill="#CCD1D9" fill-rule="nonzero"></path>
                <path d="M16.704,5.761728 L14.976,5.761728 C14.657472,5.761728 14.4,5.504256 14.4,5.185728 C14.4,4.8672 14.657472,4.609728 14.976,4.609728 L16.704,4.609728 C17.022528,4.609728 17.28,4.8672 17.28,5.185728 C17.28,5.504256 17.022528,5.761728 16.704,5.761728 Z" id="Path" fill="#CCD1D9" fill-rule="nonzero"></path>
                <path d="M8.059392,8.065728 L2.304,8.065728 C1.985472,8.065728 1.728,7.808256 1.728,7.489728 C1.728,7.1712 1.985472,6.913728 2.304,6.913728 L8.059392,6.913728 C8.37792,6.913728 8.635392,7.1712 8.635392,7.489728 C8.635392,7.808256 8.37792,8.065728 8.059392,8.065728 Z" id="Path" fill="#CCD1D9" fill-rule="nonzero"></path>
                <path d="M16.704,8.065728 L14.976,8.065728 C14.657472,8.065728 14.4,7.808256 14.4,7.489728 C14.4,7.1712 14.657472,6.913728 14.976,6.913728 L16.704,6.913728 C17.022528,6.913728 17.28,7.1712 17.28,7.489728 C17.28,7.808256 17.022528,8.065728 16.704,8.065728 Z" id="Path" fill="#CCD1D9" fill-rule="nonzero"></path>
                <path d="M11.518848,10.369728 L2.304,10.369728 C1.985472,10.369728 1.728,10.112256 1.728,9.793728 C1.728,9.4752 1.985472,9.217728 2.304,9.217728 L11.518848,9.217728 C11.837376,9.217728 12.094848,9.4752 12.094848,9.793728 C12.094848,10.112256 11.837376,10.369728 11.518848,10.369728 Z" id="Path" fill="#CCD1D9" fill-rule="nonzero"></path>
                <path d="M16.704,10.369728 L14.976,10.369728 C14.657472,10.369728 14.4,10.112256 14.4,9.793728 C14.4,9.4752 14.657472,9.217728 14.976,9.217728 L16.704,9.217728 C17.022528,9.217728 17.28,9.4752 17.28,9.793728 C17.28,10.112256 17.022528,10.369728 16.704,10.369728 Z" id="Path" fill="#CCD1D9" fill-rule="nonzero"></path>
                <path d="M8.059392,12.673728 L2.591424,12.673728 C2.272896,12.673728 2.015424,12.416256 2.015424,12.097728 C2.015424,11.7792 2.272896,11.521728 2.591424,11.521728 L8.059392,11.521728 C8.37792,11.521728 8.635392,11.7792 8.635392,12.097728 C8.635392,12.416256 8.37792,12.673728 8.059392,12.673728 Z" id="Path" fill="#CCD1D9" fill-rule="nonzero"></path>
            </g>
        </g>
        <g id="item-feedback" transform="translate(76.400000, 34.400000)">
            <g id="item-bg" fill="#E8E9EB">
                <circle id="Oval" cx="17.6" cy="17.6" r="17.6"></circle>
            </g>
            <g id="Group" transform="translate(6.400000, 12.800000)">
                <rect id="Rectangle" fill="#00A676" x="0" y="0" width="22.8096" height="10.56" rx="1"></rect>
                <polygon id="Rectangle" fill="#00A676" transform="translate(11.040000, 10.080000) rotate(-135.000000) translate(-11.040000, -10.080000) " points="9.6 8.64 12.48 8.64 9.6 11.52"></polygon>
                <path d="M10.9014528,4.2624 L2.6112,4.2624 C2.2289664,4.2624 1.92,3.9534336 1.92,3.5712 C1.92,3.1889664 2.2289664,2.88 2.6112,2.88 L10.9014528,2.88 C11.2836864,2.88 11.5926528,3.1889664 11.5926528,3.5712 C11.5926528,3.9534336 11.2836864,4.2624 10.9014528,4.2624 Z" id="Path" fill="#FFFFFF" fill-rule="nonzero"></path>
                <path d="M18.9619968,4.2624 L14.1312,4.2624 C13.7489664,4.2624 13.44,3.9534336 13.44,3.5712 C13.44,3.1889664 13.7489664,2.88 14.1312,2.88 L18.9619968,2.88 C19.3442304,2.88 19.6531968,3.1889664 19.6531968,3.5712 C19.6531968,3.9534336 19.3442304,4.2624 18.9619968,4.2624 Z" id="Path" fill="#FFFFFF" fill-rule="nonzero"></path>
                <path d="M17.0419968,7.1424 L12.2112,7.1424 C11.8289664,7.1424 11.52,6.8334336 11.52,6.4512 C11.52,6.0689664 11.8289664,5.76 12.2112,5.76 L17.0419968,5.76 C17.4242304,5.76 17.7331968,6.0689664 17.7331968,6.4512 C17.7331968,6.8334336 17.4242304,7.1424 17.0419968,7.1424 Z" id="Path" fill="#FFFFFF" fill-rule="nonzero"></path>
                <path d="M9.5176704,7.1424 L2.6112,7.1424 C2.2289664,7.1424 1.92,6.8334336 1.92,6.4512 C1.92,6.0689664 2.2289664,5.76 2.6112,5.76 L9.5176704,5.76 C9.899904,5.76 10.2088704,6.0689664 10.2088704,6.4512 C10.2088704,6.8334336 9.899904,7.1424 9.5176704,7.1424 Z" id="Path" fill="#FFFFFF" fill-rule="nonzero"></path>
            </g>
        </g>
        <g id="Group" transform="translate(140.000000, 35.000000)">
            <rect id="Rectangle" fill="#00A676" x="0" y="0" width="34.135013" height="34" rx="17"></rect>
            <path d="M14.387967,23.7659405 L25.6314622,12.5668798 C25.807215,12.3918586 25.807215,12.1080236 25.6314622,11.9329659 L24.5707924,10.8764548 C24.3950395,10.7014336 24.1101141,10.7014336 23.9343612,10.8764548 L14.0697514,20.7020475 L10.4451554,17.0917878 C10.2694026,16.9167301 9.98447711,16.9167301 9.80868763,17.0917878 L8.74801785,18.1482623 C8.57226499,18.3233201 8.57226499,18.6071185 8.74801785,18.7822127 L13.7515358,23.7659405 C13.9272521,23.9409617 14.2121775,23.9409617 14.387967,23.7659405 Z" id="check" fill="#FFFFFF" fill-rule="nonzero"></path>
        </g>
    </g>
</svg>