<?xml version="1.0" encoding="UTF-8"?>
<svg width="185px" height="104px" viewBox="0 0 185 104" version="1.1" xmlns="http://www.w3.org/2000/svg" xmlns:xlink="http://www.w3.org/1999/xlink">
    <title>svg/proces-3</title>
    <g id="svg/proces-3" stroke="none" stroke-width="1" fill="none" fill-rule="evenodd">
        <g id="progress-line" transform="translate(40.000000, 34.000000)" fill="#CCD1D9">
            <rect id="Rectangle" x="0" y="0" width="3" height="1"></rect>
            <rect id="Rectangle-Copy-2" x="14" y="0" width="3" height="1"></rect>
            <rect id="Rectangle-Copy-4" x="28" y="0" width="3" height="1"></rect>
            <rect id="Rectangle-Copy-6" x="42" y="0" width="3" height="1"></rect>
            <rect id="Rectangle-Copy-8" x="56" y="0" width="3" height="1"></rect>
            <rect id="Rectangle-Copy-10" x="70" y="0" width="3" height="1"></rect>
            <rect id="Rectangle-Copy-12" x="84" y="0" width="3" height="1"></rect>
            <rect id="Rectangle-Copy-14" x="98" y="0" width="3" height="1"></rect>
            <rect id="Rectangle-Copy" x="7" y="0" width="3" height="1"></rect>
            <rect id="Rectangle-Copy-3" x="21" y="0" width="3" height="1"></rect>
            <rect id="Rectangle-Copy-5" x="35" y="0" width="3" height="1"></rect>
            <rect id="Rectangle-Copy-7" x="49" y="0" width="3" height="1"></rect>
            <rect id="Rectangle-Copy-9" x="63" y="0" width="3" height="1"></rect>
            <rect id="Rectangle-Copy-11" x="77" y="0" width="3" height="1"></rect>
            <rect id="Rectangle-Copy-13" x="91" y="0" width="3" height="1"></rect>
            <rect id="Rectangle-Copy-15" x="105" y="0" width="3" height="1"></rect>
        </g>
        <g id="item-feedback" transform="translate(13.040000, 19.040000)">
            <g id="item-bg" fill="#E8E9EB">
                <circle id="Oval" cx="14.96" cy="14.96" r="14.96"></circle>
            </g>
            <g id="Group" transform="translate(6.800000, 8.840000)">
                <rect id="Rectangle" fill="#FFFFFF" x="0" y="0" width="16.1568" height="13.056"></rect>
                <path d="M7.8306624,2.9390688 L1.9584,2.9390688 C1.6876512,2.9390688 1.4688,2.7202176 1.4688,2.4494688 C1.4688,2.17872 1.6876512,1.9598688 1.9584,1.9598688 L7.8306624,1.9598688 C8.1014112,1.9598688 8.3202624,2.17872 8.3202624,2.4494688 C8.3202624,2.7202176 8.1014112,2.9390688 7.8306624,2.9390688 Z" id="Path" fill="#CCD1D9" fill-rule="nonzero"></path>
                <path d="M14.1984,2.9390688 L12.7296,2.9390688 C12.4588512,2.9390688 12.24,2.7202176 12.24,2.4494688 C12.24,2.17872 12.4588512,1.9598688 12.7296,1.9598688 L14.1984,1.9598688 C14.4691488,1.9598688 14.688,2.17872 14.688,2.4494688 C14.688,2.7202176 14.4691488,2.9390688 14.1984,2.9390688 Z" id="Path" fill="#CCD1D9" fill-rule="nonzero"></path>
                <path d="M5.3802144,4.8974688 L1.9584,4.8974688 C1.6876512,4.8974688 1.4688,4.6786176 1.4688,4.4078688 C1.4688,4.13712 1.6876512,3.9182688 1.9584,3.9182688 L5.3802144,3.9182688 C5.6509632,3.9182688 5.8698144,4.13712 5.8698144,4.4078688 C5.8698144,4.6786176 5.6509632,4.8974688 5.3802144,4.8974688 Z" id="Path" fill="#CCD1D9" fill-rule="nonzero"></path>
                <path d="M14.1984,4.8974688 L12.7296,4.8974688 C12.4588512,4.8974688 12.24,4.6786176 12.24,4.4078688 C12.24,4.13712 12.4588512,3.9182688 12.7296,3.9182688 L14.1984,3.9182688 C14.4691488,3.9182688 14.688,4.13712 14.688,4.4078688 C14.688,4.6786176 14.4691488,4.8974688 14.1984,4.8974688 Z" id="Path" fill="#CCD1D9" fill-rule="nonzero"></path>
                <path d="M6.8504832,6.8558688 L1.9584,6.8558688 C1.6876512,6.8558688 1.4688,6.6370176 1.4688,6.3662688 C1.4688,6.09552 1.6876512,5.8766688 1.9584,5.8766688 L6.8504832,5.8766688 C7.121232,5.8766688 7.3400832,6.09552 7.3400832,6.3662688 C7.3400832,6.6370176 7.121232,6.8558688 6.8504832,6.8558688 Z" id="Path" fill="#CCD1D9" fill-rule="nonzero"></path>
                <path d="M14.1984,6.8558688 L12.7296,6.8558688 C12.4588512,6.8558688 12.24,6.6370176 12.24,6.3662688 C12.24,6.09552 12.4588512,5.8766688 12.7296,5.8766688 L14.1984,5.8766688 C14.4691488,5.8766688 14.688,6.09552 14.688,6.3662688 C14.688,6.6370176 14.4691488,6.8558688 14.1984,6.8558688 Z" id="Path" fill="#CCD1D9" fill-rule="nonzero"></path>
                <path d="M9.7910208,8.8142688 L1.9584,8.8142688 C1.6876512,8.8142688 1.4688,8.5954176 1.4688,8.3246688 C1.4688,8.05392 1.6876512,7.8350688 1.9584,7.8350688 L9.7910208,7.8350688 C10.0617696,7.8350688 10.2806208,8.05392 10.2806208,8.3246688 C10.2806208,8.5954176 10.0617696,8.8142688 9.7910208,8.8142688 Z" id="Path" fill="#CCD1D9" fill-rule="nonzero"></path>
                <path d="M14.1984,8.8142688 L12.7296,8.8142688 C12.4588512,8.8142688 12.24,8.5954176 12.24,8.3246688 C12.24,8.05392 12.4588512,7.8350688 12.7296,7.8350688 L14.1984,7.8350688 C14.4691488,7.8350688 14.688,8.05392 14.688,8.3246688 C14.688,8.5954176 14.4691488,8.8142688 14.1984,8.8142688 Z" id="Path" fill="#CCD1D9" fill-rule="nonzero"></path>
                <path d="M6.8504832,10.7726688 L2.2027104,10.7726688 C1.9319616,10.7726688 1.7131104,10.5538176 1.7131104,10.2830688 C1.7131104,10.01232 1.9319616,9.7934688 2.2027104,9.7934688 L6.8504832,9.7934688 C7.121232,9.7934688 7.3400832,10.01232 7.3400832,10.2830688 C7.3400832,10.5538176 7.121232,10.7726688 6.8504832,10.7726688 Z" id="Path" fill="#CCD1D9" fill-rule="nonzero"></path>
            </g>
        </g>
        <g id="item-feedback-copy" transform="translate(79.040000, 19.040000)">
            <g id="item-bg" fill="#E8E9EB">
                <circle id="Oval" cx="14.96" cy="14.96" r="14.96"></circle>
            </g>
            <g id="Group" transform="translate(5.440000, 10.880000)">
                <rect id="Rectangle" fill="#00A676" x="0" y="0" width="19.38816" height="8.976" rx="0.5"></rect>
                <polygon id="Rectangle" fill="#00A676" transform="translate(9.384000, 8.568000) rotate(-135.000000) translate(-9.384000, -8.568000) " points="8.16 7.344 10.608 7.344 8.16 9.792"></polygon>
                <path d="M9.26623488,3.62304 L2.21952,3.62304 C1.89462144,3.62304 1.632,3.36041856 1.632,3.03552 C1.632,2.71062144 1.89462144,2.448 2.21952,2.448 L9.26623488,2.448 C9.59113344,2.448 9.85375488,2.71062144 9.85375488,3.03552 C9.85375488,3.36041856 9.59113344,3.62304 9.26623488,3.62304 Z" id="Path" fill="#FFFFFF" fill-rule="nonzero"></path>
                <path d="M16.1176973,3.62304 L12.01152,3.62304 C11.6866214,3.62304 11.424,3.36041856 11.424,3.03552 C11.424,2.71062144 11.6866214,2.448 12.01152,2.448 L16.1176973,2.448 C16.4425958,2.448 16.7052173,2.71062144 16.7052173,3.03552 C16.7052173,3.36041856 16.4425958,3.62304 16.1176973,3.62304 Z" id="Path" fill="#FFFFFF" fill-rule="nonzero"></path>
                <path d="M14.4856973,6.07104 L10.37952,6.07104 C10.0546214,6.07104 9.792,5.80841856 9.792,5.48352 C9.792,5.15862144 10.0546214,4.896 10.37952,4.896 L14.4856973,4.896 C14.8105958,4.896 15.0732173,5.15862144 15.0732173,5.48352 C15.0732173,5.80841856 14.8105958,6.07104 14.4856973,6.07104 Z" id="Path" fill="#FFFFFF" fill-rule="nonzero"></path>
                <path d="M8.09001984,6.07104 L2.21952,6.07104 C1.89462144,6.07104 1.632,5.80841856 1.632,5.48352 C1.632,5.15862144 1.89462144,4.896 2.21952,4.896 L8.09001984,4.896 C8.4149184,4.896 8.67753984,5.15862144 8.67753984,5.48352 C8.67753984,5.80841856 8.4149184,6.07104 8.09001984,6.07104 Z" id="Path" fill="#FFFFFF" fill-rule="nonzero"></path>
            </g>
        </g>
        <g id="Group" transform="translate(143.000000, 19.000000)">
            <rect id="Rectangle" fill="#00A676" x="0" y="0" width="30" height="30" rx="15"></rect>
            <path d="M13.0490514,20.880232 L22.8846905,10.6621245 C23.0384365,10.5024338 23.0384365,10.2434606 22.8846905,10.0837367 L21.9568327,9.11976802 C21.8030868,8.96007733 21.5538383,8.96007733 21.4000924,9.11976802 L12.7706813,18.084713 L9.59993966,14.7906847 C9.44619373,14.6309607 9.19694526,14.6309607 9.04316729,14.7906847 L8.11530945,15.7546201 C7.96156352,15.914344 7.96156352,16.1732839 8.11530945,16.3330412 L12.4923111,20.880232 C12.646025,21.0399227 12.8952735,21.0399227 13.0490514,20.880232 Z" id="check" fill="#FFFFFF" fill-rule="nonzero"></path>
        </g>
        <g id="teacher" transform="translate(83.500000, 60.000000)">
            <g id="face-white" transform="translate(3.500000, 8.000000)" fill-rule="nonzero">
                <path d="M15,0 L15,3.495 C15,6.57 13.15,9.215 10.5,10.37 C9.58,10.77 8.565,10.995 7.5,10.995 C6.435,10.995 5.42,10.77 4.5,10.37 C1.85,9.215 0,6.57 0,3.495 L0,0 L15,0 Z" id="Path" fill="#EAC6BB"></path>
                <path d="M12.998,0 L12.998,3.495 C12.998,6.57 11.148,9.215 8.498,10.37 C7.872,10.6425 7.199,10.8255 6.499,10.92 C6.8275,10.964 7.16,10.995 7.5,10.995 C8.565,10.995 9.58,10.77 10.5,10.37 C13.15,9.215 15,6.57 15,3.495 L15,0 L12.998,0 Z" id="Path" fill="#D3B1A9"></path>
                <path d="M10.5,10.37 L10.5,16.995 L4.5,16.995 L4.5,10.37 C5.42,10.77 6.435,10.995 7.5,10.995 C8.565,10.995 9.58,10.77 10.5,10.37 Z" id="Path" fill="#EAC6BB"></path>
            </g>
            <g id="hair-cap" transform="translate(3.500000, 0.000000)" fill-rule="nonzero">
                <g id="Group">
                    <path d="M2.04545455,7.96428571 L0,10 L0,6.10714286 C0,2.73464286 2.74159091,0 6.13636364,0 L11.5909091,0 L11.5909091,2.71428571 C13.4727273,2.71428571 15,4.23428571 15,6.10714286 L15,10 L12.9545455,7.96428571 C12.9545455,7.96428571 10.4181818,9.32142857 7.5,9.32142857 C4.575,9.32142857 2.04545455,7.96428571 2.04545455,7.96428571 Z" id="Path" fill="#965353"></path>
                    <path d="M11.5625,4.75 C12.3208125,4.75 12.9375,5.35867857 12.9375,6.10714286 L12.9375,7.46428571 L15,9.5 L15,6.10714286 C15,4.23428571 13.46,2.71428571 11.5625,2.71428571 L11.5625,0 L9.5,0 L9.5,2.71428571 C9.5,3.83867857 10.4233125,4.75 11.5625,4.75 Z" id="Path" fill="#844747"></path>
                </g>
            </g>
            <g id="body-coat" transform="translate(0.000000, 18.800000)">
                <path d="M22,6.2 L22,9.7 C22,9.975 21.78,10.2 21.5,10.2 L0.5,10.2 C0.225,10.2 0,9.975 0,9.7 L0,6.2 C0,3.99 1.79,2.2 4,2.2 L7.5,2.2 L14.5,2.2 L18,2.2 C20.21,2.2 22,3.99 22,6.2 Z" id="Path" fill="#4A4A4A" fill-rule="nonzero"></path>
                <path d="M11,0.923076923 C12.44,0.923076923 13.8,0.592307692 15,0 L15,2.46153846 L13.4,4 L11,3.23076923 L8.6,4 L7,2.46153846 L7,0 C8.2,0.592307692 9.56,0.923076923 11,0.923076923 Z" id="Path" fill="#6D7278" fill-rule="nonzero"></path>
                <path d="M18,2.2 L15.998,2.2 C18.208,2.2 19.998,3.99 19.998,6.2 L19.998,9.7 C19.998,9.975 19.778,10.2 19.498,10.2 L21.5,10.2 C21.78,10.2 22,9.975 22,9.7 L22,6.2 C22,3.99 20.21,2.2 18,2.2 Z" id="Path" fill="#2D2D2A" fill-rule="nonzero"></path>
                <circle id="Oval" fill="#6D7278" cx="11" cy="4.7" r="1"></circle>
                <circle id="Oval" fill="#6D7278" cx="11" cy="6.7" r="1"></circle>
                <circle id="Oval" fill="#6D7278" cx="11" cy="8.7" r="1"></circle>
            </g>
        </g>
        <g id="teacher-copy" transform="translate(17.500000, 59.000000)">
            <g id="hair-cap" transform="translate(2.000000, 0.000000)">
                <path d="M9,0 C13.9725,0 18,3.58 18,8 L16.3125,8 L15.75,8 L13.5,8 L11.25,8 L9,8 L6.75,8 L4.5,8 L2.25,8 L1.6875,8 L0,8 C0,3.58 4.0275,0 9,0 Z" id="Path" fill="#965353" fill-rule="nonzero"></path>
                <rect id="Rectangle" fill="#844747" x="0" y="8" width="18" height="20.5"></rect>
                <path d="M8.85766528,0 C8.56796754,0 8.28226958,0.0145 8,0.038 C12.6477344,0.4165 16.2840981,3.8335 16.2840981,8 L16.2858122,8 L18,8 C18,3.58 13.9088052,0 8.85766528,0 Z" id="Path" fill="#844747" fill-rule="nonzero"></path>
            </g>
            <g id="face-white" transform="translate(3.500000, 8.000000)" fill-rule="nonzero">
                <path d="M15,0 L15,3.495 C15,6.57 13.15,9.215 10.5,10.37 C9.58,10.77 8.565,10.995 7.5,10.995 C6.435,10.995 5.42,10.77 4.5,10.37 C1.85,9.215 0,6.57 0,3.495 L0,0 L15,0 Z" id="Path" fill="#EAC6BB"></path>
                <path d="M12.998,0 L12.998,3.495 C12.998,6.57 11.148,9.215 8.498,10.37 C7.872,10.6425 7.199,10.8255 6.499,10.92 C6.8275,10.964 7.16,10.995 7.5,10.995 C8.565,10.995 9.58,10.77 10.5,10.37 C13.15,9.215 15,6.57 15,3.495 L15,0 L12.998,0 Z" id="Path" fill="#D3B1A9"></path>
                <path d="M10.5,10.37 L10.5,16.995 L4.5,16.995 L4.5,10.37 C5.42,10.77 6.435,10.995 7.5,10.995 C8.565,10.995 9.58,10.77 10.5,10.37 Z" id="Path" fill="#EAC6BB"></path>
            </g>
            <path d="M22,26 L22,29.5 C22,29.775 21.78,30 21.5,30 L0.5,30 C0.225,30 0,29.775 0,29.5 L0,26 C0,23.79 1.79,22 4,22 L7.5,22 L14.5,22 L18,22 C20.21,22 22,23.79 22,26 Z" id="Path" fill="#27BAFF" fill-rule="nonzero"></path>
            <path d="M11,20.7230769 C12.44,20.7230769 13.8,20.3923077 15,19.8 L15,22.2615385 L13.4,23.8 L11,23.0307692 L8.6,23.8 L7,22.2615385 L7,19.8 C8.2,20.3923077 9.56,20.7230769 11,20.7230769 Z" id="Path" fill="#A0D6F0" fill-rule="nonzero"></path>
            <path d="M18,22 L15.998,22 C18.208,22 19.998,23.79 19.998,26 L19.998,29.5 C19.998,29.775 19.778,30 19.498,30 L21.5,30 C21.78,30 22,29.775 22,29.5 L22,26 C22,23.79 20.21,22 18,22 Z" id="Path" fill="#22A7E5" fill-rule="nonzero"></path>
            <circle id="Oval" fill="#A0D6F0" cx="11" cy="24.5" r="1"></circle>
        </g>
        <g id="teacher-copy-2" transform="translate(146.500000, 60.000000)">
            <g id="hair-cap" transform="translate(2.000000, 0.000000)">
                <path d="M9,0 C13.9725,0 18,3.58 18,8 L16.3125,8 L15.75,8 L13.5,8 L11.25,8 L9,8 L6.75,8 L4.5,8 L2.25,8 L1.6875,8 L0,8 C0,3.58 4.0275,0 9,0 Z" id="Path" fill="#965353" fill-rule="nonzero"></path>
                <rect id="Rectangle" fill="#844747" x="0" y="8" width="18" height="20.5"></rect>
                <path d="M8.85766528,0 C8.56796754,0 8.28226958,0.0145 8,0.038 C12.6477344,0.4165 16.2840981,3.8335 16.2840981,8 L16.2858122,8 L18,8 C18,3.58 13.9088052,0 8.85766528,0 Z" id="Path" fill="#844747" fill-rule="nonzero"></path>
            </g>
            <g id="face-white" transform="translate(3.500000, 8.000000)" fill-rule="nonzero">
                <path d="M15,0 L15,3.495 C15,6.57 13.15,9.215 10.5,10.37 C9.58,10.77 8.565,10.995 7.5,10.995 C6.435,10.995 5.42,10.77 4.5,10.37 C1.85,9.215 0,6.57 0,3.495 L0,0 L15,0 Z" id="Path" fill="#EAC6BB"></path>
                <path d="M12.998,0 L12.998,3.495 C12.998,6.57 11.148,9.215 8.498,10.37 C7.872,10.6425 7.199,10.8255 6.499,10.92 C6.8275,10.964 7.16,10.995 7.5,10.995 C8.565,10.995 9.58,10.77 10.5,10.37 C13.15,9.215 15,6.57 15,3.495 L15,0 L12.998,0 Z" id="Path" fill="#D3B1A9"></path>
                <path d="M10.5,10.37 L10.5,16.995 L4.5,16.995 L4.5,10.37 C5.42,10.77 6.435,10.995 7.5,10.995 C8.565,10.995 9.58,10.77 10.5,10.37 Z" id="Path" fill="#EAC6BB"></path>
            </g>
            <path d="M22,26 L22,29.5 C22,29.775 21.78,30 21.5,30 L0.5,30 C0.225,30 0,29.775 0,29.5 L0,26 C0,23.79 1.79,22 4,22 L7.5,22 L14.5,22 L18,22 C20.21,22 22,23.79 22,26 Z" id="Path" fill="#27BAFF" fill-rule="nonzero"></path>
            <path d="M11,20.7230769 C12.44,20.7230769 13.8,20.3923077 15,19.8 L15,22.2615385 L13.4,23.8 L11,23.0307692 L8.6,23.8 L7,22.2615385 L7,19.8 C8.2,20.3923077 9.56,20.7230769 11,20.7230769 Z" id="Path" fill="#A0D6F0" fill-rule="nonzero"></path>
            <path d="M18,22 L15.998,22 C18.208,22 19.998,23.79 19.998,26 L19.998,29.5 C19.998,29.775 19.778,30 19.498,30 L21.5,30 C21.78,30 22,29.775 22,29.5 L22,26 C22,23.79 20.21,22 18,22 Z" id="Path" fill="#22A7E5" fill-rule="nonzero"></path>
            <circle id="Oval" fill="#A0D6F0" cx="11" cy="24.5" r="1"></circle>
        </g>
    </g>
</svg>