<?xml version="1.0" encoding="UTF-8"?>
<svg width="185px" height="104px" viewBox="0 0 185 104" version="1.1" xmlns="http://www.w3.org/2000/svg" xmlns:xlink="http://www.w3.org/1999/xlink">
    <title>svg/proces-2</title>
    <g id="svg/proces-2" stroke="none" stroke-width="1" fill="none" fill-rule="evenodd">
        <g id="progress-line" transform="translate(39.500000, 55.821198)" fill="#CCD1D9">
            <rect id="Rectangle" x="0" y="0" width="3" height="1"></rect>
            <rect id="Rectangle-Copy-2" x="14" y="0" width="3" height="1"></rect>
            <rect id="Rectangle-Copy-4" x="28" y="0" width="3" height="1"></rect>
            <rect id="Rectangle-Copy-6" x="42" y="0" width="3" height="1"></rect>
            <rect id="Rectangle-Copy-8" x="56" y="0" width="3" height="1"></rect>
            <rect id="Rectangle-Copy-10" x="70" y="0" width="3" height="1"></rect>
            <rect id="Rectangle-Copy-12" x="84" y="0" width="3" height="1"></rect>
            <rect id="Rectangle-Copy-14" x="98" y="0" width="3" height="1"></rect>
            <rect id="Rectangle-Copy" x="7" y="0" width="3" height="1"></rect>
            <rect id="Rectangle-Copy-3" x="21" y="0" width="3" height="1"></rect>
            <rect id="Rectangle-Copy-5" x="35" y="0" width="3" height="1"></rect>
            <rect id="Rectangle-Copy-7" x="49" y="0" width="3" height="1"></rect>
            <rect id="Rectangle-Copy-9" x="63" y="0" width="3" height="1"></rect>
            <rect id="Rectangle-Copy-11" x="77" y="0" width="3" height="1"></rect>
            <rect id="Rectangle-Copy-13" x="91" y="0" width="3" height="1"></rect>
            <rect id="Rectangle-Copy-15" x="105" y="0" width="3" height="1"></rect>
        </g>
        <g id="item-feedback" transform="translate(9.400000, 38.400000)">
            <g id="item-bg" fill="#E8E9EB">
                <circle id="Oval" cx="17.6" cy="17.6" r="17.6"></circle>
            </g>
            <g id="Group" transform="translate(8.000000, 10.400000)">
                <rect id="Rectangle" fill="#FFFFFF" x="0" y="0" width="19.008" height="15.36"></rect>
                <path d="M9.212544,3.457728 L2.304,3.457728 C1.985472,3.457728 1.728,3.200256 1.728,2.881728 C1.728,2.5632 1.985472,2.305728 2.304,2.305728 L9.212544,2.305728 C9.531072,2.305728 9.788544,2.5632 9.788544,2.881728 C9.788544,3.200256 9.531072,3.457728 9.212544,3.457728 Z" id="Path" fill="#CCD1D9" fill-rule="nonzero"></path>
                <path d="M16.704,3.457728 L14.976,3.457728 C14.657472,3.457728 14.4,3.200256 14.4,2.881728 C14.4,2.5632 14.657472,2.305728 14.976,2.305728 L16.704,2.305728 C17.022528,2.305728 17.28,2.5632 17.28,2.881728 C17.28,3.200256 17.022528,3.457728 16.704,3.457728 Z" id="Path" fill="#CCD1D9" fill-rule="nonzero"></path>
                <path d="M6.329664,5.761728 L2.304,5.761728 C1.985472,5.761728 1.728,5.504256 1.728,5.185728 C1.728,4.8672 1.985472,4.609728 2.304,4.609728 L6.329664,4.609728 C6.648192,4.609728 6.905664,4.8672 6.905664,5.185728 C6.905664,5.504256 6.648192,5.761728 6.329664,5.761728 Z" id="Path" fill="#CCD1D9" fill-rule="nonzero"></path>
                <path d="M16.704,5.761728 L14.976,5.761728 C14.657472,5.761728 14.4,5.504256 14.4,5.185728 C14.4,4.8672 14.657472,4.609728 14.976,4.609728 L16.704,4.609728 C17.022528,4.609728 17.28,4.8672 17.28,5.185728 C17.28,5.504256 17.022528,5.761728 16.704,5.761728 Z" id="Path" fill="#CCD1D9" fill-rule="nonzero"></path>
                <path d="M8.059392,8.065728 L2.304,8.065728 C1.985472,8.065728 1.728,7.808256 1.728,7.489728 C1.728,7.1712 1.985472,6.913728 2.304,6.913728 L8.059392,6.913728 C8.37792,6.913728 8.635392,7.1712 8.635392,7.489728 C8.635392,7.808256 8.37792,8.065728 8.059392,8.065728 Z" id="Path" fill="#CCD1D9" fill-rule="nonzero"></path>
                <path d="M16.704,8.065728 L14.976,8.065728 C14.657472,8.065728 14.4,7.808256 14.4,7.489728 C14.4,7.1712 14.657472,6.913728 14.976,6.913728 L16.704,6.913728 C17.022528,6.913728 17.28,7.1712 17.28,7.489728 C17.28,7.808256 17.022528,8.065728 16.704,8.065728 Z" id="Path" fill="#CCD1D9" fill-rule="nonzero"></path>
                <path d="M11.518848,10.369728 L2.304,10.369728 C1.985472,10.369728 1.728,10.112256 1.728,9.793728 C1.728,9.4752 1.985472,9.217728 2.304,9.217728 L11.518848,9.217728 C11.837376,9.217728 12.094848,9.4752 12.094848,9.793728 C12.094848,10.112256 11.837376,10.369728 11.518848,10.369728 Z" id="Path" fill="#CCD1D9" fill-rule="nonzero"></path>
                <path d="M16.704,10.369728 L14.976,10.369728 C14.657472,10.369728 14.4,10.112256 14.4,9.793728 C14.4,9.4752 14.657472,9.217728 14.976,9.217728 L16.704,9.217728 C17.022528,9.217728 17.28,9.4752 17.28,9.793728 C17.28,10.112256 17.022528,10.369728 16.704,10.369728 Z" id="Path" fill="#CCD1D9" fill-rule="nonzero"></path>
                <path d="M8.059392,12.673728 L2.591424,12.673728 C2.272896,12.673728 2.015424,12.416256 2.015424,12.097728 C2.015424,11.7792 2.272896,11.521728 2.591424,11.521728 L8.059392,11.521728 C8.37792,11.521728 8.635392,11.7792 8.635392,12.097728 C8.635392,12.416256 8.37792,12.673728 8.059392,12.673728 Z" id="Path" fill="#CCD1D9" fill-rule="nonzero"></path>
            </g>
        </g>
        <rect id="Rectangle" fill="#E8E9EB" x="60" y="20" width="67" height="67" rx="1"></rect>
        <g id="Group" transform="translate(142.000000, 39.000000)">
            <rect id="Rectangle" fill="#00A676" x="0" y="0" width="34.135013" height="34" rx="17"></rect>
            <path d="M14.387967,23.7659405 L25.6314622,12.5668798 C25.807215,12.3918586 25.807215,12.1080236 25.6314622,11.9329659 L24.5707924,10.8764548 C24.3950395,10.7014336 24.1101141,10.7014336 23.9343612,10.8764548 L14.0697514,20.7020475 L10.4451554,17.0917878 C10.2694026,16.9167301 9.98447711,16.9167301 9.80868763,17.0917878 L8.74801785,18.1482623 C8.57226499,18.3233201 8.57226499,18.6071185 8.74801785,18.7822127 L13.7515358,23.7659405 C13.9272521,23.9409617 14.2121775,23.9409617 14.387967,23.7659405 Z" id="check" fill="#FFFFFF" fill-rule="nonzero"></path>
        </g>
        <g id="teacher" transform="translate(56.875000, 36.357345)">
            <g id="face-white" transform="translate(6.125000, 14.000000)" fill-rule="nonzero">
                <path d="M26.25,-1.77635684e-15 L26.25,6.11625 C26.25,11.4975 23.0125,16.12625 18.375,18.1475 C16.765,18.8475 14.98875,19.24125 13.125,19.24125 C11.26125,19.24125 9.485,18.8475 7.875,18.1475 C3.2375,16.12625 0,11.4975 0,6.11625 L0,-1.77635684e-15 L26.25,-1.77635684e-15 Z" id="Path" fill="#EAC6BB"></path>
                <path d="M22.7465,-1.77635684e-15 L22.7465,6.11625 C22.7465,11.4975 19.509,16.12625 14.8715,18.1475 C13.776,18.624375 12.59825,18.944625 11.37325,19.11 C11.948125,19.187 12.53,19.24125 13.125,19.24125 C14.98875,19.24125 16.765,18.8475 18.375,18.1475 C23.0125,16.12625 26.25,11.4975 26.25,6.11625 L26.25,-1.77635684e-15 L22.7465,-1.77635684e-15 Z" id="Path" fill="#D3B1A9"></path>
                <path d="M18.375,18.1475 L18.375,29.74125 L7.875,29.74125 L7.875,18.1475 C9.485,18.8475 11.26125,19.24125 13.125,19.24125 C14.98875,19.24125 16.765,18.8475 18.375,18.1475 Z" id="Path" fill="#EAC6BB"></path>
            </g>
            <g id="hair-cap" transform="translate(6.125000, 0.000000)" fill-rule="nonzero">
                <g id="Group">
                    <path d="M3.57954545,13.9375 L0,17.5 L0,10.6875 C0,4.785625 4.79778409,0 10.7386364,0 L20.2840909,0 L20.2840909,4.75 C23.5772727,4.75 26.25,7.41 26.25,10.6875 L26.25,17.5 L22.6704545,13.9375 C22.6704545,13.9375 18.2318182,16.3125 13.125,16.3125 C8.00625,16.3125 3.57954545,13.9375 3.57954545,13.9375 Z" id="Path" fill="#965353"></path>
                    <path d="M20.234375,8.3125 C21.5614219,8.3125 22.640625,9.3776875 22.640625,10.6875 L22.640625,13.0625 L26.25,16.625 L26.25,10.6875 C26.25,7.41 23.555,4.75 20.234375,4.75 L20.234375,0 L16.625,0 L16.625,4.75 C16.625,6.7176875 18.2407969,8.3125 20.234375,8.3125 Z" id="Path" fill="#844747"></path>
                </g>
            </g>
            <g id="body-coat" transform="translate(0.000000, 32.900000)">
                <path d="M38.5,10.85 L38.5,16.975 C38.5,17.45625 38.115,17.85 37.625,17.85 L0.875,17.85 C0.39375,17.85 0,17.45625 0,16.975 L0,10.85 C0,6.9825 3.1325,3.85 7,3.85 L13.125,3.85 L25.375,3.85 L31.5,3.85 C35.3675,3.85 38.5,6.9825 38.5,10.85 Z" id="Path" fill="#4A4A4A" fill-rule="nonzero"></path>
                <path d="M19.25,1.61538462 C21.77,1.61538462 24.15,1.03653846 26.25,0 L26.25,4.30769231 L23.45,7 L19.25,5.65384615 L15.05,7 L12.25,4.30769231 L12.25,0 C14.35,1.03653846 16.73,1.61538462 19.25,1.61538462 Z" id="Path" fill="#6D7278" fill-rule="nonzero"></path>
                <path d="M31.5,3.85 L27.9965,3.85 C31.864,3.85 34.9965,6.9825 34.9965,10.85 L34.9965,16.975 C34.9965,17.45625 34.6115,17.85 34.1215,17.85 L37.625,17.85 C38.115,17.85 38.5,17.45625 38.5,16.975 L38.5,10.85 C38.5,6.9825 35.3675,3.85 31.5,3.85 Z" id="Path" fill="#2D2D2A" fill-rule="nonzero"></path>
                <circle id="Oval" fill="#6D7278" cx="19.25" cy="8.225" r="1"></circle>
                <circle id="Oval" fill="#6D7278" cx="19.25" cy="11.725" r="1"></circle>
                <circle id="Oval" fill="#6D7278" cx="19.25" cy="15.225" r="1"></circle>
            </g>
        </g>
        <g id="Group" transform="translate(93.000000, 14.000000)">
            <rect id="Rectangle" fill="#00A676" x="0" y="0" width="36" height="42" rx="1"></rect>
            <polygon id="Rectangle" fill="#00A676" transform="translate(9.365517, 41.480486) rotate(-135.000000) translate(-9.365517, -41.480486) " points="6.44439655 38.5593655 12.2866379 38.5671241 6.45215517 44.4016069"></polygon>
            <path d="M22.1951846,7.808 L5.40027586,7.808 C4.62592331,7.808 4,7.180412 4,6.404 C4,5.627588 4.62592331,5 5.40027586,5 L22.1951846,5 C22.9695371,5 23.5954604,5.627588 23.5954604,6.404 C23.5954604,7.180412 22.9695371,7.808 22.1951846,7.808 Z" id="Path" fill="#FFFFFF" fill-rule="nonzero"></path>
            <path d="M29.6392723,36.808 L5.40027586,36.808 C4.62592331,36.808 4,36.180412 4,35.404 C4,34.627588 4.62592331,34 5.40027586,34 L29.6392723,34 C30.4136248,34 31.0395481,34.627588 31.0395481,35.404 C31.0395481,36.180412 30.4136248,36.808 29.6392723,36.808 Z" id="Path-Copy" fill="#FFFFFF" fill-rule="nonzero"></path>
            <path d="M24.1868039,19.808 L14.4002759,19.808 C13.6259233,19.808 13,19.180412 13,18.404 C13,17.627588 13.6259233,17 14.4002759,17 L24.1868039,17 C24.9611564,17 25.5870797,17.627588 25.5870797,18.404 C25.5870797,19.180412 24.9611564,19.808 24.1868039,19.808 Z" id="Path" fill="#FFFFFF" fill-rule="nonzero"></path>
            <path d="M10.3142262,19.808 L5.40027586,19.808 C4.62592331,19.808 4,19.180412 4,18.404 C4,17.627588 4.62592331,17 5.40027586,17 L10.3142262,17 C11.0885787,17 11.714502,17.627588 11.714502,18.404 C11.714502,19.180412 11.0885787,19.808 10.3142262,19.808 Z" id="Path-Copy-3" fill="#FFFFFF" fill-rule="nonzero"></path>
            <path d="M19.3918323,13.808 L5.40027586,13.808 C4.62592331,13.808 4,13.180412 4,12.404 C4,11.627588 4.62592331,11 5.40027586,11 L19.3918323,11 C20.1661848,11 20.7921081,11.627588 20.7921081,12.404 C20.7921081,13.180412 20.1661848,13.808 19.3918323,13.808 Z" id="Path" fill="#FFFFFF" fill-rule="nonzero"></path>
            <path d="M19.3918323,30.808 L5.40027586,30.808 C4.62592331,30.808 4,30.180412 4,29.404 C4,28.627588 4.62592331,28 5.40027586,28 L19.3918323,28 C20.1661848,28 20.7921081,28.627588 20.7921081,29.404 C20.7921081,30.180412 20.1661848,30.808 19.3918323,30.808 Z" id="Path-Copy-2" fill="#FFFFFF" fill-rule="nonzero"></path>
        </g>
    </g>
</svg>