<svg height="104" viewBox="0 0 185 104" width="185" xmlns="http://www.w3.org/2000/svg" xmlns:xlink="http://www.w3.org/1999/xlink"><defs><path id="a" d="m24.5 4c0 6.62-5.37 12-12 12s-12-5.38-12-12v-4c0 6.62 5.37 12 12 12 3.32 0 6.32-1.34 8.49-3.52 1.95-1.95 3.229-4.57 3.47-7.48h.04z"/><path id="b" d="m24.5 4c0 6.62-5.37 12-12 12s-12-5.38-12-12v-4c0 6.62 5.37 12 12 12 3.32 0 6.32-1.34 8.49-3.52 1.95-1.95 3.229-4.57 3.47-7.48h.04z"/><path id="c" d="m24.5 4c0 6.62-5.37 12-12 12s-12-5.38-12-12v-4c0 6.62 5.37 12 12 12 3.32 0 6.32-1.34 8.49-3.52 1.95-1.95 3.229-4.57 3.47-7.48h.04z"/><path id="d" d="m24.5 4c0 6.62-5.37 12-12 12s-12-5.38-12-12v-4c0 6.62 5.37 12 12 12 3.32 0 6.32-1.34 8.49-3.52 1.95-1.95 3.229-4.57 3.47-7.48h.04z"/><path id="e" d="m24.5 4c0 6.62-5.37 12-12 12s-12-5.38-12-12v-4c0 6.62 5.37 12 12 12 3.32 0 6.32-1.34 8.49-3.52 1.95-1.95 3.229-4.57 3.47-7.48h.04z"/><mask id="f" fill="#fff"><use fill="#fff" fill-rule="evenodd" xlink:href="#a"/></mask><mask id="g" fill="#fff"><use fill="#fff" fill-rule="evenodd" xlink:href="#b"/></mask><mask id="h" fill="#fff"><use fill="#fff" fill-rule="evenodd" xlink:href="#c"/></mask><mask id="i" fill="#fff"><use fill="#fff" fill-rule="evenodd" xlink:href="#d"/></mask><mask id="j" fill="#fff"><use fill="#fff" fill-rule="evenodd" xlink:href="#e"/></mask></defs><g fill="none" fill-rule="evenodd"><g transform="translate(100 56)"><g fill-rule="evenodd" transform="translate(0 12)"><use fill="#dba100" fill-rule="nonzero" xlink:href="#a"/><g fill="#fcba04"><path d="m3 7h1v6h-1z" mask="url(#f)"/><path d="m5 9h1v6h-1z" mask="url(#f)"/><path d="m7 10h1v6h-1z" mask="url(#f)"/><path d="m9 10h1v6h-1z" mask="url(#f)"/><path d="m11 10h1v6h-1z" mask="url(#f)"/><path d="m13 10h1v6h-1z" mask="url(#f)"/><path d="m15 10h1v6h-1z" mask="url(#f)"/><path d="m17 10h1v6h-1z" mask="url(#f)"/><path d="m19 9h1v6h-1z" mask="url(#f)"/><path d="m21 7h1v6h-1z" mask="url(#f)"/><path d="m23 3h1v7h-1z" mask="url(#f)"/><path d="m1 3h1v7h-1z" mask="url(#f)"/></g></g><path d="m12.5.5c-3.09888573 0-5.99562459 1.22273137-8.13644661 3.36355339s-3.36355339 5.03756088-3.36355339 8.13644661c0 6.3473763 5.14965906 11.5 11.5 11.5 3.1018291 0 5.9975842-1.2248363 8.1364466-3.3735534 1.9114275-1.9114275 3.0991417-4.4374148 3.3256068-7.1717145.0264463-.290909.0379466-.5968178.0379466-.9547321 0-6.35385763-5.1461424-11.5-11.5-11.5z" fill="#fcba04" fill-rule="nonzero" stroke="#dba100"/></g><g transform="translate(100 48)"><g fill-rule="evenodd" transform="translate(0 12)"><use fill="#dba100" fill-rule="nonzero" xlink:href="#b"/><g fill="#fcba04"><path d="m3 7h1v6h-1z" mask="url(#g)"/><path d="m5 9h1v6h-1z" mask="url(#g)"/><path d="m7 10h1v6h-1z" mask="url(#g)"/><path d="m9 10h1v6h-1z" mask="url(#g)"/><path d="m11 10h1v6h-1z" mask="url(#g)"/><path d="m13 10h1v6h-1z" mask="url(#g)"/><path d="m15 10h1v6h-1z" mask="url(#g)"/><path d="m17 10h1v6h-1z" mask="url(#g)"/><path d="m19 9h1v6h-1z" mask="url(#g)"/><path d="m21 7h1v6h-1z" mask="url(#g)"/><path d="m23 3h1v7h-1z" mask="url(#g)"/><path d="m1 3h1v7h-1z" mask="url(#g)"/></g></g><path d="m12.5.5c-3.09888573 0-5.99562459 1.22273137-8.13644661 3.36355339s-3.36355339 5.03756088-3.36355339 8.13644661c0 6.3473763 5.14965906 11.5 11.5 11.5 3.1018291 0 5.9975842-1.2248363 8.1364466-3.3735534 1.9114275-1.9114275 3.0991417-4.4374148 3.3256068-7.1717145.0264463-.290909.0379466-.5968178.0379466-.9547321 0-6.35385763-5.1461424-11.5-11.5-11.5z" fill="#fcba04" fill-rule="nonzero" stroke="#dba100"/></g><g transform="translate(69 56)"><g fill-rule="evenodd" transform="translate(0 12)"><use fill="#dba100" fill-rule="nonzero" xlink:href="#c"/><g fill="#fcba04"><path d="m3 7h1v6h-1z" mask="url(#h)"/><path d="m5 9h1v6h-1z" mask="url(#h)"/><path d="m7 10h1v6h-1z" mask="url(#h)"/><path d="m9 10h1v6h-1z" mask="url(#h)"/><path d="m11 10h1v6h-1z" mask="url(#h)"/><path d="m13 10h1v6h-1z" mask="url(#h)"/><path d="m15 10h1v6h-1z" mask="url(#h)"/><path d="m17 10h1v6h-1z" mask="url(#h)"/><path d="m19 9h1v6h-1z" mask="url(#h)"/><path d="m21 7h1v6h-1z" mask="url(#h)"/><path d="m23 3h1v7h-1z" mask="url(#h)"/><path d="m1 3h1v7h-1z" mask="url(#h)"/></g></g><path d="m12.5.5c-3.09888573 0-5.99562459 1.22273137-8.13644661 3.36355339s-3.36355339 5.03756088-3.36355339 8.13644661c0 6.3473763 5.14965906 11.5 11.5 11.5 3.1018291 0 5.9975842-1.2248363 8.1364466-3.3735534 1.9114275-1.9114275 3.0991417-4.4374148 3.3256068-7.1717145.0264463-.290909.0379466-.5968178.0379466-.9547321 0-6.35385763-5.1461424-11.5-11.5-11.5z" fill="#fcba04" fill-rule="nonzero" stroke="#dba100"/></g><g transform="translate(69 48)"><g fill-rule="evenodd" transform="translate(0 12)"><use fill="#dba100" fill-rule="nonzero" xlink:href="#d"/><g fill="#fcba04"><path d="m3 7h1v6h-1z" mask="url(#i)"/><path d="m5 9h1v6h-1z" mask="url(#i)"/><path d="m7 10h1v6h-1z" mask="url(#i)"/><path d="m9 10h1v6h-1z" mask="url(#i)"/><path d="m11 10h1v6h-1z" mask="url(#i)"/><path d="m13 10h1v6h-1z" mask="url(#i)"/><path d="m15 10h1v6h-1z" mask="url(#i)"/><path d="m17 10h1v6h-1z" mask="url(#i)"/><path d="m19 9h1v6h-1z" mask="url(#i)"/><path d="m21 7h1v6h-1z" mask="url(#i)"/><path d="m23 3h1v7h-1z" mask="url(#i)"/><path d="m1 3h1v7h-1z" mask="url(#i)"/></g></g><path d="m12.5.5c-3.09888573 0-5.99562459 1.22273137-8.13644661 3.36355339s-3.36355339 5.03756088-3.36355339 8.13644661c0 6.3473763 5.14965906 11.5 11.5 11.5 3.1018291 0 5.9975842-1.2248363 8.1364466-3.3735534 1.9114275-1.9114275 3.0991417-4.4374148 3.3256068-7.1717145.0264463-.290909.0379466-.5968178.0379466-.9547321 0-6.35385763-5.1461424-11.5-11.5-11.5z" fill="#fcba04" fill-rule="nonzero" stroke="#dba100"/></g><g transform="translate(100 38)"><g fill-rule="evenodd" transform="translate(0 12)"><use fill="#dba100" fill-rule="nonzero" xlink:href="#e"/><g fill="#fcba04"><path d="m3 7h1v6h-1z" mask="url(#j)"/><path d="m5 9h1v6h-1z" mask="url(#j)"/><path d="m7 10h1v6h-1z" mask="url(#j)"/><path d="m9 10h1v6h-1z" mask="url(#j)"/><path d="m11 10h1v6h-1z" mask="url(#j)"/><path d="m13 10h1v6h-1z" mask="url(#j)"/><path d="m15 10h1v6h-1z" mask="url(#j)"/><path d="m17 10h1v6h-1z" mask="url(#j)"/><path d="m19 9h1v6h-1z" mask="url(#j)"/><path d="m21 7h1v6h-1z" mask="url(#j)"/><path d="m23 3h1v7h-1z" mask="url(#j)"/><path d="m1 3h1v7h-1z" mask="url(#j)"/></g></g><path d="m12.5.5c-3.09888573 0-5.99562459 1.22273137-8.13644661 3.36355339s-3.36355339 5.03756088-3.36355339 8.13644661c0 6.3473763 5.14965906 11.5 11.5 11.5 3.1018291 0 5.9975842-1.2248363 8.1364466-3.3735534 1.9114275-1.9114275 3.0991417-4.4374148 3.3256068-7.1717145.0264463-.290909.0379466-.5968178.0379466-.9547321 0-6.35385763-5.1461424-11.5-11.5-11.5z" fill="#fcba04" fill-rule="nonzero" stroke="#dba100"/></g><g fill-rule="nonzero"><g transform="translate(69 40)"><path d="m24 12v4c0 6.62-5.37 12-12 12s-12-5.38-12-12v-4c0 3.31 1.34 6.31 3.51 8.479s5.17 3.521 8.49 3.521c6.63 0 12-5.38 12-12z" fill="#ccd1d9"/><path d="m20.49 3.51c-2.17-2.17-5.17-3.51-8.49-3.51-6.63 0-12 5.37-12 12 0 3.31 1.34 6.31 3.51 8.479s5.17 3.521 8.49 3.521c6.63 0 12-5.38 12-12 0-3.31-1.34-6.31-3.51-8.49z" fill="#e6e9ed"/><path d="m20.49 3.51c-.236-.236-.487-.459-.742-.675l-16.908 16.907c.215.254.436.503.67.737.237.237.488.46.745.677l16.905-16.906c-.215-.254-.434-.504-.67-.74z" fill="#ccd1d9"/></g><g transform="translate(100 28)"><path d="m12.5 0c-3.32 0-6.32 1.34-8.49 3.51s-3.51 5.17-3.51 8.49c0 6.62 5.37 12 12 12 3.32 0 6.32-1.34 8.49-3.52 1.95-1.95 3.229-4.57 3.47-7.48.03-.33.04-.66.04-1 0-6.63-5.37-12-12-12z" fill="#f06543"/><g fill="#ad3b1f"><path d="m24.5 16c0 6.62-5.37 12-12 12s-12-5.38-12-12v-4c0 6.62 5.37 12 12 12 3.32 0 6.32-1.34 8.49-3.52 1.95-1.95 3.229-4.57 3.47-7.48h.04z"/><path d="m4.752 2.835c-.255.216-.506.438-.742.675-.235.235-.457.485-.672.739l16.909 16.909c.256-.217.507-.44.743-.678.234-.234.459-.48.674-.734z"/></g></g></g></g></svg>