<?xml version="1.0" encoding="UTF-8"?>
<svg width="185px" height="104px" viewBox="0 0 185 104" version="1.1" xmlns="http://www.w3.org/2000/svg" xmlns:xlink="http://www.w3.org/1999/xlink">
    <title>svg/quality</title>
    <g id="svg/quality" stroke="none" stroke-width="1" fill="none" fill-rule="evenodd">
        <g id="Group" transform="translate(46.000000, 5.000000)">
            <g transform="translate(5.611940, 53.102564)" id="doctor-1">
                <g id="Group" transform="translate(0.000000, 11.179487)" fill-rule="nonzero">
                    <g id="face-white">
                        <path d="M28.0597015,3.72351722e-15 L28.0597015,4.88403846 C28.0597015,9.18115385 25.4641791,12.8773718 21.7462687,14.4914103 C20.4555224,15.0503846 19.0314925,15.3648077 17.5373134,15.3648077 C16.0431343,15.3648077 14.6191045,15.0503846 13.3283582,14.4914103 C9.61044776,12.8773718 7.01492537,9.18115385 7.01492537,4.88403846 L7.01492537,3.72351722e-15 L28.0597015,3.72351722e-15 Z" id="Path" fill="#EAC6BB"></path>
                        <path d="M25.2509254,3.72351722e-15 L25.2509254,4.88403846 C25.2509254,9.18115385 22.655403,12.8773718 18.9374925,14.4914103 C18.0592239,14.8722115 17.1150149,15.1279423 16.1329254,15.26 C16.593806,15.3214872 17.0602985,15.3648077 17.5373134,15.3648077 C19.0314925,15.3648077 20.4555224,15.0503846 21.7462687,14.4914103 C25.4641791,12.8773718 28.0597015,9.18115385 28.0597015,4.88403846 L28.0597015,3.72351722e-15 L25.2509254,3.72351722e-15 Z" id="Path" fill="#D3B1A9"></path>
                        <path d="M21.7462687,14.4914103 L21.7462687,23.7494231 L13.3283582,23.7494231 L13.3283582,14.4914103 C14.6191045,15.0503846 16.0431343,15.3648077 17.5373134,15.3648077 C19.0314925,15.3648077 20.4555224,15.0503846 21.7462687,14.4914103 Z" id="Path" fill="#EAC6BB"></path>
                    </g>
                </g>
                <g id="Group" fill-rule="nonzero">
                    <g id="Group" transform="translate(7.014925, 0.000000)">
                        <path d="M0,6.52136752 C0,4.45937322 1.25333333,2.79487179 2.80597015,2.79487179 L2.80597015,10.2478632 C2.80597015,12.3098575 1.55263682,13.974359 0,13.974359 L0,6.52136752 L0,6.52136752 Z" id="Path" fill="#E9573F"></path>
                        <path d="M21.0447761,10.4195749 L21.0447761,18.8653846 C21.0447761,16.502622 19.8389884,14.4196993 18.0049751,13.1693503 L18.0049751,13.1594269 C16.8599834,12.375478 15.461675,11.9190013 13.9519071,11.9190013 L13.9519071,11.8981622 L5.84577114,11.8981622 C4.16374793,11.8981622 2.80597015,11.9658619 2.80597015,10.3185767 L2.80597015,2.967098 C4.74131012,1.03203409 7.42646766,0 10.4054726,0 C16.2824212,0 21.0447761,4.66400019 21.0447761,10.4195749 Z" id="Path" fill="#F06543"></path>
                        <path d="M10.6542344,0 C10.130749,0 9.62111771,0.044655321 9.11940299,0.111142132 C14.1761333,0.813719183 18.0730812,5.15421638 18.0730812,10.4195749 L18.0730812,13.1574423 C18.0740708,13.1584346 18.0750603,13.1584346 18.0760499,13.1594269 L18.0760499,13.1693503 C19.8671814,14.4196993 21.0447761,16.502622 21.0447761,18.8653846 L21.0447761,10.4195749 C21.0447761,4.66400019 16.3937717,0 10.6542344,0 Z" id="Path" fill="#E9573F"></path>
                    </g>
                </g>
                <g id="Group" transform="translate(0.000000, 24.455128)" fill-rule="nonzero">
                    <g id="body-coat">
                        <path d="M32.9701493,10.4807692 L32.9701493,15.3717949 C32.9701493,15.7560897 32.6614925,16.0705128 32.2686567,16.0705128 L2.80597015,16.0705128 C2.42014925,16.0705128 2.10447761,15.7560897 2.10447761,15.3717949 L2.10447761,10.4807692 C2.10447761,7.3924359 4.6158209,4.89102564 7.71641791,4.89102564 L12.6268657,4.89102564 L13.3523231,4.89102564 L17.5373134,15.3717949 L21.7202115,4.89102564 L22.4477612,4.89102564 L27.358209,4.89102564 C30.458806,4.89102564 32.9701493,7.3924359 32.9701493,10.4807692 Z" id="Path" fill="#E6E9ED"></path>
                        <path d="M27.358209,4.89102564 L24.5494328,4.89102564 C27.6500299,4.89102564 30.1613731,7.3924359 30.1613731,10.4807692 L30.1613731,15.3717949 C30.1613731,15.7560897 29.8527164,16.0705128 29.4598806,16.0705128 L32.2686567,16.0705128 C32.6614925,16.0705128 32.9701493,15.7560897 32.9701493,15.3717949 L32.9701493,10.4807692 C32.9701493,7.3924359 30.458806,4.89102564 27.358209,4.89102564 Z" id="Path" fill="#CCD1D9"></path>
                        <path d="M21.7462687,4.89102564 L18.238806,16.0705128 L16.8358209,16.0705128 L13.3283582,4.89102564 L13.3283582,4.19230769 C13.3283582,5.73647436 15.2153731,6.98717949 17.5373134,6.98717949 C19.8592537,6.98717949 21.7462687,5.73647436 21.7462687,4.19230769 L21.7462687,4.89102564 Z" id="Path" fill="#00A676"></path>
                        <polygon id="Path" fill="#F5F7FA" points="13.3283582 4.89102564 16.8358209 16.0705128 15.4328358 16.0705128 11.2238806 10.4807692 12.6268657 9.08333333 10.5223881 6.28846154"></polygon>
                        <polygon id="Path" fill="#F5F7FA" points="18.238806 16.0705128 21.7462687 4.89102564 24.5522388 6.28846154 22.4477612 9.08333333 23.8507463 10.4807692 19.641791 16.0705128"></polygon>
                    </g>
                </g>
                <path d="" id="Path-2" stroke="#979797" stroke-width="0.7"></path>
            </g>
            <rect id="Rectangle" fill="#FCBA04" x="0" y="0" width="44.8955224" height="44.7179487" rx="1.4"></rect>
            <path d="M47.7096149,67.0741599 L53.3108613,67.0630607 C54.0840584,67.0615286 54.7121006,67.6870867 54.7136327,68.4602838 C54.7136364,68.4621333 54.7136364,68.4639827 54.7136327,68.4658321 L54.7025336,74.0670786 C54.7010057,74.8381098 54.0763418,75.4627738 53.3053105,75.4643017 L47.7040641,75.4754008 C46.9308669,75.4769329 46.3028248,74.8513749 46.3012926,74.0781777 C46.301289,74.0763283 46.301289,74.0744788 46.3012926,74.0726294 L46.3123918,68.471383 C46.3139196,67.7003517 46.9385836,67.0756877 47.7096149,67.0741599 Z" id="Rectangle" fill="#27BAFF" transform="translate(50.507463, 71.269231) rotate(-315.000000) translate(-50.507463, -71.269231) "></path>
            <rect id="Rectangle" fill="#00A676" x="49.1044776" y="0" width="44.8955224" height="44.7179487" rx="1.4"></rect>
            <rect id="Rectangle" fill="#27BAFF" x="49.1044776" y="48.9102564" width="44.8955224" height="44.7179487" rx="1.4"></rect>
            <path d="M19.6499134,39.1254419 L25.2511598,39.1143428 C26.024357,39.1128106 26.6523991,39.7383687 26.6539312,40.5115659 C26.6539349,40.5134153 26.6539349,40.5152648 26.6539312,40.5171142 L26.6428321,46.1183606 C26.6413042,46.8893919 26.0166403,47.5140559 25.245609,47.5155837 L19.6443626,47.5266829 C18.8711654,47.528215 18.2431233,46.9026569 18.2415912,46.1294598 C18.2415875,46.1276103 18.2415875,46.1257609 18.2415912,46.1239114 L18.2526903,40.522665 C18.2542181,39.7516338 18.8788821,39.1269698 19.6499134,39.1254419 Z" id="Rectangle" fill="#FCBA04" transform="translate(22.447761, 43.320513) rotate(-315.000000) translate(-22.447761, -43.320513) "></path>
            <path d="M34.2853894,32.1410256 C34.7214021,32.1410256 35.0745667,31.789258 35.0745667,31.3549698 L35.0745667,30.568914 C35.0745667,30.1346258 34.7214021,29.7828582 34.2853894,29.7828582 L12.1884272,29.7828582 L12.1884272,14.0617418 C12.1884272,13.6274537 11.8352627,13.275686 11.39925,13.275686 L10.6100727,13.275686 C10.17406,13.275686 9.82089552,13.6274537 9.82089552,14.0617418 L9.82089552,30.568914 C9.82089552,31.4370106 10.5277062,32.1410256 11.39925,32.1410256 L34.2853894,32.1410256 Z M24.5844438,25.3922394 L30.0208749,19.976831 L31.4754388,21.4261215 C32.221217,22.168902 33.4962122,21.6427378 33.4962122,20.5923765 L33.4962122,15.6338535 C33.4962122,15.1995653 33.1430477,14.8477976 32.707035,14.8477976 L27.7288218,14.8477976 C26.6742895,14.8477976 26.146036,16.1177499 26.8917661,16.8605784 L28.3468116,18.309389 L24.0260855,22.6130254 L19.8488507,18.4523606 C19.5405783,18.1453076 19.0409363,18.1453076 18.7326639,18.4523606 L15.0659569,22.1045648 C14.7576846,22.4116178 14.7576846,22.9092837 15.0659569,23.2163367 L15.6238336,23.7720068 C15.9321059,24.0790598 16.431748,24.0790598 16.7400203,23.7720068 L19.2910222,21.2315746 L23.4682571,25.3922394 C23.7765294,25.6992925 24.2761715,25.6992925 24.5844438,25.3922394 Z" id="chart-line" fill="#FFFFFF" fill-rule="nonzero"></path>
            <path d="M69.2701831,31.1846993 L84.0580079,16.4553163 C84.289164,16.2251225 84.289164,15.8518132 84.0580079,15.6215713 L82.6629792,14.2320123 C82.4318231,14.0018185 82.0570795,14.0018185 81.8259234,14.2320123 L68.8516553,27.1549638 L64.0844642,22.4066282 C63.8533081,22.1763864 63.4785645,22.1763864 63.2473602,22.4066282 L61.8523315,23.7961392 C61.6211754,24.0263811 61.6211754,24.3996424 61.8523315,24.6299322 L68.4331274,31.1846993 C68.6642353,31.4148931 69.0389789,31.4148931 69.2701831,31.1846993 Z" id="check" fill="#FFFFFF" fill-rule="nonzero"></path>
            <path d="M71.1555971,84.1955053 C71.3081919,84.189892 71.5450799,84.1345265 71.6842841,84.0719165 L76.5523381,81.644758 C77.2736954,81.2862736 77.8595092,80.3428531 77.8595092,79.5391417 L77.8595092,74.5512568 C81.446547,72.2538282 84.1781291,69.1741821 84.1781291,64.1017616 C84.1827532,62.8475458 84.1827532,61.5963046 83.8373918,59.9919524 C83.7772787,59.7164682 83.5044577,59.4447263 83.2285539,59.3856186 C81.6191796,59.0417191 80.3597907,59.0417191 79.1065672,59.0417191 C73.9887645,59.0417191 70.9089792,61.7482959 68.6044507,65.3299738 L63.6022501,65.3299738 C62.7960215,65.3307414 61.8496254,65.9133746 61.4873091,66.6310151 L59.0502234,71.485428 C58.9867386,71.6236978 58.9307679,71.8592651 58.9253731,72.0112563 C58.9253731,72.6619209 59.4559869,73.1901481 60.1092353,73.1902441 L64.6782169,73.1902441 L64.1556953,74.2426684 C63.6952134,75.1716958 64.3666692,75.9510349 64.4593435,76.0419034 L67.1106784,78.6810244 C67.8783729,79.4447229 68.7786245,79.0509274 68.9188885,78.9826081 L69.9717349,78.4630167 L69.9717349,83.0164216 C69.9718794,83.6671342 70.5022523,84.1955053 71.1555971,84.1955053 Z M68.3823982,76.6160926 L66.5326678,74.7738702 C67.6471687,72.5293124 69.7019966,68.3873586 70.6129414,66.574978 C72.9499348,62.9488733 75.496409,61.3997906 79.1065672,61.3997906 C79.9944879,61.3997906 80.7976337,61.3997906 81.6993304,61.5149355 C81.8164739,62.4345594 81.8133911,63.2481541 81.8103084,64.1009939 C81.8103084,67.6765308 80.2534367,70.2088549 76.6093685,72.5515737 C74.7872862,73.4596832 70.6360618,75.5061918 68.3823982,76.6160926 Z M77.0751006,68.0810732 C78.1641208,68.0810732 79.0479955,67.2007425 79.0479955,66.1160296 C79.0472248,65.0319404 78.1632538,64.1515617 77.0748597,64.1508901 C75.985984,64.151034 75.1022057,65.0313647 75.1022057,66.1159816 C75.1022057,67.2006945 75.9860803,68.0810732 77.0751006,68.0810732 Z" id="rocket" fill="#FFFFFF" fill-rule="nonzero"></path>
        </g>
    </g>
</svg>