<?xml version="1.0" encoding="UTF-8"?>
<svg width="185px" height="104px" viewBox="0 0 185 104" version="1.1" xmlns="http://www.w3.org/2000/svg" xmlns:xlink="http://www.w3.org/1999/xlink">
    <title>svg/quality-edu</title>
    <g id="svg/quality-edu" stroke="none" stroke-width="1" fill="none" fill-rule="evenodd">
        <g id="Group" transform="translate(46.000000, 5.000000)">
            <rect id="Rectangle" fill="#FCBA04" x="0" y="0" width="44.8955224" height="44.7179487" rx="1.4"></rect>
            <g id="teacher" transform="translate(7.204478, 53.221592)">
                <g id="face-white" transform="translate(4.900000, 11.200000)" fill-rule="nonzero">
                    <path d="M21,-1.77635684e-15 L21,4.893 C21,9.198 18.41,12.901 14.7,14.518 C13.412,15.078 11.991,15.393 10.5,15.393 C9.009,15.393 7.588,15.078 6.3,14.518 C2.59,12.901 1.77635684e-15,9.198 1.77635684e-15,4.893 L1.77635684e-15,-1.77635684e-15 L21,-1.77635684e-15 Z" id="Path" fill="#EAC6BB"></path>
                    <path d="M18.1972,-1.77635684e-15 L18.1972,4.893 C18.1972,9.198 15.6072,12.901 11.8972,14.518 C11.0208,14.8995 10.0786,15.1557 9.0986,15.288 C9.5585,15.3496 10.024,15.393 10.5,15.393 C11.991,15.393 13.412,15.078 14.7,14.518 C18.41,12.901 21,9.198 21,4.893 L21,-1.77635684e-15 L18.1972,-1.77635684e-15 Z" id="Path" fill="#D3B1A9"></path>
                    <path d="M14.7,14.518 L14.7,23.793 L6.3,23.793 L6.3,14.518 C7.588,15.078 9.009,15.393 10.5,15.393 C11.991,15.393 13.412,15.078 14.7,14.518 Z" id="Path" fill="#EAC6BB"></path>
                </g>
                <g id="hair-cap" transform="translate(4.900000, -0.000000)" fill-rule="nonzero">
                    <g id="Group">
                        <path d="M2.86363636,11.15 L0,14 L0,8.55 C0,3.8285 3.83822727,0 8.59090909,0 L16.2272727,0 L16.2272727,3.8 C18.8618182,3.8 21,5.928 21,8.55 L21,14 L18.1363636,11.15 C18.1363636,11.15 14.5854545,13.05 10.5,13.05 C6.405,13.05 2.86363636,11.15 2.86363636,11.15 Z" id="Path" fill="#965353"></path>
                        <path d="M16.1875,6.65 C17.2491375,6.65 18.1125,7.50215 18.1125,8.55 L18.1125,10.45 L21,13.3 L21,8.55 C21,5.928 18.844,3.8 16.1875,3.8 L16.1875,0 L13.3,0 L13.3,3.8 C13.3,5.37415 14.5926375,6.65 16.1875,6.65 Z" id="Path" fill="#844747"></path>
                    </g>
                </g>
                <g id="body-coat" transform="translate(0.000000, 26.320000)">
                    <path d="M30.8,8.68 L30.8,13.58 C30.8,13.965 30.492,14.28 30.1,14.28 L0.7,14.28 C0.315,14.28 -1.33226763e-15,13.965 -1.33226763e-15,13.58 L-1.33226763e-15,8.68 C-1.33226763e-15,5.586 2.506,3.08 5.6,3.08 L10.5,3.08 L20.3,3.08 L25.2,3.08 C28.294,3.08 30.8,5.586 30.8,8.68 Z" id="Path" fill="#4A4A4A" fill-rule="nonzero"></path>
                    <path d="M15.4,1.29230769 C17.416,1.29230769 19.32,0.829230769 21,0 L21,3.44615385 L18.76,5.6 L15.4,4.52307692 L12.04,5.6 L9.8,3.44615385 L9.8,0 C11.48,0.829230769 13.384,1.29230769 15.4,1.29230769 Z" id="Path" fill="#6D7278" fill-rule="nonzero"></path>
                    <path d="M25.2,3.08 L22.3972,3.08 C25.4912,3.08 27.9972,5.586 27.9972,8.68 L27.9972,13.58 C27.9972,13.965 27.6892,14.28 27.2972,14.28 L30.1,14.28 C30.492,14.28 30.8,13.965 30.8,13.58 L30.8,8.68 C30.8,5.586 28.294,3.08 25.2,3.08 Z" id="Path" fill="#2D2D2A" fill-rule="nonzero"></path>
                    <circle id="Oval" fill="#6D7278" cx="15.4" cy="6.58" r="1"></circle>
                    <circle id="Oval" fill="#6D7278" cx="15.4" cy="9.38" r="1"></circle>
                    <circle id="Oval" fill="#6D7278" cx="15.4" cy="12.18" r="1"></circle>
                </g>
            </g>
            <path d="M47.7096149,67.0741599 L53.3108613,67.0630607 C54.0840584,67.0615286 54.7121006,67.6870867 54.7136327,68.4602838 C54.7136364,68.4621333 54.7136364,68.4639827 54.7136327,68.4658321 L54.7025336,74.0670786 C54.7010057,74.8381098 54.0763418,75.4627738 53.3053105,75.4643017 L47.7040641,75.4754008 C46.9308669,75.4769329 46.3028248,74.8513749 46.3012926,74.0781777 C46.301289,74.0763283 46.301289,74.0744788 46.3012926,74.0726294 L46.3123918,68.471383 C46.3139196,67.7003517 46.9385836,67.0756877 47.7096149,67.0741599 Z" id="Rectangle" fill="#27BAFF" transform="translate(50.507463, 71.269231) rotate(-315.000000) translate(-50.507463, -71.269231) "></path>
            <rect id="Rectangle" fill="#00A676" x="49.1044776" y="0" width="44.8955224" height="44.7179487" rx="1.4"></rect>
            <rect id="Rectangle" fill="#27BAFF" x="49.1044776" y="48.9102564" width="44.8955224" height="44.7179487" rx="1.4"></rect>
            <path d="M19.6499134,39.1254419 L25.2511598,39.1143428 C26.024357,39.1128106 26.6523991,39.7383687 26.6539312,40.5115659 C26.6539349,40.5134153 26.6539349,40.5152648 26.6539312,40.5171142 L26.6428321,46.1183606 C26.6413042,46.8893919 26.0166403,47.5140559 25.245609,47.5155837 L19.6443626,47.5266829 C18.8711654,47.528215 18.2431233,46.9026569 18.2415912,46.1294598 C18.2415875,46.1276103 18.2415875,46.1257609 18.2415912,46.1239114 L18.2526903,40.522665 C18.2542181,39.7516338 18.8788821,39.1269698 19.6499134,39.1254419 Z" id="Rectangle" fill="#FCBA04" transform="translate(22.447761, 43.320513) rotate(-315.000000) translate(-22.447761, -43.320513) "></path>
            <path d="M34.2853894,32.1410256 C34.7214021,32.1410256 35.0745667,31.789258 35.0745667,31.3549698 L35.0745667,30.568914 C35.0745667,30.1346258 34.7214021,29.7828582 34.2853894,29.7828582 L12.1884272,29.7828582 L12.1884272,14.0617418 C12.1884272,13.6274537 11.8352627,13.275686 11.39925,13.275686 L10.6100727,13.275686 C10.17406,13.275686 9.82089552,13.6274537 9.82089552,14.0617418 L9.82089552,30.568914 C9.82089552,31.4370106 10.5277062,32.1410256 11.39925,32.1410256 L34.2853894,32.1410256 Z M24.5844438,25.3922394 L30.0208749,19.976831 L31.4754388,21.4261215 C32.221217,22.168902 33.4962122,21.6427378 33.4962122,20.5923765 L33.4962122,15.6338535 C33.4962122,15.1995653 33.1430477,14.8477976 32.707035,14.8477976 L27.7288218,14.8477976 C26.6742895,14.8477976 26.146036,16.1177499 26.8917661,16.8605784 L28.3468116,18.309389 L24.0260855,22.6130254 L19.8488507,18.4523606 C19.5405783,18.1453076 19.0409363,18.1453076 18.7326639,18.4523606 L15.0659569,22.1045648 C14.7576846,22.4116178 14.7576846,22.9092837 15.0659569,23.2163367 L15.6238336,23.7720068 C15.9321059,24.0790598 16.431748,24.0790598 16.7400203,23.7720068 L19.2910222,21.2315746 L23.4682571,25.3922394 C23.7765294,25.6992925 24.2761715,25.6992925 24.5844438,25.3922394 Z" id="chart-line" fill="#FFFFFF" fill-rule="nonzero"></path>
            <path d="M69.2701831,31.1846993 L84.0580079,16.4553163 C84.289164,16.2251225 84.289164,15.8518132 84.0580079,15.6215713 L82.6629792,14.2320123 C82.4318231,14.0018185 82.0570795,14.0018185 81.8259234,14.2320123 L68.8516553,27.1549638 L64.0844642,22.4066282 C63.8533081,22.1763864 63.4785645,22.1763864 63.2473602,22.4066282 L61.8523315,23.7961392 C61.6211754,24.0263811 61.6211754,24.3996424 61.8523315,24.6299322 L68.4331274,31.1846993 C68.6642353,31.4148931 69.0389789,31.4148931 69.2701831,31.1846993 Z" id="check" fill="#FFFFFF" fill-rule="nonzero"></path>
            <path d="M71.1555971,84.1955053 C71.3081919,84.189892 71.5450799,84.1345265 71.6842841,84.0719165 L76.5523381,81.644758 C77.2736954,81.2862736 77.8595092,80.3428531 77.8595092,79.5391417 L77.8595092,74.5512568 C81.446547,72.2538282 84.1781291,69.1741821 84.1781291,64.1017616 C84.1827532,62.8475458 84.1827532,61.5963046 83.8373918,59.9919524 C83.7772787,59.7164682 83.5044577,59.4447263 83.2285539,59.3856186 C81.6191796,59.0417191 80.3597907,59.0417191 79.1065672,59.0417191 C73.9887645,59.0417191 70.9089792,61.7482959 68.6044507,65.3299738 L63.6022501,65.3299738 C62.7960215,65.3307414 61.8496254,65.9133746 61.4873091,66.6310151 L59.0502234,71.485428 C58.9867386,71.6236978 58.9307679,71.8592651 58.9253731,72.0112563 C58.9253731,72.6619209 59.4559869,73.1901481 60.1092353,73.1902441 L64.6782169,73.1902441 L64.1556953,74.2426684 C63.6952134,75.1716958 64.3666692,75.9510349 64.4593435,76.0419034 L67.1106784,78.6810244 C67.8783729,79.4447229 68.7786245,79.0509274 68.9188885,78.9826081 L69.9717349,78.4630167 L69.9717349,83.0164216 C69.9718794,83.6671342 70.5022523,84.1955053 71.1555971,84.1955053 Z M68.3823982,76.6160926 L66.5326678,74.7738702 C67.6471687,72.5293124 69.7019966,68.3873586 70.6129414,66.574978 C72.9499348,62.9488733 75.496409,61.3997906 79.1065672,61.3997906 C79.9944879,61.3997906 80.7976337,61.3997906 81.6993304,61.5149355 C81.8164739,62.4345594 81.8133911,63.2481541 81.8103084,64.1009939 C81.8103084,67.6765308 80.2534367,70.2088549 76.6093685,72.5515737 C74.7872862,73.4596832 70.6360618,75.5061918 68.3823982,76.6160926 Z M77.0751006,68.0810732 C78.1641208,68.0810732 79.0479955,67.2007425 79.0479955,66.1160296 C79.0472248,65.0319404 78.1632538,64.1515617 77.0748597,64.1508901 C75.985984,64.151034 75.1022057,65.0313647 75.1022057,66.1159816 C75.1022057,67.2006945 75.9860803,68.0810732 77.0751006,68.0810732 Z" id="rocket" fill="#FFFFFF" fill-rule="nonzero"></path>
        </g>
    </g>
</svg>