<svg height="104" viewBox="0 0 185 104" width="185" xmlns="http://www.w3.org/2000/svg" xmlns:xlink="http://www.w3.org/1999/xlink"><defs><rect id="a" height="24" rx="1" width="19" x="30" y="7.5"/><mask id="b" fill="#fff" height="24" width="19" x="0" y="0"><use xlink:href="#a"/></mask></defs><g fill="none" fill-rule="evenodd"><g transform="translate(47 33)"><rect fill="#54288b" height="24" rx="1" width="21" x="50" y="7.5"/><use mask="url(#b)" stroke="#54288b" stroke-dasharray="2" stroke-width="2" xlink:href="#a"/><g fill="#54288b"><rect height="24" rx="1" width="29" y="7.5"/><path d="m81 8.65563492v22.24436508c0 .6075132-.4924868 1.1-1.1 1.1h-22.2443651c-.6075132 0-1.1-.4924868-1.1-1.1 0-.2917381.1158925-.5715274.3221826-.7778175l22.244365-22.24436504c.4295768-.42957672 1.1260582-.42957672 1.555635 0 .20629.20629002.3221825.48607932.3221825.77781746z" transform="matrix(.70710678 -.70710678 .70710678 .70710678 6.48171 53.648232)"/></g></g><g fill-rule="nonzero"><g transform="translate(20 36)"><path d="m40 0v6.99c0 6.15-3.7 11.44-9 13.75-1.84.8-3.87 1.25-6 1.25s-4.16-.45-6-1.25c-5.3-2.31-9-7.6-9-13.75v-6.99z" fill="#eac6bb"/><path d="m35.996 0v6.99c0 6.15-3.7 11.44-9 13.75-1.252.545-2.598.911-3.998 1.1.657.088 1.322.15 2.002.15 2.13 0 4.16-.45 6-1.25 5.3-2.31 9-7.6 9-13.75v-6.99z" fill="#d3b1a9"/><path d="m31 20.74v13.25h-12v-13.25c1.84.8 3.87 1.25 6 1.25s4.16-.45 6-1.25z" fill="#eac6bb"/></g><g transform="translate(30 20)"><path d="m4.09090909 15.9285714-4.09090909 4.0714286v-7.7857143c0-6.74499999 5.48318182-12.2142857 12.2727273-12.2142857h10.9090909v5.42857143c3.7636363 0 6.8181818 3.04 6.8181818 6.78571427v7.7857143l-4.0909091-4.0714286s-5.0727273 2.7142857-10.9090909 2.7142857c-5.85 0-10.90909091-2.7142857-10.90909091-2.7142857z" fill="#965353"/><path d="m23.125 9.5c1.516625 0 2.75 1.2173571 2.75 2.7142857v2.7142857l4.125 4.0714286v-6.7857143c0-3.74571427-3.08-6.78571427-6.875-6.78571427v-5.42857143h-4.125v5.42857143c0 2.24878571 1.846625 4.07142857 4.125 4.07142857z" fill="#844747"/></g><g transform="translate(20 55)"><path d="m47 15v7c0 .55-.44 1-1 1h-42c-.55 0-1-.45-1-1v-7c0-4.42 3.58-8 8-8h7 1.0341628l5.9658372 15 5.9628547-15h1.0371453 7c4.42 0 8 3.58 8 8z" fill="#e6e9ed"/><path d="m39 7h-4.004c4.42 0 8 3.58 8 8v7c0 .55-.44 1-1 1h4.004c.56 0 1-.45 1-1v-7c0-4.42-3.58-8-8-8z" fill="#ccd1d9"/><path d="m31 7-5 16h-2l-5-16v-1c0 2.21 2.69 4 6 4s6-1.79 6-4z" fill="#00a676"/><g fill="#f5f7fa"><path d="m19 7 5 16h-2l-6-8 2-2-3-4z"/><path d="m26 23 5-16 4 2-3 4 2 2-6 8z"/></g></g></g></g></svg>