<svg height="104" viewBox="0 0 185 104" width="185" xmlns="http://www.w3.org/2000/svg"><g fill="none" fill-rule="evenodd"><path d="m0 0h185v104h-185z" fill="#fafbfb"/><rect fill="#54288b" height="67" rx="1" width="67" x="59" y="21"/><g fill-rule="nonzero" transform="translate(86 48)"><path d="m60 0h-58c-1.1 0-2 .9-2 2v3 30c0 1.1.9 2 2 2h58c1.101 0 2-.9 2-2v-16-14-3c0-1.1-.899-2-2-2z" fill="#656d78"/><path d="m60 17.5c.825 0 1.5.676 1.5 1.5 0 .833-.675 1.5-1.5 1.5-.832 0-1.5-.667-1.5-1.5 0-.824.668-1.5 1.5-1.5z" fill="#aab2bd"/><path d="m2 37h58c1.101 0 2-.9 2-2v3c0 1.1-.899 2-2 2h-58c-1.1 0-2-.9-2-2v-3c0 1.1.9 2 2 2z" fill="#545c66"/><path d="m4 3v31h54v-15-16z" fill="#e6e9ed"/><path d="m16 17c2.12 0 3.86 1.66 3.99 3.75-1.13.79-2.51 1.25-3.99 1.25-1.479 0-2.859-.46-3.99-1.25.12-2.09 1.86-3.75 3.99-3.75z" fill="#ac92ec"/><path d="m16 17c-2.13 0-3.87 1.66-3.99 3.75-1.82-1.26-3.01-3.36-3.01-5.75 0-3.86 3.13-7 7-7s7 3.14 7 7c0 2.39-1.189 4.49-3.01 5.75-.13-2.09-1.87-3.75-3.99-3.75 1.101 0 2-.89 2-2 0-1.1-.899-2-2-2-1.1 0-2 .9-2 2 0 1.11.9 2 2 2z" fill="#656d78"/><path d="m18.5 15.5c0 1.388-1.124 2.5-2.5 2.5-1.375 0-2.5-1.112-2.5-2.5 0-1.375 1.125-2.5 2.5-2.5 1.376 0 2.5 1.125 2.5 2.5z" fill="#eac6bb"/><path d="m2.029 19c-.553 0-1.005-.447-1.005-1s.442-1 .994-1h.011c.552 0 1 .447 1 1s-.448 1-1 1z" fill="#5d9cec"/><g fill="#ccd1d9"><path d="m21.001 26.003h-10c-.553 0-1-.447-1-1s.447-1 1-1h10c.553 0 1 .447 1 1s-.447 1-1 1z"/><path d="m17.998 29.003h-3.994c-.553 0-1-.447-1-1s.447-1 1-1h3.994c.553 0 1 .447 1 1s-.447 1-1 1z"/><path d="m53 10c0 .55-.45 1-1 1h-24c-.55 0-1-.45-1-1v-1c0-.55.45-1 1-1h24c.55 0 1 .45 1 1z"/><path d="m53 16.006c0 .55-.45 1-1 1h-24c-.55 0-1-.45-1-1v-1c0-.55.45-1 1-1h24c.55 0 1 .45 1 1z"/><path d="m53 22c0 .55-.45 1-1 1h-24c-.55 0-1-.45-1-1v-1c0-.55.45-1 1-1h24c.55 0 1 .45 1 1z"/><path d="m53 27.994c0 .55-.45 1-1 1h-24c-.55 0-1-.45-1-1v-1c0-.55.45-1 1-1h24c.55 0 1 .45 1 1z"/></g><path d="m28 8c-.55 0-1 .45-1 1v1c0 .55.45 1 1 1h5.99l-3-3z" fill="#f06543"/><path d="m27.971 17h20.039l-2.994-2.994h-17.016c-.55 0-1 .45-1 1v1c0 .54.436.977.971.994z" fill="#00a676"/><path d="m28 20c-.55 0-1 .45-1 1v1c0 .55.45 1 1 1h11l-3-3z" fill="#fcba04"/><path d="m28 28.994h19.004l-2.994-2.994h-16.039c-.535.017-.971.454-.971.994v1c0 .55.45 1 1 1z" fill="#00a676"/></g></g></svg>