<?xml version="1.0" encoding="UTF-8"?>
<svg width="185px" height="104px" viewBox="0 0 185 104" version="1.1" xmlns="http://www.w3.org/2000/svg" xmlns:xlink="http://www.w3.org/1999/xlink">
    <title>svg/report-2</title>
    <g id="svg/report-2" stroke="none" stroke-width="1" fill="none" fill-rule="evenodd">
        <rect id="Rectangle" fill="#FCBA04" x="66" y="21" width="67" height="67" rx="1"></rect>
        <g id="24-medical,-record,-tablet,-medical,-technology,-medicine,-equipment" transform="translate(43.000000, 48.000000)" fill-rule="nonzero">
            <path d="M60,0 L2,0 C0.9,0 0,0.9 0,2 L0,5 L0,35 C0,36.1 0.9,37 2,37 L60,37 C61.101,37 62,36.1 62,35 L62,19 L62,5 L62,2 C62,0.9 61.101,0 60,0 Z" id="Path" fill="#656D78"></path>
            <path d="M60,17.5 C60.825,17.5 61.5,18.176 61.5,19 C61.5,19.833 60.825,20.5 60,20.5 C59.168,20.5 58.5,19.833 58.5,19 C58.5,18.176 59.168,17.5 60,17.5 Z" id="Path" fill="#AAB2BD"></path>
            <path d="M2,37 L60,37 C61.101,37 62,36.1 62,35 L62,38 C62,39.1 61.101,40 60,40 L2,40 C0.9,40 0,39.1 0,38 L0,35 C0,36.1 0.9,37 2,37 Z" id="Path" fill="#545C66"></path>
            <polygon id="Path" fill="#E6E9ED" points="4 3 4 34 58 34 58 19 58 3"></polygon>
            <path d="M16,17 C18.12,17 19.86,18.66 19.99,20.75 C18.86,21.54 17.48,22 16,22 C14.521,22 13.141,21.54 12.01,20.75 C12.13,18.66 13.87,17 16,17 Z" id="Path" fill="#AC92EC"></path>
            <path d="M16,17 C13.87,17 12.13,18.66 12.01,20.75 C10.19,19.49 9,17.39 9,15 C9,11.14 12.13,8 16,8 C19.87,8 23,11.14 23,15 C23,17.39 21.811,19.49 19.99,20.75 C19.86,18.66 18.12,17 16,17 C17.101,17 18,16.11 18,15 C18,13.9 17.101,13 16,13 C14.9,13 14,13.9 14,15 C14,16.11 14.9,17 16,17 Z" id="Path" fill="#656D78"></path>
            <path d="M18.5,15.5 C18.5,16.888 17.376,18 16,18 C14.625,18 13.5,16.888 13.5,15.5 C13.5,14.125 14.625,13 16,13 C17.376,13 18.5,14.125 18.5,15.5 Z" id="Path" fill="#EAC6BB"></path>
            <path d="M2.029,19 C1.476,19 1.024,18.553 1.024,18 C1.024,17.447 1.466,17 2.018,17 L2.029,17 C2.581,17 3.029,17.447 3.029,18 C3.029,18.553 2.581,19 2.029,19 Z" id="Path" fill="#5D9CEC"></path>
            <path d="M21.001,26.003 L11.001,26.003 C10.448,26.003 10.001,25.556 10.001,25.003 C10.001,24.45 10.448,24.003 11.001,24.003 L21.001,24.003 C21.554,24.003 22.001,24.45 22.001,25.003 C22.001,25.556 21.554,26.003 21.001,26.003 Z" id="Path" fill="#CCD1D9"></path>
            <path d="M17.998,29.003 L14.004,29.003 C13.451,29.003 13.004,28.556 13.004,28.003 C13.004,27.45 13.451,27.003 14.004,27.003 L17.998,27.003 C18.551,27.003 18.998,27.45 18.998,28.003 C18.998,28.556 18.551,29.003 17.998,29.003 Z" id="Path" fill="#CCD1D9"></path>
            <path d="M53,10 C53,10.55 52.55,11 52,11 L28,11 C27.45,11 27,10.55 27,10 L27,9 C27,8.45 27.45,8 28,8 L52,8 C52.55,8 53,8.45 53,9 L53,10 Z" id="Path" fill="#CCD1D9"></path>
            <path d="M53,16.006 C53,16.556 52.55,17.006 52,17.006 L28,17.006 C27.45,17.006 27,16.556 27,16.006 L27,15.006 C27,14.456 27.45,14.006 28,14.006 L52,14.006 C52.55,14.006 53,14.456 53,15.006 L53,16.006 Z" id="Path" fill="#CCD1D9"></path>
            <path d="M53,22 C53,22.55 52.55,23 52,23 L28,23 C27.45,23 27,22.55 27,22 L27,21 C27,20.45 27.45,20 28,20 L52,20 C52.55,20 53,20.45 53,21 L53,22 Z" id="Path" fill="#CCD1D9"></path>
            <path d="M53,27.994 C53,28.544 52.55,28.994 52,28.994 L28,28.994 C27.45,28.994 27,28.544 27,27.994 L27,26.994 C27,26.444 27.45,25.994 28,25.994 L52,25.994 C52.55,25.994 53,26.444 53,26.994 L53,27.994 Z" id="Path" fill="#CCD1D9"></path>
            <path d="M28,8 C27.45,8 27,8.45 27,9 L27,10 C27,10.55 27.45,11 28,11 L33.99,11 L30.99,8 L28,8 Z" id="Path" fill="#F06543"></path>
            <path d="M27.971,17 L48.01,17 L45.016,14.006 L28,14.006 C27.45,14.006 27,14.456 27,15.006 L27,16.006 C27,16.546 27.436,16.983 27.971,17 Z" id="Path" fill="#00A676"></path>
            <path d="M28,20 C27.45,20 27,20.45 27,21 L27,22 C27,22.55 27.45,23 28,23 L39,23 L36,20 L28,20 Z" id="Path" fill="#FCBA04"></path>
            <path d="M28,28.994 L47.004,28.994 L44.01,26 L27.971,26 C27.436,26.017 27,26.454 27,26.994 L27,27.994 C27,28.544 27.45,28.994 28,28.994 Z" id="Path" fill="#00A676"></path>
        </g>
    </g>
</svg>