<svg height="104" viewBox="0 0 185 104" width="185" xmlns="http://www.w3.org/2000/svg"><g fill="none" fill-rule="evenodd"><path d="m0 0h185v104h-185z" fill="#fafbfb"/><rect fill="#007bc0" height="32" rx="1" width="32" x="59" y="21"/><rect fill="#00a676" height="32" rx="1" width="32" x="94" y="21"/><g fill-rule="nonzero"><g transform="translate(98 24)"><path d="m13.75 8h-12.5-1.25v-.00444198-6.21876735c0-.97723487.75-1.77679067 1.66666667-1.77679067h11.66666663c.9166667 0 1.6666667.7995558 1.6666667 1.77679067v6.21876735.00444198z" fill="#e6e9ed"/><path d="m13 0h-2.002c1.1 0 2 .7995558 2 1.77679067v6.21876735.00444198h.502 1.5v-.00444198-6.21876735c0-.97723487-.9-1.77679067-2-1.77679067z" fill="#ccd1d9"/><g fill="#ed5565"><path d="m7.5 6.5c-.2765 0-.5-.2235-.5-.5v-4c0-.2765.2235-.5.5-.5s.5.2235.5.5v4c0 .2765-.2235.5-.5.5z"/><path d="m9.5 4.5h-4c-.2765 0-.5-.2235-.5-.5s.2235-.5.5-.5h4c.2765 0 .5.2235.5.5s-.2235.5-.5.5z"/></g></g><g transform="translate(93 32)"><path d="m20 0v3.495c0 3.075-1.85 5.72-4.5 6.875-.92.4-1.935.625-3 .625s-2.08-.225-3-.625c-2.65-1.155-4.5-3.8-4.5-6.875v-3.495z" fill="#ab7969"/><path d="m17.998 0v3.495c0 3.075-1.85 5.72-4.5 6.875-.626.2725-1.299.4555-1.999.55.3285.044.661.075 1.001.075 1.065 0 2.08-.225 3-.625 2.65-1.155 4.5-3.8 4.5-6.875v-3.495z" fill="#996559"/><path d="m15.5 10.37v6.625h-6v-6.625c.92.4 1.935.625 3 .625s2.08-.225 3-.625z" fill="#ab7969"/></g><g transform="translate(93 41.5)"><path d="m23.5 7.5v3.5c0 .275-.22.5-.5.5h-21c-.275 0-.5-.225-.5-.5v-3.5c0-2.21 1.79-4 4-4h3.5.51708139l2.98291861 7.5 2.9814273-7.5h.5185727 3.5c2.21 0 4 1.79 4 4z" fill="#e6e9ed"/><path d="m19.5 3.5h-2.002c2.21 0 4 1.79 4 4v3.5c0 .275-.22.5-.5.5h2.002c.28 0 .5-.225.5-.5v-3.5c0-2.21-1.79-4-4-4z" fill="#ccd1d9"/><path d="m15.5 3.5-2.5 8h-1l-2.5-8v-.5c0 1.105 1.345 2 3 2s3-.895 3-2z" fill="#27baff"/><g fill="#f5f7fa"><path d="m9.5 3.5 2.5 8h-1l-3-4 1-1-1.5-2z"/><path d="m13 11.5 2.5-8 2 1-1.5 2 1 1-3 4z"/></g></g><g><g transform="translate(58 24)"><path d="m20 2v6h-.005-14.995v-6c0-1.1.9-2 2-2h11c1.1 0 2 .9 2 2z" fill="#48cfad"/><path d="m18 0h-2.002c1.1 0 2 .9 2 2v6h1.997.005v-6c0-1.1-.9-2-2-2z" fill="#37bc9b"/><g fill="#e6e9ed"><path d="m12.499 6.499c-.2765 0-.5-.2235-.5-.5v-4c0-.2765.2235-.5.5-.5s.5.2235.5.5v4c0 .2765-.2235.5-.5.5z"/><path d="m14.499 4.499h-4c-.2765 0-.5-.2235-.5-.5s.2235-.5.5-.5h4c.2765 0 .5.2235.5.5s-.2235.5-.5.5z"/></g></g><g transform="translate(58 32)"><path d="m20 0v3.495c0 3.075-1.85 5.72-4.5 6.875-.92.4-1.935.625-3 .625s-2.08-.225-3-.625c-2.65-1.155-4.5-3.8-4.5-6.875v-3.495z" fill="#eac6bb"/><path d="m17.998 0v3.495c0 3.075-1.85 5.72-4.5 6.875-.626.2725-1.299.4555-1.999.55.3285.044.661.075 1.001.075 1.065 0 2.08-.225 3-.625 2.65-1.155 4.5-3.8 4.5-6.875v-3.495z" fill="#d3b1a9"/><path d="m15.5 10.37v6.625h-6v-6.625c.92.4 1.935.625 3 .625s2.08-.225 3-.625z" fill="#eac6bb"/></g><g transform="translate(58 41.5)"><path d="m23.5 7.5v3.5c0 .275-.22.5-.5.5h-21c-.275 0-.5-.225-.5-.5v-3.5c0-2.21 1.79-4 4-4h4l3 3.5 3-3.5h4c2.21 0 4 1.79 4 4z" fill="#48cfad"/><path d="m19.5 3.5h-2.002c2.21 0 4 1.79 4 4v3.5c0 .275-.22.5-.5.5h2.002c.28 0 .5-.225.5-.5v-3.5c0-2.21-1.79-4-4-4z" fill="#37bc9b"/></g><g transform="translate(58 24)"><path d="m7.9995 11.4975h9v5.5h-9z" fill="#f5f7fa"/><g fill="#e6e9ed"><path d="m17.4995 17.5005h-.5c-.2765 0-.5-.2235-.5-.5s.2235-.5.5-.5h.5c.2765 0 .5.2235.5.5s-.2235.5-.5.5z"/><path d="m7.9995 17.5005h-.5c-.2765 0-.5-.2235-.5-.5s.2235-.5.5-.5h.5c.2765 0 .5.2235.5.5s-.2235.5-.5.5z"/><path d="m7.9995 12h-2.9995c-.2765 0-.5-.2235-.5-.5s.2235-.5.5-.5h2.9995c.2765 0 .5.2235.5.5s-.2235.5-.5.5z"/><path d="m19.999 12h-2.9995c-.2765 0-.5-.2235-.5-.5s.2235-.5.5-.5h2.9995c.2765 0 .5.2235.5.5s-.2235.5-.5.5z"/><path d="m14.9995 13.9985h-5c-.2765 0-.5-.2235-.5-.5s.2235-.5.5-.5h5c.2765 0 .5.2235.5.5s-.2235.5-.5.5z"/><path d="m14.9995 15.498h-5c-.2765 0-.5-.2235-.5-.5s.2235-.5.5-.5h5c.2765 0 .5.2235.5.5s-.2235.5-.5.5z"/></g><path d="m16.9995 17.5005h-9c-.2765 0-.5-.2235-.5-.5v-5.5005c0-.2765.2235-.5.5-.5h9c.2765 0 .5.2235.5.5v5.5005c0 .2765-.2235.5-.5.5zm-8.5-1h8v-4.5005h-8z" fill="#f5f7fa"/></g></g></g><rect fill="#fcba04" height="32" rx="1" width="32" x="94" y="56"/><g fill-rule="nonzero" transform="translate(93 67)"><path d="m20 0v3.495c0 3.075-1.85 5.72-4.5 6.875-.92.4-1.935.625-3 .625s-2.08-.225-3-.625c-2.65-1.155-4.5-3.8-4.5-6.875v-3.495z" fill="#eac6bb"/><path d="m17.998 0v3.495c0 3.075-1.85 5.72-4.5 6.875-.626.2725-1.299.4555-1.999.55.3285.044.661.075 1.001.075 1.065 0 2.08-.225 3-.625 2.65-1.155 4.5-3.8 4.5-6.875v-3.495z" fill="#d3b1a9"/><path d="m15.5 10.37v6.625h-6v-6.625c.92.4 1.935.625 3 .625s2.08-.225 3-.625z" fill="#eac6bb"/></g><g fill-rule="nonzero" transform="translate(98 59)"><path d="m0 4.66666667c0-1.47555556.89333333-2.66666667 2-2.66666667v5.33333333c0 1.47555556-.89333333 2.66666667-2 2.66666667z" fill="#e9573f"/><path d="m15 7.45620956v6.04379044c0-1.6907843-.8594444-3.1813161-2.1666667-4.07606123v-.00710115c-.8161111-.560991-1.8127777-.887644-2.88888886-.887644v-.01491241h-5.77777777c-1.19888889 0-2.16666667.04844563-2.16666667-1.13034559v-5.26069118c1.37944444-1.38472464 3.29333333-2.12324444 5.41666667-2.12324444 4.18888893 0 7.58333333 3.33754142 7.58333333 7.45620956z" fill="#f06543"/><path d="m7.5939756 0c-.37312256 0-.73637042.03195518-1.0939756.0795329 3.6042652.50276156 6.381877 3.60880543 6.381877 7.37667666v1.95920783c.0007054.00071012.0014107.00071012.002116.00142023v.00710115c1.2766576.89474513 2.116007 2.38527693 2.116007 4.07606123v-6.04379044c0-4.11866814-3.3150776-7.45620956-7.4060244-7.45620956z" fill="#e9573f"/></g><g transform="translate(93 76.5)"><g fill-rule="nonzero"><path d="m23.5 7.5v3.5c0 .275-.22.5-.5.5h-21c-.275 0-.5-.225-.5-.5v-3.5c0-2.21 1.79-4 4-4h3.5 7 3.5c2.21 0 4 1.79 4 4z" fill="#4a4a4a"/><path d="m12.5 2.22307692c1.44 0 2.8-.33076923 4-.92307692v2.46153846l-1.6 1.53846154-2.4-.76923077-2.4.76923077-1.6-1.53846154v-2.46153846c1.2.59230769 2.56.92307692 4 .92307692z" fill="#6d7278"/><path d="m19.5 3.5h-2.002c2.21 0 4 1.79 4 4v3.5c0 .275-.22.5-.5.5h2.002c.28 0 .5-.225.5-.5v-3.5c0-2.21-1.79-4-4-4z" fill="#2d2d2a"/></g><circle cx="12.5" cy="6" fill="#6d7278" fill-rule="evenodd" r="1"/><circle cx="12.5" cy="8" fill="#6d7278" fill-rule="evenodd" r="1"/><circle cx="12.5" cy="10" fill="#6d7278" fill-rule="evenodd" r="1"/></g><circle cx="75" cy="72" fill="#e8e9eb" r="14.08"/><g fill-rule="nonzero" transform="translate(64.76 61.12)"><path d="m3.07200012 2.56v1.79328038 4.09344016l4.41984018 2.94528016 1.72416007 1.152 1.15200003.768 1.1520001-.768 6.1440002-4.09728016v-4.09344016-1.79328038z" fill="#fff"/><g fill="#edab37"><path d="m20.7360008 6.40000046-3.0720001 2.04672008v-4.09344016z"/><path d="m3.07200012 4.35328038v4.09344016l-3.07200012-2.04672008z"/><path d="m10.56 0 3.8400006 2.56h-7.68211233z"/></g><g fill="#ccd1d9" transform="translate(4.992 4.864)"><path d="m4.9896962.76915203h-4.60569618c-.21235201 0-.38400002-.17164801-.38400002-.38400001 0-.21235201.17164801-.38400002.38400002-.38400002h4.60569618c.21235201 0 .38400001.17164801.38400001.38400002 0 .212352-.171648.38400001-.38400001.38400001z"/><path d="m9.9840004.76915203h-1.15200005c-.21235201 0-.38400001-.17164801-.38400001-.38400001 0-.21235201.171648-.38400002.38400001-.38400002h1.15200005c.212352 0 .384.17164801.384.38400002 0 .212352-.171648.38400001-.384.38400001z"/><path d="m3.06777612 2.30515209h-2.6837761c-.21235201 0-.38400002-.17164801-.38400002-.38400001 0-.21235201.17164801-.38400002.38400002-.38400002h2.6837761c.21235201 0 .38400002.17164801.38400002.38400002 0 .212352-.17164801.38400001-.38400002.38400001z"/><path d="m9.9840004 2.30515209h-1.15200005c-.21235201 0-.38400001-.17164801-.38400001-.38400001 0-.21235201.171648-.38400002.38400001-.38400002h1.15200005c.212352 0 .384.17164801.384.38400002 0 .212352-.171648.38400001-.384.38400001z"/><path d="m4.22092817 3.84115215h-3.83692815c-.21235201 0-.38400002-.171648-.38400002-.38400001s.17164801-.38400002.38400002-.38400002h3.83692815c.21235201 0 .38400001.17164801.38400001.38400002s-.171648.38400001-.38400001.38400001z"/><path d="m9.9840004 3.84115215h-1.15200005c-.21235201 0-.38400001-.171648-.38400001-.38400001s.171648-.38400002.38400001-.38400002h1.15200005c.212352 0 .384.17164801.384.38400002s-.171648.38400001-.384.38400001z"/><path d="m6.52723226 5.37715221h-6.14323224c-.21235201 0-.38400002-.171648-.38400002-.38400001s.17164801-.38400002.38400002-.38400002h6.14323224c.21235201 0 .38400001.17164801.38400001.38400002s-.171648.38400001-.38400001.38400001z"/><path d="m9.9840004 5.37715221h-1.15200005c-.21235201 0-.38400001-.171648-.38400001-.38400001s.171648-.38400002.38400001-.38400002h1.15200005c.212352 0 .384.17164801.384.38400002s-.171648.38400001-.384.38400001z"/><path d="m9.9840004 6.91468827h-1.15200005c-.21235201 0-.38400001-.171648-.38400001-.38400001s.171648-.38400002.38400001-.38400002h1.15200005c.212352 0 .384.17164801.384.38400002s-.171648.38400001-.384.38400001z"/><path d="m4.22092817 6.91315227h-3.64531215c-.21235201 0-.38400001-.171648-.38400001-.38400001s.171648-.38400002.38400001-.38400002h3.64531215c.21235201 0 .38400001.17164801.38400001.38400002s-.171648.38400001-.38400001.38400001z"/></g><path d="m20.7360008 6.40000046v12.28800044l-9.2160003-6.1440002 6.1440002-4.09728016z" fill="#f6bb42"/><path d="m9.21600037 12.5440007-9.21600037 6.1440002v-12.28800044l3.07200012 2.04672008 4.41984018 2.94528016z" fill="#f6bb42"/><path d="m20.7360008 18.6880009h-20.7360008l9.21600037-6.1440002 1.15200003.768 1.1520001-.768z" fill="#ffce54"/></g></g></svg>