<svg height="104" viewBox="0 0 185 104" width="185" xmlns="http://www.w3.org/2000/svg"><g fill="none" fill-rule="evenodd"><rect fill="#54288b" height="67" rx="1" width="67" x="60" y="21"/><g transform="translate(72 57)"><path d="m0 0h23.76v19.2h-23.76z" fill="#fff"/><g fill="#ccd1d9" fill-rule="nonzero"><path d="m11.51568 4.32216h-8.63568c-.39816 0-.72-.32184-.72-.72s.32184-.72.72-.72h8.63568c.39816 0 .72.32184.72.72s-.32184.72-.72.72z"/><path d="m20.88 4.32216h-2.16c-.39816 0-.72-.32184-.72-.72s.32184-.72.72-.72h2.16c.39816 0 .72.32184.72.72s-.32184.72-.72.72z"/><path d="m7.91208 7.20216h-5.03208c-.39816 0-.72-.32184-.72-.72s.32184-.72.72-.72h5.03208c.39816 0 .72.32184.72.72s-.32184.72-.72.72z"/><path d="m20.88 7.20216h-2.16c-.39816 0-.72-.32184-.72-.72s.32184-.72.72-.72h2.16c.39816 0 .72.32184.72.72s-.32184.72-.72.72z"/><path d="m10.07424 10.08216h-7.19424c-.39816 0-.72-.32184-.72-.72s.32184-.72.72-.72h7.19424c.39816 0 .72.32184.72.72s-.32184.72-.72.72z"/><path d="m20.88 10.08216h-2.16c-.39816 0-.72-.32184-.72-.72s.32184-.72.72-.72h2.16c.39816 0 .72.32184.72.72s-.32184.72-.72.72z"/><path d="m14.39856 12.96216h-11.51856c-.39816 0-.72-.32184-.72-.72s.32184-.72.72-.72h11.51856c.39816 0 .72.32184.72.72s-.32184.72-.72.72z"/><path d="m20.88 12.96216h-2.16c-.39816 0-.72-.32184-.72-.72s.32184-.72.72-.72h2.16c.39816 0 .72.32184.72.72s-.32184.72-.72.72z"/><path d="m10.07424 15.84216h-6.83496c-.39816 0-.72-.32184-.72-.72s.32184-.72.72-.72h6.83496c.39816 0 .72.32184.72.72s-.32184.72-.72.72z"/></g></g><g transform="translate(85 38)"><path d="m0 0h33.66v26.88h-33.66z" fill="#fff"/><g fill="#ccd1d9" fill-rule="nonzero"><path d="m16.31388 6.051024h-12.23388c-.56406 0-1.02-.450576-1.02-1.008s.45594-1.008 1.02-1.008h12.23388c.56406 0 1.02.450576 1.02 1.008s-.45594 1.008-1.02 1.008z"/><path d="m29.58 6.051024h-3.06c-.56406 0-1.02-.450576-1.02-1.008s.45594-1.008 1.02-1.008h3.06c.56406 0 1.02.450576 1.02 1.008s-.45594 1.008-1.02 1.008z"/><path d="m11.20878 10.083024h-7.12878c-.56406 0-1.02-.450576-1.02-1.008s.45594-1.008 1.02-1.008h7.12878c.56406 0 1.02.450576 1.02 1.008s-.45594 1.008-1.02 1.008z"/><path d="m29.58 10.083024h-3.06c-.56406 0-1.02-.450576-1.02-1.008s.45594-1.008 1.02-1.008h3.06c.56406 0 1.02.450576 1.02 1.008s-.45594 1.008-1.02 1.008z"/><path d="m14.27184 14.115024h-10.19184c-.56406 0-1.02-.450576-1.02-1.008s.45594-1.008 1.02-1.008h10.19184c.56406 0 1.02.450576 1.02 1.008s-.45594 1.008-1.02 1.008z"/><path d="m29.58 14.115024h-3.06c-.56406 0-1.02-.450576-1.02-1.008s.45594-1.008 1.02-1.008h3.06c.56406 0 1.02.450576 1.02 1.008s-.45594 1.008-1.02 1.008z"/><path d="m20.39796 18.147024h-16.31796c-.56406 0-1.02-.450576-1.02-1.008s.45594-1.008 1.02-1.008h16.31796c.56406 0 1.02.450576 1.02 1.008s-.45594 1.008-1.02 1.008z"/><path d="m29.58 18.147024h-3.06c-.56406 0-1.02-.450576-1.02-1.008s.45594-1.008 1.02-1.008h3.06c.56406 0 1.02.450576 1.02 1.008s-.45594 1.008-1.02 1.008z"/><path d="m14.27184 22.179024h-9.68286c-.56406 0-1.02-.450576-1.02-1.008s.45594-1.008 1.02-1.008h9.68286c.56406 0 1.02.450576 1.02 1.008s-.45594 1.008-1.02 1.008z"/></g></g><g fill-rule="nonzero" transform="translate(82 26)"><path d="m40.968 7.029c8.891 8.89 9.351 23.04 1.351 32.46-.42.51-.87 1-1.351 1.479-.479.48-.97.931-1.479 1.351-9.42 8-23.57 7.54-32.46-1.351-9.37-9.369-9.37-24.569 0-33.939s24.569-9.37 33.939 0zm-31.818 2.12c-8.2 8.199-8.2 21.5 0 29.699.89.891 1.85 1.69 2.85 2.381v.01h-.001c3.02 2.109 6.48 3.33 10 3.66 1.33.13 2.67.13 4 0 3.52-.33 6.98-1.551 10-3.66v-.01c1-.69 1.96-1.49 2.85-2.381 8.2-8.199 8.2-21.5 0-29.699-8.199-8.2-21.5-8.2-29.699 0z" fill="#e6e9ed"/><path d="m43.589 49.249 1.42-1.42 2.82-2.82 1.42-1.42 11.58 11.58c1.56 1.561 1.56 4.1 0 5.66-1.561 1.56-4.1 1.56-5.66 0z" fill="#656d78"/><path d="m40.969 40.969c.48-.479.931-.97 1.351-1.479l5.51 5.52-2.82 2.82-5.51-5.5-.01-.01c.509-.421.999-.871 1.479-1.351z" fill="#ccd1d9"/></g></g></svg>