<?xml version="1.0" encoding="UTF-8"?>
<svg width="185px" height="104px" viewBox="0 0 185 104" version="1.1" xmlns="http://www.w3.org/2000/svg" xmlns:xlink="http://www.w3.org/1999/xlink">
    <title>svg/security</title>
    <g id="svg/security" stroke="none" stroke-width="1" fill="none" fill-rule="evenodd">
        <rect id="Rectangle" fill="#007BC0" x="59" y="21" width="67" height="67" rx="1"></rect>
        <g id="Group" transform="translate(48.000000, 16.265981)" fill-rule="nonzero">
            <path d="M45.484375,56.7340187 C46.7011318,56.7340187 47.6875,55.7476505 47.6875,54.5308937 L47.6875,50.8590187 L51.359375,50.8590187 C52.5761318,50.8590187 53.5625,49.8726505 53.5625,48.6558937 L53.5625,44.9840187 L56.9795132,44.9840187 C57.5256329,44.9840187 58.2633247,44.652779 58.6261196,44.2446236 L60.8303204,41.7647633 C61.8067379,41.9490742 62.8138142,42.0465187 63.84375,42.0465187 C72.7666035,42.0465187 80,34.8132118 80,25.8903584 C80,16.9410595 72.7928696,9.73401872 63.8436604,9.73401872 C54.9208069,9.73401872 47.6875,16.9674152 47.6875,25.8902687 C47.6875,27.6593308 47.9728413,29.3615173 48.4981632,30.9545158 L33.6452675,45.8074116 C33.2321815,46.2205872 33,46.7810501 33,47.3653587 L33,54.5308937 C33,55.7476505 33.9863682,56.7340187 35.203125,56.7340187 L45.484375,56.7340187 Z M68.5,25.7340187 C66.0147095,25.7340187 64,23.7193092 64,21.2340187 C64,18.7487282 66.0147095,16.7340187 68.5,16.7340187 C70.9852905,16.7340187 73,18.7487282 73,21.2340187 C73,23.7193092 70.9852905,25.7340187 68.5,25.7340187 Z" id="key" fill="#E8E9EB" transform="translate(56.500000, 33.234019) rotate(-135.000000) translate(-56.500000, -33.234019) "></path>
            <path d="M18.484375,70.7340187 C19.7011318,70.7340187 20.6875,69.7476505 20.6875,68.5308937 L20.6875,64.8590187 L24.359375,64.8590187 C25.5761318,64.8590187 26.5625,63.8726505 26.5625,62.6558937 L26.5625,58.9840187 L29.9795132,58.9840187 C30.5256329,58.9840187 31.2633247,58.652779 31.6261196,58.2446236 L33.8303204,55.7647633 C34.8067379,55.9490742 35.8138142,56.0465187 36.84375,56.0465187 C45.7666035,56.0465187 53,48.8132118 53,39.8903584 C53,30.9410595 45.7928696,23.7340187 36.8436604,23.7340187 C27.9208069,23.7340187 20.6875,30.9674152 20.6875,39.8902687 C20.6875,41.6593308 20.9728413,43.3615173 21.4981632,44.9545158 L6.64526749,59.8074116 C6.23218155,60.2205872 6,60.7810501 6,61.3653587 L6,68.5308937 C6,69.7476505 6.98636818,70.7340187 8.203125,70.7340187 L18.484375,70.7340187 Z M41.5,39.7340187 C39.0147095,39.7340187 37,37.7193092 37,35.2340187 C37,32.7487282 39.0147095,30.7340187 41.5,30.7340187 C43.9852905,30.7340187 46,32.7487282 46,35.2340187 C46,37.7193092 43.9852905,39.7340187 41.5,39.7340187 Z" id="key" fill="#CF9800" transform="translate(29.500000, 47.234019) rotate(-15.000000) translate(-29.500000, -47.234019) "></path>
            <path d="M12.484375,65.7340187 C13.7011318,65.7340187 14.6875,64.7476505 14.6875,63.5308937 L14.6875,59.8590187 L18.359375,59.8590187 C19.5761318,59.8590187 20.5625,58.8726505 20.5625,57.6558937 L20.5625,53.9840187 L23.9795132,53.9840187 C24.5256329,53.9840187 25.2633247,53.652779 25.6261196,53.2446236 L27.8303204,50.7647633 C28.8067379,50.9490742 29.8138142,51.0465187 30.84375,51.0465187 C39.7666035,51.0465187 47,43.8132118 47,34.8903584 C47,25.9410595 39.7928696,18.7340187 30.8436604,18.7340187 C21.9208069,18.7340187 14.6875,25.9674152 14.6875,34.8902687 C14.6875,36.6593308 14.9728413,38.3615173 15.4981632,39.9545158 L0.645267487,54.8074116 C0.232181549,55.2205872 -6.03961325e-14,55.7810501 -6.03961325e-14,56.3653587 L-6.03961325e-14,63.5308937 C-6.03961325e-14,64.7476505 0.986368179,65.7340187 2.203125,65.7340187 L12.484375,65.7340187 Z M35.5,34.7340187 C33.0147095,34.7340187 31,32.7193092 31,30.2340187 C31,27.7487282 33.0147095,25.7340187 35.5,25.7340187 C37.9852905,25.7340187 40,27.7487282 40,30.2340187 C40,32.7193092 37.9852905,34.7340187 35.5,34.7340187 Z" id="key" fill="#FCBA04" transform="translate(23.500000, 42.234019) rotate(-360.000000) translate(-23.500000, -42.234019) "></path>
        </g>
    </g>
</svg>