<svg height="104" viewBox="0 0 185 104" width="185" xmlns="http://www.w3.org/2000/svg"><g fill="none" fill-rule="evenodd"><path d="m0 0h185v104h-185z" fill="#fafbfb"/><g transform="translate(68 19)"><circle cx="21" cy="21" fill="#e8e9eb" fill-rule="evenodd" r="18.48"/><path d="m31.7332838 26.2644571v-9.2724764c0-.9167932-1.0503115-1.4581981-1.8191347-.9312095l-3.9558515 2.7286669v5.6811568l3.9558515 2.7250717c.7651927.5269533 1.8191347-.0108211 1.8191347-.9312095z" fill="#2d2d2a" fill-rule="nonzero"/><path d="m24.7580303 28.56c.9528515 0 1.72527-.7724185 1.72527-1.7252701v-10.4094268c0-.9528515-.7724185-1.7252701-1.72527-1.7252701h-10.4094268c-.9528516 0-1.7252701.7724186-1.7252701 1.7252701v10.4094268c0 .9528516.7724185 1.7252701 1.7252701 1.7252701z" fill="#4a4a4a" fill-rule="nonzero"/><rect fill="#2d2d2a" fill-rule="evenodd" height="4.2" rx=".5" width="11.76" x="10.08" y="17.64"/></g><circle cx="114" cy="69" fill="#e8e9eb" fill-rule="evenodd" r="18.48"/><rect fill="#007c58" fill-rule="evenodd" height="17.64" rx=".5" width="25.2" x="101.4" y="60.6"/><g fill-rule="nonzero" transform="translate(106.44 64.464)"><path d="m16.128 0v2.78901c0 2.45385-1.49184 4.56456-3.6288 5.48625-.741888.3192-1.560384.49875-2.4192.49875s-1.677312-.17955-2.4192-.49875c-2.13696-.92169-3.6288-3.0324-3.6288-5.48625v-2.78901z" fill="#eac6bb"/><path d="m14.5135872 0v2.78901c0 2.45385-1.49184 4.56456-3.6288 5.48625-.5048064.217455-1.0475136.363489-1.6119936.4389.2649024.035112.5330304.05985.8072064.05985.858816 0 1.677312-.17955 2.4192-.49875 2.13696-.92169 3.6288-3.0324 3.6288-5.48625v-2.78901z" fill="#d3b1a9"/><path d="m12.4992 8.27526v5.28675h-4.8384v-5.28675c.741888.3192 1.560384.49875 2.4192.49875s1.677312-.17955 2.4192-.49875z" fill="#eac6bb"/></g><g fill-rule="nonzero" transform="translate(110.472 58.08)"><path d="m1.64945455 6.3555-1.64945455 1.6245v-3.1065c0-2.691255 2.21081891-4.8735 4.94836364-4.8735h4.39854545v2.166c1.51749821 0 2.74909091 1.21296 2.74909091 2.7075v3.1065l-1.6494545-1.6245s-2.04532368 1.083-4.3985455 1.083c-2.35872 0-4.39854545-1.083-4.39854545-1.083z" fill="#965353"/><path d="m9.324 3.7905c.6115032 0 1.1088.4857255 1.1088 1.083v1.083l1.6632 1.6245v-2.7075c0-1.49454-1.241856-2.7075-2.772-2.7075v-2.166h-1.6632v2.166c0 .8972655.7445592 1.6245 1.6632 1.6245z" fill="#844747"/></g><g transform="translate(106.44 72.045)"><g fill-rule="nonzero"><path d="m18.9504 5.985v2.793c0 .21945-.177408.399-.4032.399h-16.9344c-.22176 0-.4032-.17955-.4032-.399v-2.793c0-1.76358 1.443456-3.192 3.2256-3.192h2.8224 5.6448 2.8224c1.782144 0 3.2256 1.42842 3.2256 3.192z" fill="#4a4a4a"/><path d="m10.08 1.77401538c1.161216 0 2.25792-.26395384 3.2256-.73661538v1.96430769l-1.29024 1.22769231-1.93536-.61384615-1.93536.61384615-1.29024-1.22769231v-1.96430769c.96768.47266154 2.064384.73661538 3.2256.73661538z" fill="#6d7278"/><path d="m15.7248 2.793h-1.6144128c1.782144 0 3.2256 1.42842 3.2256 3.192v2.793c0 .21945-.177408.399-.4032.399h1.6144128c.225792 0 .4032-.17955.4032-.399v-2.793c0-1.76358-1.443456-3.192-3.2256-3.192z" fill="#2d2d2a"/></g><ellipse cx="10.08" cy="4.788" fill="#6d7278" fill-rule="evenodd" rx="1" ry="1"/><ellipse cx="10.08" cy="6.384" fill="#6d7278" fill-rule="evenodd" rx="1" ry="1"/><ellipse cx="10.08" cy="7.98" fill="#6d7278" fill-rule="evenodd" rx="1" ry="1"/></g><g fill-rule="nonzero"><g transform="translate(0 22)"><path d="m32 15.5c-.553 0-1-.447-1-1v-3c0-.553.447-1 1-1s1 .447 1 1v3c0 .553-.447 1-1 1z" fill="#545c66"/><g transform="translate(3 1)"><path d="m40 25.5h18v32h-18z" fill="#ccd1d9"/><path d="m29 13.5h-11v12 32h7v-10h8v10h7v-32-12z" fill="#e6e9ed"/><path d="m0 25.5h18v32h-18z" fill="#ccd1d9"/><path d="m44 38.5h5v5h-5z" fill="#5d9cec"/><circle cx="29" cy="5.5" fill="#f06543" r="5"/><g fill="#5d9cec"><path d="m24 20.5h5v5h-5z"/><path d="m29 29.5h5v5h-5z"/><path d="m44 29.5h5v5h-5z"/><path d="m44 47.5h5v5h-5z"/><path d="m29 38.5h5v5h-5z"/><path d="m49 38.5h5v5h-5z"/><path d="m49 29.5h5v5h-5z"/><path d="m24 29.5h5v5h-5z"/><path d="m24 38.5h5v5h-5z"/><path d="m4 47.5h5v5h-5z"/><path d="m9 47.5h5v5h-5z"/></g><path d="m25 47.5h8v10h-8z" fill="#f06543"/><path d="m9 29.5h5v5h-5z" fill="#5d9cec"/><path d="m4 38.5h5v5h-5z" fill="#5d9cec"/><path d="m9 38.5h5v5h-5z" fill="#5d9cec"/><path d="m29 20.5h5v5h-5z" fill="#5d9cec"/><path d="m49 47.5h5v5h-5z" fill="#5d9cec"/><path d="m4 29.5h5v5h-5z" fill="#5d9cec"/></g><g fill="#e6e9ed"><path d="m17.001 36h-10.001c-.276 0-.5-.224-.5-.5v-5c0-.276.224-.5.5-.5h10.001c.276 0 .5.224.5.5v5c0 .276-.224.5-.5.5zm-9.501-1h9.001v-4h-9.001z"/><path d="m12.001 36c-.276 0-.5-.224-.5-.5v-5c0-.276.224-.5.5-.5s.5.224.5.5v5c0 .276-.224.5-.5.5z"/><path d="m17.001 45h-10.001c-.276 0-.5-.224-.5-.5v-5c0-.276.224-.5.5-.5h10.001c.276 0 .5.224.5.5v5c0 .276-.224.5-.5.5zm-9.501-1h9.001v-4h-9.001z"/><path d="m12.001 45c-.276 0-.5-.224-.5-.5v-4.998c0-.276.224-.5.5-.5s.5.224.5.5v4.998c0 .276-.224.5-.5.5z"/><path d="m17.001 54.002h-10.001c-.276 0-.5-.224-.5-.5v-5c0-.276.224-.5.5-.5h10.001c.276 0 .5.224.5.5v5c0 .276-.224.5-.5.5zm-9.501-1h9.001v-4h-9.001z"/><path d="m12.001 54.002c-.276 0-.5-.224-.5-.5v-5c0-.276.224-.5.5-.5s.5.224.5.5v5c0 .276-.224.5-.5.5z"/><path d="m57 36h-10.001c-.276 0-.5-.224-.5-.5v-5c0-.276.224-.5.5-.5h10.001c.276 0 .5.224.5.5v5c0 .276-.224.5-.5.5zm-9.501-1h9.001v-4h-9.001z"/><path d="m52 36c-.276 0-.5-.224-.5-.5v-5c0-.276.224-.5.5-.5s.5.224.5.5v5c0 .276-.224.5-.5.5z"/></g><path d="m37.001 27.002h-10.001c-.276 0-.5-.224-.5-.5v-5c0-.276.224-.5.5-.5h10.001c.276 0 .5.224.5.5v5c0 .276-.224.5-.5.5zm-9.501-1h9.001v-4h-9.001z" fill="#fff"/><path d="m32.001 27.002c-.276 0-.5-.224-.5-.5v-5c0-.276.224-.5.5-.5s.5.224.5.5v5c0 .276-.224.5-.5.5z" fill="#fff"/><path d="m37.001 36.002h-10.001c-.276 0-.5-.224-.5-.5v-5c0-.276.224-.5.5-.5h10.001c.276 0 .5.224.5.5v5c0 .276-.224.5-.5.5zm-9.501-1h9.001v-4h-9.001z" fill="#fff"/><path d="m32.001 36.002c-.276 0-.5-.224-.5-.5v-5c0-.276.224-.5.5-.5s.5.224.5.5v5c0 .276-.224.5-.5.5z" fill="#fff"/><path d="m37.001 45h-10.001c-.276 0-.5-.224-.5-.5v-5c0-.276.224-.5.5-.5h10.001c.276 0 .5.224.5.5v5c0 .276-.224.5-.5.5zm-9.501-1h9.001v-4h-9.001z" fill="#fff"/><path d="m32.001 45c-.276 0-.5-.224-.5-.5v-4.998c0-.276.224-.5.5-.5s.5.224.5.5v4.998c0 .276-.224.5-.5.5z" fill="#fff"/><path d="m57 45h-10.001c-.276 0-.5-.224-.5-.5v-5c0-.276.224-.5.5-.5h10.001c.276 0 .5.224.5.5v5c0 .276-.224.5-.5.5zm-9.501-1h9.001v-4h-9.001z" fill="#e6e9ed"/><path d="m52 45c-.276 0-.5-.224-.5-.5v-4.998c0-.276.224-.5.5-.5s.5.224.5.5v4.998c0 .276-.224.5-.5.5z" fill="#e6e9ed"/><path d="m57 54.002h-10.001c-.276 0-.5-.224-.5-.5v-5c0-.276.224-.5.5-.5h10.001c.276 0 .5.224.5.5v5c0 .276-.224.5-.5.5zm-9.501-1h9.001v-4h-9.001z" fill="#e6e9ed"/><path d="m52 54.002c-.276 0-.5-.224-.5-.5v-5c0-.276.224-.5.5-.5s.5.224.5.5v5c0 .276-.224.5-.5.5z" fill="#e6e9ed"/><path d="m36 59h-8c-.276 0-.5-.224-.5-.5v-10c0-.276.224-.5.5-.5h8c.276 0 .5.224.5.5v10c0 .276-.224.5-.5.5zm-7.5-1h7v-9h-7z" fill="#f06543"/><path d="m42.999 15.5h-21.998c-.553 0-1-.447-1-1s.447-1 1-1h21.998c.553 0 1 .447 1 1s-.447 1-1 1z" fill="#656d78"/><path d="m60.999 25.5h-18.018v2h18.018c.553 0 1-.447 1-1s-.447-1-1-1z" fill="#545c66"/><path d="m2.982 27.5h18.018v-2h-18.018c-.553 0-1 .447-1 1s.448 1 1 1z" fill="#545c66"/><path d="m31.999 12.5c-3.309 0-6-2.691-6-6s2.691-6 6-6 6 2.691 6 6-2.691 6-6 6zm0-10c-2.206 0-4 1.794-4 4s1.794 4 4 4 4-1.794 4-4-1.794-4-4-4z" fill="#f06543"/><path d="m32 9.5c-.553 0-1-.447-1-1v-4c0-.553.447-1 1-1s1 .447 1 1v4c0 .553-.447 1-1 1z" fill="#e6e9ed"/><path d="m34 7.5h-4c-.553 0-1-.447-1-1s.447-1 1-1h4c.553 0 1 .447 1 1s-.447 1-1 1z" fill="#e6e9ed"/><path d="m63 59.5h-62c-.553 0-1-.447-1-1s.447-1 1-1h62c.553 0 1 .447 1 1s-.447 1-1 1z" fill="#656d78"/></g><g transform="translate(139 35)"><g transform="translate(3 1)"><path d="m22 12.5h18v32h-18z" fill="#ccd1d9"/><path d="m11 .5h-11v12 32h7v-10h8v10h7v-32-12z" fill="#e6e9ed"/><g fill="#5d9cec"><path d="m26 25.5h5v5h-5z"/><path d="m6 7.5h5v5h-5z"/><path d="m11 16.5h5v5h-5z"/><path d="m26 16.5h5v5h-5z"/><path d="m26 34.5h5v5h-5z"/><path d="m11 25.5h5v5h-5z"/><path d="m31 25.5h5v5h-5z"/><path d="m31 16.5h5v5h-5z"/><path d="m6 16.5h5v5h-5z"/><path d="m6 25.5h5v5h-5z"/></g><path d="m7 34.5h8v10h-8z" fill="#007bc0"/><path d="m11 7.5h5v5h-5z" fill="#5d9cec"/><path d="m31 34.5h5v5h-5z" fill="#5d9cec"/></g><path d="m39 23h-10.001c-.276 0-.5-.224-.5-.5v-5c0-.276.224-.5.5-.5h10.001c.276 0 .5.224.5.5v5c0 .276-.224.5-.5.5zm-9.501-1h9.001v-4h-9.001z" fill="#e6e9ed"/><path d="m34 23c-.276 0-.5-.224-.5-.5v-5c0-.276.224-.5.5-.5s.5.224.5.5v5c0 .276-.224.5-.5.5z" fill="#e6e9ed"/><g fill="#fff"><path d="m19.001 14.002h-10.001c-.276 0-.5-.224-.5-.5v-5c0-.276.224-.5.5-.5h10.001c.276 0 .5.224.5.5v5c0 .276-.224.5-.5.5zm-9.501-1h9.001v-4h-9.001z"/><path d="m14.001 14.002c-.276 0-.5-.224-.5-.5v-5c0-.276.224-.5.5-.5s.5.224.5.5v5c0 .276-.224.5-.5.5z"/><path d="m19.001 23.002h-10.001c-.276 0-.5-.224-.5-.5v-5c0-.276.224-.5.5-.5h10.001c.276 0 .5.224.5.5v5c0 .276-.224.5-.5.5zm-9.501-1h9.001v-4h-9.001z"/><path d="m14.001 23.002c-.276 0-.5-.224-.5-.5v-5c0-.276.224-.5.5-.5s.5.224.5.5v5c0 .276-.224.5-.5.5z"/><path d="m19.001 32h-10.001c-.276 0-.5-.224-.5-.5v-5c0-.276.224-.5.5-.5h10.001c.276 0 .5.224.5.5v5c0 .276-.224.5-.5.5zm-9.501-1h9.001v-4h-9.001z"/><path d="m14.001 32c-.276 0-.5-.224-.5-.5v-4.998c0-.276.224-.5.5-.5s.5.224.5.5v4.998c0 .276-.224.5-.5.5z"/></g><path d="m39 32h-10.001c-.276 0-.5-.224-.5-.5v-5c0-.276.224-.5.5-.5h10.001c.276 0 .5.224.5.5v5c0 .276-.224.5-.5.5zm-9.501-1h9.001v-4h-9.001z" fill="#e6e9ed"/><path d="m34 32c-.276 0-.5-.224-.5-.5v-4.998c0-.276.224-.5.5-.5s.5.224.5.5v4.998c0 .276-.224.5-.5.5z" fill="#e6e9ed"/><path d="m39 41.002h-10.001c-.276 0-.5-.224-.5-.5v-5c0-.276.224-.5.5-.5h10.001c.276 0 .5.224.5.5v5c0 .276-.224.5-.5.5zm-9.501-1h9.001v-4h-9.001z" fill="#e6e9ed"/><path d="m34 41.002c-.276 0-.5-.224-.5-.5v-5c0-.276.224-.5.5-.5s.5.224.5.5v5c0 .276-.224.5-.5.5z" fill="#e6e9ed"/><path d="m18 46h-8c-.276 0-.5-.224-.5-.5v-10c0-.276.224-.5.5-.5h8c.276 0 .5.224.5.5v10c0 .276-.224.5-.5.5zm-7.5-1h7v-9h-7z" fill="#007bc0"/><path d="m24.999 2.5h-21.998c-.553 0-1-.447-1-1s.447-1 1-1h21.998c.553 0 1 .447 1 1s-.447 1-1 1z" fill="#656d78"/><path d="m42.999 12.5h-18.018v2h18.018c.553 0 1-.447 1-1s-.447-1-1-1z" fill="#545c66"/><path d="m45 46.5h-44c-.553 0-1-.447-1-1s.447-1 1-1h44c.553 0 1 .447 1 1s-.447 1-1 1z" fill="#656d78"/></g></g></g></svg>