<svg height="104" viewBox="0 0 185 104" width="185" xmlns="http://www.w3.org/2000/svg"><g fill="none" fill-rule="evenodd"><circle cx="89" cy="40" fill="#e8e9eb" r="18.48"/><g transform="translate(78.92 32.44)"><path d="m0 0h19.9584v16.128h-19.9584z" fill="#fff"/><g fill="#ccd1d9" fill-rule="nonzero"><path d="m9.6731712 3.6306144h-7.2539712c-.3344544 0-.6048-.2703456-.6048-.6048s.2703456-.6048.6048-.6048h7.2539712c.3344544 0 .6048.2703456.6048.6048s-.2703456.6048-.6048.6048z"/><path d="m17.5392 3.6306144h-1.8144c-.3344544 0-.6048-.2703456-.6048-.6048s.2703456-.6048.6048-.6048h1.8144c.3344544 0 .6048.2703456.6048.6048s-.2703456.6048-.6048.6048z"/><path d="m6.6461472 6.0498144h-4.2269472c-.3344544 0-.6048-.2703456-.6048-.6048s.2703456-.6048.6048-.6048h4.2269472c.3344544 0 .6048.2703456.6048.6048s-.2703456.6048-.6048.6048z"/><path d="m17.5392 6.0498144h-1.8144c-.3344544 0-.6048-.2703456-.6048-.6048s.2703456-.6048.6048-.6048h1.8144c.3344544 0 .6048.2703456.6048.6048s-.2703456.6048-.6048.6048z"/><path d="m8.4623616 8.4690144h-6.0431616c-.3344544 0-.6048-.2703456-.6048-.6048s.2703456-.6048.6048-.6048h6.0431616c.3344544 0 .6048.2703456.6048.6048s-.2703456.6048-.6048.6048z"/><path d="m17.5392 8.4690144h-1.8144c-.3344544 0-.6048-.2703456-.6048-.6048s.2703456-.6048.6048-.6048h1.8144c.3344544 0 .6048.2703456.6048.6048s-.2703456.6048-.6048.6048z"/><path d="m12.0947904 10.8882144h-9.6755904c-.3344544 0-.6048-.2703456-.6048-.6048s.2703456-.6048.6048-.6048h9.6755904c.3344544 0 .6048.2703456.6048.6048s-.2703456.6048-.6048.6048z"/><path d="m17.5392 10.8882144h-1.8144c-.3344544 0-.6048-.2703456-.6048-.6048s.2703456-.6048.6048-.6048h1.8144c.3344544 0 .6048.2703456.6048.6048s-.2703456.6048-.6048.6048z"/><path d="m8.4623616 13.3074144h-5.7413664c-.3344544 0-.6048-.2703456-.6048-.6048s.2703456-.6048.6048-.6048h5.7413664c.3344544 0 .6048.2703456.6048.6048s-.2703456.6048-.6048.6048z"/></g></g><circle cx="114" cy="69" fill="#e8e9eb" fill-rule="evenodd" r="18.48"/><g fill-rule="nonzero"><g transform="translate(107.28 59.760031)"><path d="m7.7731095 17.6399689c.32315442 0 .73058825-.2194826.909078-.4919937l.58319092-.8851648c.09324389-.1548458.17595703-.4274579.18462158-.6084814v-3.0010009h-5.46l.00203284 3.0010009c.0003999.1833116.08234655.45589.18292199.6084814l.58352417.8851648c.17848975.2725111.58595691.4919937.90911133.4919937z" fill="#798ca3"/><path d="m9.454099 13.2307668c0-.0086138.00239941-.0172275.00376575-.0268843.33611792-1.1445871 1.21790255-2.501086 1.78166495-3.1505501.8205329-.94253379 1.4864703-2.72591861 1.4864703-3.98080214v-.00841187c0-3.35489133-2.6989409-6.07475338-6.02476208-6.06411839-3.48108326.01069752-5.98723792 2.85979962-5.98723792 6.06411839v.00841187c0 1.25488353.66593738 3.03826835 1.48647034 3.98080214.56376233.6494641 1.44554699 2.005963 1.78166491 3.1505501 0 .0096568.00239942.0182705.00376575.0268843z" fill="#fcba04"/><path d="m3.444 6.61539904c-.30139307 0-.546-.24697266-.546-.55128065.00226611-2.12786793 1.71451465-3.8566765 3.822-3.85896453.30139307 0 .546.24697265.546.55128064 0 .304308-.24460693.55128065-.546.55128065-1.50526575.00171602-2.72830042 1.23657929-2.73 2.75640324 0 .30430799-.24460693.55128065-.546.55128065z" fill="#ffe293"/></g><g transform="translate(0 22)"><path d="m32 15.5c-.553 0-1-.447-1-1v-3c0-.553.447-1 1-1s1 .447 1 1v3c0 .553-.447 1-1 1z" fill="#545c66"/><g transform="translate(3 1)"><path d="m40 25.5h18v32h-18z" fill="#ccd1d9"/><path d="m29 13.5h-11v12 32h7v-10h8v10h7v-32-12z" fill="#e6e9ed"/><path d="m0 25.5h18v32h-18z" fill="#ccd1d9"/><path d="m44 38.5h5v5h-5z" fill="#5d9cec"/><circle cx="29" cy="5.5" fill="#f06543" r="5"/><g fill="#5d9cec"><path d="m24 20.5h5v5h-5z"/><path d="m29 29.5h5v5h-5z"/><path d="m44 29.5h5v5h-5z"/><path d="m44 47.5h5v5h-5z"/><path d="m29 38.5h5v5h-5z"/><path d="m49 38.5h5v5h-5z"/><path d="m49 29.5h5v5h-5z"/><path d="m24 29.5h5v5h-5z"/><path d="m24 38.5h5v5h-5z"/><path d="m4 47.5h5v5h-5z"/><path d="m9 47.5h5v5h-5z"/></g><path d="m25 47.5h8v10h-8z" fill="#f06543"/><path d="m9 29.5h5v5h-5z" fill="#5d9cec"/><path d="m4 38.5h5v5h-5z" fill="#5d9cec"/><path d="m9 38.5h5v5h-5z" fill="#5d9cec"/><path d="m29 20.5h5v5h-5z" fill="#5d9cec"/><path d="m49 47.5h5v5h-5z" fill="#5d9cec"/><path d="m4 29.5h5v5h-5z" fill="#5d9cec"/></g><g fill="#e6e9ed"><path d="m17.001 36h-10.001c-.276 0-.5-.224-.5-.5v-5c0-.276.224-.5.5-.5h10.001c.276 0 .5.224.5.5v5c0 .276-.224.5-.5.5zm-9.501-1h9.001v-4h-9.001z"/><path d="m12.001 36c-.276 0-.5-.224-.5-.5v-5c0-.276.224-.5.5-.5s.5.224.5.5v5c0 .276-.224.5-.5.5z"/><path d="m17.001 45h-10.001c-.276 0-.5-.224-.5-.5v-5c0-.276.224-.5.5-.5h10.001c.276 0 .5.224.5.5v5c0 .276-.224.5-.5.5zm-9.501-1h9.001v-4h-9.001z"/><path d="m12.001 45c-.276 0-.5-.224-.5-.5v-4.998c0-.276.224-.5.5-.5s.5.224.5.5v4.998c0 .276-.224.5-.5.5z"/><path d="m17.001 54.002h-10.001c-.276 0-.5-.224-.5-.5v-5c0-.276.224-.5.5-.5h10.001c.276 0 .5.224.5.5v5c0 .276-.224.5-.5.5zm-9.501-1h9.001v-4h-9.001z"/><path d="m12.001 54.002c-.276 0-.5-.224-.5-.5v-5c0-.276.224-.5.5-.5s.5.224.5.5v5c0 .276-.224.5-.5.5z"/><path d="m57 36h-10.001c-.276 0-.5-.224-.5-.5v-5c0-.276.224-.5.5-.5h10.001c.276 0 .5.224.5.5v5c0 .276-.224.5-.5.5zm-9.501-1h9.001v-4h-9.001z"/><path d="m52 36c-.276 0-.5-.224-.5-.5v-5c0-.276.224-.5.5-.5s.5.224.5.5v5c0 .276-.224.5-.5.5z"/></g><path d="m37.001 27.002h-10.001c-.276 0-.5-.224-.5-.5v-5c0-.276.224-.5.5-.5h10.001c.276 0 .5.224.5.5v5c0 .276-.224.5-.5.5zm-9.501-1h9.001v-4h-9.001z" fill="#fff"/><path d="m32.001 27.002c-.276 0-.5-.224-.5-.5v-5c0-.276.224-.5.5-.5s.5.224.5.5v5c0 .276-.224.5-.5.5z" fill="#fff"/><path d="m37.001 36.002h-10.001c-.276 0-.5-.224-.5-.5v-5c0-.276.224-.5.5-.5h10.001c.276 0 .5.224.5.5v5c0 .276-.224.5-.5.5zm-9.501-1h9.001v-4h-9.001z" fill="#fff"/><path d="m32.001 36.002c-.276 0-.5-.224-.5-.5v-5c0-.276.224-.5.5-.5s.5.224.5.5v5c0 .276-.224.5-.5.5z" fill="#fff"/><path d="m37.001 45h-10.001c-.276 0-.5-.224-.5-.5v-5c0-.276.224-.5.5-.5h10.001c.276 0 .5.224.5.5v5c0 .276-.224.5-.5.5zm-9.501-1h9.001v-4h-9.001z" fill="#fff"/><path d="m32.001 45c-.276 0-.5-.224-.5-.5v-4.998c0-.276.224-.5.5-.5s.5.224.5.5v4.998c0 .276-.224.5-.5.5z" fill="#fff"/><path d="m57 45h-10.001c-.276 0-.5-.224-.5-.5v-5c0-.276.224-.5.5-.5h10.001c.276 0 .5.224.5.5v5c0 .276-.224.5-.5.5zm-9.501-1h9.001v-4h-9.001z" fill="#e6e9ed"/><path d="m52 45c-.276 0-.5-.224-.5-.5v-4.998c0-.276.224-.5.5-.5s.5.224.5.5v4.998c0 .276-.224.5-.5.5z" fill="#e6e9ed"/><path d="m57 54.002h-10.001c-.276 0-.5-.224-.5-.5v-5c0-.276.224-.5.5-.5h10.001c.276 0 .5.224.5.5v5c0 .276-.224.5-.5.5zm-9.501-1h9.001v-4h-9.001z" fill="#e6e9ed"/><path d="m52 54.002c-.276 0-.5-.224-.5-.5v-5c0-.276.224-.5.5-.5s.5.224.5.5v5c0 .276-.224.5-.5.5z" fill="#e6e9ed"/><path d="m36 59h-8c-.276 0-.5-.224-.5-.5v-10c0-.276.224-.5.5-.5h8c.276 0 .5.224.5.5v10c0 .276-.224.5-.5.5zm-7.5-1h7v-9h-7z" fill="#f06543"/><path d="m42.999 15.5h-21.998c-.553 0-1-.447-1-1s.447-1 1-1h21.998c.553 0 1 .447 1 1s-.447 1-1 1z" fill="#656d78"/><path d="m60.999 25.5h-18.018v2h18.018c.553 0 1-.447 1-1s-.447-1-1-1z" fill="#545c66"/><path d="m2.982 27.5h18.018v-2h-18.018c-.553 0-1 .447-1 1s.448 1 1 1z" fill="#545c66"/><path d="m31.999 12.5c-3.309 0-6-2.691-6-6s2.691-6 6-6 6 2.691 6 6-2.691 6-6 6zm0-10c-2.206 0-4 1.794-4 4s1.794 4 4 4 4-1.794 4-4-1.794-4-4-4z" fill="#f06543"/><path d="m32 9.5c-.553 0-1-.447-1-1v-4c0-.553.447-1 1-1s1 .447 1 1v4c0 .553-.447 1-1 1z" fill="#e6e9ed"/><path d="m34 7.5h-4c-.553 0-1-.447-1-1s.447-1 1-1h4c.553 0 1 .447 1 1s-.447 1-1 1z" fill="#e6e9ed"/><path d="m63 59.5h-62c-.553 0-1-.447-1-1s.447-1 1-1h62c.553 0 1 .447 1 1s-.447 1-1 1z" fill="#656d78"/></g><g transform="translate(139 35)"><g transform="translate(3 1)"><path d="m22 12.5h18v32h-18z" fill="#ccd1d9"/><path d="m11 .5h-11v12 32h7v-10h8v10h7v-32-12z" fill="#e6e9ed"/><g fill="#5d9cec"><path d="m26 25.5h5v5h-5z"/><path d="m6 7.5h5v5h-5z"/><path d="m11 16.5h5v5h-5z"/><path d="m26 16.5h5v5h-5z"/><path d="m26 34.5h5v5h-5z"/><path d="m11 25.5h5v5h-5z"/><path d="m31 25.5h5v5h-5z"/><path d="m31 16.5h5v5h-5z"/><path d="m6 16.5h5v5h-5z"/><path d="m6 25.5h5v5h-5z"/></g><path d="m7 34.5h8v10h-8z" fill="#007bc0"/><path d="m11 7.5h5v5h-5z" fill="#5d9cec"/><path d="m31 34.5h5v5h-5z" fill="#5d9cec"/></g><path d="m39 23h-10.001c-.276 0-.5-.224-.5-.5v-5c0-.276.224-.5.5-.5h10.001c.276 0 .5.224.5.5v5c0 .276-.224.5-.5.5zm-9.501-1h9.001v-4h-9.001z" fill="#e6e9ed"/><path d="m34 23c-.276 0-.5-.224-.5-.5v-5c0-.276.224-.5.5-.5s.5.224.5.5v5c0 .276-.224.5-.5.5z" fill="#e6e9ed"/><g fill="#fff"><path d="m19.001 14.002h-10.001c-.276 0-.5-.224-.5-.5v-5c0-.276.224-.5.5-.5h10.001c.276 0 .5.224.5.5v5c0 .276-.224.5-.5.5zm-9.501-1h9.001v-4h-9.001z"/><path d="m14.001 14.002c-.276 0-.5-.224-.5-.5v-5c0-.276.224-.5.5-.5s.5.224.5.5v5c0 .276-.224.5-.5.5z"/><path d="m19.001 23.002h-10.001c-.276 0-.5-.224-.5-.5v-5c0-.276.224-.5.5-.5h10.001c.276 0 .5.224.5.5v5c0 .276-.224.5-.5.5zm-9.501-1h9.001v-4h-9.001z"/><path d="m14.001 23.002c-.276 0-.5-.224-.5-.5v-5c0-.276.224-.5.5-.5s.5.224.5.5v5c0 .276-.224.5-.5.5z"/><path d="m19.001 32h-10.001c-.276 0-.5-.224-.5-.5v-5c0-.276.224-.5.5-.5h10.001c.276 0 .5.224.5.5v5c0 .276-.224.5-.5.5zm-9.501-1h9.001v-4h-9.001z"/><path d="m14.001 32c-.276 0-.5-.224-.5-.5v-4.998c0-.276.224-.5.5-.5s.5.224.5.5v4.998c0 .276-.224.5-.5.5z"/></g><path d="m39 32h-10.001c-.276 0-.5-.224-.5-.5v-5c0-.276.224-.5.5-.5h10.001c.276 0 .5.224.5.5v5c0 .276-.224.5-.5.5zm-9.501-1h9.001v-4h-9.001z" fill="#e6e9ed"/><path d="m34 32c-.276 0-.5-.224-.5-.5v-4.998c0-.276.224-.5.5-.5s.5.224.5.5v4.998c0 .276-.224.5-.5.5z" fill="#e6e9ed"/><path d="m39 41.002h-10.001c-.276 0-.5-.224-.5-.5v-5c0-.276.224-.5.5-.5h10.001c.276 0 .5.224.5.5v5c0 .276-.224.5-.5.5zm-9.501-1h9.001v-4h-9.001z" fill="#e6e9ed"/><path d="m34 41.002c-.276 0-.5-.224-.5-.5v-5c0-.276.224-.5.5-.5s.5.224.5.5v5c0 .276-.224.5-.5.5z" fill="#e6e9ed"/><path d="m18 46h-8c-.276 0-.5-.224-.5-.5v-10c0-.276.224-.5.5-.5h8c.276 0 .5.224.5.5v10c0 .276-.224.5-.5.5zm-7.5-1h7v-9h-7z" fill="#007bc0"/><path d="m24.999 2.5h-21.998c-.553 0-1-.447-1-1s.447-1 1-1h21.998c.553 0 1 .447 1 1s-.447 1-1 1z" fill="#656d78"/><path d="m42.999 12.5h-18.018v2h18.018c.553 0 1-.447 1-1s-.447-1-1-1z" fill="#545c66"/><path d="m45 46.5h-44c-.553 0-1-.447-1-1s.447-1 1-1h44c.553 0 1 .447 1 1s-.447 1-1 1z" fill="#656d78"/></g></g></g></svg>