<svg height="104" viewBox="0 0 185 104" width="185" xmlns="http://www.w3.org/2000/svg"><g fill="none" fill-rule="evenodd"><path d="m0 0h185v104h-185z" fill="#fafbfb"/><rect fill="#007bc0" height="67" rx="1" width="67" x="96" y="21"/><g fill-rule="nonzero"><g transform="translate(127 46)"><path d="m40 0v6.99c0 6.15-3.7 11.44-9 13.75-1.84.8-3.87 1.25-6 1.25s-4.16-.45-6-1.25c-5.3-2.31-9-7.6-9-13.75v-6.99z" fill="#eac6bb"/><path d="m35.996 0v6.99c0 6.15-3.7 11.44-9 13.75-1.252.545-2.598.911-3.998 1.1.657.088 1.322.15 2.002.15 2.13 0 4.16-.45 6-1.25 5.3-2.31 9-7.6 9-13.75v-6.99z" fill="#d3b1a9"/><path d="m31 20.74v13.25h-12v-13.25c1.84.8 3.87 1.25 6 1.25s4.16-.45 6-1.25z" fill="#eac6bb"/></g><g transform="translate(137 30)"><path d="m0 9.33333333c0-2.95111111 1.78666667-5.33333333 4-5.33333333v10.6666667c0 2.9511111-1.78666667 5.3333333-4 5.3333333z" fill="#e9573f"/><path d="m30 14.9124191v12.0875809c0-3.3815686-1.7188889-6.3626322-4.3333333-8.1521225v-.0142023c-1.6322223-1.121982-3.6255556-1.775288-5.7777778-1.775288v-.0298248h-11.55555557c-2.39777777 0-4.33333333.0968913-4.33333333-2.2606912v-10.52138233c2.75888889-2.76944926 6.5866667-4.24648887 10.8333333-4.24648887 8.3777778 0 15.1666667 6.67508285 15.1666667 14.9124191z" fill="#fc6e51"/><path d="m15.1879512 0c-.7462451 0-1.4727408.06391037-2.1879512.1590658 7.2085304 1.00552312 12.763754 7.21761086 12.763754 14.7533533v3.9184157c.0014107.0014202.0028214.0014202.0042321.0028404v.0142023c2.553315 1.7894903 4.2320139 4.7705539 4.2320139 8.1521225v-12.0875809c0-8.23733625-6.6301552-14.9124191-14.8120488-14.9124191z" fill="#e9573f"/></g><g transform="translate(127 30)"><path d="m40.999 29h-10c-.553 0-1-.447-1-1s.447-1 1-1h10c.553 0 1 .447 1 1s-.447 1-1 1z" fill="#4a4a4a" transform="matrix(.70710678 -.70710678 .70710678 .70710678 -9.255127 33.656147)"/><path d="m31.3333333 33h-1.6666666c-.9216667 0-1.6666667-.6705-1.6666667-1.5s.745-1.5 1.6666667-1.5h1.6666666c.9216667 0 1.6666667.6705 1.6666667 1.5s-.745 1.5-1.6666667 1.5z" fill="#2d2d2a"/></g></g><g transform="translate(127 65)"><g fill-rule="nonzero"><path d="m47 15v7c0 .55-.44 1-1 1h-42c-.55 0-1-.45-1-1v-7c0-4.42 3.58-8 8-8h7 14 7c4.42 0 8 3.58 8 8z" fill="#fcba04"/><path d="m25 4.44615385c2.88 0 5.6-.66153847 8-1.84615385v4.92307692l-3.2 3.07692308-4.8-1.53846154-4.8 1.53846154-3.2-3.07692308v-4.92307692c2.4 1.18461538 5.12 1.84615385 8 1.84615385z" fill="#ffd971"/><path d="m39 7h-4.004c4.42 0 8 3.58 8 8v7c0 .55-.44 1-1 1h4.004c.56 0 1-.45 1-1v-7c0-4.42-3.58-8-8-8z" fill="#daa000"/></g><circle cx="25" cy="12" fill="#ffd971" fill-rule="evenodd" r="1"/></g><circle cx="96" cy="55" fill="#e8e9eb" r="18.48"/><g transform="translate(85.92 47.44)"><path d="m0 0h19.9584v16.128h-19.9584z" fill="#fff"/><g fill="#ccd1d9" fill-rule="nonzero"><path d="m9.6731712 3.6306144h-7.2539712c-.3344544 0-.6048-.2703456-.6048-.6048s.2703456-.6048.6048-.6048h7.2539712c.3344544 0 .6048.2703456.6048.6048s-.2703456.6048-.6048.6048z"/><path d="m17.5392 3.6306144h-1.8144c-.3344544 0-.6048-.2703456-.6048-.6048s.2703456-.6048.6048-.6048h1.8144c.3344544 0 .6048.2703456.6048.6048s-.2703456.6048-.6048.6048z"/><path d="m6.6461472 6.0498144h-4.2269472c-.3344544 0-.6048-.2703456-.6048-.6048s.2703456-.6048.6048-.6048h4.2269472c.3344544 0 .6048.2703456.6048.6048s-.2703456.6048-.6048.6048z"/><path d="m17.5392 6.0498144h-1.8144c-.3344544 0-.6048-.2703456-.6048-.6048s.2703456-.6048.6048-.6048h1.8144c.3344544 0 .6048.2703456.6048.6048s-.2703456.6048-.6048.6048z"/><path d="m8.4623616 8.4690144h-6.0431616c-.3344544 0-.6048-.2703456-.6048-.6048s.2703456-.6048.6048-.6048h6.0431616c.3344544 0 .6048.2703456.6048.6048s-.2703456.6048-.6048.6048z"/><path d="m17.5392 8.4690144h-1.8144c-.3344544 0-.6048-.2703456-.6048-.6048s.2703456-.6048.6048-.6048h1.8144c.3344544 0 .6048.2703456.6048.6048s-.2703456.6048-.6048.6048z"/><path d="m12.0947904 10.8882144h-9.6755904c-.3344544 0-.6048-.2703456-.6048-.6048s.2703456-.6048.6048-.6048h9.6755904c.3344544 0 .6048.2703456.6048.6048s-.2703456.6048-.6048.6048z"/><path d="m17.5392 10.8882144h-1.8144c-.3344544 0-.6048-.2703456-.6048-.6048s.2703456-.6048.6048-.6048h1.8144c.3344544 0 .6048.2703456.6048.6048s-.2703456.6048-.6048.6048z"/><path d="m8.4623616 13.3074144h-5.7413664c-.3344544 0-.6048-.2703456-.6048-.6048s.2703456-.6048.6048-.6048h5.7413664c.3344544 0 .6048.2703456.6048.6048s-.2703456.6048-.6048.6048z"/></g></g></g></svg>