<?xml version="1.0" encoding="UTF-8"?>
<svg width="1047px" height="588px" viewBox="0 0 1047 588" version="1.1" xmlns="http://www.w3.org/2000/svg" xmlns:xlink="http://www.w3.org/1999/xlink">
    <title>svg/sweater</title>
    <g id="svg/sweater" stroke="none" stroke-width="1" fill="none" fill-rule="evenodd">
        <rect fill="#FFFFFF" x="0" y="0" width="1047" height="588"></rect>
        <g id="trui" transform="translate(523.071543, 293.917816) rotate(-354.000000) translate(-523.071543, -293.917816) translate(318.285876, 89.115099)" fill-rule="nonzero">
            <g id="sweater-svgrepo-com" transform="translate(0.000000, 0.000000)" fill="#27BAFF">
                <path d="M364.333384,59.2774339 C360.544384,54.8654339 356.534384,52.2114339 352.386384,51.1624339 L277.788384,1.43843393 C275.569384,-0.0465660746 272.787384,-0.396566075 270.287384,0.457433925 C267.770384,1.32743393 265.798384,3.30743393 264.962384,5.83343393 C264.706384,6.59343393 246.780085,16.2579258 203.169027,17.0800327 C174.094989,17.628104 154.247775,13.3469044 143.627384,4.23643393 C142.603384,2.54643393 141.195384,1.11343393 139.284384,0.456433925 C136.775384,-0.396566075 133.993384,-0.0385660746 131.783384,1.43743393 L57.1933845,51.1614339 C53.0373845,52.2114339 49.0273845,54.8644339 45.2383845,59.2764339 C18.7163845,90.1164339 -10.0156155,222.374434 3.41538449,367.714434 C3.71438449,370.897434 5.75338449,373.491434 8.51838449,374.703434 L8.51838449,392.538434 C8.51838449,401.942434 16.1813845,409.605434 25.5853845,409.605434 L51.1853845,409.605434 C60.5973845,409.605434 68.2523845,401.942434 68.2523845,392.538434 L68.2523845,373.696434 C69.8653845,372.476434 71.0593845,370.726434 71.4863845,368.636434 C71.5203845,368.431434 73.8243845,357.176434 77.2373845,344.060434 L85.7623845,369.634434 C86.9233845,373.116434 90.1743845,375.471434 93.8523845,375.471434 L93.8523845,392.538434 C93.8523845,401.942434 101.515384,409.605434 110.919384,409.605434 L298.652384,409.605434 C308.064384,409.605434 315.719384,401.942434 315.719384,392.538434 L315.719384,375.471434 C319.397384,375.471434 322.657384,373.116434 323.809384,369.634434 L332.146384,344.580434 C332.180384,344.495434 332.248384,344.307434 332.342384,344.068434 C335.747384,357.184434 338.051384,368.431434 338.085384,368.635434 C338.512384,370.726434 339.715384,372.475434 341.319384,373.695434 L341.319384,392.537434 C341.319384,401.941434 348.982384,409.605434 358.386384,409.605434 L383.986384,409.605434 C393.398384,409.605434 401.053384,401.941434 401.053384,392.537434 L401.053384,374.702434 C403.818384,373.490434 405.857384,370.896434 406.156384,367.713434 C419.586384,222.374434 390.854384,90.1164339 364.333384,59.2774339 Z" id="Shape"></path>
            </g>
            <g id="RECONCEPT_" transform="translate(102.941172, 136.566054)" fill="#FFFFFF">
                <path d="M4.81039463,22.2985075 L4.81039463,14.4067164 L7.46102025,14.4067164 L11.5514919,22.2985075 L16.9509144,22.2985075 L12.107796,13.5335821 C13.264036,13.0186567 14.1857556,12.2406716 14.8729548,11.1996269 C15.5601541,10.1585821 15.9037537,8.83208955 15.9037537,7.22014925 C15.9037537,5.92164179 15.6855952,4.8358209 15.2492782,3.96268657 C14.8129613,3.08955224 14.2239333,2.38992537 13.4821945,1.86380597 C12.7404556,1.33768657 11.8732756,0.962686567 10.8806545,0.73880597 C9.88803341,0.514925373 8.82451079,0.402985075 7.69008666,0.402985075 L7.69008666,0.402985075 L-1.80381183e-12,0.402985075 L-1.80381183e-12,22.2985075 L4.81039463,22.2985075 Z M7.29740138,10.4776119 L4.81039463,10.4776119 L4.81039463,4.33208955 L7.29740138,4.33208955 C8.56272061,4.33208955 9.52807191,4.54477612 10.1934553,4.97014925 C10.8588387,5.39552239 11.1915304,6.14552239 11.1915304,7.22014925 C11.1915304,8.29477612 10.8588387,9.10634328 10.1934553,9.65485075 C9.52807191,10.2033582 8.56272061,10.4776119 7.29740138,10.4776119 L7.29740138,10.4776119 Z M35.5561973,22.2985075 L35.5561973,18.1343284 L26.6880548,18.1343284 L26.6880548,13.0970149 L33.9527324,13.0970149 L33.9527324,8.96641791 L26.6880548,8.96641791 L26.6880548,4.56716418 L35.2289595,4.56716418 L35.2289595,0.402985075 L21.8776601,0.402985075 L21.8776601,22.2985075 L35.5561973,22.2985075 Z M50.5291413,22.7014925 C53.3433858,22.7014925 55.6449578,21.6268657 57.4338574,19.4776119 L57.4338574,19.4776119 L54.8814031,16.3880597 C54.3578227,16.9701493 53.7524329,17.4570896 53.0652337,17.8488806 C52.3780345,18.2406716 51.5981179,18.4365672 50.7254839,18.4365672 C49.1547428,18.4365672 47.9003315,17.8152985 46.96225,16.5727612 C46.0241685,15.3302239 45.5551278,13.5783582 45.5551278,11.3171642 C45.5551278,10.2201493 45.6914768,9.23507463 45.964175,8.3619403 C46.2368731,7.48880597 46.6077425,6.75 47.0767832,6.14552239 C47.545824,5.54104478 48.1021281,5.07649254 48.7456957,4.75186567 C49.3892632,4.42723881 50.0710085,4.26492537 50.7909315,4.26492537 C51.5544862,4.26492537 52.2362315,4.42723881 52.8361673,4.75186567 C53.4361031,5.07649254 54.0087692,5.49626866 54.5541654,6.01119403 L54.5541654,6.01119403 L57.1066197,2.85447761 C56.3866967,2.09328358 55.4813389,1.42723881 54.3905465,0.856343284 C53.2997541,0.285447761 52.0671586,-1.20893689e-14 50.6927602,-1.20893689e-14 C49.3401775,-1.20893689e-14 48.0530425,0.257462687 46.8313549,0.77238806 C45.6096674,1.28731343 44.5406908,2.03731343 43.6244252,3.02238806 C42.7081595,4.00746269 41.9773286,5.2108209 41.4319324,6.63246269 C40.8865362,8.05410448 40.6138381,9.67164179 40.6138381,11.4850746 C40.6138381,13.3208955 40.8756283,14.9384328 41.3992086,16.3376866 C41.922789,17.7369403 42.637258,18.9067164 43.5426158,19.8470149 C44.4479735,20.7873134 45.5005882,21.4981343 46.7004599,21.9794776 C47.9003315,22.4608209 49.1765587,22.7014925 50.5291413,22.7014925 Z M69.9525185,22.7014925 C71.3923645,22.7014925 72.7067694,22.4384328 73.8957331,21.9123134 C75.0846969,21.386194 76.1045878,20.630597 76.9554059,19.6455224 C77.806224,18.6604478 78.4661534,17.4626866 78.9351941,16.0522388 C79.4042349,14.641791 79.6387553,13.0410448 79.6387553,11.25 C79.6387553,9.48134328 79.4042349,7.89738806 78.9351941,6.49813433 C78.4661534,5.0988806 77.806224,3.91791045 76.9554059,2.95522388 C76.1045878,1.99253731 75.0846969,1.25932836 73.8957331,0.755597015 C72.7067694,0.251865672 71.3923645,9.09393278e-14 69.9525185,9.09393278e-14 C68.5126724,9.09393278e-14 67.1982676,0.251865672 66.0093038,0.755597015 C64.8203401,1.25932836 63.8004491,1.9869403 62.949631,2.93843284 C62.0988129,3.88992537 61.4388835,5.06529851 60.9698428,6.46455224 C60.500802,7.86380597 60.2662816,9.45895522 60.2662816,11.25 C60.2662816,13.0410448 60.500802,14.641791 60.9698428,16.0522388 C61.4388835,17.4626866 62.0988129,18.6604478 62.949631,19.6455224 C63.8004491,20.630597 64.8203401,21.386194 66.0093038,21.9123134 C67.1982676,22.4384328 68.5126724,22.7014925 69.9525185,22.7014925 Z M69.9525185,18.4365672 C68.4908566,18.4365672 67.3346166,17.7929104 66.4837985,16.505597 C65.6329804,15.2182836 65.2075714,13.4664179 65.2075714,11.25 C65.2075714,9.05597015 65.6329804,7.34328358 66.4837985,6.1119403 C67.3346166,4.88059701 68.4908566,4.26492537 69.9525185,4.26492537 C71.4141803,4.26492537 72.5704203,4.88059701 73.4212384,6.1119403 C74.2720565,7.34328358 74.6974655,9.05597015 74.6974655,11.25 C74.6974655,13.4664179 74.2720565,15.2182836 73.4212384,16.505597 C72.5704203,17.7929104 71.4141803,18.4365672 69.9525185,18.4365672 Z M90.0630949,22.2985075 L90.0630949,14.5410448 C90.0630949,13.2425373 89.9921933,11.8992537 89.8503903,10.511194 C89.7085873,9.12313433 89.5831462,7.82462687 89.4740669,6.61567164 L89.4740669,6.61567164 L89.604962,6.61567164 L91.6992835,11.3843284 L97.2623249,22.2985075 L102.203615,22.2985075 L102.203615,0.402985075 L97.6222864,0.402985075 L97.6222864,8.12686567 C97.6222864,9.42537313 97.6931879,10.7910448 97.8349909,12.2238806 C97.976794,13.6567164 98.1022351,14.9552239 98.2113143,16.119403 L98.2113143,16.119403 L98.0804192,16.119403 L95.9860978,11.2835821 L90.4230564,0.402985075 L85.4817666,0.402985075 L85.4817666,22.2985075 L90.0630949,22.2985075 Z M117.961929,22.7014925 C120.776174,22.7014925 123.077746,21.6268657 124.866645,19.4776119 L124.866645,19.4776119 L122.314191,16.3880597 C121.790611,16.9701493 121.185221,17.4570896 120.498022,17.8488806 C119.810822,18.2406716 119.030906,18.4365672 118.158272,18.4365672 C116.587531,18.4365672 115.333119,17.8152985 114.395038,16.5727612 C113.456956,15.3302239 112.987916,13.5783582 112.987916,11.3171642 C112.987916,10.2201493 113.124265,9.23507463 113.396963,8.3619403 C113.669661,7.48880597 114.04053,6.75 114.509571,6.14552239 C114.978612,5.54104478 115.534916,5.07649254 116.178484,4.75186567 C116.822051,4.42723881 117.503796,4.26492537 118.223719,4.26492537 C118.987274,4.26492537 119.669019,4.42723881 120.268955,4.75186567 C120.868891,5.07649254 121.441557,5.49626866 121.986953,6.01119403 L121.986953,6.01119403 L124.539408,2.85447761 C123.819485,2.09328358 122.914127,1.42723881 121.823334,0.856343284 C120.732542,0.285447761 119.499947,8.56102573e-14 118.125548,8.56102573e-14 C116.772965,8.56102573e-14 115.48583,0.257462687 114.264143,0.77238806 C113.042455,1.28731343 111.973479,2.03731343 111.057213,3.02238806 C110.140947,4.00746269 109.410117,5.2108209 108.86472,6.63246269 C108.319324,8.05410448 108.046626,9.67164179 108.046626,11.4850746 C108.046626,13.3208955 108.308416,14.9384328 108.831997,16.3376866 C109.355577,17.7369403 110.070046,18.9067164 110.975404,19.8470149 C111.880761,20.7873134 112.933376,21.4981343 114.133248,21.9794776 C115.333119,22.4608209 116.609347,22.7014925 117.961929,22.7014925 Z M143.602823,22.2985075 L143.602823,18.1343284 L134.734681,18.1343284 L134.734681,13.0970149 L141.999358,13.0970149 L141.999358,8.96641791 L134.734681,8.96641791 L134.734681,4.56716418 L143.275586,4.56716418 L143.275586,0.402985075 L129.924286,0.402985075 L129.924286,22.2985075 L143.602823,22.2985075 Z M154.485296,22.2985075 L154.485296,14.8768657 L157.135921,14.8768657 C158.270345,14.8768657 159.339322,14.7313433 160.342851,14.4402985 C161.34638,14.1492537 162.229922,13.7014925 162.993477,13.0970149 C163.757031,12.4925373 164.362421,11.7201493 164.809646,10.7798507 C165.256871,9.83955224 165.480483,8.73134328 165.480483,7.45522388 C165.480483,6.13432836 165.256871,5.02052239 164.809646,4.11380597 C164.362421,3.20708955 163.757031,2.47947761 162.993477,1.93097015 C162.229922,1.38246269 161.335472,0.990671642 160.310127,0.755597015 C159.284782,0.520522388 158.183082,0.402985075 157.005026,0.402985075 L157.005026,0.402985075 L149.674901,0.402985075 L149.674901,22.2985075 L154.485296,22.2985075 Z M156.841407,10.9477612 L154.485296,10.9477612 L154.485296,4.33208955 L156.710512,4.33208955 C158.019463,4.33208955 159.022992,4.56716418 159.721099,5.03731343 C160.419207,5.50746269 160.76826,6.31343284 160.76826,7.45522388 C160.76826,9.78358209 159.459309,10.9477612 156.841407,10.9477612 L156.841407,10.9477612 Z M179.537162,22.2985075 L179.537162,4.56716418 L185.394717,4.56716418 L185.394717,0.402985075 L168.836488,0.402985075 L168.836488,4.56716418 L174.694043,4.56716418 L174.694043,22.2985075 L179.537162,22.2985075 Z M204,27 L204,24.2126866 L188.423484,24.2126866 L188.423484,27 L204,27 Z"></path>
            </g>
        </g>
    </g>
</svg>