<svg height="104" viewBox="0 0 185 104" width="185" xmlns="http://www.w3.org/2000/svg"><g fill="none" fill-rule="evenodd"><g fill-rule="nonzero" transform="translate(63 67)"><path d="m20 0v3.495c0 3.075-1.85 5.72-4.5 6.875-.92.4-1.935.625-3 .625s-2.08-.225-3-.625c-2.65-1.155-4.5-3.8-4.5-6.875v-3.495z" fill="#ab7969"/><path d="m17.998 0v3.495c0 3.075-1.85 5.72-4.5 6.875-.626.2725-1.299.4555-1.999.55.3285.044.661.075 1.001.075 1.065 0 2.08-.225 3-.625 2.65-1.155 4.5-3.8 4.5-6.875v-3.495z" fill="#996559"/><path d="m15.5 10.37v6.625h-6v-6.625c.92.4 1.935.625 3 .625s2.08-.225 3-.625z" fill="#ab7969"/></g><g fill-rule="evenodd" transform="translate(63 59)"><g><circle cx="8.5" cy="5.5" fill="#a9b5c4" r="3.5"/><circle cx="7" cy="8" fill="#a9b5c4" r="3"/><circle cx="16.5" cy="5.5" fill="#798ca3" r="3.5"/><circle cx="18" cy="8" fill="#798ca3" r="3"/><circle cx="10.5" cy="2" fill="#a9b5c4" r="2"/><circle cx="15" cy="2" fill="#798ca3" r="2"/><g fill="#a9b5c4"><circle cx="13" cy="2" r="2"/><circle cx="13" cy="6" r="3.5"/></g></g><circle cx="6.5" cy="2.5" fill="#a9b5c4" r="1"/></g><g transform="translate(63 76.5)"><g fill-rule="nonzero"><path d="m23.5 7.5v3.5c0 .275-.22.5-.5.5h-21c-.275 0-.5-.225-.5-.5v-3.5c0-2.21 1.79-4 4-4h3.5 7 3.5c2.21 0 4 1.79 4 4z" fill="#fcba04"/><path d="m12.5 2.22307692c1.44 0 2.8-.33076923 4-.92307692v2.46153846l-1.6 1.53846154-2.4-.76923077-2.4.76923077-1.6-1.53846154v-2.46153846c1.2.59230769 2.56.92307692 4 .92307692z" fill="#ffd971"/><path d="m19.5 3.5h-2.002c2.21 0 4 1.79 4 4v3.5c0 .275-.22.5-.5.5h2.002c.28 0 .5-.225.5-.5v-3.5c0-2.21-1.79-4-4-4z" fill="#daa000"/></g><circle cx="12.5" cy="6" fill="#ffd971" fill-rule="evenodd" r="1"/></g><rect fill="#fcba04" height="32" rx="1" width="32" x="59" y="21"/><path d="m75.6562246 47.4062443c5.8867047 0 10.6562246-4.7695199 10.6562246-10.6562246s-4.7695199-10.6562246-10.6562246-10.6562246-10.6562246 4.7695199-10.6562246 10.6562246 4.7695199 10.6562246 10.6562246 10.6562246zm3.4374918-11.343723c-.7605535 0-1.3749967-.6144433-1.3749967-1.3749967 0-.7605535.6144432-1.3749967 1.3749967-1.3749967s1.3749967.6144432 1.3749967 1.3749967c0 .7605534-.6144432 1.3749967-1.3749967 1.3749967zm-6.8749836 0c-.7605535 0-1.3749967-.6144433-1.3749967-1.3749967 0-.7605535.6144432-1.3749967 1.3749967-1.3749967.7605534 0 1.3749967.6144432 1.3749967 1.3749967 0 .7605534-.6144433 1.3749967-1.3749967 1.3749967zm7.3132722 6.6257739c-.9625145-1.1515514-2.3761578-1.8132854-3.8757804-1.8132854s-2.9132659.661734-3.8757804 1.8132854c-.5800768.7003805-1.6370887-.1804768-1.057012-.8808573 1.2246065-1.4652561 3.0249677-2.3074248 4.9327924-2.3074248s3.7081859.8421687 4.9285123 2.3117049c.5843568.6961004-.4726552 1.5769577-1.0527319.8765772z" fill="#fff" fill-rule="nonzero"/><rect fill="#f06543" height="6" rx="1" transform="matrix(.70710678 .70710678 -.70710678 .70710678 78.736544 -46.086832)" width="6" x="92" y="69"/><rect fill="#00a676" height="32" rx="1" width="32" x="94" y="21"/><path d="m109.656225 47.3124492c5.886704 0 10.656224-4.7695199 10.656224-10.6562246s-4.76952-10.6562246-10.656224-10.6562246c-5.886705 0-10.656225 4.7695199-10.656225 10.6562246s4.76952 10.6562246 10.656225 10.6562246zm3.437491-11.343723c-.760553 0-1.374996-.6144432-1.374996-1.3749967 0-.7605534.614443-1.3749967 1.374996-1.3749967.760554 0 1.374997.6144433 1.374997 1.3749967 0 .7605535-.614443 1.3749967-1.374997 1.3749967zm-6.874983 0c-.760554 0-1.374997-.6144432-1.374997-1.3749967 0-.7605534.614443-1.3749967 1.374997-1.3749967.760553 0 1.374997.6144433 1.374997 1.3749967 0 .7605535-.614444 1.3749967-1.374997 1.3749967zm3.437492 6.8749836c-1.912105 0-3.708186-.8421687-4.932793-2.3117048-.584399-.7003806.472655-1.5769578 1.057012-.8808573.962515 1.1558315 2.371878 1.8132853 3.875781 1.8132853 1.503902 0 2.913266-.6617339 3.87578-1.8132853.575755-.6961005 1.637089.1804767 1.057012.8808573-1.224607 1.4695361-3.020688 2.3117048-4.932792 2.3117048z" fill="#fff" fill-rule="nonzero"/><rect fill="#f06543" height="32" rx="1" width="32" x="94" y="56"/><path d="m110.618148 78.7408451 5.290914-5.3516819c1.539445-1.5562109 1.449191-4.1329544-.267958-5.5686579-1.498403-1.2508489-3.726876-1.0258687-5.102235.3642947l-.538667.5437347-.538667-.5437347c-1.372635-1.3901634-3.603832-1.6151436-5.102235-.3642947-1.717149 1.4357035-1.807403 4.012447-.270709 5.5686579l5.290914 5.3516819c.341791.3455399.896853.3455399 1.238643 0z" fill="#fff" fill-rule="nonzero"/><rect fill="#fcba04" height="6" rx="1" transform="matrix(.70710678 .70710678 -.70710678 .70710678 58.736544 -37.802561)" width="6" x="72" y="49"/></g></svg>