<?xml version="1.0" encoding="UTF-8"?>
<svg width="1047px" height="355px" viewBox="0 0 1047 355" version="1.1" xmlns="http://www.w3.org/2000/svg" xmlns:xlink="http://www.w3.org/1999/xlink">
    <title>svg/skills/growth</title>
    <defs>
        <polygon id="path-1" points="-6.70282435e-14 -7.45287504e-15 294 -7.45287504e-15 -6.70282435e-14 294"></polygon>
        <polygon id="path-3" points="-5.59697174e-14 -5.32377678e-14 294 -5.32377678e-14 -5.59697174e-14 294"></polygon>
        <polygon id="path-5" points="-3.69826756e-13 5.63276761e-13 295.979883 194.304731 1.97988283 488.304731"></polygon>
        <polygon id="path-7" points="0.00690560802 8.61710859e-15 294 182.350594 -1.9615924e-13 476.350594"></polygon>
    </defs>
    <g id="svg/skills/growth" stroke="none" stroke-width="1" fill="none" fill-rule="evenodd">
        <g id="Group" transform="translate(162.511260, -88.235633)">
            <g id="Personal-skills" transform="translate(304.433437, 350.735633) rotate(22.500000) translate(-304.433437, -350.735633) translate(96.488740, 57.235633)">
                <g id="SkillCirclePart" opacity="0.300455729" transform="translate(215.071068, 291.585786) rotate(-315.000000) translate(-215.071068, -291.585786) translate(68.071068, 144.585786)">
                    <mask id="mask-2" fill="white">
                        <use xlink:href="#path-1"></use>
                    </mask>
                    <g id="Rectangle"></g>
                    <g id="SkillCircleFill" mask="url(#mask-2)" fill="#00A676">
                        <g transform="translate(-233.000000, 71.000000)" id="Oval-2">
                            <path d="M229,0 C355.473208,0 458,102.526792 458,229 C458,355.473208 355.473208,458 229,458 C102.526792,458 0,355.473208 0,229 C0,102.526792 102.526792,0 229,0 Z M229,96 C155.546128,96 96,155.546128 96,229 C96,302.453872 155.546128,362 229,362 C302.453872,362 362,302.453872 362,229 C362,155.546128 302.453872,96 229,96 Z"></path>
                        </g>
                    </g>
                </g>
                <g id="SkillCirclePart" transform="translate(215.071068, 291.585786) rotate(-315.000000) translate(-215.071068, -291.585786) translate(68.071068, 144.585786)">
                    <mask id="mask-4" fill="white">
                        <use xlink:href="#path-3"></use>
                    </mask>
                    <g id="Rectangle"></g>
                    <g id="SkillCircleFill" mask="url(#mask-4)" fill="#00A676">
                        <g transform="translate(-178.000000, 126.000000)" id="Oval-2">
                            <path d="M174,0 C270.097546,0 348,77.9024535 348,174 C348,270.097546 270.097546,348 174,348 C77.9024535,348 0,270.097546 0,174 C0,77.9024535 77.9024535,0 174,0 Z M174,41 C100.546128,41 41,100.546128 41,174 C41,247.453872 100.546128,307 174,307 C247.453872,307 307,247.453872 307,174 C307,100.546128 247.453872,41 174,41 Z"></path>
                        </g>
                    </g>
                </g>
            </g>
            <g id="Pro-skills" transform="translate(118.891980, 84.731375)">
                <g id="SkillCirclePart" opacity="0.3" transform="translate(282.124684, 229.862747) rotate(67.600000) translate(-282.124684, -229.862747) translate(134.134742, -14.289618)">
                    <mask id="mask-6" fill="white">
                        <use xlink:href="#path-5"></use>
                    </mask>
                    <g id="Rectangle"></g>
                    <g id="SkillCircleFill" mask="url(#mask-6)" fill="#27BAFF">
                        <g transform="translate(-368.020117, 128.304731)" id="Oval-2">
                            <path d="M366,-1.11864182e-12 C568.136218,-1.11864182e-12 732,163.863782 732,366 C732,568.136218 568.136218,732 366,732 C163.863782,732 -9.92604683e-14,568.136218 -9.92604683e-14,366 C-9.92604683e-14,163.863782 163.863782,-1.11864182e-12 366,-1.11864182e-12 Z M366,125 C232.899375,125 125,232.899375 125,366 C125,499.100625 232.899375,607 366,607 C499.100625,607 607,499.100625 607,366 C607,232.899375 499.100625,125 366,125 Z"></path>
                        </g>
                    </g>
                </g>
                <g id="SkillCirclePart" transform="translate(276.975846, 233.055677) rotate(67.600000) translate(-276.975846, -233.055677) translate(129.975846, -5.119620)">
                    <mask id="mask-8" fill="white">
                        <use xlink:href="#path-7"></use>
                    </mask>
                    <g id="Rectangle"></g>
                    <g id="SkillCircleFill" mask="url(#mask-8)" fill="#27BAFF">
                        <g transform="translate(-291.000000, 195.350594)" id="Oval-2">
                            <path d="M287,-4.83697628e-13 C445.505723,-4.83697628e-13 574,128.494277 574,287 C574,445.505723 445.505723,574 287,574 C128.494277,574 -1.72733668e-12,445.505723 -1.72733668e-12,287 C-1.72733668e-12,128.494277 128.494277,-4.83697628e-13 287,-4.83697628e-13 Z M287,46 C153.899375,46 46,153.899375 46,287 C46,420.100625 153.899375,528 287,528 C420.100625,528 528,420.100625 528,287 C528,153.899375 420.100625,46 287,46 Z"></path>
                        </g>
                    </g>
                </g>
            </g>
            <path id="Line" d="M312.628247,259.960582 L336.48874,272.235633 L312.352403,283.958997 L312.467,273.959 L306.964828,273.89641 L304.96496,273.873423 L305.010934,269.873687 L307.010802,269.896674 L312.513,269.96 L312.628247,259.960582 Z M291.011859,269.712778 L293.011727,269.735765 L300.011264,269.81622 L302.011132,269.839207 L301.965158,273.838942 L299.965291,273.815955 L292.965753,273.735501 L290.965885,273.712514 L291.011859,269.712778 Z" fill="#798CA3" fill-rule="nonzero"></path>
            <path id="Line" d="M473.48874,272.235633 L449.583969,260.047035 L449.394999,284.046291 L473.48874,272.235633 Z M436.003681,269.940413 L438.003619,269.956161 L445.003402,270.011277 L447.00334,270.027025 L446.971845,274.026901 L444.971907,274.011153 L437.972124,273.956037 L435.972186,273.940289 L436.003681,269.940413 Z M422.004115,269.83018 L424.004053,269.845928 L431.003836,269.901044 L433.003774,269.916792 L432.972279,273.916668 L430.972341,273.90092 L423.972558,273.845804 L421.97262,273.830056 L422.004115,269.83018 Z M408.004549,269.719948 L410.004487,269.735695 L417.00427,269.790812 L419.004208,269.806559 L418.972713,273.806435 L416.972775,273.790688 L409.972992,273.735571 L407.973054,273.719824 L408.004549,269.719948 Z" fill="#798CA3" fill-rule="nonzero"></path>
        </g>
        <g id="doctor-1" transform="translate(170.260000, 110.000000)">
            <g id="hair-cap" transform="translate(9.680000, 0.000000)">
                <path d="M43.56,0 C67.6269,0 87.12,17.2735 87.12,38.6 L78.9525,38.6 L76.23,38.6 L65.34,38.6 L54.45,38.6 L43.56,38.6 L32.67,38.6 L21.78,38.6 L10.89,38.6 L8.1675,38.6 L3.55271368e-15,38.6 C3.55271368e-15,17.2735 19.4931,0 43.56,0 Z" id="Path" fill="#965353" fill-rule="nonzero"></path>
                <rect id="Rectangle" fill="#844747" x="3.55271368e-15" y="38.6" width="87.12" height="98.9125"></rect>
                <path d="M42.8710999,0 C41.4689629,0 40.0861848,0.0699625 38.72,0.18335 C61.2150346,2.0096125 78.8150346,18.4966375 78.8150346,38.6 L78.8233312,38.6 L87.12,38.6 C87.12,17.2735 67.3186172,0 42.8710999,0 Z" id="Path" fill="#844747" fill-rule="nonzero"></path>
            </g>
            <g id="face-white" transform="translate(16.940000, 38.600000)" fill-rule="nonzero">
                <path d="M72.6,7.10542736e-15 L72.6,16.863375 C72.6,31.70025 63.646,44.462375 50.82,50.03525 C46.3672,51.96525 41.4546,53.050875 36.3,53.050875 C31.1454,53.050875 26.2328,51.96525 21.78,50.03525 C8.954,44.462375 -3.55271368e-15,31.70025 -3.55271368e-15,16.863375 L-3.55271368e-15,7.10542736e-15 L72.6,7.10542736e-15 Z" id="Path" fill="#EAC6BB"></path>
                <path d="M62.91032,7.10542736e-15 L62.91032,16.863375 C62.91032,31.70025 53.95632,44.462375 41.13032,50.03525 C38.10048,51.3500625 34.84316,52.2330375 31.45516,52.689 C33.0451,52.9013 34.6544,53.050875 36.3,53.050875 C41.4546,53.050875 46.3672,51.96525 50.82,50.03525 C63.646,44.462375 72.6,31.70025 72.6,16.863375 L72.6,7.10542736e-15 L62.91032,7.10542736e-15 Z" id="Path" fill="#D3B1A9"></path>
                <path d="M50.82,50.03525 L50.82,82.000875 L21.78,82.000875 L21.78,50.03525 C26.2328,51.96525 31.1454,53.050875 36.3,53.050875 C41.4546,53.050875 46.3672,51.96525 50.82,50.03525 Z" id="Path" fill="#EAC6BB"></path>
            </g>
            <g id="body-coat" transform="translate(0.000000, 90.710000)">
                <path d="M106.48,29.915 L106.48,46.8025 C106.48,48.129375 105.4152,49.215 104.06,49.215 L2.42,49.215 C1.089,49.215 1.77635684e-15,48.129375 1.77635684e-15,46.8025 L1.77635684e-15,29.915 C1.77635684e-15,19.25175 8.6636,10.615 19.36,10.615 L36.3,10.615 L70.18,10.615 L87.12,10.615 C97.8164,10.615 106.48,19.25175 106.48,29.915 Z" id="Path" fill="#FCBA04" fill-rule="nonzero"></path>
                <path d="M53.24,4.45384615 C60.2096,4.45384615 66.792,2.85788462 72.6,0 L72.6,11.8769231 L64.856,19.3 L53.24,15.5884615 L41.624,19.3 L33.88,11.8769231 L33.88,0 C39.688,2.85788462 46.2704,4.45384615 53.24,4.45384615 Z" id="Path" fill="#FFD971" fill-rule="nonzero"></path>
                <path d="M87.12,10.615 L77.43032,10.615 C88.12672,10.615 96.79032,19.25175 96.79032,29.915 L96.79032,46.8025 C96.79032,48.129375 95.72552,49.215 94.37032,49.215 L104.06,49.215 C105.4152,49.215 106.48,48.129375 106.48,46.8025 L106.48,29.915 C106.48,19.25175 97.8164,10.615 87.12,10.615 Z" id="Path" fill="#DAA000" fill-rule="nonzero"></path>
                <ellipse id="Oval" fill="#FFD971" cx="53.24" cy="22.6775" rx="2.42" ry="2.4125"></ellipse>
            </g>
        </g>
        <g id="worker" transform="translate(744.000000, 110.000000)">
            <g id="doctor-1" transform="translate(31.260000, 0.000000)">
                <g id="hair-cap" transform="translate(9.680000, 0.000000)">
                    <path d="M43.56,0 C67.6269,0 87.12,17.2735 87.12,38.6 L78.9525,38.6 L76.23,38.6 L65.34,38.6 L54.45,38.6 L43.56,38.6 L32.67,38.6 L21.78,38.6 L10.89,38.6 L8.1675,38.6 L3.55271368e-15,38.6 C3.55271368e-15,17.2735 19.4931,0 43.56,0 Z" id="Path" fill="#965353" fill-rule="nonzero"></path>
                    <rect id="Rectangle" fill="#844747" x="3.55271368e-15" y="38.6" width="87.12" height="98.9125"></rect>
                    <path d="M42.8710999,0 C41.4689629,0 40.0861848,0.0699625 38.72,0.18335 C61.2150346,2.0096125 78.8150346,18.4966375 78.8150346,38.6 L78.8233312,38.6 L87.12,38.6 C87.12,17.2735 67.3186172,0 42.8710999,0 Z" id="Path" fill="#844747" fill-rule="nonzero"></path>
                </g>
                <g id="face-white" transform="translate(16.940000, 38.600000)" fill-rule="nonzero">
                    <path d="M72.6,7.10542736e-15 L72.6,16.863375 C72.6,31.70025 63.646,44.462375 50.82,50.03525 C46.3672,51.96525 41.4546,53.050875 36.3,53.050875 C31.1454,53.050875 26.2328,51.96525 21.78,50.03525 C8.954,44.462375 -3.55271368e-15,31.70025 -3.55271368e-15,16.863375 L-3.55271368e-15,7.10542736e-15 L72.6,7.10542736e-15 Z" id="Path" fill="#EAC6BB"></path>
                    <path d="M62.91032,7.10542736e-15 L62.91032,16.863375 C62.91032,31.70025 53.95632,44.462375 41.13032,50.03525 C38.10048,51.3500625 34.84316,52.2330375 31.45516,52.689 C33.0451,52.9013 34.6544,53.050875 36.3,53.050875 C41.4546,53.050875 46.3672,51.96525 50.82,50.03525 C63.646,44.462375 72.6,31.70025 72.6,16.863375 L72.6,7.10542736e-15 L62.91032,7.10542736e-15 Z" id="Path" fill="#D3B1A9"></path>
                    <path d="M50.82,50.03525 L50.82,82.000875 L21.78,82.000875 L21.78,50.03525 C26.2328,51.96525 31.1454,53.050875 36.3,53.050875 C41.4546,53.050875 46.3672,51.96525 50.82,50.03525 Z" id="Path" fill="#EAC6BB"></path>
                </g>
                <g id="body-coat" transform="translate(-0.000000, 90.710000)">
                    <path d="M106.48,29.915 L106.48,46.8025 C106.48,48.129375 105.4152,49.215 104.06,49.215 L2.42,49.215 C1.089,49.215 1.77635684e-15,48.129375 1.77635684e-15,46.8025 L1.77635684e-15,29.915 C1.77635684e-15,19.25175 8.6636,10.615 19.36,10.615 L36.3,10.615 L70.18,10.615 L87.12,10.615 C97.8164,10.615 106.48,19.25175 106.48,29.915 Z" id="Path" fill="#FCBA04" fill-rule="nonzero"></path>
                    <path d="M53.24,4.45384615 C60.2096,4.45384615 66.792,2.85788462 72.6,0 L72.6,11.8769231 L64.856,19.3 L53.24,15.5884615 L41.624,19.3 L33.88,11.8769231 L33.88,0 C39.688,2.85788462 46.2704,4.45384615 53.24,4.45384615 Z" id="Path" fill="#FFD971" fill-rule="nonzero"></path>
                    <path d="M87.12,10.615 L77.43032,10.615 C88.12672,10.615 96.79032,19.25175 96.79032,29.915 L96.79032,46.8025 C96.79032,48.129375 95.72552,49.215 94.37032,49.215 L104.06,49.215 C105.4152,49.215 106.48,48.129375 106.48,46.8025 L106.48,29.915 C106.48,19.25175 97.8164,10.615 87.12,10.615 Z" id="Path" fill="#DAA000" fill-rule="nonzero"></path>
                    <ellipse id="Oval" fill="#FFD971" cx="53.24" cy="22.6775" rx="2.42" ry="2.4125"></ellipse>
                </g>
            </g>
            <g id="Suitcase" transform="translate(0.000000, 72.000000)" fill-rule="nonzero">
                <path d="M77.6451613,7 L73.6290323,7 L61.5806452,7 L22.7580645,7 L10.7096774,7 L5.35483871,7 C2.40967742,7 0,9.728225 0,13.1 L0,52.75 L0,61.9 C0,65.253475 2.40967742,68 5.35483871,68 L77.6451613,68 C80.5903226,68 83,65.253475 83,61.9 L83,52.75 L83,13.1 C83,9.728225 80.5903226,7 77.6451613,7 Z" id="Path" fill="#656D78"></path>
                <rect id="Rectangle" fill="#656D78" x="61" y="7" width="12" height="8"></rect>
                <rect id="Rectangle" fill="#656D78" x="10" y="7" width="12" height="8"></rect>
                <path d="M10,7 L10,14.8 L5,14.8 C2.25,14.8 0,17.1257 0,20 L0,12.2 C0,9.3387 2.25,7 5,7 L10,7 Z" id="Path" fill="#515861"></path>
                <polygon id="Path" fill="#515861" points="61 15 22 15 22 7 28.7241379 7 28.7241379 11 32.7586207 11 32.7586207 7 48.7889655 7 48.8965517 7 48.8965517 11 52.9310345 11 52.9310345 7 61 7"></polygon>
                <path d="M83,12.2 L83,20 C83,17.1257 80.4285714,14.8 77.2857143,14.8 L73,14.8 L73,7 L77.2857143,7 C80.4285714,7 83,9.3387 83,12.2 Z" id="Path" fill="#515861"></path>
                <path d="M17.8,12 L14.2,12 C13.5364,12 13,11.3295 13,10.5 C13,9.6705 13.5364,9 14.2,9 L17.8,9 C18.4636,9 19,9.6705 19,10.5 C19,11.3295 18.4636,12 17.8,12 Z" id="Path" fill="#545C66"></path>
                <path d="M68.8,12 L65.2,12 C64.5364,12 64,11.3295 64,10.5 C64,9.6705 64.5364,9 65.2,9 L68.8,9 C69.4636,9 70,9.6705 70,10.5 C70,11.3295 69.4636,12 68.8,12 Z" id="Path" fill="#545C66"></path>
                <path d="M34.5714286,12 L27.4285714,12 C26.6385714,12 26,11.3295 26,10.5 C26,9.6705 26.6385714,9 27.4285714,9 L34.5714286,9 C35.3614286,9 36,9.6705 36,10.5 C36,11.3295 35.3614286,12 34.5714286,12 Z" id="Path" fill="#42464A"></path>
                <path d="M54.5714286,12 L47.4285714,12 C46.6385714,12 46,11.3295 46,10.5 C46,9.6705 46.6385714,9 47.4285714,9 L54.5714286,9 C55.3614286,9 56,9.6705 56,10.5 C56,11.3295 55.3614286,12 54.5714286,12 Z" id="Path" fill="#42464A"></path>
                <g id="Group" transform="translate(29.000000, 0.000000)" fill="#E6E9ED">
                    <polygon id="Path" points="24 8 24 12 20 12 20 8 20 5.33333333 24 5.33333333"></polygon>
                    <path d="M24,2.66666667 L24,5.33333333 L20,5.33333333 L4,5.33333333 L0,5.33333333 L0,2.66666667 C0,1.188 1.18666667,0 2.66666667,0 L21.3333333,0 C22.8133333,0 24,1.188 24,2.66666667 Z" id="Path"></path>
                    <polygon id="Path" points="4 8 4 12 0 12 0 8 0 5.33333333 4 5.33333333"></polygon>
                </g>
            </g>
        </g>
    </g>
</svg>