<?xml version="1.0" encoding="UTF-8"?>
<svg width="1047px" height="588px" viewBox="0 0 1047 588" version="1.1" xmlns="http://www.w3.org/2000/svg" xmlns:xlink="http://www.w3.org/1999/xlink">
    <title>svg/skills/matrix</title>
    <defs>
        <circle id="path-1" cx="43" cy="43" r="43"></circle>
        <circle id="path-3" cx="43" cy="43" r="43"></circle>
        <circle id="path-5" cx="43" cy="43" r="43"></circle>
    </defs>
    <g id="svg/skills/matrix" stroke="none" stroke-width="1" fill="none" fill-rule="evenodd">
        <g id="SkillMatrixRow" transform="translate(111.790391, 153.368816)" fill="#798CA3">
            <rect id="Rectangle" opacity="0.13155692" x="0" y="0" width="753" height="108" rx="54"></rect>
            <rect id="Rectangle" x="35.2096089" y="30.6311841" width="203" height="16"></rect>
            <rect id="Rectangle" x="35.2096089" y="62.6311841" width="165" height="16"></rect>
        </g>
        <g id="SkillMatrixRow" transform="translate(111.790391, 271.368816)" fill="#798CA3">
            <rect id="Rectangle" opacity="0.13155692" x="0" y="0" width="753" height="108" rx="54"></rect>
            <rect id="Rectangle" x="35.2096089" y="30.6311841" width="203" height="16"></rect>
            <rect id="Rectangle" x="35.2096089" y="62.6311841" width="165" height="16"></rect>
        </g>
        <g id="SkillMatrixRow" transform="translate(111.790391, 389.368816)" fill="#798CA3">
            <rect id="Rectangle" opacity="0.13155692" x="0" y="0" width="753" height="108" rx="54"></rect>
            <rect id="Rectangle" x="35.2096089" y="30.6311841" width="203" height="16"></rect>
            <rect id="Rectangle" x="35.2096089" y="62.6311841" width="165" height="16"></rect>
        </g>
        <g id="Group-2" transform="translate(415.790391, 34.368816)">
            <rect id="Rectangle" fill="#798CA3" opacity="0.13155692" x="0" y="0" width="108" height="542" rx="54"></rect>
            <g id="Oval-2" transform="translate(11.209609, 15.631184)">
                <mask id="mask-2" fill="white">
                    <use xlink:href="#path-1"></use>
                </mask>
                <use id="Oval" fill="#27BAFF" xlink:href="#path-1"></use>
                <g id="doctor-1" mask="url(#mask-2)">
                    <g transform="translate(12.983523, 9.000000)">
                        <g id="hair-cap" transform="translate(5.366632, 0.000000)">
                            <path d="M24.1498446,0 C37.4926337,0 48.2996891,9.5765 48.2996891,21.4 L43.7715933,21.4 L42.262228,21.4 L36.2247668,21.4 L30.1873057,21.4 L24.1498446,21.4 L18.1123834,21.4 L12.0749223,21.4 L6.03746114,21.4 L4.52809585,21.4 L-3.55271368e-15,21.4 C-3.55271368e-15,9.5765 10.8070554,0 24.1498446,0 Z" id="Path" fill="#965353" fill-rule="nonzero"></path>
                            <rect id="Rectangle" fill="#844747" x="-3.55271368e-15" y="21.4" width="48.2996891" height="54.8375"></rect>
                            <path d="M23.7679155,0 C22.9905649,0 22.223947,0.0387875 21.4665285,0.10165 C33.9378689,1.1141375 43.6953819,10.2546125 43.6953819,21.4 L43.6999816,21.4 L48.2996891,21.4 C48.2996891,9.5765 37.3217204,0 23.7679155,0 Z" id="Path" fill="#844747" fill-rule="nonzero"></path>
                        </g>
                        <g id="face-white" transform="translate(9.391606, 21.400000)">
                            <path d="M40.2497409,3.55271368e-15 L40.2497409,9.349125 C40.2497409,17.57475 35.2856062,24.650125 28.1748187,27.73975 C25.7061679,28.80975 22.9826021,29.411625 20.1248705,29.411625 C17.2671389,29.411625 14.5435731,28.80975 12.0749223,27.73975 C4.96413472,24.650125 -3.55271368e-15,17.57475 -3.55271368e-15,9.349125 L-3.55271368e-15,3.55271368e-15 L40.2497409,3.55271368e-15 Z" id="Path" fill="#EAC6BB" fill-rule="nonzero"></path>
                            <path d="M34.8777422,3.55271368e-15 L34.8777422,9.349125 C34.8777422,17.57475 29.9136075,24.650125 22.8028199,27.73975 C21.123064,28.4686875 19.3171923,28.9582125 17.4388711,29.211 C18.3203404,29.3287 19.212543,29.411625 20.1248705,29.411625 C22.9826021,29.411625 25.7061679,28.80975 28.1748187,27.73975 C35.2856062,24.650125 40.2497409,17.57475 40.2497409,9.349125 L40.2497409,3.55271368e-15 L34.8777422,3.55271368e-15 Z" id="Path" fill="#D3B1A9" fill-rule="nonzero"></path>
                            <path d="M28.1748187,27.73975 L28.1748187,45.461625 L12.0749223,45.461625 L12.0749223,27.73975 C14.5435731,28.80975 17.2671389,29.411625 20.1248705,29.411625 C22.9826021,29.411625 25.7061679,28.80975 28.1748187,27.73975 Z" id="Path" fill="#EAC6BB" fill-rule="nonzero"></path>
                        </g>
                        <g id="body-coat" transform="translate(0.000000, 50.290000)">
                            <path d="M59.0329534,16.585 L59.0329534,25.9475 C59.0329534,26.683125 58.4426238,27.285 57.6912953,27.285 L1.34165803,27.285 C0.603746114,27.285 8.8817842e-16,26.683125 8.8817842e-16,25.9475 L8.8817842e-16,16.585 C8.8817842e-16,10.67325 4.80313575,5.885 10.7332642,5.885 L20.1248705,5.885 L38.9080829,5.885 L48.2996891,5.885 C54.2298176,5.885 59.0329534,10.67325 59.0329534,16.585 Z" id="Path" fill="#FCBA04" fill-rule="nonzero"></path>
                            <path d="M29.5164767,2.46923077 C33.3804518,2.46923077 37.0297617,1.58442308 40.2497409,-7.10542736e-15 L40.2497409,6.58461538 L35.9564352,10.7 L29.5164767,8.64230769 L23.0765181,10.7 L18.7832124,6.58461538 L18.7832124,-7.10542736e-15 C22.0031917,1.58442308 25.6525016,2.46923077 29.5164767,2.46923077 Z" id="Path" fill="#FFD971" fill-rule="nonzero"></path>
                            <path d="M48.2996891,5.885 L42.9276904,5.885 C48.8578189,5.885 53.6609546,10.67325 53.6609546,16.585 L53.6609546,25.9475 C53.6609546,26.683125 53.0706251,27.285 52.3192966,27.285 L57.6912953,27.285 C58.4426238,27.285 59.0329534,26.683125 59.0329534,25.9475 L59.0329534,16.585 C59.0329534,10.67325 54.2298176,5.885 48.2996891,5.885 Z" id="Path" fill="#DAA000" fill-rule="nonzero"></path>
                            <ellipse id="Oval" fill="#FFD971" cx="29.5164767" cy="12.5725" rx="1.34165803" ry="1.3375"></ellipse>
                        </g>
                    </g>
                </g>
            </g>
            <g id="Group" transform="translate(10.209609, 131.631184)">
                <g id="Check">
                    <circle id="Oval" fill="#00A676" cx="43" cy="43" r="43"></circle>
                    <g id="check" transform="translate(21.124999, 27.625977)" fill="#FFFFFF" fill-rule="nonzero">
                        <path d="M42.8320326,0.916991383 C44.0527357,2.13769451 44.0527357,4.11035195 42.8320326,5.33105507 L17.8320326,30.3310551 C16.6113295,31.5517582 14.638672,31.5517582 13.4179689,30.3310551 L0.915234536,17.8310551 C-0.305078179,16.6103519 -0.305078179,14.6376945 0.915234536,13.4169914 C2.13574246,12.1962883 4.11425754,12.1962883 5.33496067,13.4169914 L15.5371092,23.7001963 L38.4179674,0.916991383 C39.6386705,-0.305663794 41.611328,-0.305663794 42.8320311,0.916991383 L42.8320326,0.916991383 Z" id="Path"></path>
                    </g>
                </g>
                <g id="SkillOrb" transform="translate(0.000000, 116.000000)">
                    <circle id="Oval" fill="#798CA3" cx="43" cy="43" r="43"></circle>
                    <g id="dash" transform="translate(18.000000, 40.125000)" fill="#FFFFFF" fill-rule="nonzero">
                        <path d="M50,3.125 C50,4.85058725 48.6005872,6.25 46.875,6.25 L3.125,6.25 C1.39941424,6.25 0,4.85351682 0,3.125 C0,1.39648318 1.39941424,0 3.125,0 L46.875,0 C48.6035168,0 50,1.39648467 50,3.125 Z" id="Path"></path>
                    </g>
                </g>
                <g id="SkillOrb" transform="translate(0.000000, 232.000000)">
                    <circle id="Oval" fill="#798CA3" cx="43" cy="43" r="43"></circle>
                    <g id="dash" transform="translate(18.000000, 40.125000)" fill="#FFFFFF" fill-rule="nonzero">
                        <path d="M50,3.125 C50,4.85058725 48.6005872,6.25 46.875,6.25 L3.125,6.25 C1.39941424,6.25 0,4.85351682 0,3.125 C0,1.39648318 1.39941424,0 3.125,0 L46.875,0 C48.6035168,0 50,1.39648467 50,3.125 Z" id="Path"></path>
                    </g>
                </g>
            </g>
        </g>
        <g id="Group-2" transform="translate(543.790391, 34.368816)">
            <rect id="Rectangle" fill="#798CA3" opacity="0.13155692" x="0" y="0" width="108" height="542" rx="54"></rect>
            <g id="Oval-2" transform="translate(11.209609, 15.631184)">
                <mask id="mask-4" fill="white">
                    <use xlink:href="#path-3"></use>
                </mask>
                <use id="Oval" fill="#27BAFF" xlink:href="#path-3"></use>
                <g id="doctor-1" mask="url(#mask-4)">
                    <g transform="translate(12.983523, 9.000000)">
                        <g id="hair-cap" transform="translate(9.391606, 0.000000)">
                            <g id="Group" transform="translate(-0.000000, 0.000000)" fill-rule="nonzero">
                                <path d="M0,12.4833333 C0,8.53622222 2.39709568,5.35 5.36663212,5.35 L5.36663212,19.6166667 C5.36663212,23.5637778 2.96953644,26.75 0,26.75 L0,12.4833333 L0,12.4833333 Z" id="Path" fill="#844747"></path>
                                <path d="M40.2497409,19.9453606 L40.2497409,36.1125 C40.2497409,31.589652 37.9435799,27.6024795 34.4358895,25.2090362 L34.4358895,25.1900406 C32.2460054,23.6893897 29.5716337,22.8155929 26.6840875,22.8155929 L26.6840875,22.7757022 L11.1804836,22.7757022 C7.96348578,22.7757022 5.36663212,22.9052943 5.36663212,19.7520278 L5.36663212,5.67967887 C9.06811756,1.97554048 14.2036864,0 19.9012608,0 C31.1413736,0 40.2497409,8.92792331 40.2497409,19.9453606 Z" id="Path" fill="#965353"></path>
                                <path d="M20.3770367,0 C19.3758309,0 18.4011221,0.0854801168 17.4415544,0.212750513 C27.1129371,1.55763768 34.5661475,9.86630503 34.5661475,19.9453606 L34.5661475,25.1862415 C34.5680402,25.1881411 34.5699328,25.1881411 34.5718254,25.1900406 L34.5718254,25.2090362 C37.9975011,27.6024795 40.2497409,31.589652 40.2497409,36.1125 L40.2497409,19.9453606 C40.2497409,8.92792331 31.35434,0 20.3770367,0 Z" id="Path" fill="#844747"></path>
                            </g>
                        </g>
                        <g id="face-white" transform="translate(9.391606, 21.400000)">
                            <path d="M40.2497409,-3.55271368e-15 L40.2497409,9.349125 C40.2497409,17.57475 35.2856062,24.650125 28.1748187,27.73975 C25.7061679,28.80975 22.9826021,29.411625 20.1248705,29.411625 C17.2671389,29.411625 14.5435731,28.80975 12.0749223,27.73975 C4.96413472,24.650125 -3.55271368e-15,17.57475 -3.55271368e-15,9.349125 L-3.55271368e-15,-3.55271368e-15 L40.2497409,-3.55271368e-15 Z" id="Path" fill="#AB7969" fill-rule="nonzero"></path>
                            <path d="M34.8777422,-3.55271368e-15 L34.8777422,9.349125 C34.8777422,17.57475 29.9136075,24.650125 22.8028199,27.73975 C21.123064,28.4686875 19.3171923,28.9582125 17.4388711,29.211 C18.3203404,29.3287 19.212543,29.411625 20.1248705,29.411625 C22.9826021,29.411625 25.7061679,28.80975 28.1748187,27.73975 C35.2856062,24.650125 40.2497409,17.57475 40.2497409,9.349125 L40.2497409,-3.55271368e-15 L34.8777422,-3.55271368e-15 Z" id="Path" fill="#996559" fill-rule="nonzero"></path>
                            <path d="M28.1748187,27.73975 L28.1748187,45.461625 L12.0749223,45.461625 L12.0749223,27.73975 C14.5435731,28.80975 17.2671389,29.411625 20.1248705,29.411625 C22.9826021,29.411625 25.7061679,28.80975 28.1748187,27.73975 Z" id="Path" fill="#AB7969" fill-rule="nonzero"></path>
                        </g>
                        <g id="body-coat" transform="translate(0.000000, 50.290000)">
                            <path d="M59.0329534,16.585 L59.0329534,25.9475 C59.0329534,26.683125 58.4426238,27.285 57.6912953,27.285 L1.34165803,27.285 C0.603746114,27.285 8.8817842e-16,26.683125 8.8817842e-16,25.9475 L8.8817842e-16,16.585 C8.8817842e-16,10.67325 4.80313575,5.885 10.7332642,5.885 L20.1248705,5.885 L38.9080829,5.885 L48.2996891,5.885 C54.2298176,5.885 59.0329534,10.67325 59.0329534,16.585 Z" id="Path" fill="#00A676" fill-rule="nonzero"></path>
                            <path d="M29.5164767,2.46923077 C33.3804518,2.46923077 37.0297617,1.58442308 40.2497409,-7.10542736e-15 L40.2497409,6.58461538 L35.9564352,10.7 L29.5164767,8.64230769 L23.0765181,10.7 L18.7832124,6.58461538 L18.7832124,-7.10542736e-15 C22.0031917,1.58442308 25.6525016,2.46923077 29.5164767,2.46923077 Z" id="Path" fill="#22C293" fill-rule="nonzero"></path>
                            <path d="M48.2996891,5.885 L42.9276904,5.885 C48.8578189,5.885 53.6609546,10.67325 53.6609546,16.585 L53.6609546,25.9475 C53.6609546,26.683125 53.0706251,27.285 52.3192966,27.285 L57.6912953,27.285 C58.4426238,27.285 59.0329534,26.683125 59.0329534,25.9475 L59.0329534,16.585 C59.0329534,10.67325 54.2298176,5.885 48.2996891,5.885 Z" id="Path" fill="#00966A" fill-rule="nonzero"></path>
                            <ellipse id="Oval" fill="#22C293" cx="29.5164767" cy="12.5725" rx="1.34165803" ry="1.3375"></ellipse>
                        </g>
                    </g>
                </g>
            </g>
            <g id="Group" transform="translate(10.209609, 131.631184)">
                <g id="Check">
                    <circle id="Oval" fill="#00A676" cx="43" cy="43" r="43"></circle>
                    <g id="check" transform="translate(21.124999, 27.625977)" fill="#FFFFFF" fill-rule="nonzero">
                        <path d="M42.8320326,0.916991383 C44.0527357,2.13769451 44.0527357,4.11035195 42.8320326,5.33105507 L17.8320326,30.3310551 C16.6113295,31.5517582 14.638672,31.5517582 13.4179689,30.3310551 L0.915234536,17.8310551 C-0.305078179,16.6103519 -0.305078179,14.6376945 0.915234536,13.4169914 C2.13574246,12.1962883 4.11425754,12.1962883 5.33496067,13.4169914 L15.5371092,23.7001963 L38.4179674,0.916991383 C39.6386705,-0.305663794 41.611328,-0.305663794 42.8320311,0.916991383 L42.8320326,0.916991383 Z" id="Path"></path>
                    </g>
                </g>
                <g id="SkillOrb" transform="translate(0.000000, 116.000000)">
                    <circle id="Oval" fill="#00A676" cx="43" cy="43" r="43"></circle>
                    <g id="check" transform="translate(21.124999, 27.625977)" fill="#FFFFFF" fill-rule="nonzero">
                        <path d="M42.8320326,0.916991383 C44.0527357,2.13769451 44.0527357,4.11035195 42.8320326,5.33105507 L17.8320326,30.3310551 C16.6113295,31.5517582 14.638672,31.5517582 13.4179689,30.3310551 L0.915234536,17.8310551 C-0.305078179,16.6103519 -0.305078179,14.6376945 0.915234536,13.4169914 C2.13574246,12.1962883 4.11425754,12.1962883 5.33496067,13.4169914 L15.5371092,23.7001963 L38.4179674,0.916991383 C39.6386705,-0.305663794 41.611328,-0.305663794 42.8320311,0.916991383 L42.8320326,0.916991383 Z" id="Path"></path>
                    </g>
                </g>
                <g id="SkillOrb" transform="translate(0.000000, 232.000000)">
                    <circle id="Oval" fill="#27BAFF" cx="43" cy="43" r="43"></circle>
                    <g id="flag" transform="translate(21.500000, 21.375000)" fill="#FFFFFF" fill-rule="nonzero">
                        <path d="M5.375,41.65625 C5.375,42.3953115 4.76611328,43 4.03125,43 L1.34375,43 C0.608886719,43 0,42.3953115 0,41.65625 L0,2.6875 C0,1.19677734 1.19677734,0 2.6875,0 C4.17822266,0 5.375,1.19677734 5.375,2.6875 L5.375,41.65625 Z M40.0017568,0 C41.5974599,0 43,0.932227075 43,2.58084077 L43,27.8912115 C43,28.9242182 42.336524,29.8900385 41.1985367,30.3049216 C37.5804884,31.7426491 34.5478138,32.2441205 31.8678721,32.2441205 C25.6782227,32.2441205 21.3723447,29.5750971 15.1885747,29.5750971 C13.0906441,29.5750971 10.75,29.9207766 8.0625,30.7592773 L8.0625,1.32275391 C11.0523443,0.408752322 13.5130854,0.0256581903 15.5589436,0.0254480243 C21.3614237,0.0262861252 24.2882797,2.70202965 29.3239821,2.70202965 C31.6957026,2.70202965 34.540253,2.10741884 38.3774993,0.355506003 C38.9091192,0.113379419 39.4671971,0 40.0017568,0 Z" id="Shape"></path>
                    </g>
                </g>
            </g>
        </g>
        <g id="Group-2" transform="translate(671.790391, 34.368816)">
            <rect id="Rectangle" fill="#798CA3" opacity="0.13155692" x="0" y="0" width="108" height="542" rx="54"></rect>
            <g id="Oval-2" transform="translate(11.209609, 15.631184)">
                <mask id="mask-6" fill="white">
                    <use xlink:href="#path-5"></use>
                </mask>
                <use id="Oval" fill="#27BAFF" xlink:href="#path-5"></use>
                <g id="doctor-1" mask="url(#mask-6)">
                    <g transform="translate(12.983523, 9.000000)">
                        <g id="face-white" transform="translate(9.391606, 21.400000)">
                            <path d="M40.2497409,3.55271368e-15 L40.2497409,9.349125 C40.2497409,17.57475 35.2856062,24.650125 28.1748187,27.73975 C25.7061679,28.80975 22.9826021,29.411625 20.1248705,29.411625 C17.2671389,29.411625 14.5435731,28.80975 12.0749223,27.73975 C4.96413472,24.650125 -3.55271368e-15,17.57475 -3.55271368e-15,9.349125 L-3.55271368e-15,3.55271368e-15 L40.2497409,3.55271368e-15 Z" id="Path" fill="#EAC6BB" fill-rule="nonzero"></path>
                            <path d="M34.8777422,3.55271368e-15 L34.8777422,9.349125 C34.8777422,17.57475 29.9136075,24.650125 22.8028199,27.73975 C21.123064,28.4686875 19.3171923,28.9582125 17.4388711,29.211 C18.3203404,29.3287 19.212543,29.411625 20.1248705,29.411625 C22.9826021,29.411625 25.7061679,28.80975 28.1748187,27.73975 C35.2856062,24.650125 40.2497409,17.57475 40.2497409,9.349125 L40.2497409,3.55271368e-15 L34.8777422,3.55271368e-15 Z" id="Path" fill="#D3B1A9" fill-rule="nonzero"></path>
                            <path d="M28.1748187,27.73975 L28.1748187,45.461625 L12.0749223,45.461625 L12.0749223,27.73975 C14.5435731,28.80975 17.2671389,29.411625 20.1248705,29.411625 C22.9826021,29.411625 25.7061679,28.80975 28.1748187,27.73975 Z" id="Path" fill="#EAC6BB" fill-rule="nonzero"></path>
                        </g>
                        <g id="body-coat" transform="translate(0.000000, 50.290000)">
                            <path d="M59.0329534,16.585 L59.0329534,25.9475 C59.0329534,26.683125 58.4426238,27.285 57.6912953,27.285 L1.34165803,27.285 C0.603746114,27.285 8.8817842e-16,26.683125 8.8817842e-16,25.9475 L8.8817842e-16,16.585 C8.8817842e-16,10.67325 4.80313575,5.885 10.7332642,5.885 L20.1248705,5.885 L38.9080829,5.885 L48.2996891,5.885 C54.2298176,5.885 59.0329534,10.67325 59.0329534,16.585 Z" id="Path" fill="#4A4A4A" fill-rule="nonzero"></path>
                            <path d="M29.5164767,2.46923077 C33.3804518,2.46923077 37.0297617,1.58442308 40.2497409,-7.10542736e-15 L40.2497409,6.58461538 L35.9564352,10.7 L29.5164767,8.64230769 L23.0765181,10.7 L18.7832124,6.58461538 L18.7832124,-7.10542736e-15 C22.0031917,1.58442308 25.6525016,2.46923077 29.5164767,2.46923077 Z" id="Path" fill="#6D7278" fill-rule="nonzero"></path>
                            <path d="M48.2996891,5.885 L42.9276904,5.885 C48.8578189,5.885 53.6609546,10.67325 53.6609546,16.585 L53.6609546,25.9475 C53.6609546,26.683125 53.0706251,27.285 52.3192966,27.285 L57.6912953,27.285 C58.4426238,27.285 59.0329534,26.683125 59.0329534,25.9475 L59.0329534,16.585 C59.0329534,10.67325 54.2298176,5.885 48.2996891,5.885 Z" id="Path" fill="#2D2D2A" fill-rule="nonzero"></path>
                            <ellipse id="Oval" fill="#6D7278" cx="29.5164767" cy="12.5725" rx="1.34165803" ry="1.3375"></ellipse>
                            <ellipse id="Oval" fill="#6D7278" cx="29.5164767" cy="17.9225" rx="1.34165803" ry="1.3375"></ellipse>
                            <ellipse id="Oval" fill="#6D7278" cx="29.5164767" cy="23.2725" rx="1.34165803" ry="1.3375"></ellipse>
                        </g>
                        <g id="hair-cap" transform="translate(9.391606, 0.000000)">
                            <g id="Group" transform="translate(-0.000000, 0.000000)" fill-rule="nonzero">
                                <path d="M5.48860104,21.3044643 L0,26.75 L0,16.3366071 C0,7.31516964 7.35655492,0 16.4658031,0 L31.1020725,0 L31.1020725,7.26071429 C36.1515855,7.26071429 40.2497409,11.3267143 40.2497409,16.3366071 L40.2497409,26.75 L34.7611399,21.3044643 C34.7611399,21.3044643 27.9552746,24.9348214 20.1248705,24.9348214 C12.276171,24.9348214 5.48860104,21.3044643 5.48860104,21.3044643 Z" id="Path" fill="#965353"></path>
                                <path d="M31.025842,12.70625 C33.0606341,12.70625 34.7154016,14.3344652 34.7154016,16.3366071 L34.7154016,19.9669643 L40.2497409,25.4125 L40.2497409,16.3366071 C40.2497409,11.3267143 36.1174342,7.26071429 31.025842,7.26071429 L31.025842,0 L25.4915026,0 L25.4915026,7.26071429 C25.4915026,10.2684652 27.9690419,12.70625 31.025842,12.70625 Z" id="Path" fill="#844747"></path>
                            </g>
                        </g>
                    </g>
                </g>
            </g>
            <g id="Group" transform="translate(10.209609, 131.631184)">
                <g id="Check">
                    <circle id="Oval" fill="#00A676" cx="43" cy="43" r="43"></circle>
                    <g id="check" transform="translate(21.124999, 27.625977)" fill="#FFFFFF" fill-rule="nonzero">
                        <path d="M42.8320326,0.916991383 C44.0527357,2.13769451 44.0527357,4.11035195 42.8320326,5.33105507 L17.8320326,30.3310551 C16.6113295,31.5517582 14.638672,31.5517582 13.4179689,30.3310551 L0.915234536,17.8310551 C-0.305078179,16.6103519 -0.305078179,14.6376945 0.915234536,13.4169914 C2.13574246,12.1962883 4.11425754,12.1962883 5.33496067,13.4169914 L15.5371092,23.7001963 L38.4179674,0.916991383 C39.6386705,-0.305663794 41.611328,-0.305663794 42.8320311,0.916991383 L42.8320326,0.916991383 Z" id="Path"></path>
                    </g>
                </g>
                <g id="SkillOrb" transform="translate(0.000000, 116.000000)">
                    <circle id="Oval" fill="#00A676" cx="43" cy="43" r="43"></circle>
                    <g id="check" transform="translate(21.124999, 27.625977)" fill="#FFFFFF" fill-rule="nonzero">
                        <path d="M42.8320326,0.916991383 C44.0527357,2.13769451 44.0527357,4.11035195 42.8320326,5.33105507 L17.8320326,30.3310551 C16.6113295,31.5517582 14.638672,31.5517582 13.4179689,30.3310551 L0.915234536,17.8310551 C-0.305078179,16.6103519 -0.305078179,14.6376945 0.915234536,13.4169914 C2.13574246,12.1962883 4.11425754,12.1962883 5.33496067,13.4169914 L15.5371092,23.7001963 L38.4179674,0.916991383 C39.6386705,-0.305663794 41.611328,-0.305663794 42.8320311,0.916991383 L42.8320326,0.916991383 Z" id="Path"></path>
                    </g>
                </g>
                <g id="SkillOrb" transform="translate(0.000000, 232.000000)">
                    <circle id="Oval" fill="#00A676" cx="43" cy="43" r="43"></circle>
                    <g id="check" transform="translate(21.124999, 27.625977)" fill="#FFFFFF" fill-rule="nonzero">
                        <path d="M42.8320326,0.916991383 C44.0527357,2.13769451 44.0527357,4.11035195 42.8320326,5.33105507 L17.8320326,30.3310551 C16.6113295,31.5517582 14.638672,31.5517582 13.4179689,30.3310551 L0.915234536,17.8310551 C-0.305078179,16.6103519 -0.305078179,14.6376945 0.915234536,13.4169914 C2.13574246,12.1962883 4.11425754,12.1962883 5.33496067,13.4169914 L15.5371092,23.7001963 L38.4179674,0.916991383 C39.6386705,-0.305663794 41.611328,-0.305663794 42.8320311,0.916991383 L42.8320326,0.916991383 Z" id="Path"></path>
                    </g>
                </g>
            </g>
        </g>
    </g>
</svg>