<?xml version="1.0" encoding="UTF-8"?>
<svg width="1047px" height="588px" viewBox="0 0 1047 588" version="1.1" xmlns="http://www.w3.org/2000/svg" xmlns:xlink="http://www.w3.org/1999/xlink">
    <title>svg/skills/personal-skills</title>
    <defs>
        <polygon id="path-1" points="0 0 294 0 0 294"></polygon>
        <polygon id="path-3" points="1.90665432e-14 -1.11912247e-13 294 -1.11912247e-13 1.90665432e-14 294"></polygon>
        <polygon id="path-5" points="0 3.66847872e-14 294 3.66847872e-14 0 294"></polygon>
        <polygon id="path-7" points="-2.01567237e-14 -1.19787046e-13 294 -1.19787046e-13 -2.01567237e-14 294"></polygon>
        <polygon id="path-9" points="-3.07052819e-14 0 294 0 -3.07052819e-14 294"></polygon>
        <polygon id="path-11" points="3.35877178e-14 4.60436431e-14 294 4.60436431e-14 3.35877178e-14 294"></polygon>
        <polygon id="path-13" points="0 -3.20075805e-15 294 -3.20075805e-15 0 294"></polygon>
        <polygon id="path-15" points="-3.37106457e-14 2.75842492e-14 294 2.75842492e-14 -3.37106457e-14 294"></polygon>
    </defs>
    <g id="svg/skills/personal-skills" stroke="none" stroke-width="1" fill="none" fill-rule="evenodd">
        <g id="Personal-skills" transform="translate(108.542495, -121.179639)">
            <g id="SkillCirclePart" transform="translate(419.457505, 116.179639)">
                <mask id="mask-2" fill="white">
                    <use xlink:href="#path-1"></use>
                </mask>
                <g id="Rectangle"></g>
                <g id="SkillCircleFill" mask="url(#mask-2)" fill="#00A676">
                    <g transform="translate(-178.000000, 126.000000)" id="Oval-2">
                        <path d="M174,0 C270.097546,0 348,77.9024535 348,174 C348,270.097546 270.097546,348 174,348 C77.9024535,348 0,270.097546 0,174 C0,77.9024535 77.9024535,0 174,0 Z M174,41 C100.546128,41 41,100.546128 41,174 C41,247.453872 100.546128,307 174,307 C247.453872,307 307,247.453872 307,174 C307,100.546128 247.453872,41 174,41 Z"></path>
                    </g>
                </g>
            </g>
            <g id="SkillCirclePart" transform="translate(629.528573, 413.765426) rotate(-315.000000) translate(-629.528573, -413.765426) translate(482.528573, 266.765426)">
                <mask id="mask-4" fill="white">
                    <use xlink:href="#path-3"></use>
                </mask>
                <g id="Rectangle"></g>
                <g id="SkillCircleFill" mask="url(#mask-4)" fill="#00A676">
                    <g transform="translate(-233.000000, 71.000000)" id="Oval-2">
                        <path d="M229,0 C355.473208,0 458,102.526792 458,229 C458,355.473208 355.473208,458 229,458 C102.526792,458 0,355.473208 0,229 C0,102.526792 102.526792,0 229,0 Z M229,96 C155.546128,96 96,155.546128 96,229 C96,302.453872 155.546128,362 229,362 C302.453872,362 362,302.453872 362,229 C362,155.546128 302.453872,96 229,96 Z"></path>
                    </g>
                </g>
            </g>
            <g id="SkillCirclePart" transform="translate(567.457505, 566.179639) rotate(-270.000000) translate(-567.457505, -566.179639) translate(420.457505, 419.179639)">
                <mask id="mask-6" fill="white">
                    <use xlink:href="#path-5"></use>
                </mask>
                <g id="Rectangle"></g>
                <g id="SkillCircleFill" mask="url(#mask-6)" fill="#00A676">
                    <g transform="translate(-178.000000, 126.000000)" id="Oval-2">
                        <path d="M174,0 C270.097546,0 348,77.9024535 348,174 C348,270.097546 270.097546,348 174,348 C77.9024535,348 0,270.097546 0,174 C0,77.9024535 77.9024535,0 174,0 Z M174,41 C100.546128,41 41,100.546128 41,174 C41,247.453872 100.546128,307 174,307 C247.453872,307 307,247.453872 307,174 C307,100.546128 247.453872,41 174,41 Z"></path>
                    </g>
                </g>
            </g>
            <g id="SkillCirclePart" transform="translate(415.871718, 630.250707) rotate(-225.000000) translate(-415.871718, -630.250707) translate(268.871718, 483.250707)">
                <mask id="mask-8" fill="white">
                    <use xlink:href="#path-7"></use>
                </mask>
                <g id="Rectangle"></g>
                <g id="SkillCircleFill" mask="url(#mask-8)" fill="#00A676">
                    <g transform="translate(-200.000000, 104.000000)" id="Oval-2">
                        <path d="M196,0 C304.247811,0 392,87.752189 392,196 C392,304.247811 304.247811,392 196,392 C87.752189,392 0,304.247811 0,196 C0,87.752189 87.752189,0 196,0 Z M196,63 C122.546128,63 63,122.546128 63,196 C63,269.453872 122.546128,329 196,329 C269.453872,329 329,269.453872 329,196 C329,122.546128 269.453872,63 196,63 Z"></path>
                    </g>
                </g>
            </g>
            <g id="SkillCirclePart" transform="translate(264.889394, 567.889394) rotate(-180.000000) translate(-264.889394, -567.889394) translate(117.889394, 420.889394)">
                <mask id="mask-10" fill="white">
                    <use xlink:href="#path-9"></use>
                </mask>
                <g id="Rectangle"></g>
                <g id="SkillCircleFill" mask="url(#mask-10)" fill="#00A676">
                    <g transform="translate(-178.000000, 126.000000)" id="Oval-2">
                        <path d="M174,0 C270.097546,0 348,77.9024535 348,174 C348,270.097546 270.097546,348 174,348 C77.9024535,348 0,270.097546 0,174 C0,77.9024535 77.9024535,0 174,0 Z M174,41 C100.546128,41 41,100.546128 41,174 C41,247.453872 100.546128,307 174,307 C247.453872,307 307,247.453872 307,174 C307,100.546128 247.453872,41 174,41 Z"></path>
                    </g>
                </g>
            </g>
            <g id="SkillCirclePart" transform="translate(200.818326, 416.303607) rotate(-135.000000) translate(-200.818326, -416.303607) translate(53.818326, 269.303607)">
                <mask id="mask-12" fill="white">
                    <use xlink:href="#path-11"></use>
                </mask>
                <g id="Rectangle"></g>
                <g id="SkillCircleFill" mask="url(#mask-12)" fill="#00A676">
                    <g transform="translate(-233.000000, 71.000000)" id="Oval-2">
                        <path d="M229,0 C355.473208,0 458,102.526792 458,229 C458,355.473208 355.473208,458 229,458 C102.526792,458 0,355.473208 0,229 C0,102.526792 102.526792,0 229,0 Z M229,96 C155.546128,96 96,155.546128 96,229 C96,302.453872 155.546128,362 229,362 C302.453872,362 362,302.453872 362,229 C362,155.546128 302.453872,96 229,96 Z"></path>
                    </g>
                </g>
            </g>
            <g id="SkillCirclePart" transform="translate(262.889394, 264.889394) rotate(-90.000000) translate(-262.889394, -264.889394) translate(115.889394, 117.889394)">
                <mask id="mask-14" fill="white">
                    <use xlink:href="#path-13"></use>
                </mask>
                <g id="Rectangle"></g>
                <g id="SkillCircleFill" mask="url(#mask-14)" fill="#00A676">
                    <g transform="translate(-200.000000, 104.000000)" id="Oval-2">
                        <path d="M196,0 C304.247811,0 392,87.752189 392,196 C392,304.247811 304.247811,392 196,392 C87.752189,392 0,304.247811 0,196 C0,87.752189 87.752189,0 196,0 Z M196,63 C122.546128,63 63,122.546128 63,196 C63,269.453872 122.546128,329 196,329 C269.453872,329 329,269.453872 329,196 C329,122.546128 269.453872,63 196,63 Z"></path>
                    </g>
                </g>
            </g>
            <g id="SkillCirclePart" transform="translate(414.475180, 200.818326) rotate(-45.000000) translate(-414.475180, -200.818326) translate(267.475180, 53.818326)">
                <mask id="mask-16" fill="white">
                    <use xlink:href="#path-15"></use>
                </mask>
                <g id="Rectangle"></g>
                <g id="SkillCircleFill" mask="url(#mask-16)" fill="#00A676">
                    <g transform="translate(-233.000000, 71.000000)" id="Oval-2">
                        <path d="M229,0 C355.473208,0 458,102.526792 458,229 C458,355.473208 355.473208,458 229,458 C102.526792,458 0,355.473208 0,229 C0,102.526792 102.526792,0 229,0 Z M229,96 C155.546128,96 96,155.546128 96,229 C96,302.453872 155.546128,362 229,362 C302.453872,362 362,302.453872 362,229 C362,155.546128 302.453872,96 229,96 Z"></path>
                    </g>
                </g>
            </g>
        </g>
        <g id="doctor-1" transform="translate(416.850000, 87.000000)">
            <g id="hair-cap" transform="translate(19.300000, 0.000000)">
                <path d="M86.85,0 C134.834625,0 173.7,34.547 173.7,77.2 L157.415625,77.2 L151.9875,77.2 L130.275,77.2 L108.5625,77.2 L86.85,77.2 L65.1375,77.2 L43.425,77.2 L21.7125,77.2 L16.284375,77.2 L-7.10542736e-15,77.2 C-7.10542736e-15,34.547 38.865375,0 86.85,0 Z" id="Path" fill="#965353" fill-rule="nonzero"></path>
                <rect id="Rectangle" fill="#844747" x="-7.10542736e-15" y="77.2" width="173.7" height="197.825"></rect>
                <path d="M85.4764699,0 C82.6808868,0 79.9239015,0.139925 77.2,0.3667 C122.050637,4.019225 157.141546,36.993275 157.141546,77.2 L157.158088,77.2 L173.7,77.2 C173.7,34.547 134.21997,0 85.4764699,0 Z" id="Path" fill="#844747" fill-rule="nonzero"></path>
            </g>
            <g id="face-white" transform="translate(33.775000, 77.200000)" fill-rule="nonzero">
                <path d="M144.75,1.42108547e-14 L144.75,33.72675 C144.75,63.4005 126.8975,88.92475 101.325,100.0705 C92.447,103.9305 82.65225,106.10175 72.375,106.10175 C62.09775,106.10175 52.303,103.9305 43.425,100.0705 C17.8525,88.92475 0,63.4005 0,33.72675 L0,1.42108547e-14 L144.75,1.42108547e-14 Z" id="Path" fill="#EAC6BB"></path>
                <path d="M125.4307,1.42108547e-14 L125.4307,33.72675 C125.4307,63.4005 107.5782,88.92475 82.0057,100.0705 C75.9648,102.700125 69.47035,104.466075 62.71535,105.378 C65.885375,105.8026 69.094,106.10175 72.375,106.10175 C82.65225,106.10175 92.447,103.9305 101.325,100.0705 C126.8975,88.92475 144.75,63.4005 144.75,33.72675 L144.75,1.42108547e-14 L125.4307,1.42108547e-14 Z" id="Path" fill="#D3B1A9"></path>
                <path d="M101.325,100.0705 L101.325,164.00175 L43.425,164.00175 L43.425,100.0705 C52.303,103.9305 62.09775,106.10175 72.375,106.10175 C82.65225,106.10175 92.447,103.9305 101.325,100.0705 Z" id="Path" fill="#EAC6BB"></path>
            </g>
            <g id="body-coat" transform="translate(0.000000, 181.420000)">
                <path d="M212.3,59.83 L212.3,93.605 C212.3,96.25875 210.177,98.43 207.475,98.43 L4.825,98.43 C2.17125,98.43 5.32907052e-15,96.25875 5.32907052e-15,93.605 L5.32907052e-15,59.83 C5.32907052e-15,38.5035 17.2735,21.23 38.6,21.23 L72.375,21.23 L139.925,21.23 L173.7,21.23 C195.0265,21.23 212.3,38.5035 212.3,59.83 Z" id="Path" fill="#FCBA04" fill-rule="nonzero"></path>
                <path d="M106.15,8.90769231 C120.046,8.90769231 133.17,5.71576923 144.75,0 L144.75,23.7538462 L129.31,38.6 L106.15,31.1769231 L82.99,38.6 L67.55,23.7538462 L67.55,0 C79.13,5.71576923 92.254,8.90769231 106.15,8.90769231 Z" id="Path" fill="#FFD971" fill-rule="nonzero"></path>
                <path d="M173.7,21.23 L154.3807,21.23 C175.7072,21.23 192.9807,38.5035 192.9807,59.83 L192.9807,93.605 C192.9807,96.25875 190.8577,98.43 188.1557,98.43 L207.475,98.43 C210.177,98.43 212.3,96.25875 212.3,93.605 L212.3,59.83 C212.3,38.5035 195.0265,21.23 173.7,21.23 Z" id="Path" fill="#DAA000" fill-rule="nonzero"></path>
                <circle id="Oval" fill="#FFD971" cx="106.15" cy="45.355" r="4.825"></circle>
            </g>
        </g>
    </g>
</svg>