<?xml version="1.0" encoding="UTF-8"?>
<svg width="1047px" height="588px" viewBox="0 0 1047 588" version="1.1" xmlns="http://www.w3.org/2000/svg" xmlns:xlink="http://www.w3.org/1999/xlink">
    <title>svg/skills/professional-skills</title>
    <defs>
        <polygon id="path-1" points="0 0 294 0 0 294"></polygon>
        <polygon id="path-3" points="1.90665432e-14 -1.11912247e-13 294 -1.11912247e-13 1.90665432e-14 294"></polygon>
        <polygon id="path-5" points="0 3.66847872e-14 294 3.66847872e-14 0 294"></polygon>
        <polygon id="path-7" points="-5.34548275e-14 -8.64889417e-14 294 -8.64889417e-14 -5.34548275e-14 294"></polygon>
        <polygon id="path-9" points="-3.07052819e-14 0 294 0 -3.07052819e-14 294"></polygon>
        <polygon id="path-11" points="3.35877178e-14 4.60436431e-14 294 4.60436431e-14 3.35877178e-14 294"></polygon>
        <polygon id="path-13" points="0 -3.20075805e-15 294 -3.20075805e-15 0 294"></polygon>
        <polygon id="path-15" points="-3.37106457e-14 2.75842492e-14 294 2.75842492e-14 -3.37106457e-14 294"></polygon>
    </defs>
    <g id="svg/skills/professional-skills" stroke="none" stroke-width="1" fill="none" fill-rule="evenodd">
        <g id="Pro-skills" transform="translate(108.542495, -121.179639)">
            <g id="SkillCirclePart" transform="translate(419.457505, 116.179639)">
                <mask id="mask-2" fill="white">
                    <use xlink:href="#path-1"></use>
                </mask>
                <g id="Rectangle"></g>
                <g id="SkillCircleFill" mask="url(#mask-2)" fill="#27BAFF">
                    <g transform="translate(-270.000000, 34.000000)" id="Oval-2">
                        <path d="M266,0 C412.907743,0 532,119.092257 532,266 C532,412.907743 412.907743,532 266,532 C119.092257,532 0,412.907743 0,266 C0,119.092257 119.092257,0 266,0 Z M266,86 C166.588745,86 86,166.588745 86,266 C86,365.411255 166.588745,446 266,446 C365.411255,446 446,365.411255 446,266 C446,166.588745 365.411255,86 266,86 Z"></path>
                    </g>
                </g>
            </g>
            <g id="SkillCirclePart" transform="translate(629.528573, 413.765426) rotate(-315.000000) translate(-629.528573, -413.765426) translate(482.528573, 266.765426)">
                <mask id="mask-4" fill="white">
                    <use xlink:href="#path-3"></use>
                </mask>
                <g id="Rectangle"></g>
                <g id="SkillCircleFill" mask="url(#mask-4)" fill="#27BAFF">
                    <g transform="translate(-270.000000, 34.000000)" id="Oval-2">
                        <path d="M266,532 C412.907743,532 532,412.907743 532,266 C532,119.092257 412.907743,0 266,0 C119.092257,0 0,119.092257 0,266 C0,412.907743 119.092257,532 266,532 Z M266,500 C395.234631,500 500,395.234631 500,266 C500,136.765369 395.234631,32 266,32 C136.765369,32 32,136.765369 32,266 C32,395.234631 136.765369,500 266,500 Z"></path>
                    </g>
                </g>
            </g>
            <g id="SkillCirclePart" transform="translate(567.457505, 566.179639) rotate(-270.000000) translate(-567.457505, -566.179639) translate(420.457505, 419.179639)">
                <mask id="mask-6" fill="white">
                    <use xlink:href="#path-5"></use>
                </mask>
                <g id="Rectangle"></g>
                <g id="SkillCircleFill" mask="url(#mask-6)" fill="#27BAFF">
                    <g transform="translate(-270.000000, 34.000000)" id="Oval-2">
                        <path d="M266,0 C412.907743,0 532,119.092257 532,266 C532,412.907743 412.907743,532 266,532 C119.092257,532 0,412.907743 0,266 C0,119.092257 119.092257,0 266,0 Z M266,86 C166.588745,86 86,166.588745 86,266 C86,365.411255 166.588745,446 266,446 C365.411255,446 446,365.411255 446,266 C446,166.588745 365.411255,86 266,86 Z"></path>
                    </g>
                </g>
            </g>
            <g id="SkillCirclePart" transform="translate(415.871718, 630.250707) rotate(-225.000000) translate(-415.871718, -630.250707) translate(268.871718, 483.250707)">
                <mask id="mask-8" fill="white">
                    <use xlink:href="#path-7"></use>
                </mask>
                <g id="Rectangle"></g>
                <g id="SkillCircleFill" mask="url(#mask-8)" fill="#27BAFF">
                    <g transform="translate(-270.000000, 34.000000)" id="Oval-2">
                        <path d="M266,532 C412.907743,532 532,412.907743 532,266 C532,119.092257 412.907743,0 266,0 C119.092257,0 0,119.092257 0,266 C0,412.907743 119.092257,532 266,532 Z M266,468 C377.561519,468 468,377.561519 468,266 C468,154.438481 377.561519,64 266,64 C154.438481,64 64,154.438481 64,266 C64,377.561519 154.438481,468 266,468 Z"></path>
                    </g>
                </g>
            </g>
            <g id="SkillCirclePart" transform="translate(264.889394, 567.889394) rotate(-180.000000) translate(-264.889394, -567.889394) translate(117.889394, 420.889394)">
                <mask id="mask-10" fill="white">
                    <use xlink:href="#path-9"></use>
                </mask>
                <g id="Rectangle"></g>
                <g id="SkillCircleFill" mask="url(#mask-10)" fill="#27BAFF">
                    <g transform="translate(-270.000000, 34.000000)" id="Oval-2">
                        <path d="M266,0 C412.907743,0 532,119.092257 532,266 C532,412.907743 412.907743,532 266,532 C119.092257,532 0,412.907743 0,266 C0,119.092257 119.092257,0 266,0 Z M266,86 C166.588745,86 86,166.588745 86,266 C86,365.411255 166.588745,446 266,446 C365.411255,446 446,365.411255 446,266 C446,166.588745 365.411255,86 266,86 Z"></path>
                    </g>
                </g>
            </g>
            <g id="SkillCirclePart" transform="translate(200.818326, 416.303607) rotate(-135.000000) translate(-200.818326, -416.303607) translate(53.818326, 269.303607)">
                <mask id="mask-12" fill="white">
                    <use xlink:href="#path-11"></use>
                </mask>
                <g id="Rectangle"></g>
                <g id="SkillCircleFill" mask="url(#mask-12)" fill="#27BAFF">
                    <g transform="translate(-270.000000, 34.000000)" id="Oval-2">
                        <path d="M266,532 C412.907743,532 532,412.907743 532,266 C532,119.092257 412.907743,0 266,0 C119.092257,0 0,119.092257 0,266 C0,412.907743 119.092257,532 266,532 Z M266,500 C395.234631,500 500,395.234631 500,266 C500,136.765369 395.234631,32 266,32 C136.765369,32 32,136.765369 32,266 C32,395.234631 136.765369,500 266,500 Z"></path>
                    </g>
                </g>
            </g>
            <g id="SkillCirclePart" transform="translate(262.889394, 264.889394) rotate(-90.000000) translate(-262.889394, -264.889394) translate(115.889394, 117.889394)">
                <mask id="mask-14" fill="white">
                    <use xlink:href="#path-13"></use>
                </mask>
                <g id="Rectangle"></g>
                <g id="SkillCircleFill" mask="url(#mask-14)" fill="#27BAFF">
                    <g transform="translate(-270.000000, 34.000000)" id="Oval-2">
                        <path d="M266,532 C412.907743,532 532,412.907743 532,266 C532,119.092257 412.907743,0 266,0 C119.092257,0 0,119.092257 0,266 C0,412.907743 119.092257,532 266,532 Z M266,468 C377.561519,468 468,377.561519 468,266 C468,154.438481 377.561519,64 266,64 C154.438481,64 64,154.438481 64,266 C64,377.561519 154.438481,468 266,468 Z"></path>
                    </g>
                </g>
            </g>
            <g id="SkillCirclePart" transform="translate(414.475180, 200.818326) rotate(-45.000000) translate(-414.475180, -200.818326) translate(267.475180, 53.818326)">
                <mask id="mask-16" fill="white">
                    <use xlink:href="#path-15"></use>
                </mask>
                <g id="Rectangle"></g>
                <g id="SkillCircleFill" mask="url(#mask-16)" fill="#27BAFF">
                    <g transform="translate(-270.000000, 34.000000)" id="Oval-2">
                        <path d="M266,532 C412.907743,532 532,412.907743 532,266 C532,119.092257 412.907743,0 266,0 C119.092257,0 0,119.092257 0,266 C0,412.907743 119.092257,532 266,532 Z M266,500 C395.234631,500 500,395.234631 500,266 C500,136.765369 395.234631,32 266,32 C136.765369,32 32,136.765369 32,266 C32,395.234631 136.765369,500 266,500 Z"></path>
                    </g>
                </g>
            </g>
        </g>
        <g id="Suitcase" transform="translate(394.117647, 188.000000)" fill-rule="nonzero">
            <path d="M242.070209,21.8235294 L229.549336,21.8235294 L191.986717,21.8235294 L70.9516129,21.8235294 L33.3889943,21.8235294 L16.6944972,21.8235294 C7.51252372,21.8235294 5.68434189e-14,30.3291721 5.68434189e-14,40.8411765 L5.68434189e-14,164.455882 L5.68434189e-14,192.982353 C5.68434189e-14,203.437304 7.51252372,212 16.6944972,212 L242.070209,212 C251.252182,212 258.764706,203.437304 258.764706,192.982353 L258.764706,164.455882 L258.764706,40.8411765 C258.764706,30.3291721 251.252182,21.8235294 242.070209,21.8235294 Z" id="Path" fill="#656D78"></path>
            <rect id="Rectangle" fill="#656D78" x="190.176471" y="21.8235294" width="37.4117647" height="24.9411765"></rect>
            <rect id="Rectangle" fill="#656D78" x="31.1764706" y="21.8235294" width="37.4117647" height="24.9411765"></rect>
            <path d="M31.1764706,21.8235294 L31.1764706,46.1411765 L15.5882353,46.1411765 C7.01470588,46.1411765 5.68434189e-14,53.3918882 5.68434189e-14,62.3529412 L5.68434189e-14,38.0352941 C5.68434189e-14,29.1147706 7.01470588,21.8235294 15.5882353,21.8235294 L31.1764706,21.8235294 Z" id="Path" fill="#515861"></path>
            <polygon id="Path" fill="#515861" points="190.176471 46.7647059 68.5882353 46.7647059 68.5882353 21.8235294 89.5517241 21.8235294 89.5517241 34.2941176 102.129817 34.2941176 102.129817 21.8235294 152.106775 21.8235294 152.442191 21.8235294 152.442191 34.2941176 165.020284 34.2941176 165.020284 21.8235294 190.176471 21.8235294"></polygon>
            <path d="M258.764706,38.0352941 L258.764706,62.3529412 C258.764706,53.3918882 250.747899,46.1411765 240.94958,46.1411765 L227.588235,46.1411765 L227.588235,21.8235294 L240.94958,21.8235294 C250.747899,21.8235294 258.764706,29.1147706 258.764706,38.0352941 Z" id="Path" fill="#515861"></path>
            <path d="M55.4941176,37.4117647 L44.2705882,37.4117647 C42.2017176,37.4117647 40.5294118,35.3213824 40.5294118,32.7352941 C40.5294118,30.1492059 42.2017176,28.0588235 44.2705882,28.0588235 L55.4941176,28.0588235 C57.5629882,28.0588235 59.2352941,30.1492059 59.2352941,32.7352941 C59.2352941,35.3213824 57.5629882,37.4117647 55.4941176,37.4117647 Z" id="Path" fill="#545C66"></path>
            <path d="M214.494118,37.4117647 L203.270588,37.4117647 C201.201718,37.4117647 199.529412,35.3213824 199.529412,32.7352941 C199.529412,30.1492059 201.201718,28.0588235 203.270588,28.0588235 L214.494118,28.0588235 C216.562988,28.0588235 218.235294,30.1492059 218.235294,32.7352941 C218.235294,35.3213824 216.562988,37.4117647 214.494118,37.4117647 Z" id="Path" fill="#545C66"></path>
            <path d="M107.781513,37.4117647 L85.512605,37.4117647 C83.0496639,37.4117647 81.0588235,35.3213824 81.0588235,32.7352941 C81.0588235,30.1492059 83.0496639,28.0588235 85.512605,28.0588235 L107.781513,28.0588235 C110.244454,28.0588235 112.235294,30.1492059 112.235294,32.7352941 C112.235294,35.3213824 110.244454,37.4117647 107.781513,37.4117647 Z" id="Path" fill="#42464A"></path>
            <path d="M170.134454,37.4117647 L147.865546,37.4117647 C145.402605,37.4117647 143.411765,35.3213824 143.411765,32.7352941 C143.411765,30.1492059 145.402605,28.0588235 147.865546,28.0588235 L170.134454,28.0588235 C172.597395,28.0588235 174.588235,30.1492059 174.588235,32.7352941 C174.588235,35.3213824 172.597395,37.4117647 170.134454,37.4117647 Z" id="Path" fill="#42464A"></path>
            <g id="Group" transform="translate(90.411765, 0.000000)" fill="#E6E9ED">
                <polygon id="Path" points="74.8235294 24.9411765 74.8235294 37.4117647 62.3529412 37.4117647 62.3529412 24.9411765 62.3529412 16.627451 74.8235294 16.627451"></polygon>
                <path d="M74.8235294,8.31372549 L74.8235294,16.627451 L62.3529412,16.627451 L12.4705882,16.627451 L0,16.627451 L0,8.31372549 C0,3.70376471 3.69960784,0 8.31372549,0 L66.5098039,0 C71.1239216,0 74.8235294,3.70376471 74.8235294,8.31372549 Z" id="Path"></path>
                <polygon id="Path" points="12.4705882 24.9411765 12.4705882 37.4117647 0 37.4117647 0 24.9411765 0 16.627451 12.4705882 16.627451"></polygon>
            </g>
        </g>
    </g>
</svg>