<?xml version="1.0" encoding="UTF-8"?>
<svg width="1047px" height="588px" viewBox="0 0 1047 588" version="1.1" xmlns="http://www.w3.org/2000/svg" xmlns:xlink="http://www.w3.org/1999/xlink">
    <title>svg/skills/subset</title>
    <g id="svg/skills/subset" stroke="none" stroke-width="1" fill="none" fill-rule="evenodd">
        <g id="Group" transform="translate(-0.209609, -2.631184)">
            <g id="Group-2">
                <path d="M104.699278,40.3658074 L393.831118,151.837829 C433.510193,167.135718 453.275049,211.703352 437.97716,251.382427 C429.323457,273.82807 410.67693,290.939587 387.57226,297.637922 L98.4404197,381.460883 C57.5963266,393.3021 14.8864442,369.790623 3.04522732,328.94653 C1.0252124,321.978861 1.5099284e-14,314.760686 0,307.50611 L0,112.211127 C9.00293083e-15,69.6852018 34.4740743,35.2111275 77,35.2111275 C86.4715403,35.2111275 95.8617991,36.9586019 104.699278,40.3658074 Z" id="Rectangle" fill="#798CA3" opacity="0.12655785" transform="translate(303.500000, 205.000000) rotate(-180.000000) translate(-303.500000, -205.000000) "></path>
                <g id="doctor-1" transform="translate(200.469609, 82.631184)">
                    <g id="hair-cap" transform="translate(9.680000, 0.000000)">
                        <path d="M43.56,0 C67.6269,0 87.12,17.2735 87.12,38.6 L78.9525,38.6 L76.23,38.6 L65.34,38.6 L54.45,38.6 L43.56,38.6 L32.67,38.6 L21.78,38.6 L10.89,38.6 L8.1675,38.6 L3.55271368e-15,38.6 C3.55271368e-15,17.2735 19.4931,0 43.56,0 Z" id="Path" fill="#965353" fill-rule="nonzero"></path>
                        <rect id="Rectangle" fill="#844747" x="3.55271368e-15" y="38.6" width="87.12" height="98.9125"></rect>
                        <path d="M42.8710999,0 C41.4689629,0 40.0861848,0.0699625 38.72,0.18335 C61.2150346,2.0096125 78.8150346,18.4966375 78.8150346,38.6 L78.8233312,38.6 L87.12,38.6 C87.12,17.2735 67.3186172,0 42.8710999,0 Z" id="Path" fill="#844747" fill-rule="nonzero"></path>
                    </g>
                    <g id="face-white" transform="translate(16.940000, 38.600000)" fill-rule="nonzero">
                        <path d="M72.6,7.10542736e-15 L72.6,16.863375 C72.6,31.70025 63.646,44.462375 50.82,50.03525 C46.3672,51.96525 41.4546,53.050875 36.3,53.050875 C31.1454,53.050875 26.2328,51.96525 21.78,50.03525 C8.954,44.462375 -3.55271368e-15,31.70025 -3.55271368e-15,16.863375 L-3.55271368e-15,7.10542736e-15 L72.6,7.10542736e-15 Z" id="Path" fill="#EAC6BB"></path>
                        <path d="M62.91032,7.10542736e-15 L62.91032,16.863375 C62.91032,31.70025 53.95632,44.462375 41.13032,50.03525 C38.10048,51.3500625 34.84316,52.2330375 31.45516,52.689 C33.0451,52.9013 34.6544,53.050875 36.3,53.050875 C41.4546,53.050875 46.3672,51.96525 50.82,50.03525 C63.646,44.462375 72.6,31.70025 72.6,16.863375 L72.6,7.10542736e-15 L62.91032,7.10542736e-15 Z" id="Path" fill="#D3B1A9"></path>
                        <path d="M50.82,50.03525 L50.82,82.000875 L21.78,82.000875 L21.78,50.03525 C26.2328,51.96525 31.1454,53.050875 36.3,53.050875 C41.4546,53.050875 46.3672,51.96525 50.82,50.03525 Z" id="Path" fill="#EAC6BB"></path>
                    </g>
                    <g id="body-coat" transform="translate(-0.000000, 90.710000)">
                        <path d="M106.48,29.915 L106.48,46.8025 C106.48,48.129375 105.4152,49.215 104.06,49.215 L2.42,49.215 C1.089,49.215 1.77635684e-15,48.129375 1.77635684e-15,46.8025 L1.77635684e-15,29.915 C1.77635684e-15,19.25175 8.6636,10.615 19.36,10.615 L36.3,10.615 L70.18,10.615 L87.12,10.615 C97.8164,10.615 106.48,19.25175 106.48,29.915 Z" id="Path" fill="#FCBA04" fill-rule="nonzero"></path>
                        <path d="M53.24,4.45384615 C60.2096,4.45384615 66.792,2.85788462 72.6,0 L72.6,11.8769231 L64.856,19.3 L53.24,15.5884615 L41.624,19.3 L33.88,11.8769231 L33.88,0 C39.688,2.85788462 46.2704,4.45384615 53.24,4.45384615 Z" id="Path" fill="#FFD971" fill-rule="nonzero"></path>
                        <path d="M87.12,10.615 L77.43032,10.615 C88.12672,10.615 96.79032,19.25175 96.79032,29.915 L96.79032,46.8025 C96.79032,48.129375 95.72552,49.215 94.37032,49.215 L104.06,49.215 C105.4152,49.215 106.48,48.129375 106.48,46.8025 L106.48,29.915 C106.48,19.25175 97.8164,10.615 87.12,10.615 Z" id="Path" fill="#DAA000" fill-rule="nonzero"></path>
                        <ellipse id="Oval" fill="#FFD971" cx="53.24" cy="22.6775" rx="2.42" ry="2.4125"></ellipse>
                    </g>
                </g>
            </g>
            <g id="Group-2" transform="translate(443.000000, 181.000000)">
                <path d="M104.699278,40.3658074 L393.831118,151.837829 C433.510193,167.135718 453.275049,211.703352 437.97716,251.382427 C429.323457,273.82807 410.67693,290.939587 387.57226,297.637922 L98.4404197,381.460883 C57.5963266,393.3021 14.8864442,369.790623 3.04522732,328.94653 C1.0252124,321.978861 1.5099284e-14,314.760686 0,307.50611 L0,112.211127 C9.00293083e-15,69.6852018 34.4740743,35.2111275 77,35.2111275 C86.4715403,35.2111275 95.8617991,36.9586019 104.699278,40.3658074 Z" id="Rectangle" fill="#798CA3" opacity="0.12655785" transform="translate(303.500000, 205.000000) scale(-1, 1) rotate(-180.000000) translate(-303.500000, -205.000000) "></path>
                <g id="doctor-1" transform="translate(310.469609, 82.631184)">
                    <g id="face-white" transform="translate(16.940000, 38.600000)" fill-rule="nonzero">
                        <path d="M72.6,7.10542736e-15 L72.6,16.863375 C72.6,31.70025 63.646,44.462375 50.82,50.03525 C46.3672,51.96525 41.4546,53.050875 36.3,53.050875 C31.1454,53.050875 26.2328,51.96525 21.78,50.03525 C8.954,44.462375 -3.55271368e-15,31.70025 -3.55271368e-15,16.863375 L-3.55271368e-15,7.10542736e-15 L72.6,7.10542736e-15 Z" id="Path" fill="#AB7969"></path>
                        <path d="M62.91032,7.10542736e-15 L62.91032,16.863375 C62.91032,31.70025 53.95632,44.462375 41.13032,50.03525 C38.10048,51.3500625 34.84316,52.2330375 31.45516,52.689 C33.0451,52.9013 34.6544,53.050875 36.3,53.050875 C41.4546,53.050875 46.3672,51.96525 50.82,50.03525 C63.646,44.462375 72.6,31.70025 72.6,16.863375 L72.6,7.10542736e-15 L62.91032,7.10542736e-15 Z" id="Path" fill="#996559"></path>
                        <path d="M50.82,50.03525 L50.82,82.000875 L21.78,82.000875 L21.78,50.03525 C26.2328,51.96525 31.1454,53.050875 36.3,53.050875 C41.4546,53.050875 46.3672,51.96525 50.82,50.03525 Z" id="Path" fill="#AB7969"></path>
                    </g>
                    <g id="body-coat" transform="translate(0.000000, 90.710000)">
                        <path d="M106.48,29.915 L106.48,46.8025 C106.48,48.129375 105.4152,49.215 104.06,49.215 L2.42,49.215 C1.089,49.215 1.77635684e-15,48.129375 1.77635684e-15,46.8025 L1.77635684e-15,29.915 C1.77635684e-15,19.25175 8.6636,10.615 19.36,10.615 L36.3,10.615 L70.18,10.615 L87.12,10.615 C97.8164,10.615 106.48,19.25175 106.48,29.915 Z" id="Path" fill="#00A676" fill-rule="nonzero"></path>
                        <path d="M53.24,4.45384615 C60.2096,4.45384615 66.792,2.85788462 72.6,0 L72.6,11.8769231 L64.856,19.3 L53.24,15.5884615 L41.624,19.3 L33.88,11.8769231 L33.88,0 C39.688,2.85788462 46.2704,4.45384615 53.24,4.45384615 Z" id="Path" fill="#22C293" fill-rule="nonzero"></path>
                        <path d="M87.12,10.615 L77.43032,10.615 C88.12672,10.615 96.79032,19.25175 96.79032,29.915 L96.79032,46.8025 C96.79032,48.129375 95.72552,49.215 94.37032,49.215 L104.06,49.215 C105.4152,49.215 106.48,48.129375 106.48,46.8025 L106.48,29.915 C106.48,19.25175 97.8164,10.615 87.12,10.615 Z" id="Path" fill="#00966A" fill-rule="nonzero"></path>
                        <ellipse id="Oval" fill="#22C293" cx="53.24" cy="22.6775" rx="2.42" ry="2.4125"></ellipse>
                    </g>
                    <g id="hair-cap" transform="translate(16.940000, 0.000000)" fill-rule="nonzero">
                        <g id="Group" transform="translate(-0.000000, 0.000000)">
                            <path d="M9.9,38.4276786 L0,48.25 L0,29.4669643 C0,13.1946518 13.2693,0 29.7,0 L56.1,0 L56.1,13.0964286 C65.208,13.0964286 72.6,20.4304286 72.6,29.4669643 L72.6,48.25 L62.7,38.4276786 C62.7,38.4276786 50.424,44.9758929 36.3,44.9758929 C22.143,44.9758929 9.9,38.4276786 9.9,38.4276786 Z" id="Path" fill="#965353"></path>
                            <path d="M55.9625,22.91875 C59.6327325,22.91875 62.6175,25.8556241 62.6175,29.4669643 L62.6175,36.0151786 L72.6,45.8375 L72.6,29.4669643 C72.6,20.4304286 65.1464,13.0964286 55.9625,13.0964286 L55.9625,0 L45.98,0 L45.98,13.0964286 C45.98,18.5216241 50.4488325,22.91875 55.9625,22.91875 Z" id="Path" fill="#844747"></path>
                        </g>
                    </g>
                </g>
            </g>
            <g id="SkillOrb" transform="translate(485.209609, 435.631184)" fill="#27BAFF">
                <circle id="Oval" cx="43" cy="43" r="43"></circle>
            </g>
            <g id="SkillOrb" transform="translate(485.209609, 253.631184)" fill="#27BAFF">
                <circle id="Oval" cx="43" cy="43" r="43"></circle>
            </g>
            <g id="SkillOrb" transform="translate(485.209609, 71.631184)" fill="#27BAFF">
                <circle id="Oval" cx="43" cy="43" r="43"></circle>
            </g>
        </g>
    </g>
</svg>